<?xml version="1.0" encoding="UTF-8"?>
<svg width="697px" height="221px" viewBox="0 0 697 221" version="1.1" xmlns="http://www.w3.org/2000/svg" xmlns:xlink="http://www.w3.org/1999/xlink">
    <!-- Generator: Sketch 60.1 (88133) - https://sketch.com -->
    <title>download (12)</title>
    <desc>Created with Sketch.</desc>
    <g id="Page-1" stroke="none" stroke-width="1" fill="none" fill-rule="evenodd" opacity="0.296293713">
        <g id="desktop-landing" transform="translate(-347.000000, -4241.000000)" fill-rule="nonzero">
            <g id="download-(12)" transform="translate(347.000000, 4241.000000)">
                <path d="M107.659125,84.280733 C105.651588,84.3583966 103.692051,83.6540968 102.191691,82.31562 C101.069222,81.2080956 100.235067,79.841655 99.762342,78.33607 C97.3155487,71.2068236 99.0261185,63.3060824 104.201415,57.83298 C106.117143,55.867867 108.032871,54.977793 109.995597,55.165 C111.569226,55.4000337 112.90187,56.4503223 113.500305,57.927144 C114.030627,59.0973583 113.829373,60.4700822 112.985565,61.438116 C112.625763,61.8644427 112.066255,62.0660895 111.517803,61.9670981 C110.969351,61.8681067 110.515277,61.4835161 110.326628,60.958198 C110.137978,60.43288 110.243412,59.8466426 110.603214,59.420316 C110.696091,59.327273 110.603214,59.140066 110.556216,59.092984 C110.411653,58.677724 110.054219,58.3732542 109.621851,58.297074 C108.453615,58.156949 107.238381,59.186027 106.396893,60.029019 C102.023928,64.6519061 100.58307,71.3288662 102.659433,77.348469 C102.985688,78.372484 103.527553,79.3144146 104.248413,80.110613 C106.537887,82.216972 110.603214,80.859441 112.238073,80.203656 C121.770834,76.225227 128.405385,67.658545 134.947059,58.531363 C136.162293,56.799418 137.377527,55.067473 138.498765,53.335528 C137.421228,52.8057038 136.466081,52.0561814 135.694551,51.135005 C134.12903,49.022302 133.277903,46.463966 133.265202,43.832811 C133.016714,39.6896774 134.448746,35.6215655 137.236533,32.551067 C138.857124,30.8376415 141.150925,29.9295604 143.502933,30.070294 C144.912829,30.0958062 146.249391,30.7044204 147.195633,31.751794 C148.080305,32.9669542 148.479441,34.4695873 148.314633,35.964512 C147.936054,41.4046334 146.252821,46.6729372 143.407818,51.322212 C144.035995,51.3270726 144.662875,51.2643101 145.277667,51.135005 C148.114608,50.3601604 150.746741,48.9697929 152.987577,47.062412 C160.746515,41.1085345 167.202222,33.6217917 171.954627,25.06615 C171.062725,24.4596144 170.301646,23.6796392 169.716627,22.772584 C168.792888,21.3380897 168.601953,19.5500672 169.201887,17.952284 C170.035521,15.7809564 172.397216,14.6185122 174.622323,15.284304 C175.646349,15.6662411 176.460014,16.4662809 176.860323,17.484827 C177.409288,19.3812824 177.242806,21.4137646 176.392581,23.195201 C178.589178,23.101037 180.784656,21.884752 183.028251,20.527221 C193.027635,14.535476 200.690547,8.868821 205.690239,0.960166 C205.908031,0.606978936 206.259724,0.357600792 206.664633,0.26924531 C207.069541,0.180889829 207.492907,0.261141308 207.8376,0.491588 C208.190795,0.709519166 208.440147,1.06216679 208.528187,1.46825593 C208.616227,1.87434507 208.53536,2.29884033 208.304223,2.643908 C202.651035,11.585004 193.586016,17.811038 184.613874,23.19408 C181.716783,24.926025 178.632819,26.610888 175.222107,26.236474 C175.082232,26.236474 174.942357,26.189392 174.848361,26.189392 C169.875561,35.2719339 163.06385,43.2137882 154.849593,49.506192 C152.242449,51.7036489 149.176472,53.2872613 145.877451,54.140406 C144.461738,54.4195561 143.010207,54.4668786 141.579372,54.280531 C140.271261,56.298331 138.916152,58.306042 137.467047,60.319358 C130.641147,69.868036 123.683205,78.809132 113.402952,83.068932 C111.573424,83.8049674 109.62958,84.215069 107.659125,84.280733 Z M143.077713,33.071211 C141.711206,33.0844378 140.410266,33.6600634 139.480128,34.663031 C137.315483,37.0977826 136.220466,40.3030491 136.442043,43.555924 C136.41818,45.5199887 137.024183,47.4398748 138.170898,49.03313 C138.739434,49.688255 139.440506,50.2148074 140.22762,50.577868 C143.02512,45.850611 145.03932,40.982108 145.27431,35.786273 C145.377218,35.0621897 145.246256,34.3241141 144.900564,33.679914 C144.494619,33.3036212 143.957264,33.1023068 143.404461,33.119414 C143.299429,33.0833604 143.188661,33.0670195 143.077713,33.071211 L143.077713,33.071211 Z M173.309736,17.998245 C172.753887,18.0653343 172.274556,18.4211078 172.048623,18.93428 C171.7945,19.6246285 171.899337,20.3963468 172.328373,20.993557 C172.595406,21.4304533 172.944671,21.8111814 173.356734,22.114557 C173.967509,21.0020434 174.181815,19.7143027 173.964351,18.46346 C173.903699,18.2610697 173.745636,18.1027248 173.543607,18.041964 C173.473163,18.000411 173.390398,17.9849392 173.309736,17.998245 L173.309736,17.998245 Z" id="Shape" fill="#1A1A1A"></path>
                <path d="M613.990959,220.927471 C613.744446,220.931588 613.501696,220.866324 613.290465,220.738942 C607.636158,217.837794 604.599192,211.330389 604.319442,201.360215 C599.272752,202.343332 593.800842,202.810789 589.647114,199.534106 C587.728872,197.927003 586.263065,195.845701 585.394914,193.4964 C582.31095,186.0978 582.497823,178.1387 583.058442,169.295131 C583.182319,166.817837 583.431805,164.348451 583.805934,161.896531 C576.980034,162.599398 569.133606,162.412191 565.118634,156.560571 C562.502412,152.769349 562.642287,148.181096 562.969035,143.360796 C563.155908,140.55157 563.716527,133.109251 569.183961,130.815685 C569.701476,130.598216 570.295492,130.673852 570.742247,131.0141 C571.189002,131.354348 571.420624,131.907518 571.349864,132.465234 C571.279103,133.022951 570.91671,133.500485 570.399195,133.717954 C567.128358,135.121446 566.380866,139.75566 566.099997,143.641046 C565.773249,147.853764 565.679253,151.879275 567.688977,154.828626 C571.006812,159.602965 578.342976,159.46284 584.509785,158.714012 C585.049721,156.728241 585.851258,154.823357 586.893255,153.049599 C588.187614,151.012729 589.929954,149.299485 591.986943,148.040971 C594.646989,146.499685 598.045081,147.300057 599.740872,149.867298 C601.436663,152.434539 600.843613,155.880692 598.387623,157.730895 C597.874002,158.105309 597.313383,158.432641 596.752764,158.761094 C593.693095,160.263024 590.38196,161.183604 586.987251,161.476156 C586.531948,164.123988 586.235256,166.796747 586.098765,169.480096 C585.585144,177.952614 585.351273,185.536179 588.201366,192.276752 C588.886691,194.136624 590.027573,195.794148 591.519201,197.097052 C594.790038,199.675352 599.742732,199.063286 604.228803,198.173212 C604.135566,195.847317 604.70285,193.54264 605.864781,191.526803 C606.874575,190.032135 608.439092,189.004078 610.209858,188.671616 C611.548202,188.41487 612.933094,188.719167 614.041314,189.513487 C614.173856,189.615436 614.284912,189.742693 614.368062,189.887901 C616.237911,192.602963 614.975679,196.301142 612.733203,198.220294 C611.146395,199.453867 609.287737,200.28876 607.312767,200.655106 C607.49964,209.735206 609.928989,215.540865 614.601933,217.927474 C615.365354,218.324512 615.675613,219.257451 615.302427,220.033833 C615.090264,220.573482 614.569919,220.927471 613.990959,220.927471 Z M611.2371,191.764455 C611.095294,191.756894 610.953203,191.772415 610.816356,191.810416 C609.897334,191.982839 609.088717,192.524366 608.578356,193.309193 C607.85347,194.595113 607.468307,196.045141 607.459356,197.521911 C608.679796,197.233018 609.82612,196.69072 610.824189,195.930091 C612.018342,195.008407 612.504501,193.433759 612.038304,191.997623 C611.801284,191.839731 611.521674,191.758358 611.2371,191.764455 L611.2371,191.764455 Z M594.926556,150.3379 C594.431864,150.359653 593.950372,150.504513 593.525568,150.759396 C591.890923,151.749413 590.513528,153.113136 589.50612,154.738946 C588.821068,155.855187 588.272192,157.049744 587.871261,158.297 C590.439081,157.985501 592.935973,157.241916 595.256661,156.097598 C595.676286,155.863309 596.09703,155.581938 596.517774,155.301688 C597.098056,154.911046 597.492056,154.298166 597.607026,153.607321 C597.721997,152.916476 597.547782,152.208695 597.125391,151.650591 C596.662023,150.867851 595.834263,150.373683 594.926556,150.3379 Z" id="Shape" fill="#1A1A1A"></path>
                <path d="M403.928003,91 L403.646081,91 C401.93695,90.8750605 400.366797,90.0034758 399.346354,88.6132411 C398.227057,87.1746037 397.754241,85.3289404 398.042255,83.5226255 C398.859138,80.0299909 402.121413,77.6965565 405.654984,78.0774056 C406.294449,78.1612282 406.749311,78.7472762 406.677161,79.3943851 C406.643293,79.7074778 406.485809,79.9935411 406.240351,80.1878367 C405.994892,80.3821323 405.682208,80.4682347 405.373062,80.4266583 C403.056315,80.2047255 400.921952,81.7118395 400.333079,83.9854862 C400.147569,85.1260584 400.454853,86.2922397 401.177156,87.1888576 C401.777094,88.0375573 402.720063,88.5724357 403.749903,88.6481901 C405.516691,88.6023367 407.126755,87.6133229 407.979572,86.0500326 C408.936489,84.2964353 409.502013,82.3526862 409.636495,80.3550555 C410.84992,70.6345723 409.411643,60.7639982 405.476884,51.8085672 C403.130337,52.1433054 400.738636,51.9113548 398.498056,51.1317506 C393.211603,49.5658663 391.695641,46.4690466 392.048465,44.119794 C392.278709,42.7227573 393.138141,41.5128322 394.374741,40.8448199 C395.997564,39.910207 397.94824,39.7539864 399.696646,40.4186129 C402.482099,41.526751 404.170253,44.0839926 405.476884,46.4340977 C405.898922,47.217466 406.320961,48.0357833 406.742999,48.8549531 C406.777606,48.8191517 406.813058,48.8191517 406.848509,48.7833503 C408.751902,47.608724 409.667725,45.22367 410.407981,42.803667 C413.037612,34.2177586 414.088928,25.2182994 413.509963,16.2501223 C413.471038,15.6002171 413.961182,15.0414981 414.604731,15.0021884 C415.24828,14.9628786 415.801534,15.457864 415.84046,16.1077692 C416.438649,25.3530594 415.351474,34.6307138 412.632967,43.4796312 C411.822654,46.1851928 410.624065,49.1754607 408.051318,50.7771464 C407.925952,50.8554758 407.796322,50.9266227 407.663043,50.9902498 C411.702985,60.3054319 413.176581,70.5496151 411.928163,80.6406142 C411.742493,82.9799389 411.057137,85.2508657 409.91926,87.2971141 C408.688464,89.4925505 406.423914,90.8921517 403.928003,91 Z M397.876786,42.1387841 C397.194866,42.1349186 396.52296,42.3004599 395.923276,42.6201501 C395.319413,42.9355794 394.895263,43.5056732 394.771892,44.1677069 C394.457726,46.3323117 397.597714,47.8436683 399.516966,48.4278072 C401.20039,48.9852849 402.977048,49.2185204 404.75,49.1147875 C404.435836,48.4558148 404.086364,47.8137296 403.703059,47.1912427 C402.621861,45.2668753 401.226496,43.2059345 399.167707,42.4194038 C398.762094,42.2379246 398.322296,42.1423447 397.876786,42.1387841 L397.876786,42.1387841 Z" id="Shape" fill="#1A1A1A" transform="translate(404.000000, 53.000000) rotate(-330.000000) translate(-404.000000, -53.000000) "></path>
                <polygon id="Path" fill="#1A1A1A" points="0.375 62.514276 7.851039 81.238339 35.419842 67.195572 27.943803 54.556297"></polygon>
                <polygon id="Path" fill="#FFFFFF" points="105.53862 159.684798 114.369768 161.556868 118.154226 148.637343 106.519983 144.517668"></polygon>
                <path d="M114.897936,162.677868 C114.801883,162.685304 114.705471,162.669142 114.617067,162.630786 L105.7848,160.7632 C105.097349,160.635923 104.615383,160.011145 104.6658,159.312626 L105.600165,144.145496 C105.648194,143.718926 105.867588,143.330355 106.207782,143.069336 C106.586414,142.837146 107.048425,142.7854 107.468895,142.92809 L119.151255,147.047765 C119.856403,147.300635 120.244617,148.058343 120.038622,148.77971 L116.254164,161.746317 C116.045529,162.313927 115.501648,162.687502 114.897936,162.677868 L114.897936,162.677868 Z M107.561772,158.277943 L113.916573,159.635474 L116.953539,149.196722 L108.309264,146.154328 L107.561772,158.277943 Z" id="Shape" fill="#1A1A1A"></path>
                <polygon id="Path" fill="#1A1A1A" points="281.668101 87.324248 263.912928 48.940087 255.408528 53.385973 243.352422 26.002185 232.605546 32.555551 251.763945 70.939712 260.267226 65.55667 274.192062 91.536966"></polygon>
                <polygon id="Path" fill="#1A1A1A" points="601.278 53.620262 606.417567 48.002931 622.305129 71.876868 611.090511 80.302304"></polygon>
                <polygon id="Path" fill="#1A1A1A" points="308.07762 160.485192 319.758861 153.464369 337.047411 177.805763 324.898428 180.613868"></polygon>
                <polygon id="Path" fill="#1A1A1A" points="422.535654 178.39653 431.4138 167.161868 446.83362 186.354509 438.422097 195.247402"></polygon>
                <polygon id="Path" fill="#1A1A1A" points="679.58562 123.083027 688.09002 116.015122 696.87417 132.118287 689.351133 138.015868"></polygon>
            </g>
        </g>
    </g>
</svg>