<?xml version="1.0" encoding="UTF-8"?>
<svg width="28px" height="20px" viewBox="0 0 28 20" version="1.1" xmlns="http://www.w3.org/2000/svg" xmlns:xlink="http://www.w3.org/1999/xlink">
    <!-- Generator: Sketch 60.1 (88133) - https://sketch.com -->
    <title>EN-flag</title>
    <desc>Created with Sketch.</desc>
    <defs>
        <rect id="path-1" x="0" y="0" width="28" height="20" rx="2"></rect>
    </defs>
    <g id="Page-1" stroke="none" stroke-width="1" fill="none" fill-rule="evenodd">
        <g id="Flags" transform="translate(-255.000000, -753.000000)">
            <g id="EN-flag" transform="translate(255.000000, 753.000000)">
                <mask id="mask-2" fill="white">
                    <use xlink:href="#path-1"></use>
                </mask>
                <use id="Mask" fill="#FFFFFF" xlink:href="#path-1"></use>
                <rect id="Mask-Copy" fill="#0A17A7" mask="url(#mask-2)" x="0" y="0" width="28" height="20"></rect>
                <path d="M29.2824692,-1.91644623 L30.7736503,0.29432063 L21.3253497,6.66655377 L28,6.66666667 L28,13.3333333 L21.3253497,13.3325538 L30.7736503,19.7056794 L29.2824692,21.9164462 L17.3323497,13.8555538 L17.3333333,21.3333333 L10.6666667,21.3333333 L10.6663497,13.8555538 L-1.2824692,21.9164462 L-2.77365027,19.7056794 L6.67434973,13.3325538 L0,13.3333333 L0,6.66666667 L6.67434973,6.66655377 L-2.77365027,0.29432063 L-1.2824692,-1.91644623 L10.6663497,6.14355377 L10.6666667,-1.33333333 L17.3333333,-1.33333333 L17.3323497,6.14355377 L29.2824692,-1.91644623 Z" id="Rectangle-2" fill="#FFFFFF" mask="url(#mask-2)"></path>
                <line x1="18.6679688" y1="6.33219401" x2="31.3333333" y2="-2" id="Line" stroke="#DB1F35" stroke-width="0.666666667" stroke-linecap="round" mask="url(#mask-2)"></line>
                <line x1="20.0127767" y1="21.3503418" x2="31.3666178" y2="13.6975098" id="Line-Copy-2" stroke="#DB1F35" stroke-width="0.666666667" stroke-linecap="round" mask="url(#mask-2)" transform="translate(25.689697, 17.523926) scale(1, -1) translate(-25.689697, -17.523926) "></line>
                <line x1="8.00553385" y1="6.31046549" x2="-3.83748372" y2="-1.67097982" id="Line-Copy" stroke="#DB1F35" stroke-width="0.666666667" stroke-linecap="round" mask="url(#mask-2)"></line>
                <line x1="9.29003906" y1="22.3104655" x2="-3.83748372" y2="13.6048991" id="Line-Copy-3" stroke="#DB1F35" stroke-width="0.666666667" stroke-linecap="round" mask="url(#mask-2)" transform="translate(2.726278, 17.957682) scale(1, -1) translate(-2.726278, -17.957682) "></line>
                <polygon id="Rectangle-2-Copy-3" fill="#E6273E" mask="url(#mask-2)" points="0 12 12 12 12 20 16 20 16 12 28 12 28 8 16 8 16 0 12 0 12 8 0 8"></polygon>
            </g>
        </g>
    </g>
</svg>