<?xml version="1.0" encoding="UTF-8"?>
<svg width="20px" height="18px" viewBox="0 0 20 18" version="1.1" xmlns="http://www.w3.org/2000/svg" xmlns:xlink="http://www.w3.org/1999/xlink">
    <!-- Generator: Sketch 60.1 (88133) - https://sketch.com -->
    <title>Path</title>
    <desc>Created with Sketch.</desc>
    <g id="Page-1" stroke="none" stroke-width="1" fill="none" fill-rule="evenodd">
        <g id="desktop-landing" transform="translate(-681.000000, -5465.000000)" fill="#FF6100" fill-rule="nonzero">
            <g id="Group-67" transform="translate(587.000000, 5460.000000)">
                <g id="icons8-like" transform="translate(94.000000, 5.000000)">
                    <path d="M14.2558302,0.00428547263 C11.5148302,0.116285473 9.99983021,2.08928547 9.99983021,2.08928547 C9.99983021,2.08928547 8.48483021,0.116285473 5.74383021,0.00428547263 C3.90583021,-0.0707145274 2.22083021,0.844285473 1.11083021,2.31128547 C-2.75116979,7.41528547 4.56083021,13.3862855 6.28083021,14.9892855 C7.30983021,15.9482855 8.57983021,17.0872855 9.33783021,17.7622855 C9.71683021,18.1002855 10.2818302,18.1002855 10.6608302,17.7622855 C11.4188302,17.0872855 12.6888302,15.9482855 13.7178302,14.9892855 C15.4378302,13.3862855 22.7508302,7.41528547 18.8878302,2.31128547 C17.7788302,0.844285473 16.0938302,-0.0707145274 14.2558302,0.00428547263 Z" id="Path"></path>
                </g>
            </g>
        </g>
    </g>
</svg>