<?xml version="1.0" encoding="UTF-8"?>
<svg width="678px" height="656px" viewBox="0 0 678 656" version="1.1" xmlns="http://www.w3.org/2000/svg" xmlns:xlink="http://www.w3.org/1999/xlink">
    <!-- Generator: Sketch 59.1 (86144) - https://sketch.com -->
    <title>taxi-sing-in</title>
    <desc>Created with Sketch.</desc>
    <g id="Page-1" stroke="none" stroke-width="1" fill="none" fill-rule="evenodd">
        <g id="sign-up-desktop" transform="translate(-711.000000, -175.000000)" fill-rule="nonzero">
            <g id="taxi-sing-in" transform="translate(711.000000, 175.000000)">
                <path d="M599.14405,371.228272 C571.43024,222.409727 394.282092,49.5408123 287.464622,64.9624231 C185.712723,79.6496716 188.942942,135.975269 89.3200505,236.729794 C30.2217252,296.543613 15.6857397,373.614949 40.9034722,443.122353 C37.3428899,443.195789 33.7823076,443.232507 30.2951393,443.269225 C6.5456881,443.526252 3.31546908,452.265165 1.59023846,455.973695 C-10.5597899,481.713098 48.134758,539.727729 135.86457,592.638542 C223.631089,645.549355 305.781432,670.187214 319.363035,647.642287 C319.363035,647.642287 327.438582,639.160401 316.242937,619.222462 C479.405704,629.173073 629.133698,532.273951 599.14405,371.228272 Z" id="Path" fill="#FFC600"></path>
                <g id="Group" transform="translate(11.000000, 235.000000)">
                    <path d="M34.1251293,265.732862 C30.6722099,265.255124 17.227864,255.44311 22.7378418,243.683392 C28.2478197,231.923675 45.145085,231.923675 52.3080562,232.10742 C59.4710273,232.291166 78.9396157,234.312367 84.8169254,232.10742 C90.694235,229.902473 99.5101996,224.390106 105.203843,226.778799 C110.897487,229.167491 109.611826,245.153357 114.754472,246.439576 C119.897118,247.725795 132.753732,243.499647 136.978049,246.623322 C141.202365,249.746996 138.924908,267.680565 149.1,270.693993 C159.275092,273.70742 169.964449,275.765371 176.502956,281.314488 C183.041463,286.863604 179.221212,296.785866 192.628825,296.418375 C206.036438,296.050883 212.097413,289.068551 221.097044,293.662191 C230.096674,298.25583 218.525721,307.259364 230.647672,310.015548 C242.769623,312.771731 255.809904,307.626855 258.197561,314.057951 C260.585218,320.489046 247.544937,322.877739 249.565262,328.573852 C251.585588,334.269965 257.830229,344.192226 265.544198,347.132155 C273.258167,350.072085 276.013156,354.665724 276.196822,360.729329 C276.380488,366.792933 277.298817,369.365371 280.237472,375.24523 C283.176127,381.125088 287.216778,398.397173 280.604804,406.114488 C273.992831,413.831802 256.177236,405.563251 252.687583,397.110954 C249.30813,388.95265 253.238581,385.167491 257.095565,382.778799 C260.95255,380.390106 265.544198,377.450177 261.87088,369.181625 C258.197561,360.913074 217.974723,324.715194 183.078197,302.114488 C148.18167,279.513781 114.27694,255.700353 87.9392461,249.379505 C68.8379897,244.785866 48.8184035,244.60212 46.2470806,250.84947 C43.6757576,257.09682 44.9614191,267.202827 34.1251293,265.732862 Z" id="Path" fill="#FFFFFF"></path>
                    <g>
                        <g>
                            <ellipse id="Oval" fill="#FFFFFF" cx="166.805395" cy="156.918728" rx="3.3059867" ry="3.30742049"></ellipse>
                            <g>
                                <path d="M188.88204,151.84735 C190.094235,152.802827 191.894161,152.508834 192.739024,151.185866 C198.175536,142.623322 216.10133,114.253004 220.803178,105.286219 C226.349889,94.7024735 229.325277,83.6777385 222.970436,79.0840989 C216.615595,74.4904594 209.63629,77.834629 206.256837,83.0162544 C200.783592,91.4318021 205.191574,108.667138 205.191574,108.667138 C205.191574,108.667138 197.514339,109.769611 194.575684,115.281979 C191.637029,120.794346 196.449076,134.060777 193.583888,138.764664 C191.673762,141.925088 189.433038,146.114488 188.184109,148.539929 C187.596378,149.679152 187.890244,151.075618 188.88204,151.84735 Z" id="Path" fill="#FFFFFF"></path>
                                <path d="M118.244124,185.583039 C119.970584,186.097527 121.733777,184.995053 122.064375,183.231095 C124.158167,171.80212 130.99054,134.024028 132.129268,122.521555 C133.488396,108.887633 131.872136,95.9519435 123.203104,93.7837456 C114.497339,91.6155477 108.50983,98.1936396 107.187435,105.139223 C104.983444,116.421201 117.068662,132.811307 117.068662,132.811307 C117.068662,132.811307 109.391426,137.257951 108.62003,144.387279 C107.848633,151.516608 118.648189,163.49682 117.656393,169.74417 C116.995196,173.933569 116.407465,179.335689 116.113599,182.422615 C115.966667,183.85583 116.884996,185.178799 118.244124,185.583039 Z" id="Path" fill="#FFFFFF"></path>
                                <path d="M145.610347,187.640989 C147.814339,187.60424 150.128529,179.225442 152.773319,168.89894 C155.418108,158.572438 153.507982,151.479859 148.549002,150.855124 C143.553289,150.230389 141.71663,157.543463 141.71663,160.262898 C141.679897,162.982332 144.545085,167.686219 143.810421,171.287633 C143.075758,174.925795 141.60643,179.409187 141.753363,183.194346 C141.826829,185.399293 143.994087,187.640989 145.610347,187.640989 Z" id="Path" fill="#FFFFFF"></path>
                                <path d="M148.9898,132.737809 L161.993348,4.44664311 C162.25048,1.83745583 164.601404,-0.11024735 167.246194,0.183745583 C169.890983,0.477738516 171.801109,2.79293286 171.507243,5.43886926 C171.507243,5.51236749 171.47051,5.62261484 171.47051,5.69611307 L151.414191,133.068551 C151.303991,133.730035 150.679527,134.207774 150.01833,134.097527 C149.393865,133.987279 148.953067,133.399293 148.9898,132.737809 Z" id="Path" fill="#1A1A1A"></path>
                                <path d="M217.01966,66.4056537 L229.949741,20.2120141 C230.537472,18.0438163 232.778197,16.7943463 234.945455,17.4190813 C237.112712,18.0070671 238.361641,20.2487633 237.737177,22.4169611 C237.700443,22.5639576 237.626977,22.7477032 237.553511,22.8946996 L218.929786,67.1038869 C218.709387,67.6183746 218.084922,67.8756184 217.570658,67.6551237 C217.12986,67.434629 216.872727,66.9201413 217.01966,66.4056537 Z" id="Path" fill="#FFFFFF"></path>
                                <path d="M49.4428677,172.684099 L42.7941611,137.331449 C42.3900961,135.126502 43.8226903,132.995053 46.0266814,132.590813 C48.2306726,132.186572 50.3611973,133.619788 50.7652624,135.824735 C50.8019956,136.04523 50.8387288,136.265724 50.8387288,136.486219 L51.5366593,172.426855 C51.5366593,173.014841 51.095861,173.49258 50.5081301,173.49258 C49.9938655,173.566078 49.5530673,173.198587 49.4428677,172.684099 Z" id="Path" fill="#1A1A1A"></path>
                                <ellipse id="Oval" fill="#FFC600" cx="6.90583888" cy="174.227562" rx="6.79563932" ry="6.79858657"></ellipse>
                                <ellipse id="Oval" fill="#FFFFFF" cx="185.833186" cy="70.2275618" rx="5.3263119" ry="5.32862191"></ellipse>
                                <ellipse id="Oval" fill="#FFFFFF" cx="184.327125" cy="115.061484" rx="4.77531412" ry="4.77738516"></ellipse>
                            </g>
                        </g>
                        <g transform="translate(5.142646, 159.858657)">
                            <path d="M143.920621,198.187986 C128.749815,190.029682 68.9849224,149.936396 65.3116038,142.072085 C61.6382853,134.207774 67.0380636,133.730035 70.9317812,133.509541 C74.8622321,133.252297 80.4824095,137.184452 81.9517369,141.594346 C83.4210643,146.00424 84.8903917,151.149117 90.7677014,152.876325 C96.6450111,154.603534 107.407834,159.013428 112.55048,163.423322 C117.693126,167.833216 128.970214,180.805654 136.794383,184.260071 C144.618551,187.677739 155.895639,189.662191 166.180931,197.232509 C176.466223,204.802827 182.821064,210.939929 194.355285,213.879859 C205.852772,216.819788 225.468293,220.4947 229.141611,227.366784 C232.81493,234.238869 226.900887,237.142049 221.317443,236.443816 C207.579231,234.679859 166.180931,210.204947 143.920621,198.187986 Z" id="Path" fill="#FFFFFF"></path>
                            <path d="M108.142498,128.291166 C102.926386,126.600707 97.8572062,131.231095 100.428529,137.662191 C102.999852,144.093286 107.224169,152.545583 114.938137,155.669258 C122.652106,158.792933 130.182409,162.100353 133.855728,166.142756 C137.529047,170.185159 143.773688,176.8 149.1,177.902473 C154.426312,179.004947 159.385292,180.474912 166.180931,184.149823 C172.976571,187.824735 179.037546,193.153357 187.302513,192.60212 C195.56748,192.050883 194.64915,186.538516 193.914486,185.252297 C193.179823,183.966078 191.41663,180.768905 185.53932,180.401413 C171.47051,179.556184 154.316112,166.80424 144.287953,160.55689 C134.259793,154.309541 122.725573,149.054417 116.480931,140.344876 C113.285144,135.934982 111.338285,129.35689 108.142498,128.291166 Z" id="Path" fill="#FFFFFF"></path>
                            <path d="M86.9841833,132.407067 C88.4535107,131.194346 90.0330377,129.467138 88.5269771,126.159717 C87.0943829,123.036042 79.2334812,123.109541 79.0865484,118.185159 C78.9763489,113.297527 85.147524,113.224028 91.281966,113.481272 C97.416408,113.738516 107.077236,119.434629 117.362528,126.527208 C127.64782,133.619788 139.402439,144.277032 151.891722,148.576678 C164.381005,152.876325 176.392757,158.756184 185.318921,164.011307 C194.245085,169.266431 197.698004,174.778799 204.052846,178.233216 C210.407687,181.650883 223.154102,192.455124 223.521434,197.232509 C223.888766,202.009894 219.480783,202.634629 217.754324,200.797173 C216.027864,198.959717 205.154841,193.814841 205.265041,199.216961 C205.37524,204.619081 221.317443,209.506714 228.149815,209.24947 C235.018921,208.992226 237.957576,202.009894 236.231116,196.75477 C234.504656,191.499647 209.783222,177.167491 207.469032,173.345583 C205.154841,169.523675 201.481523,163.790813 189.102439,156.808481 C176.723356,149.826148 170.258315,150.450883 160.560754,142.954064 C150.899926,135.493993 135.582188,133.399293 126.656024,123.219788 C117.72986,113.040283 106.452772,107.050177 92.861493,104.734982 C79.2702143,102.419788 71.4093126,104.40424 69.095122,110.614841 C67.0013304,116.237456 71.9235772,124.469258 78.021286,129.35689 C84.155728,134.244523 86.9841833,132.407067 86.9841833,132.407067 Z" id="Path" fill="#FFFFFF"></path>
                            <path d="M54.5120473,112.819788 C51.5733925,110.872085 43.9696231,111.239576 40.4432373,114.546996 C36.8801183,117.854417 37.5045824,126.196466 41.6554324,129.724382 C45.8062823,133.289046 55.246711,133.509541 58.1853659,130.937102 C61.1240207,128.364664 64.2096083,119.177385 54.5120473,112.819788 Z" id="Path" fill="#FFFFFF"></path>
                            <path d="M2.13052476,74.5272085 C-0.881596452,72.9102473 -0.73466371,63.5024735 6.83237251,59.4233216 C14.3994087,55.3441696 40.994235,52.5512367 41.8390983,58.8720848 C42.6104952,64.6416961 35.7413895,64.5314488 27.6600887,64.8254417 C19.5787879,65.1194346 14.3259424,66.0014134 11.7546194,68.9413428 C9.22002956,71.9180212 7.16297118,77.1731449 2.13052476,74.5272085 Z" id="Path" fill="#FFFFFF"></path>
                            <ellipse id="Oval" fill="#1A1A1A" transform="translate(54.138787, 59.614633) rotate(-88.381940) translate(-54.138787, -59.614633) " cx="54.1387873" cy="59.6146334" rx="4.70387935" ry="4.70184342"></ellipse>
                            <path d="M93.5594235,19.6607774 C90.3269032,18.9625442 86.8372506,24.8424028 85.7719882,32.5597173 C84.7067258,40.2770318 84.6332594,48.2515901 88.5637103,48.9498233 C92.4941611,49.6480565 95.0287509,40.8282686 95.836881,34.5809187 C96.6450111,28.3335689 98.5918699,20.7265018 93.5594235,19.6607774 Z" id="Path" fill="#1A1A1A"></path>
                            <path d="M125.260163,67.8756184 C123.607169,66.6261484 119.125721,68.1696113 117.803326,70.595053 C116.480931,73.0204947 116.370732,76.254417 118.942055,77.4671378 C121.513378,78.6798587 125.554028,75.335689 126.141759,74.1229682 C126.766223,72.9102473 127.978418,69.970318 125.260163,67.8756184 Z" id="Path" fill="#FFFFFF"></path>
                            <path d="M165.519734,33.9929329 C163.866741,32.7434629 161.589283,32.5597173 158.430229,36.9696113 C155.271175,41.3795053 146.381744,54.535689 147.37354,57.6226148 C148.365336,60.6727915 151.193792,62.8777385 155.601774,59.4233216 C160.009756,55.9689046 163.132077,49.464311 165.189135,44.7971731 C167.246194,40.1300353 168.091057,35.940636 165.519734,33.9929329 Z" id="Path" fill="#FFFFFF"></path>
                            <path d="M94.8818182,0.293992933 C93.0084257,0.367491166 91.3921656,1.83745583 91.1350333,4.52014134 C90.877901,7.20282686 93.0818921,9.40777385 94.3675536,9.66501767 C95.6532151,9.92226148 97.5633407,8.37879859 98.1143385,5.43886926 C98.6653363,2.49893993 96.9021434,0.2204947 94.8818182,0.293992933 Z" id="Path" fill="#FFFFFF"></path>
                            <path d="M232.778197,138.139929 C231.712934,136.927208 229.178344,136.302473 226.23969,138.50742 C223.301035,140.712367 224.696896,144.313781 225.945824,145.489753 C227.194752,146.665724 229.986475,146.665724 232.0068,144.938516 C234.027125,143.211307 234.614856,140.234629 232.778197,138.139929 Z" id="Path" fill="#FFFFFF"></path>
                            <path d="M272.376571,139.168905 C272.964302,137.662191 272.339837,135.126502 269.033851,133.54629 C265.727864,131.966078 263.193274,134.832509 262.715743,136.522968 C262.238211,138.213428 263.523873,140.675618 265.984996,141.631095 C268.44612,142.586572 271.348041,141.778092 272.376571,139.168905 Z" id="Path" fill="#FFFFFF"></path>
                            <path d="M213.603474,111.166078 C215.660532,108.740636 215.770732,106.241696 209.966888,107.527915 C204.126312,108.777385 197.367406,114.80424 195.494013,117.30318 C193.620621,119.838869 194.832816,121.602827 199.314265,120.390106 C203.795713,119.177385 210.077088,115.355477 213.603474,111.166078 Z" id="Path" fill="#FFFFFF"></path>
                        </g>
                        <g transform="translate(286.886179, 192.565371)">
                            <path d="M19.2481892,43.4007067 C18.3298596,42.5187279 18.3665928,41.0120141 19.3216556,40.1667845 C25.6764967,34.7279152 46.7613452,16.7943463 53.5202513,11.9434629 C61.5280857,6.17385159 70.1603843,2.49893993 74.6785661,7.12932862 C79.1600148,11.7597173 77.2498891,17.8968198 73.3929047,21.2409894 C67.1482631,26.6798587 52.5651885,25.0996466 52.5651885,25.0996466 C52.5651885,25.0996466 52.5651885,31.4939929 48.4143385,34.5441696 C44.2634885,37.5943463 32.876201,35.1689046 29.3498152,38.0720848 C26.9988914,40.019788 23.8398374,42.2982332 22.0031781,43.6212014 C21.1583149,44.1724382 20.0195861,44.0989399 19.2481892,43.4007067 Z" id="Path" fill="#FFFFFF"></path>
                            <path d="M93.3390244,23.960424 C92.861493,22.4169611 107.334368,16.2798587 119.382853,10.3265018 C131.431338,4.37314488 142.083962,-2.68268551 145.353215,1.46996466 C148.659202,5.62261484 141.496231,8.08480565 135.692387,10.1795053 C129.888544,12.2742049 117.289061,15.6918728 110.970953,18.5215548 C106.709904,20.4325088 94.1471545,26.6063604 93.3390244,23.960424 Z" id="Path" fill="#1A1A1A"></path>
                            <ellipse id="Oval" fill="#FFFFFF" cx="88.2698448" cy="43.7314488" rx="6.06097561" ry="5.51236749"></ellipse>
                            <ellipse id="Oval" fill="#FFFFFF" cx="49.8101996" cy="82.3180212" rx="4.95898004" ry="5.03462898"></ellipse>
                            <path d="M0.257010865,80.6275618 C0.220399113,78.4226148 8.52209904,75.8134276 18.7339246,72.8734982 C28.9824834,69.8968198 36.1087214,71.55053 36.8801183,76.5116608 C37.6515152,81.4727915 30.4150776,83.530742 27.6968219,83.6409894 C24.9785661,83.7512367 20.203252,81.0685512 16.6033999,81.9137809 C13.0035477,82.7590106 8.55883222,84.3759717 4.77531412,84.3392226 C2.60805617,84.3024735 0.293865484,82.2077739 0.257010865,80.6275618 Z" id="Path" fill="#FFFFFF"></path>
                            <path d="M35.7781227,102.162544 C35.6679231,100.25159 36.2556541,97.7526502 48.7449372,95.6579505 C61.2342203,93.5632509 126.251959,81.4360424 133.855728,83.0530035 C141.459497,84.6332155 147.336807,90.0353357 144.618551,102.052297 C141.900296,114.069258 125.260163,114.436749 119.015521,112.452297 C112.77088,110.504594 94.0369549,102.897527 94.0369549,102.897527 C94.0369549,102.897527 94.1471545,109.144876 85.9556541,110.504594 C77.7641537,111.864311 62.5566149,104 62.5566149,104 C62.5566149,104 61.4546194,108.409894 54.5855137,108.667138 C47.7898744,108.887633 36.1454545,107.674912 35.7781227,102.162544 Z" id="Path" fill="#FFFFFF"></path>
                            <path d="M13.9218773,130.679859 C14.8769401,129.724382 23.0317073,128.54841 34.7863267,126.747703 C47.0184775,124.910247 58.7363636,123.256537 58.1853659,129.430389 C57.7078344,134.759011 38.0923134,133.399293 33.5006652,133.399293 C28.3947524,133.436042 11.3138211,133.325795 13.9218773,130.679859 Z" id="Path" fill="#FFFFFF"></path>
                            <path d="M55.1732446,199.547703 C56.3487066,198.886219 64.5402069,199.878445 76.3315595,201.274912 C88.6004435,202.708127 100.355063,204.25159 98.1878049,210.057951 C96.3144124,215.05583 77.7641537,208.587986 73.3561715,207.375265 C68.3971914,206.015548 51.9407243,201.385159 55.1732446,199.547703 Z" id="Path" fill="#1A1A1A"></path>
                            <ellipse id="Oval" fill="#1A1A1A" cx="27.0356245" cy="168.972438" rx="5.95077605" ry="5.95335689"></ellipse>
                            <ellipse id="Oval" fill="#1A1A1A" cx="38.5331116" cy="217.003534" rx="6.39157428" ry="6.39434629"></ellipse>
                            <path d="M57.0833703,62.7674912 L204.420177,37.3738516 C207.028234,36.9328622 209.489357,38.6600707 209.930155,41.269258 C210.370953,43.8784452 208.644494,46.340636 206.036438,46.7816254 C205.962971,46.7816254 205.889505,46.8183746 205.816038,46.8183746 L57.4507021,65.1561837 C56.7895048,65.229682 56.1650407,64.7519435 56.0915743,64.0904594 C56.0181079,63.5024735 56.4589061,62.8777385 57.0833703,62.7674912 Z" id="Path" fill="#1A1A1A"></path>
                        </g>
                    </g>
                </g>
                <g id="Group" transform="translate(152.000000, 0.000000)">
                    <path d="M262.119051,326.691176 C262.119051,326.691176 239.618144,304.889706 232.019958,292.132353 C224.421773,279.375 218.548779,264.301471 218.548779,264.301471 L214.033915,247.279412 C209.62917,252.426471 195.790928,264.558824 189.440754,268.602941 C183.090579,272.647059 162.168039,283.676471 153.211724,289.301471 C144.255408,294.926471 135.702861,303.529412 135.702861,303.529412 L121.387439,319.595588 L99.106769,348.639706 L71.3201675,389.816176 L55.4263782,415.551471 L40.0097697,440.073529 C40.0097697,440.073529 25.6943475,464.338235 22.7578507,469.485294 C19.8213538,474.632353 15.673552,475.257353 9.06643405,485.183824 C2.45931612,495.110294 1.46824843,500.514706 2.09225401,501.102941 L5.02875087,499.264706 C5.02875087,499.264706 3.67062107,504.411765 4.55157013,505.404412 C5.43251919,506.397059 6.64382415,503.676471 6.64382415,503.676471 C6.64382415,503.676471 6.38688067,507.352941 7.01088625,507.977941 C7.63489184,508.602941 11.3055129,504.669118 11.3055129,504.669118 C11.3055129,504.669118 9.94738311,507.132353 11.4156315,508.235294 C12.88388,509.338235 20.9592463,498.051471 20.9592463,498.051471 C20.7023029,501.838235 22.3173761,502.205882 22.3173761,502.205882 C22.3173761,502.205882 29.1814375,496.323529 32.1179344,493.014706 C35.0544313,489.705882 34.6873692,485.036765 34.6873692,485.036765 L36.6327983,478.786765 L46.0662945,464.705882 L61.2259595,446.948529 L86.0760642,425.735294 L104.062107,410.404412 L104.612701,410.661765 C105.97083,409.375 107.842847,408.566176 109.714864,408.566176 C110.412282,408.566176 111.072994,408.676471 111.696999,408.860294 C115.330914,409.227941 117.937055,412.279412 118.267411,415.882353 C118.781298,416.433824 119.258479,417.058824 119.588835,417.720588 L120.21284,418.014706 L125.82889,422.169118 L122.158269,427.683824 L114.193022,436.875 L103.07104,448.75 L83.5066294,466.764706 C83.5066294,466.764706 61.482903,485.514706 54.8757851,490.551471 C48.2686671,495.588235 45.3321703,496.544118 45.3321703,496.544118 L37.8808095,503.419118 L32.2647592,511.507353 L34.7240754,512.132353 C34.7240754,512.132353 30.5762736,519.595588 30.5762736,520.588235 C30.5762736,521.580882 33.2558269,520.110294 33.2558269,520.110294 C33.2558269,520.110294 32.7786462,522.058824 33.2558269,523.161765 C33.7330077,524.264706 37.6605722,520.588235 37.6605722,520.588235 C37.6605722,520.588235 38.3946964,521.691176 39.1288207,522.426471 C39.8629449,523.161765 43.5335659,518.75 43.5335659,518.75 C43.5335659,518.75 43.5335659,519.595588 44.5246336,520.698529 C45.5157013,521.801471 57.995813,507.463235 57.995813,507.463235 L68.7507327,499.742647 L99.8408932,481.838235 C99.8408932,481.838235 128.214794,467.757353 148.40321,455.845588 C168.591626,443.970588 177.401117,431.691176 177.401117,431.691176 C177.401117,431.691176 193.808793,410.110294 200.048849,402.169118 C206.288904,394.191176 217.300768,388.455882 217.300768,388.455882 L250.703419,369.595588 L276.397767,355.367647 L292.181438,346.801471 C276.911654,338.970588 262.119051,326.691176 262.119051,326.691176 Z" id="Path" fill="#FFC600"></path>
                    <path d="M294.897697,195.257353 C294.897697,195.257353 309.029588,204.264706 320.959107,220.073529 C332.888625,235.882353 340.780461,252.977941 340.780461,252.977941 L335.274529,257.573529 C335.274529,257.573529 346.653454,267.683824 352.89351,277.242647 C359.133566,286.801471 365.190091,298.014706 365.190091,298.014706 L404.098674,265.661765 L440.254292,233.125 C440.254292,233.125 460.259177,212.720588 462.828611,205.551471 C465.398046,198.382353 474.391068,173.014706 477.694627,153.161765 C480.998186,133.308824 490.174738,86.9852941 490.174738,86.9852941 C490.174738,86.9852941 490.358269,70.4411765 497.699512,65.4779412 C505.040754,60.5147059 525.779763,45.2573529 524.127983,40.6617647 L484.301745,50.2205882 L463.012142,56.2867647 L461.910956,75.4044118 L453.468528,104.448529 L432.362456,161.985294 C432.362456,161.985294 426.672994,179.264706 419.882345,185.698529 C413.091696,192.132353 378.404327,215.477941 378.404327,215.477941 C378.404327,215.477941 398.959805,191.029412 402.997488,174.117647 C407.035171,157.205882 414.743475,120.992647 417.496441,103.713235 C420.249407,86.4338235 424.28709,41.3970588 430.894208,31.6544118 C437.501326,21.9117647 451.816748,14.9264706 457.873273,11.9852941 C463.929798,9.04411765 467.416888,3.52941176 466.866294,1.50735294 C466.315701,-0.514705882 442.823726,5.18382353 442.823726,5.18382353 L404.649267,12.3529412 C404.649267,12.3529412 404.098674,22.2794118 401.162177,30.5514706 C398.22568,38.8235294 370.879553,115.110294 370.879553,115.110294 C370.879553,115.110294 360.601814,144.338235 350.140544,156.654412 C339.679274,168.970588 314.168458,186.433824 294.897697,195.257353 Z" id="Path" fill="#FFC600"></path>
                    <path d="M411.990509,29.4117647 C411.439916,29.4117647 410.962736,29.0073529 410.889323,28.4558824 C409.934962,21.8382353 416.725611,17.3897059 417.01926,17.2058824 C417.533147,16.875 418.230565,17.0220588 418.524215,17.5367647 C418.854571,18.0514706 418.707746,18.7132353 418.193859,19.0441176 L418.193859,19.0441176 C418.120447,19.0808824 412.320865,22.9044118 413.05499,28.125 C413.128402,28.7132353 412.724634,29.3014706 412.137334,29.375 C412.100628,29.4117647 412.063922,29.4117647 411.990509,29.4117647 Z" id="Path" fill="#1A1A1A"></path>
                    <path d="M472.922819,71.9117647 C472.33552,71.9117647 471.821633,71.4338235 471.821633,70.8455882 C471.674808,63.9338235 476.263084,59.5588235 476.446615,59.375 C476.88709,58.9705882 477.584508,58.9705882 477.988276,59.4117647 C478.392045,59.8529412 478.392045,60.5514706 477.95157,60.9558824 C477.914864,60.9926471 473.913887,64.8897059 474.024006,70.8088235 C474.060712,71.3970588 473.546825,71.9117647 472.922819,71.9117647 C472.959525,71.9117647 472.922819,71.9117647 472.922819,71.9117647 Z" id="Path" fill="#1A1A1A"></path>
                    <path d="M316.811305,272.904412 C316.554361,272.904412 316.334124,272.830882 316.113887,272.647059 C310.571249,268.125 308.001814,263.897059 308.515701,260.110294 C309.213119,254.779412 315.710119,251.875 318.830147,250.514706 L319.197209,250.330882 C321.472994,249.301471 321.693231,246.102941 321.913468,242.720588 C322.060293,240.477941 322.207118,238.161765 323.051361,236.397059 C324.886671,232.463235 328.850942,232.279412 330.686253,232.720588 C331.273552,232.867647 331.640614,233.455882 331.493789,234.044118 C331.346964,234.632353 330.759665,235 330.172366,234.852941 C330.025541,234.816176 326.611863,234.044118 325.070202,237.316176 C324.409491,238.713235 324.299372,240.735294 324.152547,242.830882 C323.895604,246.544118 323.63866,250.735294 320.114864,252.316176 L319.747802,252.5 C316.994836,253.713235 311.268667,256.25 310.75478,260.367647 C310.351012,263.345588 312.663503,266.911765 317.582135,270.919118 C318.059316,271.286765 318.132729,271.985294 317.72896,272.463235 C317.435311,272.757353 317.141661,272.904412 316.811305,272.904412 Z" id="Path" fill="#FFFFFF"></path>
                    <path d="M302.238939,318.676471 C302.385764,317.683824 302.862945,316.948529 303.670482,316.433824 C304.441312,315.919118 304.881786,316.029412 305.028611,316.066176 C306.056385,316.286765 307.120865,317.977941 308.222052,319.742647 C309.910537,322.463235 312.039498,325.808824 315.710119,326.617647 C317.692254,327.058824 319.233915,326.948529 320.518632,326.838235 C321.986881,326.727941 322.86783,326.691176 323.748779,327.389706 C324.409491,326.985294 325.033496,326.580882 325.657502,326.176471 C323.93231,324.411765 322.207118,324.522059 320.371807,324.632353 C319.197209,324.705882 317.875785,324.816176 316.187299,324.448529 C313.434334,323.860294 311.672435,321.029412 310.094068,318.566176 C308.735939,316.397059 307.451221,314.338235 305.505792,313.897059 C304.551431,313.676471 303.523657,313.897059 302.495883,314.558824 C301.174459,315.404412 300.366923,316.691176 300.073273,318.308824 C299.118911,324.227941 306.093091,333.823529 308.295464,336.691176 C308.91947,336.323529 309.580181,335.955882 310.204187,335.551471 C307.377809,331.985294 301.504815,323.345588 302.238939,318.676471 Z" id="Path" fill="#FFFFFF"></path>
                    <g transform="translate(130.307048, 329.411765)" fill="#1A1A1A">
                        <path d="M5.90969993,8.19852941 C9.580321,4.26470588 17.6189812,-1.06617647 20.4820656,2.42647059 C22.6844382,5.11029412 22.3173761,7.57352941 16.0773203,10.8823529 C9.83726448,14.1911765 10.5713887,21.6544118 5.06545708,20.9191176 C-0.440474529,20.1838235 0.770830426,13.7132353 5.90969993,8.19852941 Z" id="Path"></path>
                        <path d="M5.7995813,22.0955882 C5.50593161,22.0955882 5.21228193,22.0588235 4.91863224,22.0220588 C2.78967202,21.7279412 1.28471738,20.625 0.660711793,18.9338235 C-0.403768318,15.9926471 1.3581298,11.4705882 5.10216329,7.42647059 C6.68053036,5.73529412 8.91960921,3.89705882 11.0852756,2.61029412 C12.9572924,1.47058824 15.673552,0.110294118 18.0227495,0.183823529 C19.4175855,0.220588235 20.555478,0.772058824 21.3263084,1.72794118 C22.5376134,3.23529412 23.0147941,4.63235294 22.7211445,5.99264706 C22.3173761,8.01470588 20.4086532,9.81617647 16.5912073,11.8382353 C13.9850663,13.1985294 12.7003489,15.4411765 11.5624564,17.4264706 C10.2043266,19.7426471 8.84619679,22.0955882 5.7995813,22.0955882 Z M17.8025122,2.38970588 C14.7926029,2.38970588 9.69043964,5.73529412 6.71723657,8.93382353 L6.71723657,8.93382353 C3.63391486,12.2426471 1.98213538,16.0661765 2.75296581,18.1617647 C3.0833217,19.0808824 3.89085834,19.6323529 5.21228193,19.8161765 C7.37794836,20.1102941 8.14877879,18.8970588 9.65373343,16.3235294 C10.8650384,14.1911765 12.4066992,11.5441176 15.5634334,9.88970588 C18.6467551,8.27205882 20.3352408,6.80147059 20.5921842,5.55147059 C20.6655967,5.11029412 20.6655967,4.375 19.6378227,3.125 C19.2707606,2.64705882 18.7201675,2.42647059 17.9493371,2.38970588 C17.9126308,2.38970588 17.8392184,2.38970588 17.8025122,2.38970588 Z" id="Shape"></path>
                    </g>
                    <path d="M184.485415,335.882353 L184.485415,335.882353 C184.118353,335.257353 183.457641,334.852941 182.650105,334.742647 C181.91598,334.669118 181.14515,334.852941 180.484438,335.257353 C179.78702,335.661765 179.273133,336.25 179.01619,336.948529 C178.72254,337.683824 178.759246,338.492647 179.126308,339.117647 C179.493371,339.742647 180.154082,340.147059 180.961619,340.257353 C181.071738,340.257353 181.181856,340.294118 181.328681,340.294118 C181.952687,340.294118 182.576692,340.110294 183.163992,339.779412 C184.595534,338.823529 185.219539,337.095588 184.485415,335.882353 Z" id="Path" fill="#1A1A1A"></path>
                    <path d="M219.172784,373.933824 L219.172784,373.933824 C218.805722,373.308824 218.14501,372.904412 217.337474,372.794118 C216.60335,372.720588 215.832519,372.904412 215.171807,373.308824 C214.474389,373.713235 213.960502,374.301471 213.703559,375 C213.409909,375.735294 213.446615,376.544118 213.813678,377.169118 C214.18074,377.794118 214.841452,378.198529 215.648988,378.308824 C215.759107,378.308824 215.869225,378.345588 216.01605,378.345588 C216.640056,378.345588 217.264061,378.161765 217.851361,377.830882 C219.282903,376.875 219.906909,375.147059 219.172784,373.933824 Z" id="Path" fill="#1A1A1A"></path>
                    <path d="M128.031263,419.227941 C127.700907,419.227941 127.333845,419.080882 127.113608,418.75 C126.746546,418.235294 126.893371,417.573529 127.370551,417.205882 C130.233636,415.183824 130.527285,412.169118 130.527285,412.132353 C130.563992,411.507353 131.114585,411.066176 131.701884,411.139706 C132.32589,411.176471 132.766364,411.727941 132.692952,412.316176 C132.692952,412.5 132.289184,416.397059 128.618562,419.007353 C128.471738,419.154412 128.2515,419.227941 128.031263,419.227941 Z" id="Path" fill="#1A1A1A"></path>
                    <path d="M140.511375,420.955882 C140.327844,420.955882 140.144313,420.919118 139.960782,420.808824 C139.630426,420.625 139.410188,420.294118 139.410188,419.889706 L138.969714,410.073529 C138.969714,409.705882 139.116539,409.338235 139.446895,409.117647 C139.740544,408.897059 140.144313,408.860294 140.511375,409.007353 C141.061968,409.227941 145.723657,411.323529 145.907188,414.632353 C146.054013,417.904412 141.575855,420.514706 141.061968,420.808824 C140.878437,420.882353 140.694906,420.955882 140.511375,420.955882 Z" id="Path" fill="#1A1A1A"></path>
                    <path d="M141.245499,411.911765 L141.502442,417.794118 C142.566923,416.948529 143.704815,415.772059 143.668109,414.705882 C143.631403,413.713235 142.383391,412.647059 141.245499,411.911765 Z" id="Path" fill="#FFFFFF"></path>
                    <path d="M469.252198,132.757353 C469.14208,132.757353 469.031961,132.757353 468.921842,132.683824 C468.334543,132.5 468.040893,131.875 468.224424,131.286765 C469.655967,126.985294 466.278995,123.014706 466.242289,122.977941 C465.838521,122.536765 465.875227,121.838235 466.352408,121.433824 C466.792882,121.029412 467.4903,121.066176 467.894068,121.544118 C468.077599,121.727941 472.151989,126.507353 470.316678,131.985294 C470.169853,132.463235 469.729379,132.757353 469.252198,132.757353 Z" id="Path" fill="#1A1A1A"></path>
                    <path d="M472.739288,123.382353 C472.62917,123.382353 472.482345,123.345588 472.372226,123.308824 C471.784927,123.088235 471.491277,122.463235 471.711514,121.875 C472.739288,119.080882 469.986322,116.25 469.949616,116.25 C469.509142,115.808824 469.509142,115.110294 469.949616,114.705882 C470.390091,114.264706 471.087509,114.264706 471.491277,114.705882 C471.638102,114.852941 475.272017,118.566176 473.767062,122.683824 C473.620237,123.125 473.216469,123.382353 472.739288,123.382353 Z" id="Path" fill="#1A1A1A"></path>
                    <path d="M475.492254,114.926471 C475.382135,114.926471 475.235311,114.889706 475.125192,114.852941 C474.537893,114.632353 474.244243,114.007353 474.46448,113.455882 C475.272017,111.176471 472.555757,109.448529 472.519051,109.411765 C472.005164,109.080882 471.858339,108.419118 472.188695,107.904412 C472.519051,107.389706 473.179763,107.242647 473.69365,107.573529 C473.730356,107.610294 474.721424,108.235294 475.565666,109.338235 C476.776971,110.882353 477.107327,112.573529 476.520028,114.227941 C476.373203,114.669118 475.969435,114.926471 475.492254,114.926471 Z" id="Path" fill="#1A1A1A"></path>
                    <path d="M355.830007,229.080882 C355.646476,229.080882 355.499651,229.044118 355.31612,228.970588 C354.765527,228.676471 354.54529,228.014706 354.838939,227.5 C357.922261,221.507353 354.949058,209.632353 354.949058,209.522059 C354.802233,208.933824 355.169295,208.345588 355.756595,208.198529 C356.343894,208.051471 356.931193,208.419118 357.078018,209.007353 C357.224843,209.522059 360.271458,221.801471 356.821075,228.529412 C356.637544,228.860294 356.233775,229.080882 355.830007,229.080882 Z" id="Path" fill="#1A1A1A"></path>
                    <path d="M361.703001,216.397059 C361.556176,216.397059 361.409351,216.360294 361.262526,216.323529 C360.711933,216.066176 360.45499,215.441176 360.675227,214.889706 C362.327006,211.139706 359.941103,204.963235 359.941103,204.889706 C359.720865,204.338235 360.014515,203.676471 360.565108,203.455882 C361.115701,203.235294 361.776413,203.529412 361.99665,204.080882 C362.106769,204.375 364.71291,211.176471 362.730775,215.772059 C362.547244,216.176471 362.143475,216.397059 361.703001,216.397059 Z" id="Path" fill="#1A1A1A"></path>
                    <path d="M367.208932,208.308824 C367.062107,208.308824 366.951989,208.272059 366.805164,208.235294 C366.254571,208.014706 365.960921,207.389706 366.181158,206.801471 C367.245639,204.080882 365.593859,201.801471 365.593859,201.801471 C365.226797,201.323529 365.336916,200.625 365.814096,200.257353 C366.291277,199.889706 366.988695,200 367.355757,200.477941 C367.465876,200.625 369.704955,203.75 368.236706,207.610294 C368.089881,208.051471 367.649407,208.308824 367.208932,208.308824 Z" id="Path" fill="#1A1A1A"></path>
                    <path d="M54.6555478,439.558824 C54.4720167,439.558824 54.2884857,439.522059 54.1049546,439.411765 C53.5910677,439.117647 53.4075366,438.419118 53.7011863,437.904412 C55.1327285,435.441176 52.8569435,432.132353 52.8202373,432.132353 C52.4531752,431.617647 52.6,430.955882 53.0771807,430.588235 C53.5543615,430.220588 54.2517795,430.367647 54.6188416,430.845588 C54.7656664,431.029412 57.7755757,435.330882 55.5732031,439.044118 C55.4263782,439.375 55.0593161,439.558824 54.6555478,439.558824 Z" id="Path" fill="#1A1A1A"></path>
                    <path d="M58.876762,434.044118 C58.693231,434.044118 58.5096999,434.007353 58.3628751,433.897059 C57.8122819,433.602941 57.6287509,432.941176 57.9224006,432.389706 C58.5464061,431.25 57.3718074,429.080882 56.8946267,428.419118 C56.5642708,427.904412 56.6743894,427.242647 57.1515701,426.875 C57.6654571,426.507353 58.3261689,426.654412 58.693231,427.132353 C58.9501745,427.5 61.2626657,430.882353 59.8678297,433.455882 C59.6475925,433.860294 59.2805304,434.044118 58.876762,434.044118 Z" id="Path" fill="#1A1A1A"></path>
                    <path d="M110.632519,466.764706 C110.485694,466.764706 110.302163,466.727941 110.155338,466.654412 C109.604745,466.397059 109.347802,465.735294 109.604745,465.183824 C110.485694,463.272059 109.494627,459.705882 109.017446,458.492647 C108.797209,457.941176 109.090858,457.279412 109.641452,457.058824 C110.192045,456.838235 110.852756,457.132353 111.072994,457.683824 C111.293231,458.235294 113.018423,462.977941 111.586881,466.066176 C111.440056,466.544118 111.072994,466.764706 110.632519,466.764706 Z" id="Path" fill="#1A1A1A"></path>
                    <path d="M115.477739,460.036765 C115.330914,460.036765 115.184089,460 115.037264,459.926471 C114.486671,459.669118 114.229728,459.007353 114.486671,458.455882 C115.147383,456.985294 114.119609,455 114.119609,454.963235 C113.82596,454.411765 114.046197,453.75 114.560084,453.455882 C115.110677,453.161765 115.771389,453.345588 116.065038,453.897059 C116.138451,454.007353 117.643405,456.838235 116.505513,459.338235 C116.285276,459.779412 115.881507,460.036765 115.477739,460.036765 Z" id="Path" fill="#1A1A1A"></path>
                    <path d="M524.751989,39.5220588 C524.201396,38.9705882 523.944452,38.7132353 513.923657,41.1397059 C507.389951,42.7205882 499.16776,44.9264706 493.404885,46.4705882 C487.568597,48.0514706 463.856385,54.5220588 462.791905,55.2205882 C461.617306,55.9926471 461.543894,58.0882353 461.323657,64.3014706 C461.213538,67.0220588 461.103419,70.4044118 460.846476,74.4485294 C460.479414,79.9264706 452.991347,104.264706 443.741382,129.889706 C439.006281,143.051471 434.601535,154.338235 430.784089,163.272059 C430.710677,163.345588 430.673971,163.455882 430.637264,163.529412 L430.637264,163.529412 L430.637264,163.566176 C430.637264,163.602941 430.600558,163.602941 430.600558,163.639706 C430.49044,163.933824 430.380321,164.191176 430.270202,164.485294 C425.681926,175.073529 422.011305,182.058824 419.698814,184.375 C416.835729,187.242647 412.17404,190.992647 406.961759,194.963235 C404.172087,197.022059 402.116539,198.455882 402.043126,198.529412 C401.933008,198.602941 401.822889,198.713235 401.749477,198.823529 C394.334822,204.227941 386.589812,209.522059 381.671179,212.830882 C390.370551,202.095588 396.977669,191.948529 400.905234,183.051471 C411.770272,158.492647 422.561898,77.0588235 426.122401,50.2941176 C426.342638,48.6029412 426.526169,47.1323529 426.7097,45.9558824 C427.77418,38.0882353 432.6194,30.5147059 441.135241,23.4558824 C448.439777,17.3897059 456.184787,13.6397059 458.38716,12.6470588 C468.444662,8.05147059 468.591486,1.54411765 468.591486,1.47058824 C468.591486,1.06617647 468.371249,0.698529412 468.040893,0.514705882 C467.563712,0.220588235 467.233357,2.13717932e-14 457.285973,1.58088235 C451.890161,2.42647059 444.475506,3.71323529 436.40014,5.18382353 C426.048988,7.05882353 406.117516,10.7720588 404.612561,11.5441176 C403.915143,11.875 403.878437,12.3897059 403.6582,14.7794118 C403.36455,17.6838235 402.850663,23.0514706 401.125471,27.8676471 C399.180042,33.3455882 396.830844,40.1102941 394.077879,47.9411765 C382.14836,82.1323529 364.125611,133.786765 356.454013,146.029412 C344.671319,164.852941 312.223029,188.823529 288.400698,196.286765 C262.70635,204.338235 254.300628,208.897059 244.022889,216.691176 C237.415771,221.691176 229.670761,229.742647 221.485276,238.308824 C212.088486,248.088235 202.36134,258.235294 193.515143,264.595588 C187.458618,268.970588 180.484438,272.757353 173.069784,276.801471 C166.939846,280.147059 160.699791,283.529412 154.643266,287.426471 L154.386322,287.573529 C154.276204,287.610294 154.202791,287.720588 154.092673,287.794118 C147.375436,292.132353 140.878437,297.058824 134.858618,303.235294 C118.304117,320.257353 99.4738311,345.183824 73.7794836,384.044118 C66.7318911,394.705882 59.1704117,406.801471 52.1228193,418.382353 L51.3519888,419.595588 C51.1317516,419.889706 50.9482205,420.220588 50.7646895,420.514706 C50.691277,420.625 50.691277,420.735294 50.6545708,420.845588 C35.7518493,445.367647 23.3818562,467.095588 22.8679693,467.941176 C21.1794836,470.588235 18.4265178,474.080882 16.37097,475.441176 C13.6547104,477.205882 7.5247732,485.257353 4.7718074,490.147059 C1.06448011,496.764706 -0.110118632,499.852941 0.440474529,501.580882 C0.624005583,502.132353 0.954361479,502.573529 1.46824843,502.830882 C1.61507327,502.904412 1.83531054,503.014706 2.16566643,503.014706 C2.42260991,503.014706 2.75296581,502.941176 3.15673412,502.720588 C2.34919749,506.029412 3.23014655,506.544118 3.63391486,506.764706 C4.18450803,507.095588 4.7718074,507.058824 5.54263782,506.580882 C5.43251919,507.426471 5.54263782,508.161765 5.87299372,508.639706 C6.20334962,509.080882 6.68053036,509.301471 7.23112352,509.301471 C7.30453594,509.301471 7.37794836,509.301471 7.48806699,509.301471 C8.03866015,509.227941 8.73607816,508.933824 9.98408932,507.720588 C10.0207955,507.794118 10.0207955,507.830882 10.0575017,507.867647 C10.3511514,508.529412 10.8283322,509.007353 11.5257502,509.227941 C11.7092812,509.301471 11.8928123,509.338235 12.0763433,509.338235 C13.1408234,509.338235 14.7926029,508.161765 19.4542917,502.058824 C19.6378227,501.801471 19.8213538,501.580882 20.0048849,501.323529 C20.1150035,501.948529 20.3352408,502.5 20.6655967,502.904412 C20.9959525,503.308824 21.4731333,503.566176 22.0237264,503.566176 C22.0604327,503.566176 22.0604327,503.566176 22.0971389,503.566176 C23.5286811,503.566176 24.9602233,502.058824 26.7588276,500.110294 C27.7131891,499.117647 28.6675506,498.088235 29.6219121,497.279412 C34.9076064,492.867647 35.7518493,488.602941 36.045499,484.595588 L40.4502442,475.919118 C42.3956734,472.794118 44.8549895,469.154412 47.4978367,465.477941 L47.6446615,465.257353 C47.6446615,465.257353 47.6446615,465.257353 47.6446615,465.220588 C52.086113,459.080882 57.0047453,452.941176 60.8588974,449.191176 C65.3370551,444.852941 73.155478,438.272059 82.2219121,430.625 C87.6544313,426.066176 93.3438939,421.25 98.923238,416.433824 C99.0700628,417.279412 99.4004187,418.088235 99.9143057,418.786765 C101.455967,420.845588 104.282345,421.507353 105.713887,421.691176 C105.860712,422.279412 106.154361,423.051471 106.631542,423.860294 C107.439079,425.147059 108.98074,426.617647 111.696999,426.617647 C111.953943,426.617647 112.210886,426.617647 112.46783,426.580882 C116.799163,426.176471 119.809072,422.279412 121.020377,420.330882 C121.938032,421.25 123.039218,422.095588 124.250523,422.794118 C118.414236,432.904412 95.6930914,454.227941 78.9183531,469.522059 C70.7328681,476.985294 50.0672715,492.941176 49.8837404,493.088235 C49.8470342,493.088235 48.0117237,494.485294 46.1030007,495.294118 C43.717097,496.286765 37.9542219,501.507353 36.8897418,503.382353 C36.045499,504.852941 31.4205164,509.852941 30.6863922,510.588235 C30.2459177,511.029412 30.1725052,511.654412 30.5028611,512.169118 C30.9066294,512.830882 32.0078158,513.235294 33.0722959,513.419118 C28.3371947,519.705882 28.5207258,520.735294 28.6308444,521.323529 C28.7042568,521.764706 28.9612003,522.095588 29.3282624,522.279412 C29.6219121,522.463235 29.952268,522.536765 30.2826239,522.536765 C30.649686,522.536765 31.0901605,522.426471 31.530635,522.242647 C31.347104,522.720588 31.3103978,523.125 31.347104,523.419118 C31.4205164,523.786765 31.6407537,524.117647 31.9344033,524.338235 C32.3014655,524.595588 32.7052338,524.705882 33.1457083,524.705882 C34.2101884,524.705882 35.531612,523.970588 37.1466853,522.426471 C37.1833915,522.536765 37.1833915,522.610294 37.2200977,522.720588 C37.440335,523.272059 37.8441033,523.676471 38.4314027,523.823529 C38.5415213,523.860294 38.6516399,523.897059 38.835171,523.897059 C39.4224703,523.897059 40.5970691,523.492647 43.0930914,521.066176 C43.3867411,521.544118 43.8272156,521.875 44.414515,522.022059 C44.5613398,522.058824 44.7081647,522.095588 44.8549895,522.095588 C46.323238,522.095588 48.2686671,520.110294 52.9670621,514.595588 C53.9214236,513.492647 54.8023726,512.426471 55.4630844,511.727941 C65.5205862,500.992647 91.0314027,487.683824 115.697976,474.779412 C134.344731,465.036765 151.927006,455.845588 161.323796,448.492647 C173.803908,438.75 180.007258,430.441176 186.540963,421.617647 C191.60642,414.816176 196.855408,407.757353 205.444662,399.154412 C214.731333,389.852941 237.195534,377.867647 263.220237,364.007353 C293.61298,347.794118 328.080112,329.448529 353.664341,309.154412 C406.447872,267.242647 447.485415,229.852941 460.699651,211.507353 C472.482345,195.183824 484.301745,126.654412 489.991207,93.7132353 C491.312631,86.0661765 492.266992,80.5514706 492.817585,78.0147059 C495.056664,67.6102941 503.976274,61.3235294 511.831403,55.7720588 C513.923657,54.2647059 515.942498,52.8676471 517.777809,51.4338235 C524.788695,45.8455882 525.743057,43.3455882 525.816469,41.9117647 C525.743057,41.0294118 525.412701,40.2205882 524.751989,39.5220588 Z M246.115143,321.580882 C246.188555,318.529412 246.408793,315.661765 246.62903,313.566176 C247.730216,315.661765 249.271877,318.713235 250.666713,321.911765 C255.108165,332.095588 254.594278,335.735294 253.89686,337.022059 C253.676622,337.463235 253.199442,338.051471 251.878018,338.088235 C250.703419,338.125 249.785764,337.720588 248.978227,336.838235 C246.959386,334.595588 245.968318,329.301471 246.115143,321.580882 Z M262.119051,362.095588 C239.875087,373.970588 220.200558,384.448529 208.931752,393.161765 C208.821633,393.198529 208.748221,393.235294 208.638102,393.272059 C208.601396,393.272059 205.811724,395.036765 198.397069,396.433824 C190.578646,397.904412 180.888207,400.367647 175.382275,406.470588 C173.033077,409.080882 167.820796,415.625 170.500349,419.926471 C170.867411,420.514706 171.418004,420.882353 172.078716,421.029412 C172.225541,421.066176 172.372366,421.066176 172.519191,421.066176 C174.501326,421.066176 177.144173,418.933824 180.154082,416.507353 C181.695743,415.257353 183.310816,413.970588 184.63224,413.161765 C186.394138,412.095588 186.834613,412.352941 186.871319,412.352941 C187.128262,412.5 187.935799,412.977941 187.788974,414.779412 C187.715562,415.772059 187.3485,416.691176 187.311793,416.801471 C186.430844,417.977941 185.549895,419.154412 184.668946,420.330882 C177.915003,429.411765 172.078716,437.242647 159.855548,446.801471 C150.605583,454.044118 133.09672,463.161765 114.560084,472.867647 C99.8408932,480.551471 84.828053,488.382353 72.8985345,495.772059 C72.8251221,495.808824 72.7517097,495.808824 72.6782973,495.845588 C68.3836706,498.014706 66.0344731,497.095588 63.9789253,496.286765 C62.5840893,495.735294 61.1158409,495.183824 59.5374738,496.029412 C57.5920447,497.058824 56.8579204,499.816176 57.7021633,503.051471 C58.3261689,505.551471 56.7110956,507.132353 56.6376832,507.205882 C56.4908583,507.316176 56.4174459,507.5 56.3440335,507.647059 C55.389672,508.529412 54.508723,509.375 53.7378925,510.220588 C53.0404745,510.955882 52.1228193,512.022059 51.1684578,513.161765 C49.4799721,515.147059 46.0662945,519.117647 44.8182833,519.816176 C44.7815771,519.632353 44.8549895,519.301471 44.928402,519.007353 C45.9928821,517.867647 47.204187,516.433824 48.599023,514.669118 C48.9660851,514.191176 48.8926727,513.492647 48.415492,513.125 C47.9383112,512.757353 47.2408932,512.830882 46.8738311,513.308824 C44.1942777,516.691176 40.7806001,520.367647 39.2389393,521.433824 C39.4591766,520.698529 40.0097697,519.485294 40.6704815,518.455882 C40.7071877,518.419118 40.7071877,518.382353 40.7438939,518.308824 C42.0653175,516.654412 43.0563852,515.294118 43.0930914,515.220588 C43.4601535,514.705882 43.3133287,514.044118 42.8361479,513.676471 C42.322261,513.308824 41.6615492,513.455882 41.2944871,513.933824 C38.3579902,518.088235 35.3113747,521.25 33.7697139,522.205882 C34.3570133,521.066176 35.531612,519.264706 36.6327983,517.757353 C36.742917,517.647059 36.7796232,517.5 36.8163294,517.352941 C38.7617585,515.147059 40.3034194,513.014706 40.3768318,512.904412 C40.7438939,512.426471 40.6337753,511.727941 40.1565946,511.360294 C39.6794138,510.992647 38.9819958,511.102941 38.6149337,511.580882 C35.8986741,515.257353 32.8887648,518.602941 31.1635729,519.816176 C32.4482903,517.536765 35.9353803,512.904412 39.1655269,508.970588 L44.1575715,505.992647 C45.4055827,507.352941 48.2686671,509.595588 52.4531752,507.352941 C53.0037683,507.058824 53.1872994,506.397059 52.9303559,505.845588 C52.6367062,505.294118 51.9759944,505.110294 51.4254013,505.367647 C47.6446615,507.389706 45.5891137,504.301471 45.3688765,503.933824 C45.0385206,503.419118 44.3778088,503.235294 43.8639218,503.566176 L37.9175157,507.169118 C37.8073971,507.242647 37.7339846,507.316176 37.623866,507.426471 C37.623866,507.463235 36.2657362,509.080882 34.6139567,511.176471 C34.5038381,511.176471 34.3937195,511.176471 34.2836008,511.213235 C33.9899512,511.323529 33.439358,511.25 32.9988835,511.176471 C34.6139567,509.448529 37.8073971,505.919118 38.6149337,504.448529 C39.4591766,502.977941 44.8549895,498.088235 46.7637125,497.316176 C48.9660851,496.397059 50.9482205,494.926471 51.0583391,494.852941 C51.2785764,494.705882 71.9808793,478.676471 80.2397767,471.139706 C80.9371947,470.514706 81.6346127,469.852941 82.3320307,469.227941 C82.3687369,469.227941 82.3687369,469.191176 82.4054431,469.191176 C83.1395673,468.676471 85.525471,467.316176 86.7734822,467.941176 C87.6544313,468.382353 88.2784368,469.044118 88.9024424,469.669118 C89.7099791,470.477941 90.6276343,471.433824 91.9857641,471.433824 C92.5363573,471.433824 93.1603629,471.286765 93.8577809,470.882353 C95.3994417,470.036765 96.7208653,466.985294 99.0333566,461.176471 C101.125611,456.029412 103.695045,449.632353 106.55813,446.360294 C106.594836,446.286765 106.668248,446.25 106.704955,446.176471 C115.697976,437.205882 123.075925,429.080882 126.12254,423.713235 C126.379484,423.823529 126.636427,423.897059 126.893371,423.970588 C125.755478,425.404412 124.360642,427.610294 124.507467,429.375 C124.580879,430.183824 124.984648,430.845588 125.608653,431.286765 C126.12254,431.654412 126.783252,431.801471 127.48067,431.801471 C130.417167,431.801471 134.418144,429.080882 136.143336,427.830882 C138.529239,427.904412 150.091696,427.536765 155.157153,415.882353 C157.726588,409.963235 157.396232,403.713235 154.239498,397.720588 L164.296999,389.742647 C164.700768,389.411765 164.810886,388.860294 164.590649,388.419118 C164.370412,387.941176 163.856525,387.720588 163.342638,387.830882 C159.818842,388.602941 149.798046,390.110294 145.833775,387.830882 C145.833775,387.830882 145.797069,387.830882 145.797069,387.794118 C145.760363,387.794118 145.723657,387.757353 145.723657,387.757353 C145.68695,387.757353 145.650244,387.720588 145.613538,387.720588 C145.576832,387.720588 145.540126,387.720588 145.540126,387.683824 C145.503419,387.683824 145.466713,387.683824 145.430007,387.683824 C145.393301,387.683824 145.356595,387.683824 145.356595,387.683824 C145.319888,387.683824 145.283182,387.683824 145.246476,387.683824 C145.20977,387.683824 145.20977,387.683824 145.173064,387.683824 C145.136357,387.683824 145.099651,387.683824 145.062945,387.720588 C145.026239,387.720588 145.026239,387.720588 144.989532,387.757353 C144.952826,387.757353 144.91612,387.794118 144.879414,387.830882 C144.842708,387.830882 144.842708,387.867647 144.806001,387.867647 C144.769295,387.904412 144.732589,387.941176 144.695883,387.941176 L144.659177,387.977941 C144.62247,388.014706 144.585764,388.051471 144.512352,388.125 L144.512352,388.125 L144.512352,388.125 L144.512352,388.125 C144.475645,388.198529 144.438939,388.235294 144.402233,388.308824 L144.402233,388.345588 C144.365527,388.382353 144.365527,388.455882 144.328821,388.529412 C144.328821,388.566176 144.328821,388.566176 144.328821,388.602941 C144.328821,388.639706 144.328821,388.713235 144.292114,388.75 C144.292114,388.786765 144.292114,388.786765 144.292114,388.823529 C144.292114,388.860294 144.292114,388.897059 144.292114,388.970588 C144.292114,389.007353 144.292114,389.007353 144.292114,389.044118 C144.292114,389.080882 144.292114,389.117647 144.328821,389.154412 C144.328821,389.191176 144.365527,389.191176 144.365527,389.227941 C144.365527,389.264706 144.402233,389.301471 144.402233,389.338235 C144.402233,389.375 144.438939,389.375 144.438939,389.411765 C144.475645,389.448529 144.475645,389.485294 144.512352,389.522059 C144.549058,389.558824 144.549058,389.558824 144.585764,389.595588 L144.62247,389.632353 L147.852617,392.647059 C148.953803,393.823529 150.201814,395.367647 151.339707,397.132353 C155.120447,403.125 155.744452,409.191176 153.138311,415.110294 C148.146267,426.617647 136.400279,425.772059 135.886392,425.735294 C135.592742,425.698529 135.335799,425.772059 135.115562,425.955882 C132.068946,428.272059 127.921144,430.330882 126.856664,429.595588 C126.746546,429.522059 126.673133,429.448529 126.673133,429.264706 C126.563015,428.088235 128.398325,425.551471 129.719749,424.154412 C130.013398,423.860294 130.086811,423.419118 129.976692,423.014706 C129.866574,422.610294 129.499512,422.352941 129.059037,422.279412 C123.222749,421.580882 119.809072,415.919118 118.671179,413.639706 C124.030286,410.404412 126.085834,404.889706 126.195953,404.632353 C126.379484,404.117647 126.159246,403.492647 125.645359,403.272059 C124.654292,402.794118 121.681089,400.992647 121.167202,399.191176 C121.020377,398.639706 121.093789,398.161765 121.424145,397.647059 C122.9291,395.294118 125.571947,395.845588 128.8388,396.764706 C129.352687,396.911765 129.829867,397.058824 130.270342,397.132353 C131.041172,397.316176 132.252477,397.279412 133.610607,396.066176 C135.776274,394.154412 137.244522,390.330882 136.987579,387.389706 C136.693929,384.301471 134.418144,382.5 133.023308,381.654412 C140.401256,371.580882 144.695883,363.308824 144.769295,363.198529 C145.062945,362.647059 144.842708,361.985294 144.292114,361.727941 C143.741521,361.433824 143.080809,361.654412 142.823866,362.205882 C142.713747,362.389706 133.39037,380.441176 118.414236,395.588235 C108.466853,405.625 93.6742498,418.125 80.6068388,429.117647 C71.5404047,436.764706 63.6852756,443.382353 59.1337055,447.757353 C55.4630844,451.323529 50.3976274,457.573529 45.7726448,463.970588 C45.5891137,464.154412 42.2121424,467.426471 37.6972784,468.198529 C37.1099791,468.308824 36.5960921,468.382353 36.0822052,468.455882 C31.9711096,469.117647 29.7320307,469.522059 29.5484997,471.875 C29.4750872,472.794118 30.0623866,473.933824 30.9433357,475.625 C32.1913468,478.014706 33.8798325,481.286765 33.6595953,484.301471 L33.6595953,484.301471 L33.6595953,484.301471 C33.3659456,488.051471 32.74194,491.727941 28.0068388,495.661765 C26.9423587,496.544118 25.9145848,497.610294 24.9602233,498.676471 C24.042568,499.632353 22.7211445,501.066176 22.0604327,501.360294 C21.8769016,500.845588 21.8401954,499.595588 21.950314,498.455882 C23.4552687,496.360294 24.5197488,494.779412 24.556455,494.742647 L28.5207258,488.566176 C28.740963,488.198529 28.740963,487.757353 28.557432,487.389706 C28.3371947,487.022059 27.9334264,486.838235 27.5296581,486.838235 C25.2905792,486.985294 23.5653873,486.139706 22.3540823,484.301471 C21.3630147,482.830882 21.1060712,481.25 21.1060712,481.213235 C20.9959525,480.625 20.4453594,480.220588 19.8213538,480.294118 C19.2340544,480.404412 18.8302861,480.955882 18.9036985,481.580882 C19.3074669,484.007353 21.2161898,488.198529 25.6576413,488.933824 L22.7211445,493.455882 C21.8401954,494.779412 20.9225401,496.029412 20.0782973,497.242647 C20.0415911,497.316176 19.9681786,497.352941 19.9314724,497.426471 C16.3342638,502.426471 13.1041172,506.323529 11.9295185,506.985294 L11.9295185,506.948529 C11.7459874,506.507353 12.0029309,505.477941 12.2598744,504.852941 C12.9572924,503.970588 13.7281228,502.941176 14.6090719,501.691176 C17.068388,498.272059 19.2340544,494.816176 19.2707606,494.779412 C19.6011165,494.264706 19.4542917,493.566176 18.9404047,493.272059 C18.4265178,492.941176 17.7290998,493.088235 17.4354501,493.602941 C15.1963712,497.132353 12.5902303,500.882353 10.4979763,503.529412 C10.4612701,503.566176 10.4612701,503.602941 10.4245639,503.639706 C9.24996511,505.110294 8.25889742,506.213235 7.59818562,506.727941 C7.74501047,505.845588 8.185485,504.375 8.77278437,503.051471 L14.2420098,494.632353 C14.5723657,494.117647 14.4255408,493.455882 13.9116539,493.088235 C13.3977669,492.757353 12.7370551,492.904412 12.369993,493.419118 L6.79064899,501.985294 C5.94640614,503.014706 5.32240056,503.676471 4.91863224,504.080882 C5.1388695,502.977941 5.65275645,501.213235 6.27676204,499.558824 C6.31346825,499.448529 6.35017446,499.338235 6.35017446,499.227941 C7.45136078,497.757353 8.73607816,495.772059 10.3144452,493.014706 C10.6080949,492.5 10.4245639,491.801471 9.9106769,491.507353 C9.39678995,491.213235 8.69937195,491.397059 8.40572226,491.911765 C6.35017446,495.477941 3.63391486,499.411765 2.31249128,500.477941 C2.34919749,499.632353 3.0833217,497.316176 6.53370551,491.176471 C9.28667132,486.25 15.1963712,478.676471 17.4354501,477.205882 C20.1517097,475.441176 23.2350314,471.25 24.6298674,469.044118 C24.6298674,469.044118 24.6298674,469.007353 24.6665736,469.007353 C24.8501047,468.676471 37.8441033,445.882353 53.2607118,420.551471 C55.4263782,417.794118 59.3539428,416.176471 62.5473831,414.852941 C64.2358688,414.154412 65.667411,413.566176 66.6584787,412.904412 C70.0354501,410.588235 71.6138172,407.022059 73.0086532,403.897059 C73.1921842,403.492647 73.3757153,403.051471 73.5592463,402.647059 C75.761619,397.867647 76.6058618,397.242647 82.038381,393.161765 C82.4788555,392.830882 82.9927425,392.463235 83.5066294,392.058824 C89.0859735,387.830882 89.6732729,383.272059 90.4441033,377.463235 C90.6643405,375.772059 90.8845778,374.007353 91.2516399,372.095588 C92.8667132,363.897059 100.06113,349.742647 100.134543,349.595588 C100.207955,349.448529 100.244662,349.338235 100.244662,349.191176 C114.046197,330 125.645359,315.772059 136.290161,304.816176 C141.72268,299.227941 147.595673,294.669118 153.688904,290.625 C153.835729,291.139706 154.055967,291.654412 154.496441,292.132353 C155.450803,293.198529 156.955757,293.602941 159.011305,293.345588 C161.323796,293.051471 163.7097,292.095588 165.765248,291.25 C168.077739,290.294118 170.500349,289.301471 171.491417,289.963235 C172.04201,290.330882 172.482484,291.360294 172.922959,292.426471 C173.767202,294.448529 174.978507,297.316176 178.465597,297.316176 C179.236427,297.316176 180.117376,297.169118 181.14515,296.838235 C185.770133,295.367647 188.045918,290.073529 190.725471,283.933824 C192.413957,280.036765 194.175855,275.992647 196.74529,272.389706 C202.911933,263.713235 211.244243,257.352941 215.465457,257.977941 C216.3097,260.772059 217.410886,264.080882 218.842428,267.720588 C222.99023,278.382353 230.808653,294.338235 244.463364,310.147059 C243.362177,311.580882 240.792742,314.963235 238.370133,318.75 C233.891975,325.735294 232.093371,330.477941 232.827495,333.235294 C233.121144,334.375 233.855269,335.220588 234.956455,335.625 C235.39693,335.808824 235.87411,335.882353 236.314585,335.882353 C236.975297,335.882353 237.599302,335.698529 238.223308,335.330882 C240.609211,333.933824 242.444522,329.705882 243.839358,325.110294 C243.986183,330.404412 244.867132,335.698529 247.289742,338.382353 C248.464341,339.705882 249.932589,340.367647 251.621075,340.367647 C251.731193,340.367647 251.841312,340.367647 251.951431,340.367647 C254.190509,340.257353 255.25499,339.117647 255.768876,338.125 C258.081368,333.897059 254.190509,324.080882 250.813538,317.095588 C261.238102,327.977941 270.855129,335.294118 277.462247,339.779412 C283.261828,343.676471 287.666574,345.992647 289.942359,347.095588 C280.618981,352.242647 271.185485,357.279412 262.119051,362.095588 Z M244.169714,314.227941 C243.839358,316.102941 243.362177,318.382353 242.811584,320.735294 C240.499093,330.220588 238.29672,332.720588 237.195534,333.382353 C236.718353,333.639706 236.314585,333.676471 235.87411,333.529412 C235.433636,333.345588 235.176692,333.088235 235.066574,332.610294 C234.185625,329.375 239.434613,320.735294 244.169714,314.227941 Z M297.210188,195.294118 C312.88374,189.301471 328.814236,177.830882 334.026518,174.375 C340.156455,170.294118 346.947104,164.669118 350.434194,164.595588 C354.618702,164.485294 356.67425,168.602941 358.619679,172.794118 C360.381577,176.580882 362.216888,180.477941 365.850803,178.860294 C370.91626,176.580882 369.154361,168.272059 367.612701,160.955882 C367.13552,158.713235 366.695045,156.580882 366.511514,154.926471 C366.181158,151.911765 367.13552,150.294118 368.163294,148.602941 C369.26448,146.764706 370.402373,144.816176 369.668248,141.470588 C367.42917,131.25 368.383531,125.661765 368.713887,124.338235 C368.787299,124.117647 368.787299,124.007353 368.824006,123.970588 C368.824006,123.970588 368.824006,123.970588 368.824006,123.933824 C377.376553,102.352941 388.131472,71.5808824 396.133426,48.6764706 C398.886392,40.8455882 401.23559,34.0441176 403.181019,28.6029412 C404.979623,23.5294118 405.530216,17.9779412 405.823866,15 C405.897278,14.4117647 405.933985,13.7867647 406.007397,13.3823529 C411.69686,11.7279412 458.166923,3.41911765 466.13217,2.57352941 C465.544871,4.33823529 463.636148,7.83088235 457.469505,10.6617647 C455.560782,11.5441176 449.504257,14.4485294 443.117376,19.1544118 C442.970551,19.1544118 442.78702,19.1911765 442.640195,19.2647059 C442.126308,19.5220588 429.866434,25.3676471 423.002373,30.2573529 C417.643266,34.0808824 413.05499,38.0882353 415.514306,41.5808824 C416.211724,42.5735294 417.679972,43.0514706 420.065876,43.0514706 C420.689881,43.0514706 421.387299,43.0147059 422.121424,42.9411765 C423.22261,42.8308824 424.250384,42.7205882 425.094627,42.5735294 C424.837683,43.6029412 424.617446,44.6323529 424.470621,45.6985294 C424.323796,46.875 424.103559,48.3455882 423.883322,50.0367647 C420.359525,76.7279412 409.5679,157.904412 398.849686,182.169118 C390.811026,200.294118 371.356734,223.970588 345.442149,247.058824 C343.900488,248.419118 342.358828,249.779412 340.817167,251.102941 C339.459037,247.720588 334.283461,235.845588 324.152547,222.352941 C312.773622,207.242647 300.954222,198.014706 297.210188,195.294118 Z M516.30956,49.7426471 C514.510956,51.1397059 512.565527,52.5367647 510.473273,54.0073529 C508.8582,55.1470588 507.169714,56.3602941 505.517934,57.5735294 C505.37111,57.5735294 505.187579,57.6102941 505.040754,57.6470588 C504.600279,57.8308824 494.212421,62.4264706 488.890021,66.7647059 C484.852338,70.0735294 480.814655,75.4411765 482.723378,79.7058824 C483.457502,81.3970588 484.301745,82.8676471 485.072575,84.2647059 C486.687648,87.1691176 488.009072,89.5220588 487.825541,92.2794118 C487.715422,93.0147059 487.64201,93.4926471 487.64201,93.6029412 C487.64201,93.7132353 487.64201,93.8235294 487.64201,93.9338235 C481.952547,126.911765 470.243266,194.448529 458.827634,210.257353 C446.86141,226.838235 411.770272,259.338235 365.703978,296.654412 C353.737753,272.426471 340.486811,260.551471 336.706071,257.5 C340.193161,254.595588 343.606839,251.654412 346.947104,248.676471 C358.399442,238.492647 368.567062,228.161765 377.119609,218.235294 C377.339846,218.235294 377.560084,218.198529 377.743615,218.051471 C378.587858,217.5 391.8388,208.786765 403.951849,199.889706 C408.430007,197.316176 415.000419,194.595588 416.982554,195.882353 C418.047034,196.580882 419.221633,199.485294 420.359525,202.279412 C422.341661,207.169118 424.800977,213.125 428.985485,213.125 C429.536078,213.125 430.086671,213.014706 430.673971,212.830882 C435.445778,211.139706 434.014236,205.330882 432.766225,200.183824 C431.921982,196.654412 431.004327,193.014706 432.142219,191.360294 C435.445778,186.433824 436.253315,182.720588 435.04201,177.720588 C434.638241,176.102941 433.97753,174.742647 433.316818,173.419118 C432.068807,170.919118 431.004327,168.75 432.252338,165.330882 L432.399163,164.963235 C437.611445,152.830882 442.860433,138.676471 445.760223,130.625 C455.046895,104.816176 462.608374,80.2205882 462.975436,74.5588235 C463.23238,70.5147059 463.342498,67.0955882 463.452617,64.3382353 C463.562736,60.9926471 463.672854,57.7941176 464.039916,56.9852941 C468.224424,55.3676471 518.144871,41.7647059 523.357153,41.3235294 C523.430565,41.4705882 523.467271,41.6176471 523.467271,41.7647059 C523.430565,42.6838235 522.439498,44.8529412 516.30956,49.7426471 Z" id="Shape" fill="#1A1A1A"></path>
                    <g transform="translate(221.338451, 198.161765)" fill="#FFFFFF">
                        <path d="M81.2308444,4.22794118 C80.2397767,5.55147059 79.6891835,7.83088235 79.0284717,10.5514706 C78.037404,14.7058824 76.7526867,19.8529412 73.5959525,20.8823529 C72.1277041,21.3602941 70.8062805,21.1764706 69.7418004,20.2941176 C68.0166085,18.8970588 67.1356595,15.9558824 67.4660154,12.8308824 C68.1267271,6.65441176 75.8717376,2.5 77.9639916,1.50735294 C77.2665736,0.919117647 76.6058618,0.441176471 76.0552687,1.13686838e-13 C72.8985345,1.65441176 65.9977669,5.99264706 65.3003489,12.6102941 C64.8598744,16.5441176 66.0344731,20.1838235 68.3469644,22.0588235 C69.4481507,22.9411765 70.7328681,23.3823529 72.0909979,23.3823529 C72.7884159,23.3823529 73.5225401,23.2720588 74.2933706,23.0147059 C78.6247034,21.5808824 80.0195394,15.7720588 81.157432,11.1029412 C81.6713189,9.04411765 82.2219121,6.72794118 82.8826239,5.73529412 C82.2953245,5.18382353 81.7447313,4.66911765 81.2308444,4.22794118 Z" id="Path"></path>
                        <path d="M92.0591766,14.7426471 C89.3796232,14.8161765 85.9659456,15.9926471 83.8002791,19.8897059 C82.5155618,22.2058824 82.3687369,25.8088235 82.1852059,29.9632353 C81.8915562,37.5735294 81.5612003,46.1764706 73.8161898,48.4191176 C68.97097,49.8161765 66.9154222,47.2426471 64.0523378,43.75 C62.2170272,41.5073529 60.1614794,38.9705882 57.0414515,37.3161765 C53.9581298,35.6985294 49.0027913,35.2205882 44.8549895,37.8676471 C40.6704815,40.5147059 38.5415213,45.6617647 38.9085834,52.3161765 C39.2389393,59.0808824 41.2210747,63.8602941 44.7448709,66.5441176 C47.8281926,68.8970588 51.4988137,69.1544118 53.9581298,69.1544118 L54.6555478,69.1544118 C58.2527565,69.1544118 64.3092812,69.1176471 66.6584787,71.6911765 C67.3926029,72.5367647 67.7229588,73.5661765 67.576134,74.9264706 L67.4660154,76.0294118 C66.7685973,82.9044118 66.1078856,89.4117647 72.3112352,90.625 C72.3846476,90.625 72.45806,90.6617647 72.5314724,90.6617647 C73.0453594,90.6617647 73.5225401,90.2941176 73.5959525,89.7794118 C73.7060712,89.1911765 73.3390091,88.6029412 72.7150035,88.4926471 C68.6773203,87.6838235 68.8975576,83.5294118 69.6316818,76.25 L69.7418004,75.1470588 C69.9253315,73.1617647 69.4481507,71.5073529 68.273552,70.1838235 C65.3003489,66.9117647 58.876762,66.9117647 54.6555478,66.9485294 L53.994836,66.9485294 C48.3420796,66.9485294 41.808374,65.2573529 41.1476622,52.2058824 C40.7806001,44.7426471 43.6436846,41.2867647 46.1030007,39.7058824 C49.4799721,37.5367647 53.6277739,37.9779412 56.0503838,39.2647059 C58.7666434,40.7352941 60.6019539,42.9779412 62.4005583,45.1470588 C65.2636427,48.6764706 68.273552,52.3529412 74.4769016,50.5514706 C83.7635729,47.9044118 84.130635,38.0147059 84.4609909,30.0735294 C84.6078158,26.3602941 84.7546406,22.8676471 85.7824145,20.9926471 C88.7556176,15.625 94.1147244,17.1323529 94.3349616,17.2058824 L94.3349616,17.2058824 C93.5641312,16.3602941 92.7933008,15.5514706 92.0591766,14.7426471 Z" id="Path"></path>
                        <path d="M64.5295185,122.279412 C64.1257502,122.279412 63.7219819,122.058824 63.5384508,121.654412 C59.7210049,113.676471 58.8033496,105.183824 58.5831124,100.845588 C58.4729937,98.5661765 59.6108863,96.3602941 61.5563154,95.1838235 C82.4421493,82.3161765 102.00656,68.0882353 119.625541,52.8308824 C120.102722,52.4264706 120.763433,52.5 121.167202,52.9411765 C121.57097,53.4191176 121.497558,54.0808824 121.057083,54.4852941 C103.327983,69.8161765 83.6901605,84.1176471 62.694208,97.0588235 C61.4094906,97.8308824 60.6753664,99.2647059 60.7487788,100.735294 C60.9690161,104.926471 61.8499651,113.051471 65.48388,120.698529 C65.7408234,121.25 65.5205862,121.911765 64.969993,122.169118 C64.8231682,122.242647 64.6763433,122.279412 64.5295185,122.279412 Z" id="Path"></path>
                        <path d="M22.0237264,22.1691176 C22.1338451,22.0220588 22.1705513,21.8382353 22.2072575,21.6544118 C20.5921842,22.9411765 18.9404047,24.4117647 17.2152128,26.0294118 C14.1318911,31.5441176 9.72714585,40.4779412 9.36008374,46.875 C9.10314027,51.25 10.5713887,54.5955882 13.4711793,56.2867647 C14.7926029,57.0588235 16.3342638,57.4264706 17.9860433,57.4264706 C20.1884159,57.4264706 22.5376134,56.7279412 24.6298674,55.3676471 C32.0078158,50.6617647 35.7885555,37.8308824 36.1556176,30.2205882 C36.22903,28.75 36.5226797,27.8308824 37.0732729,27.4264706 C37.9909281,26.7279412 40.1198883,27.2794118 42.3589672,27.8308824 C44.6347523,28.4191176 47.204187,29.0808824 49.810328,28.8602941 C52.9670621,28.6029412 55.6833217,27.1323529 57.6287509,24.5955882 C59.9045359,21.6176471 60.8588974,17.5735294 60.1614794,13.7867647 C59.3539428,9.375 55.2795534,6.61764706 52.4898814,5.22058824 C51.4621075,5.58823529 50.4710398,5.95588235 49.5166783,6.32352941 C51.0216329,6.875 57.1148639,9.44852941 57.995813,14.1911765 C58.5831124,17.3529412 57.7755757,20.8088235 55.8668528,23.2720588 C54.7656664,24.7058824 52.8202373,26.4338235 49.6267969,26.6911765 C47.3877181,26.875 45.0018144,26.25 42.8728542,25.6985294 C40.0097697,24.9632353 37.5137474,24.3382353 35.7151431,25.6617647 C34.6139567,26.5073529 34.0266574,27.9411765 33.9165387,30.1470588 C33.5494766,38.3823529 29.4016748,49.7058824 23.4185625,53.5294118 C20.4453594,55.4411765 16.9582694,55.7720588 14.5723657,54.375 C12.369993,53.0882353 11.3422191,50.5514706 11.5257502,46.9852941 C12.0763433,37.8308824 21.9136078,22.3161765 22.0237264,22.1691176 Z" id="Path"></path>
                        <path d="M43.6803908,119.963235 C43.6436846,119.926471 43.6436846,119.889706 43.6069784,119.852941 C37.8808095,111.066176 36.3758548,104.411765 38.7250523,98.3088235 C39.9363573,95.1838235 43.20321,92.3897059 46.1397069,89.8897059 C48.8192603,87.6102941 51.1317516,85.625 51.9392882,83.4558824 C52.7101186,81.4338235 52.4531752,79.1911765 51.205164,77.1691176 C49.993859,75.1838235 46.7637125,71.6911765 38.7984648,70.8455882 C29.1814375,69.8161765 23.0515003,76.4338235 19.4175855,80.4044118 C18.977111,80.8823529 18.5733426,81.3235294 18.2062805,81.6911765 C17.3987439,82.5 16.6646197,82.9044118 16.0039079,82.7941176 C15.0128402,82.6838235 14.2053036,81.5808824 13.9850663,81.1764706 C13.9483601,81.1029412 13.8749477,81.0294118 13.8382415,80.9558824 C5.54263782,65.8455882 2.49602233,54.5955882 2.45931612,54.4485294 C2.31249128,53.8602941 1.68848569,53.4926471 1.10118632,53.6764706 C0.51388695,53.8235294 0.146824843,54.4485294 0.330355897,55.0367647 C0.367062107,55.1838235 1.32142359,58.8235294 3.70732729,64.7794118 C5.90969993,70.2573529 9.72714585,78.8602941 15.6368458,88.5294118 C25.8778786,105.367647 44.414515,128.75 74.6604327,145.551471 C75.4312631,145.147059 76.1653873,144.705882 76.9362177,144.264706 C63.6852756,137.095588 52.7101186,128.639706 43.6803908,119.963235 Z M17.5822749,87.4632353 C17.068388,86.6544118 16.5912073,85.8088235 16.1140265,85 C17.3987439,85.0367647 18.6100488,84.4485294 19.8213538,83.1985294 C20.2251221,82.7941176 20.6288904,82.3529412 21.069365,81.875 C24.6665736,77.9779412 30.0990928,72.0588235 38.6149337,73.0147059 C43.7538032,73.5661765 47.6813678,75.5147059 49.3698535,78.3088235 C50.2508025,79.7426471 50.4710398,81.3235294 49.9204466,82.6838235 C49.296441,84.3014706 47.0940684,86.2132353 44.7448709,88.1985294 C41.624843,90.8455882 38.137753,93.8602941 36.7062107,97.5 C34.7607816,102.573529 35.0911375,107.904412 37.9542219,114.154412 C29.0346127,104.742647 22.3907886,95.3676471 17.5822749,87.4632353 Z" id="Shape"></path>
                        <g transform="translate(70.475925, 96.323529)" id="Path">
                            <path d="M38.5782275,19.6323529 C35.4214934,21.9117647 32.4115841,24.0441176 30.6863922,24.2279412 C29.6953245,24.3382353 28.8877879,24.0808824 28.2270761,23.4558824 C26.0981158,21.4705882 25.6943475,16.2132353 25.7677599,13.4191176 L25.7677599,13.1985294 C25.8411724,11.0294118 26.0247034,5.95588235 23.0147941,2.72058824 C21.4364271,1.02941176 19.1973482,0.110294118 16.4076762,0.0367647059 C13.2142359,-0.0735294118 10.094208,1.39705882 7.37794836,4.30147059 C2.67955338,9.22794118 -0.183531054,17.5367647 0.403768318,24.4852941 C0.770830426,28.7867647 2.64284717,33.8235294 6.05652477,39.4852941 C7.74501047,42.3161765 9.39678995,44.5588235 10.277739,45.7720588 C10.9384508,45.4044118 11.5624564,45.0367647 12.2231682,44.6691176 C10.277739,42.1323529 3.26685276,32.5 2.60614096,24.3382353 C2.09225401,18.0514706 4.7718074,10.2941176 8.99302163,5.84558824 C10.5713887,4.15441176 13.1408234,2.16911765 16.37097,2.27941176 C18.5366364,2.35294118 20.2618283,3.01470588 21.4364271,4.26470588 C23.8223308,6.80147059 23.6387997,11.25 23.6020935,13.125 L23.6020935,13.3455882 C23.5286811,15.3308824 23.5653873,22.0955882 26.7588276,25.0735294 C27.8967202,26.1397059 29.3282624,26.6176471 30.9800419,26.4338235 C33.2925331,26.1764706 36.3391486,23.9705882 39.8996511,21.4338235 C45.7726448,17.2058824 53.0037683,12.0220588 58.2160502,14.7426471 C58.8400558,14.2647059 59.4640614,13.7867647 60.088067,13.2720588 C53.5910677,8.86029412 45.2954641,14.7794118 38.5782275,19.6323529 Z"></path>
                            <path d="M60.3083043,15.8455882 C60.5652477,15.8088235 60.8221912,15.6985294 61.0057223,15.4779412 C61.0791347,15.3676471 61.1525471,15.2573529 61.1892533,15.1470588 C60.8956036,15.4044118 60.6019539,15.625 60.3083043,15.8455882 Z"></path>
                        </g>
                        <path d="M133.573901,83.9705882 C131.444941,83.6029412 127.957851,83.5294118 124.434054,85.4779412 C122.708863,86.4338235 121.27732,87.9044118 119.735659,89.4852941 C117.239637,92.0588235 114.670202,94.7058824 110.999581,94.7058824 C109.384508,94.7058824 108.136497,94.0073529 107.292254,92.6102941 C105.456943,89.5955882 105.824006,84.0441176 108.209909,79.4117647 C112.027355,72.1323529 118.267411,68.1617647 120.286253,67.0220588 C119.735659,66.4338235 119.185066,65.8823529 118.707886,65.4044118 C116.101745,66.9485294 110.118632,71.0661765 106.301186,78.4191176 C103.548221,83.7867647 103.217865,90.1102941 105.456943,93.7867647 C106.704955,95.8455882 108.650384,96.9485294 111.036288,96.9485294 C115.624564,96.9485294 118.671179,93.8235294 121.350733,91.0661765 C122.782275,89.5955882 124.103699,88.2352941 125.535241,87.4264706 C130.160223,84.8897059 134.858618,86.5441176 134.895324,86.5808824 C135.042149,86.6176471 135.152268,86.6544118 135.299093,86.6544118 C134.675087,85.7352941 134.124494,84.8529412 133.573901,83.9705882 Z" id="Path"></path>
                    </g>
                </g>
            </g>
        </g>
    </g>
</svg>