<svg xmlns="http://www.w3.org/2000/svg" xmlns:xlink="http://www.w3.org/1999/xlink" viewBox="0 0 90.07 97.83"><defs><style>.cls-1{fill:#fff;}.cls-1,.cls-4,.cls-6{fill-rule:evenodd;}.cls-2{fill:#ffc600;}.cls-3{mask:url(#mask);}.cls-4{fill:#fece2f;}.cls-5{mask:url(#mask-2);}.cls-6{fill:#191919;}.cls-7{mask:url(#mask-3);}.cls-8{mask:url(#mask-4-2);}.cls-9{mask:url(#mask-5);}.cls-10{mask:url(#mask-6-2);}.cls-11{mask:url(#mask-7);}.cls-12{mask:url(#mask-8-2);}.cls-13{mask:url(#mask-9);}.cls-14{mask:url(#mask-10-2);}.cls-15{mask:url(#mask-11);}.cls-16{mask:url(#mask-12-2);}.cls-17{mask:url(#mask-13);}.cls-18{mask:url(#mask-14-2);}.cls-19{mask:url(#mask-15);}.cls-20{mask:url(#mask-16-2);}.cls-21{mask:url(#mask-17);}.cls-22{mask:url(#mask-18-2);}.cls-23{mask:url(#mask-19);}</style><mask id="mask" x="4.92" y="22.47" width="74.06" height="57.4" maskUnits="userSpaceOnUse"><g id="mask-4"><path id="path-3" class="cls-1" d="M30.27,41.52a98.6,98.6,0,0,1-7.33,6.79h0c-2.81,2,.79,8.88.79,8.88h0l4.4,3.29,2.25-3.07,9.8,3.84L59.9,63.33,62,57.63l-.9-12.71-1.58-5.38L52.8,39Z"/></g></mask><mask id="mask-2" x="3" y="24.07" width="78.59" height="73.76" maskUnits="userSpaceOnUse"><g id="mask-6"><path id="path-5" class="cls-1" d="M29.55,41.32c-.91,1.22-1.36,4-1.47,6.86h0c-1.47-.44-3.73-1-5.54,0h0c-1,.44-2.15,1.55-2.49,4h0c-.34,3,1,5.65,4.07,7.64h0A21.18,21.18,0,0,0,26.27,61h0c-1.25,3.44-.79,8.19,2.37,13.17h0C31,77.72,36.1,80.38,42,81h0a25.3,25.3,0,0,0,2.83.11h0c5.43,0,10.29-1.77,13.45-4.87h0c6.45-6,7.35-14.38,5.43-17.48h0a2.85,2.85,0,0,0-3.39-1.33h0c-5.77,2-8-.33-8-.44h0a1.38,1.38,0,0,0-.9-.44h0a1.32,1.32,0,0,0-.91.33h0c-2.94,2.66-7.69,4.21-11.08,1.44h0c-3.05-2.44-6-3.21-8.48-2.21h0c-.34-5.09-.22-11.95.79-13.39h0A1.25,1.25,0,0,0,31.36,41h0a1.13,1.13,0,0,0-.69-.24h0a1.49,1.49,0,0,0-1.12.57ZM22.76,52.38c.23-1.66.91-2,1.13-2.1h0c1.13-.66,3.17,0,4.3.44h0c0,3.1.23,6,.34,7h0v.11a2.34,2.34,0,0,0-.91.88h0c-2.14-1-5.31-3.1-4.86-6.31Z"/></g></mask><mask id="mask-3" x="43" y="24.34" width="33.41" height="42.46" maskUnits="userSpaceOnUse"><g id="mask-8"><path id="path-7" class="cls-1" d="M58.79,41a1.3,1.3,0,0,0-.61,1.65h0c-.1.11,1.21,3.4.61,6.25h0a1.16,1.16,0,0,0,.9,1.42H60a1.1,1.1,0,0,0,1.11-1h0a15.33,15.33,0,0,0-.81-7.67h0a1,1,0,0,0-1-.74h0a1.44,1.44,0,0,0-.46.08Z"/></g></mask><mask id="mask-4-2" x="19.53" y="29.33" width="43.07" height="44.49" maskUnits="userSpaceOnUse"><g id="mask-10"><path id="path-9" class="cls-1" d="M35.69,51.57a5.45,5.45,0,0,0,5.37,5.54h0a5.46,5.46,0,0,0,5.38-5.54h0A5.46,5.46,0,0,0,41.06,46h0a5.45,5.45,0,0,0-5.37,5.54Z"/></g></mask><mask id="mask-5" x="36.26" y="29.33" width="44.52" height="44.49" maskUnits="userSpaceOnUse"><g id="mask-12"><path id="path-11" class="cls-1" d="M53,51.57a5.54,5.54,0,0,0,5.55,5.54h0a5.54,5.54,0,0,0,5.55-5.54h0A5.54,5.54,0,0,0,58.52,46h0A5.54,5.54,0,0,0,53,51.57Z"/></g></mask><mask id="mask-6-2" x="17.89" y="27.84" width="64.4" height="48.45" maskUnits="userSpaceOnUse"><g id="mask-14"><path id="path-13" class="cls-1" d="M52.2,50.81H48.09a6.88,6.88,0,0,0-6.68-5.72h0a6.85,6.85,0,0,0-6.79,7h0a6.85,6.85,0,0,0,6.79,7h0a6.77,6.77,0,0,0,6.68-5.72h4a6.88,6.88,0,0,0,6.68,5.72h0a6.84,6.84,0,0,0,6.78-7h0a6.82,6.82,0,0,0-6.67-7h0a6.77,6.77,0,0,0-6.68,5.72Zm2.45,1.26a4.29,4.29,0,0,1,4.23-4.35h0a4.3,4.3,0,0,1,4.23,4.35h0a4.3,4.3,0,0,1-4.23,4.35h0a4.29,4.29,0,0,1-4.23-4.35Zm-17.36,0a4.37,4.37,0,0,1,4.23-4.35h0a4.36,4.36,0,0,1,4.23,4.35h0a4.29,4.29,0,0,1-4.23,4.35h0a4.29,4.29,0,0,1-4.23-4.35Z"/></g></mask><mask id="mask-7" x="22.66" y="47.68" width="44.53" height="40.16" maskUnits="userSpaceOnUse"><g id="mask-16"><path id="path-15" class="cls-1" d="M42.22,70.86c3.64,2,7.85-1.08,7.85-1.08h0L40.4,64s-2.28,4.75,1.82,6.91Z"/></g></mask><mask id="mask-8-2" x="30.6" y="36.2" width="49.18" height="42.35" maskUnits="userSpaceOnUse"><g id="mask-18"><path id="path-17" class="cls-1" d="M48,52.73S45.51,63,59.16,61.94h0c4.59-.44,4.24-5.37.46-5.59h0c-5.28-.11-6.42-2-6.42-3.62H48Z"/></g></mask><mask id="mask-9" x="30.14" y="34.46" width="49.74" height="44.92" maskUnits="userSpaceOnUse"><g id="mask-20"><path id="path-19" class="cls-1" d="M47,51.83c0,.21-1,5,2,8.25h0C50.72,62,53.48,63,57,63H58.8c3.1-.32,4.43-2.39,4.43-4.23h0a3.89,3.89,0,0,0-4-3.7h0c-1.77-.1-4.87-.43-4.87-2.82h0a1.21,1.21,0,0,0-1.22-1.19h0a1.22,1.22,0,0,0-1.22,1.19h0c.11,4.67,5.65,5.21,7.31,5.21h0c1.22,0,1.66.76,1.66,1.31h0c.11.76-.44,1.62-2.1,1.73h0c-3.77.33-6.42-.43-8-2.06h0c-2.22-2.39-1.44-6.08-1.44-6.19h0a1.24,1.24,0,0,0-1-1.41h0l-.21,0h0a1.24,1.24,0,0,0-1.23,1Z"/></g></mask><mask id="mask-10-2" x="0" y="5.12" width="90.07" height="61.28" maskUnits="userSpaceOnUse"><g id="mask-22"><path id="path-21" class="cls-1" d="M59.22,26.57s-9.35-4.8-15.77-.11h0c-5.07-1-22.41-3.57-18.81,11.27h0a5.16,5.16,0,0,0-1.35-.11h0s-4.28-.44-6,3.24h0c-1.58,3.79,1.92,8.71,6.76,8.71h5.86l.9-7.37s10.92,2.57,19-1.45h0c22.64,8.37,18.81-6.59,18.81-6.59h0c6.09-2.79,5.75-10,.12-11.83h0A6.9,6.9,0,0,0,66.55,22h0c-4.36,0-7.13,4.33-7.33,4.62Z"/></g></mask><mask id="mask-11" x="6.37" y="8.65" width="70.9" height="50.83" maskUnits="userSpaceOnUse"><g id="mask-24"><path id="path-23" class="cls-1" d="M55.52,26c-3.8,0-8.65,2.62-12.62,3.51h0c-5.13,1.26-16.38,2.06-17.38,2.06h0c-6.35,4.82,1.9,10,1.9,10h0l7.24.69,15.92-2.53s6.24-1.26,8.91-5.39h0c2.79-4-1-7.57-1-7.57h0a5.59,5.59,0,0,0-3-.75Z"/></g></mask><mask id="mask-12-2" x="10.48" y="1.97" width="59.72" height="44.75" maskUnits="userSpaceOnUse"><g id="mask-26"><path id="path-25" class="cls-1" d="M38.8,19.08c-10.28,2.33-11.71,10.3-11.71,10.3h0a33.64,33.64,0,0,0,14.13-.22h0a60,60,0,0,0,12.37-4.1h0a13.48,13.48,0,0,0-11.3-6.39h0a15.31,15.31,0,0,0-3.49.41Z"/></g></mask><mask id="mask-13" x="17.56" y="3.13" width="54.1" height="44.56" maskUnits="userSpaceOnUse"><g id="mask-28"><path id="path-27" class="cls-1" d="M46.54,20.58c-9.08,1.93-11.46,8.29-11.92,10h0a33.41,33.41,0,0,0,7.15-.8h0a58.11,58.11,0,0,0,12.82-4.2h0a14.38,14.38,0,0,0-6.24-5.33h0a9.46,9.46,0,0,0-1.81.34Z"/></g></mask><mask id="mask-14-2" x="7.36" y="12.58" width="45.34" height="46.95" maskUnits="userSpaceOnUse"><g id="mask-30"><path id="path-29" class="cls-1" d="M23.8,35.46C22.61,44.7,36.32,42,36.32,42h0L34.58,31a13,13,0,0,0-5.08-1.24h0c-2.5,0-5.11,1.15-5.7,5.68Z"/></g></mask><mask id="mask-15" x="5.01" y="0" width="73.36" height="60.38" maskUnits="userSpaceOnUse"><g id="mask-32"><path id="path-31" class="cls-1" d="M38,17.33c-9.16,1.69-12.4,10.37-13,12.29h0a5.14,5.14,0,0,0-3.12,4.17h0c-.56,3,.78,7.33,3.9,8.91h0a14.71,14.71,0,0,0,5.36.67h0A86.55,86.55,0,0,0,43,42.47h0c6.92-1,15.63-3,17.75-7h0c1.57-3.16.79-6.65-2.12-9.7h0a4.81,4.81,0,0,0-3.35-1.46h0a17.1,17.1,0,0,0-3.91-4.17h0A16.47,16.47,0,0,0,41.57,17h0a19.82,19.82,0,0,0-3.56.33Zm.44,2.48a14,14,0,0,1,14.3,5.07h0A77.07,77.07,0,0,1,42.58,28h0a57.87,57.87,0,0,1-12.17,1H28c1-2.48,4-8,10.49-9.24ZM26.84,40.44c-1.79-.9-3-3.83-2.46-6.2h0c.34-1.47,1.12-2.37,2.35-2.48h0a34.15,34.15,0,0,1,3.68-.11h0a57,57,0,0,0,12.73-1.13h0a75,75,0,0,0,11.28-3.61h0a2.43,2.43,0,0,1,2.46.45h0c1.45,1.69,3,4.17,1.67,6.77h0c-1.34,2.37-7.37,4.51-16,5.75h0a88.59,88.59,0,0,1-11.84.93h0a11.8,11.8,0,0,1-3.9-.37Z"/></g></mask><mask id="mask-16-2" x="26.02" y="14.89" width="38.93" height="39.62" maskUnits="userSpaceOnUse"><g id="mask-34"><path id="path-33" class="cls-1" d="M44.18,31.43a1.16,1.16,0,0,0-.24,1.73h0a5.26,5.26,0,0,1,.7,3.78h0a1.31,1.31,0,0,0,1.18,1.29h.11a1.32,1.32,0,0,0,1.29-1.07h0a7.39,7.39,0,0,0-1.17-5.51h0A1.41,1.41,0,0,0,45,31.17h0a1.35,1.35,0,0,0-.81.26Z"/></g></mask><mask id="mask-17" x="36.9" y="11.12" width="33.56" height="42.81" maskUnits="userSpaceOnUse"><g id="mask-36"><path id="path-35" class="cls-1" d="M52.37,29.05a1.6,1.6,0,0,0-.1,1.87h0a5.37,5.37,0,0,1,.7,3.74h0a1.32,1.32,0,0,0,.81,1.64h.3c.5,0,.9-.35,1.11-1.06h0A8.34,8.34,0,0,0,54,29.16h0a1.18,1.18,0,0,0-.87-.41h0a1.05,1.05,0,0,0-.74.3Z"/></g></mask><mask id="mask-18-2" x="20.79" y="15.02" width="34.6" height="42.65" maskUnits="userSpaceOnUse"><g id="mask-38"><path id="path-37" class="cls-1" d="M36.72,33.72a14.94,14.94,0,0,0,.53,5.5h0a1.15,1.15,0,0,0,1,.82h.43a1.3,1.3,0,0,0,.73-1.64h0A9.92,9.92,0,0,1,39,34.19h0a1.31,1.31,0,0,0-.95-1.52h0l-.19,0h0a1.23,1.23,0,0,0-1.18,1.07Z"/></g></mask><mask id="mask-19" x="12.77" y="16.48" width="34.54" height="39.8" maskUnits="userSpaceOnUse"><g id="mask-40"><path id="path-39" class="cls-1" d="M28.85,33.64a11.14,11.14,0,0,0,.32,5.5h0a1,1,0,0,0,1,.87h0a.76.76,0,0,0,.42-.11h0a1.17,1.17,0,0,0,.74-1.51h0a9.23,9.23,0,0,1-.21-4.1h0a1.26,1.26,0,0,0-.84-1.51h0a1,1,0,0,0-.25,0h0a1.18,1.18,0,0,0-1.23.89Z"/></g></mask></defs><title>nnizer-logo-mark_1</title><g id="Layer_2" data-name="Layer 2"><g id="Layer_1-2" data-name="Layer 1"><rect class="cls-2" x="2.04" y="5.92" width="85.99" height="85.99" rx="31.7"/><g id="Group"><g class="cls-3"><polygon id="Fill-4" class="cls-4" points="4.92 79.86 78.98 79.86 78.98 22.47 4.92 22.47 4.92 79.86"/></g><g class="cls-5"><polygon id="Fill-7" class="cls-6" points="3 97.83 81.59 97.83 81.59 24.07 3 24.07 3 97.83"/></g><g class="cls-7"><polygon id="Fill-10" class="cls-6" points="43 66.8 76.41 66.8 76.41 24.34 43 24.34 43 66.8"/></g><g class="cls-8"><polygon id="Fill-13" class="cls-1" points="19.53 73.81 62.6 73.81 62.6 29.33 19.53 29.33 19.53 73.81"/></g><g class="cls-9"><polygon id="Fill-16" class="cls-1" points="36.26 73.81 80.78 73.81 80.78 29.33 36.26 29.33 36.26 73.81"/></g><g class="cls-10"><polygon id="Fill-19" class="cls-6" points="17.89 76.3 82.29 76.3 82.29 27.84 17.89 27.84 17.89 76.3"/></g><g class="cls-11"><polygon id="Fill-22" class="cls-1" points="22.66 87.83 67.19 87.83 67.19 47.68 22.66 47.68 22.66 87.83"/></g><g class="cls-12"><polygon id="Fill-25" class="cls-4" points="30.6 78.55 79.78 78.55 79.78 36.2 30.6 36.2 30.6 78.55"/></g><g class="cls-13"><polygon id="Fill-28" class="cls-6" points="30.14 79.38 79.88 79.38 79.88 34.46 30.14 34.46 30.14 79.38"/></g><g class="cls-14"><polygon id="Fill-31" class="cls-6" points="0 66.4 90.07 66.4 90.07 5.12 0 5.12 0 66.4"/></g><g class="cls-15"><polygon id="Fill-34" class="cls-4" points="6.37 59.48 77.27 59.48 77.27 8.65 6.37 8.65 6.37 59.48"/></g><g class="cls-16"><polygon id="Fill-37" class="cls-1" points="10.48 46.72 70.2 46.72 70.2 1.97 10.48 1.97 10.48 46.72"/></g><g class="cls-17"><polygon id="Fill-40" class="cls-4" points="17.56 47.68 71.66 47.68 71.66 3.13 17.56 3.13 17.56 47.68"/></g><g class="cls-18"><polygon id="Fill-43" class="cls-1" points="7.36 59.53 52.7 59.53 52.7 12.58 7.36 12.58 7.36 59.53"/></g><g class="cls-19"><polygon id="Fill-46" class="cls-6" points="5.01 60.38 78.37 60.38 78.37 0 5.01 0 5.01 60.38"/></g><g class="cls-20"><polygon id="Fill-49" class="cls-6" points="26.02 54.51 64.94 54.51 64.94 14.89 26.02 14.89 26.02 54.51"/></g><g class="cls-21"><polygon id="Fill-52" class="cls-6" points="36.9 53.93 70.46 53.93 70.46 11.12 36.9 11.12 36.9 53.93"/></g><g class="cls-22"><polygon id="Fill-55" class="cls-6" points="20.79 57.67 55.4 57.67 55.4 15.02 20.79 15.02 20.79 57.67"/></g><g class="cls-23"><polygon id="Fill-58" class="cls-6" points="12.78 56.28 47.32 56.28 47.32 16.48 12.78 16.48 12.78 56.28"/></g></g></g></g></svg>