<svg xmlns="http://www.w3.org/2000/svg" viewBox="0 0 336.58 87.01"><defs><style>.cls-1{fill:#19150a;}</style></defs><title>nnizer-logotype</title><g id="Layer_2" data-name="Layer 2"><g id="Layer_1-2" data-name="Layer 1"><path class="cls-1" d="M1.5,23.12H13.42a1.5,1.5,0,0,1,1.5,1.5h0a1.49,1.49,0,0,0,2.35,1.22,27,27,0,0,1,14.55-4.46c17,0,28.34,10.07,28.34,25.23V83.77a1.5,1.5,0,0,1-1.5,1.5H46.74a1.5,1.5,0,0,1-1.5-1.5V48.35c0-8.33-6.09-13.8-15.16-13.8S14.92,40,14.92,48.35V83.77a1.5,1.5,0,0,1-1.5,1.5H1.5A1.5,1.5,0,0,1,0,83.77V24.62A1.5,1.5,0,0,1,1.5,23.12Z"/><path class="cls-1" d="M73.09,23.12H85a1.5,1.5,0,0,1,1.5,1.5h0a1.49,1.49,0,0,0,2.35,1.22,27,27,0,0,1,14.55-4.46c17,0,28.34,10.07,28.34,25.23V83.77a1.5,1.5,0,0,1-1.5,1.5H118.34a1.5,1.5,0,0,1-1.5-1.5V48.35c0-8.33-6.09-13.8-15.17-13.8S86.51,40,86.51,48.35V83.77a1.5,1.5,0,0,1-1.5,1.5H73.09a1.5,1.5,0,0,1-1.5-1.5V24.62A1.5,1.5,0,0,1,73.09,23.12Z"/><path class="cls-1" d="M144.68,0H156.6a1.5,1.5,0,0,1,1.5,1.5V12.17a1.5,1.5,0,0,1-1.5,1.5H144.68a1.5,1.5,0,0,1-1.5-1.5V1.5A1.5,1.5,0,0,1,144.68,0Zm0,23.12H156.6a1.5,1.5,0,0,1,1.5,1.5V83.77a1.5,1.5,0,0,1-1.5,1.5H144.68a1.5,1.5,0,0,1-1.5-1.5V24.62A1.5,1.5,0,0,1,144.68,23.12Z"/><path class="cls-1" d="M167.65,74.91l30.62-36.15a1.5,1.5,0,0,0-1.14-2.47H168.79a1.49,1.49,0,0,1-1.49-1.49V24.62a1.5,1.5,0,0,1,1.49-1.5h50.46a1.5,1.5,0,0,1,1.49,1.5v7.89a1.48,1.48,0,0,1-.35,1L189.77,69.63a1.5,1.5,0,0,0,1.14,2.46h28.34a1.5,1.5,0,0,1,1.49,1.5V83.77a1.5,1.5,0,0,1-1.49,1.5H168.79a1.5,1.5,0,0,1-1.49-1.5v-7.9A1.48,1.48,0,0,1,167.65,74.91Z"/><path class="cls-1" d="M223.73,54.19c0-19.64,13.42-32.81,33.68-32.81s33.68,13.17,33.68,32.81v2.24a1.49,1.49,0,0,1-.43,1.06l-.37.37a1.5,1.5,0,0,1-1.06.44H240.69a1.51,1.51,0,0,0-1.47,1.83,18.06,18.06,0,0,0,18.19,14.45A19,19,0,0,0,274,65a1.52,1.52,0,0,1,1.34-.83h12.14a1.5,1.5,0,0,1,1.41,2C284.2,78.71,271.81,87,257.41,87,237.15,87,223.73,73.83,223.73,54.19Zm48.92-8.32A1.5,1.5,0,0,0,274,43.73c-3.17-6.37-9.08-9.92-16.6-9.92s-13.43,3.55-16.6,9.92a1.5,1.5,0,0,0,1.36,2.14Z"/><path class="cls-1" d="M301.54,23.12h11.92a1.5,1.5,0,0,1,1.5,1.5v1.59a1.51,1.51,0,0,0,2.54,1.11A18.4,18.4,0,0,1,330,21.88a19.24,19.24,0,0,1,5.56.86,1.49,1.49,0,0,1,1,1.43v8.89a1.49,1.49,0,0,1-1.49,1.49h-3.6c-9.95,0-16.53,5.6-16.53,13.93V83.77a1.5,1.5,0,0,1-1.5,1.5H301.54a1.5,1.5,0,0,1-1.5-1.5V24.62A1.5,1.5,0,0,1,301.54,23.12Z"/></g></g></svg>