<?xml version="1.0" encoding="UTF-8"?>
<svg width="108px" height="18px" viewBox="0 0 108 18" version="1.1" xmlns="http://www.w3.org/2000/svg" xmlns:xlink="http://www.w3.org/1999/xlink">
    <!-- Generator: Sketch 59.1 (86144) - https://sketch.com -->
    <title>Group 2</title>
    <desc>Created with Sketch.</desc>
    <g id="Page-1" stroke="none" stroke-width="1" fill="none" fill-rule="evenodd">
        <g id="sign-up-desktop" transform="translate(-167.000000, -36.000000)" fill="#1A1A1A" fill-rule="nonzero">
            <g id="Group-2" transform="translate(167.136000, 36.960000)">
                <polygon id="Path" points="1.68 3.12 1.68 17.04 -2.98427949e-13 17.04 -2.98427949e-13 3.90798505e-14 1.296 3.90798505e-14 12.576 14.184 12.576 0.024 14.256 0.024 14.256 17.04 12.792 17.04"></polygon>
                <polygon id="Path" points="24.708 3.12 24.708 17.04 23.028 17.04 23.028 3.90798505e-14 24.324 3.90798505e-14 35.604 14.184 35.604 0.024 37.284 0.024 37.284 17.04 35.82 17.04"></polygon>
                <polygon id="Path" points="46.056 17.04 46.056 3.90798505e-14 47.736 3.90798505e-14 47.736 17.04"></polygon>
                <polygon id="Path" points="55.116 15.72 66.708 1.488 55.308 1.488 55.308 3.90798505e-14 68.652 3.90798505e-14 68.652 1.32 57.204 15.552 68.628 15.552 68.628 17.04 55.116 17.04"></polygon>
                <polygon id="Path" points="87.552 15.552 87.552 17.04 76.104 17.04 76.104 3.90798505e-14 87.336 3.90798505e-14 87.336 1.488 77.784 1.488 77.784 7.632 86.112 7.632 86.112 9.048 77.784 9.048 77.784 15.552"></polygon>
                <path d="M102.42,7.81597009e-14 C103.156004,7.81597009e-14 103.831997,0.15599844 104.448,0.468 C105.064003,0.78000156 105.595998,1.18799748 106.044,1.692 C106.492002,2.19600252 106.839999,2.7679968 107.088,3.408 C107.336001,4.0480032 107.46,4.69599672 107.46,5.352 C107.46,5.97600312 107.368001,6.57199716 107.184,7.14 C106.999999,7.70800284 106.744002,8.21999772 106.416,8.676 C106.087998,9.13200228 105.692002,9.51599844 105.228,9.828 C104.763998,10.1400016 104.244003,10.3519994 103.668,10.464 L107.844,17.04 L105.948,17.04 L101.94,10.752 L96.9,10.752 L96.9,17.04 L95.22,17.04 L95.22,7.81597009e-14 L102.42,7.81597009e-14 Z M102.324,1.488 L96.9,1.488 L96.9,9.264 L102.468,9.264 C102.964002,9.264 103.415998,9.15600108 103.824,8.94 C104.232002,8.72399892 104.579999,8.43200184 104.868,8.064 C105.156001,7.69599816 105.379999,7.28000232 105.54,6.816 C105.700001,6.35199768 105.78,5.86400256 105.78,5.352 C105.78,4.83999744 105.688001,4.34800236 105.504,3.876 C105.319999,3.40399764 105.072002,2.99200176 104.76,2.64 C104.447998,2.28799824 104.080002,2.00800104 103.656,1.8 C103.231998,1.59199896 102.788002,1.488 102.324,1.488 L102.324,1.488 Z" id="Combined-Shape"></path>
            </g>
        </g>
    </g>
</svg>