<svg id="Layer_1" data-name="Layer 1" xmlns="http://www.w3.org/2000/svg" xmlns:xlink="http://www.w3.org/1999/xlink" viewBox="0 0 2000 2000"><defs><style>.cls-1,.cls-3{fill:#fff;}.cls-1,.cls-6,.cls-8{fill-rule:evenodd;}.cls-2{fill:#ffc600;}.cls-4{fill:#1a1a1a;}.cls-5{mask:url(#mask);}.cls-6{fill:#9e9e9e;}.cls-7{mask:url(#mask-2);}.cls-8{fill:#191919;}.cls-9{mask:url(#mask-3);}.cls-10{mask:url(#mask-4-2);}.cls-11{mask:url(#mask-5);}.cls-12{mask:url(#mask-6-2);}.cls-13{mask:url(#mask-7);}.cls-14{mask:url(#mask-8-2);}.cls-15{mask:url(#mask-9);}.cls-16{mask:url(#mask-10-2);}.cls-17{mask:url(#mask-11);}.cls-18{mask:url(#mask-12-2);}.cls-19{mask:url(#mask-13);}.cls-20{mask:url(#mask-14-2);}.cls-21{mask:url(#mask-15);}.cls-22{mask:url(#mask-16-2);}.cls-23{mask:url(#mask-17);}.cls-24{mask:url(#mask-18-2);}.cls-25{mask:url(#mask-19);}</style><mask id="mask" x="267.69" y="1159.92" width="201.8" height="156.41" maskUnits="userSpaceOnUse"><g id="mask-4"><path id="path-3" class="cls-1" d="M336.74,1211.84s-12.59,12.84-19.95,18.52h0c-7.68,5.37,2.14,24.2,2.14,24.2h0l12,9,6.14-8.36,26.71,10.45,53.73,5.67,5.83-15.53-2.46-34.65-4.3-14.64L398.14,1205Z"/></g></mask><mask id="mask-2" x="262.43" y="1164.29" width="214.15" height="201" maskUnits="userSpaceOnUse"><g id="mask-6"><path id="path-5" class="cls-1" d="M334.78,1211.3c-2.46,3.32-3.7,10.85-4,18.69h0c-4-1.2-10.16-2.71-15.09,0h0c-2.77,1.21-5.85,4.22-6.78,10.86h0c-.92,8.14,2.78,15.37,11.09,20.8h0a58,58,0,0,0,5.86,3.32h0c-3.39,9.34-2.16,22.31,6.47,35.87h0c6.47,9.65,20.33,16.89,36.35,18.7h0a68.78,68.78,0,0,0,7.7.3h0c14.79,0,28-4.83,36.66-13.27h0c17.56-16.28,20-39.19,14.79-47.63h0c-2.16-3.32-5.54-4.83-9.24-3.62h0c-15.71,5.42-21.87-.91-21.87-1.21h0a3.88,3.88,0,0,0-2.47-1.21h0a3.55,3.55,0,0,0-2.46.91h0c-8,7.24-20.95,11.46-30.2,3.92h0c-8.31-6.63-16.32-8.74-23.1-6h0c-.93-13.87-.62-32.56,2.15-36.48h0c1.24-1.51.62-3.62-.92-4.82h0a3,3,0,0,0-1.87-.65h0a4.09,4.09,0,0,0-3.06,1.55Zm-18.48,30.15c.61-4.52,2.46-5.43,3.08-5.73h0c3.08-1.81,8.62,0,11.7,1.21h0c0,8.44.62,16.28.93,19h0v.3a6.3,6.3,0,0,0-2.47,2.41h0c-5.85-2.71-14.48-8.44-13.24-17.18Z"/></g></mask><mask id="mask-3" x="371.43" y="1165.03" width="91.05" height="115.7" maskUnits="userSpaceOnUse"><g id="mask-8"><path id="path-7" class="cls-1" d="M414.46,1210.29c-1.64.6-2.19,2.69-1.64,4.49h0c-.28.3,3.28,9.26,1.64,17h0c-.27,1.79.55,3.58,2.46,3.88h.83a3,3,0,0,0,3-2.69h0c1.92-9.86-1.92-20.61-2.19-20.91h0a2.85,2.85,0,0,0-2.85-2h0a3.93,3.93,0,0,0-1.26.22Z"/></g></mask><mask id="mask-4-2" x="307.48" y="1178.62" width="117.37" height="121.22" maskUnits="userSpaceOnUse"><g id="mask-10"><path id="path-9" class="cls-1" d="M351.52,1239.23a14.87,14.87,0,0,0,14.64,15.1h0a14.87,14.87,0,0,0,14.64-15.1h0a14.87,14.87,0,0,0-14.64-15.09h0a14.87,14.87,0,0,0-14.64,15.09Z"/></g></mask><mask id="mask-5" x="353.08" y="1178.62" width="121.3" height="121.22" maskUnits="userSpaceOnUse"><g id="mask-12"><path id="path-11" class="cls-1" d="M398.6,1239.23a15.12,15.12,0,0,0,15.13,15.1h0a15.12,15.12,0,0,0,15.14-15.1h0a15.12,15.12,0,0,0-15.14-15.09h0a15.12,15.12,0,0,0-15.13,15.09Z"/></g></mask><mask id="mask-6-2" x="303.02" y="1174.58" width="175.48" height="132.03" maskUnits="userSpaceOnUse"><g id="mask-14"><path id="path-13" class="cls-1" d="M396.52,1237.16H385.3a18.71,18.71,0,0,0-18.19-15.58h0c-10.31,0-18.5,8.41-18.5,19h0c0,10.6,8.19,19,18.5,19h0A18.44,18.44,0,0,0,385.3,1244h10.91a18.72,18.72,0,0,0,18.19,15.59h0c10.31,0,18.5-8.42,18.5-19h0c0-10.6-8.19-19-18.19-19h0a18.41,18.41,0,0,0-18.19,15.58Zm6.67,3.43a11.68,11.68,0,0,1,11.52-11.84h0a11.68,11.68,0,0,1,11.52,11.84h0a11.69,11.69,0,0,1-11.52,11.85h0a11.68,11.68,0,0,1-11.52-11.85Zm-47.3,0a11.88,11.88,0,0,1,11.52-11.84h0a11.88,11.88,0,0,1,11.52,11.84h0a11.68,11.68,0,0,1-11.52,11.85h0a11.68,11.68,0,0,1-11.52-11.85Z"/></g></mask><mask id="mask-7" x="297.32" y="1215.1" width="154.71" height="148.48" maskUnits="userSpaceOnUse"><g id="mask-16"><path id="path-15" class="cls-1" d="M378.08,1278.65c-11.32-1.21-18.49,11.16-18.49,11.16h0l30.49,4.18s.58-14.34-12-15.34Z"/></g></mask><mask id="mask-8-2" x="337.66" y="1197.35" width="134" height="115.4" maskUnits="userSpaceOnUse"><g id="mask-18"><path id="path-17" class="cls-1" d="M385.16,1242.39s-6.88,28.08,30.32,25.1h0c12.5-1.2,11.56-14.64,1.25-15.24h0c-14.38-.3-17.51-5.38-17.51-9.86H385.16Z"/></g></mask><mask id="mask-9" x="336.39" y="1199.61" width="135.54" height="122.41" maskUnits="userSpaceOnUse"><g id="mask-20"><path id="path-19" class="cls-1" d="M382.21,1246.93c0,.59-2.72,13.61,5.43,22.49h0c4.82,5.32,12.37,8,22,8h4.83c8.45-.89,12.07-6.51,12.07-11.54h0c0-4.74-3.92-9.77-10.86-10.07h0c-4.83-.29-13.28-1.18-13.28-7.69h0a3.32,3.32,0,0,0-3.32-3.25h0a3.32,3.32,0,0,0-3.32,3.25h0c.31,12.72,15.39,14.21,19.92,14.21h0c3.32,0,4.52,2.07,4.52,3.55h0c.31,2.07-1.2,4.43-5.73,4.73h0c-10.26.89-17.5-1.18-21.72-5.62h0c-6-6.51-3.93-16.57-3.93-16.87h0a3.35,3.35,0,0,0-2.71-3.85h0a3.6,3.6,0,0,0-.56,0h0a3.38,3.38,0,0,0-3.36,2.71Z"/></g></mask><mask id="mask-10-2" x="254.27" y="1112.65" width="245.44" height="166.98" maskUnits="userSpaceOnUse"><g id="mask-22"><path id="path-21" class="cls-1" d="M415.65,1171.11s-25.48-13.08-43-.3h0c-13.82-2.74-61.08-9.74-51.26,30.72h0a13.63,13.63,0,0,0-3.68-.31h0s-11.67-1.21-16.27,8.82h0c-4.3,10.34,5.22,23.73,18.41,23.73h16l2.46-20.08s29.77,7,51.87-4h0c61.69,22.81,51.26-18,51.26-18h0c16.57-7.6,15.65-27.37.3-32.24h0a19.14,19.14,0,0,0-6.12-1h0c-11.87,0-19.44,11.81-20,12.6Z"/></g></mask><mask id="mask-11" x="271.62" y="1122.29" width="193.19" height="138.5" maskUnits="userSpaceOnUse"><g id="mask-24"><path id="path-23" class="cls-1" d="M405.56,1169.41c-10.34,0-23.56,7.14-34.4,9.56h0c-14,3.44-44.61,5.63-47.35,5.63h0c-17.3,13.12,5.16,27.19,5.16,27.19h0l19.73,1.87,43.41-6.87s17-3.44,24.28-14.69h0c7.58-10.94-2.74-20.63-2.74-20.63h0a15,15,0,0,0-8.08-2.06h0Z"/></g></mask><mask id="mask-12-2" x="282.83" y="1104.06" width="162.72" height="121.94" maskUnits="userSpaceOnUse"><g id="mask-26"><path id="path-25" class="cls-1" d="M360,1150.7c-28,6.34-31.89,28.07-31.89,28.07h0s16.85,4.23,38.51-.6h0c21.07-4.83,33.7-11.17,33.7-11.17h0s-9.72-17.42-30.79-17.42h0a42.5,42.5,0,0,0-9.53,1.12Z"/></g></mask><mask id="mask-13" x="302.12" y="1107.22" width="147.41" height="121.41" maskUnits="userSpaceOnUse"><g id="mask-28"><path id="path-27" class="cls-1" d="M381.08,1154.78c-24.74,5.26-31.23,22.58-32.47,27.22h0a91.79,91.79,0,0,0,19.48-2.16h0c22.26-4.95,34.94-11.45,34.94-11.45h0a39.18,39.18,0,0,0-17-14.53h0a26.81,26.81,0,0,0-4.94.92Z"/></g></mask><mask id="mask-14-2" x="274.31" y="1132.99" width="123.55" height="127.93" maskUnits="userSpaceOnUse"><g id="mask-30"><path id="path-29" class="cls-1" d="M319.13,1195.34c-3.26,25.16,34.11,17.71,34.11,17.71h0l-4.74-29.83a35.41,35.41,0,0,0-13.84-3.38h0c-6.82,0-13.93,3.14-15.53,15.5Z"/></g></mask><mask id="mask-15" x="267.92" y="1098.7" width="199.89" height="164.52" maskUnits="userSpaceOnUse"><g id="mask-32"><path id="path-31" class="cls-1" d="M357.83,1145.92c-24.95,4.61-33.77,28.27-35.3,33.49h0c-4.56,1.84-7.6,5.84-8.51,11.37h0c-1.53,8.3,2.12,20,10.64,24.27h0c2.44,1.23,7.92,1.85,14.61,1.85h0a238,238,0,0,0,32.25-2.46h0c18.87-2.77,42.6-8.3,48.38-19h0c4.26-8.6,2.13-18.13-5.78-26.43h0a13.15,13.15,0,0,0-9.13-4h0a47.18,47.18,0,0,0-10.65-11.37h0a45,45,0,0,0-26.79-8.57h0a55.91,55.91,0,0,0-9.72.89Zm1.22,6.76c21.91-4.3,34.38,8,38.95,13.83h0a209.52,209.52,0,0,1-27.69,8.6h0c-10.65,2.46-23.74,2.76-33.17,2.76h-6.69c2.74-6.76,10.95-21.81,28.6-25.19Zm-31.65,56.23c-4.87-2.46-8.21-10.45-6.69-16.9h0c.91-4,3-6.45,6.39-6.76h0a90.19,90.19,0,0,1,10-.31h0c9.74,0,23.43-.31,34.69-3.07h0a206.88,206.88,0,0,0,30.73-9.83h0a6.55,6.55,0,0,1,6.69,1.23h0c4,4.6,8.22,11.36,4.57,18.43h0c-3.66,6.45-20.09,12.29-43.51,15.67h0a242,242,0,0,1-32.26,2.55h0c-5.66,0-9.51-.37-10.65-1Z"/></g></mask><mask id="mask-16-2" x="325.17" y="1139.28" width="106.07" height="107.96" maskUnits="userSpaceOnUse"><g id="mask-34"><path id="path-33" class="cls-1" d="M374.64,1184.36a3.16,3.16,0,0,0-.64,4.71h0c0,.29,2.88,3.52,1.92,10.29h0a3.58,3.58,0,0,0,3.2,3.53h.31A3.63,3.63,0,0,0,383,1200h0c1.28-9.41-2.88-14.41-3.2-15h0a3.82,3.82,0,0,0-2.89-1.32h0a3.76,3.76,0,0,0-2.22.73Z"/></g></mask><mask id="mask-17" x="354.82" y="1129" width="91.45" height="116.66" maskUnits="userSpaceOnUse"><g id="mask-36"><path id="path-35" class="cls-1" d="M397,1177.85a4.36,4.36,0,0,0-.28,5.1h0a14.73,14.73,0,0,1,1.92,10.2h0c-.55,1.91.55,4.14,2.19,4.46h.82c1.37,0,2.47-.95,3-2.87h0a22.71,22.71,0,0,0-3.29-16.57h0A3.2,3.2,0,0,0,399,1177h0a2.93,2.93,0,0,0-2,.81Z"/></g></mask><mask id="mask-18-2" x="310.93" y="1139.64" width="94.29" height="116.22" maskUnits="userSpaceOnUse"><g id="mask-38"><path id="path-37" class="cls-1" d="M354.33,1190.6a41,41,0,0,0,1.44,15h0a3.15,3.15,0,0,0,2.87,2.23h1.15a3.53,3.53,0,0,0,2-4.46h0a26.69,26.69,0,0,1-1.15-11.47h0a3.59,3.59,0,0,0-2.58-4.15h0a3.27,3.27,0,0,0-.53,0h0a3.35,3.35,0,0,0-3.21,2.92Z"/></g></mask><mask id="mask-19" x="289.08" y="1143.71" width="94.12" height="108.46" maskUnits="userSpaceOnUse"><g id="mask-40"><path id="path-39" class="cls-1" d="M332.88,1190.47a30.36,30.36,0,0,0,.87,15h0a2.8,2.8,0,0,0,2.87,2.35h0a2.14,2.14,0,0,0,1.15-.29h0a3.2,3.2,0,0,0,2-4.12h0a25,25,0,0,1-.58-11.18h0c.29-1.76-.58-3.82-2.3-4.12h0a4.91,4.91,0,0,0-.67,0h0a3.23,3.23,0,0,0-3.36,2.41Z"/></g></mask></defs><title>nnizer-404</title><path class="cls-2" d="M636.3,1872.7C78.2,1780.2-71.5,1155.1,276.6,774.2,593.7,427.3,434.4,170.3,948.8,120.4,1575.2,59.6,1915.1,406.6,1968,919.2,2047.3,1687,1336.3,1988.8,636.3,1872.7Z"/><circle class="cls-3" cx="812.51" cy="352.39" r="127.7"/><circle class="cls-3" cx="586.86" cy="555.83" r="65.7"/><path class="cls-4" d="M1717.4,323.8l-11.6.6,11.7-1.4C1717.5,323.3,1717.4,323.5,1717.4,323.8Z"/><path class="cls-3" d="M1806.5,1120.6l-89-800.9,39-4.6L1736.9,209l-20.1-13.7s-950.3,91.8-944.3,93.8c3.5,1.2,235,5.3,409.3,7.8l9.7-15.3,13.5,15,181.5,2.5,8-24,42,78,234.2-28.5,102.2,931.5,11.1,102.4c17.4-10.5,32-19.9,44.2-28.4Z"/><path class="cls-4" d="M1833.4,1331.3l-47.3-433.8a2.15,2.15,0,0,0,0-.8l-62.7-573.5a1.93,1.93,0,0,0-.3-1l35.7-4.2a3,3,0,0,0,2.1-1.2,2.75,2.75,0,0,0,.5-2.3l-19.5-106.1v-.1c0-.2-.1-.3-.1-.5h0c-.1-.2-.2-.3-.2-.5l-.1-.1c-.1-.1-.2-.2-.2-.3l-.1-.1-.3-.3-.1-.1-20.1-13.7a2.88,2.88,0,0,0-2-.5c-.2,0-3.1.3-8.3.8-.1-.7-.2-1.5-.3-2.2-.6-4.6-1.2-9.3-1.5-12.3a1.45,1.45,0,0,0-.2-.7c-.1-.4-3.5-8.8-17.5-9.9-26.3-2.1-35,9-35.3,9.5a2.74,2.74,0,0,0-.6,2.1c.4,3.5,1.1,8.6,1.7,13.6.2,1.7.4,3.4.7,5.1-85.7,8.3-248.9,24.1-410.7,40-137.1,13.4-246.3,24.2-324.6,32.1-46.5,4.7-82.5,8.4-107,11-13.2,1.4-23.3,2.5-30,3.3-3.5.4-6.2.7-8,1-3,.4-5,.7-5.3,3.1a3.23,3.23,0,0,0,.3,1.7h0c.1.1.1.3.2.4l.1.1c.1.1.1.2.2.3s.1.1.2.1.2.1.2.2.1.1.2.1.2.1.3.1a.35.35,0,0,1,.2.1h.3a2,2,0,0,0,.8.1h.2c20.5,1.8,308.6,6.4,409.1,7.8h0a2.85,2.85,0,0,0,2.5-1.4l7.5-12,10.8,12.1a3.21,3.21,0,0,0,2.2,1c100.7,1.4,180.7,2.5,181.5,2.5h0a2.88,2.88,0,0,0,2.8-2.1l5.8-17.4,38.7,71.9a2.88,2.88,0,0,0,2.6,1.6h.4l231.4-27.5,51.3,468.3a1.45,1.45,0,0,0,.2.7l50.3,458.8,11.5,106a3.24,3.24,0,0,0,1.7,2.4,2.77,2.77,0,0,0,1.3.3,3.37,3.37,0,0,0,1.7-.5l13.4-8.9a3.05,3.05,0,0,0,1.3-2.8l-91.4-997.8,8.7-6.8,58.6,536.1a2.13,2.13,0,0,0,0,.8l48.7,446.7a3.11,3.11,0,0,0,3,2.7h.3A2.66,2.66,0,0,0,1833.4,1331.3ZM1440.1,349.9l-41-76.2a2.88,2.88,0,0,0-2.6-1.6h-.3a3,3,0,0,0-2.6,2l-7.3,21.9c-13.5-.2-87.2-1.2-178-2.4l-12.6-14a2.88,2.88,0,0,0-2.5-1,3.15,3.15,0,0,0-2.3,1.4l-8.8,13.9c-127.3-1.8-277.6-4.4-355.1-6.2l909.4-75.5,18.5,100.3Z"/><path class="cls-3" d="M1704.3,201.5l-1.8-19.6s-2.1,4.8-16.1,5.2l1.7,17.9S1699.1,206.6,1704.3,201.5Z"/><path class="cls-3" d="M489.7,764.7s-59.2,68.2-58.6,95.6,26,120.7,75.3,182.7,52.3,62.7,76,66.7l18.5,180.1s-38.9-17.7-79.8-56.8c-35.4-33.9-74.5-77.5-98-121.3-52.7-98-59.3-159.7-68.7-211S337.1,785,337.1,785s31.3-27.3,33.3-26.7,37.3,8.7,37.3,8.7l10.5,6.3,5,25.3,15.5-9.8s26.2-29.4,35.2-28.4A53.54,53.54,0,0,1,489.7,764.7Z"/><path class="cls-3" d="M551.4,1094.8s22,20.4,55,15.9c3,.5,33.5,13.5,49,56.5s25,111.5,25,111.5,19.8,49.2-81.5,6.5c-43.9-18.5-47.5-50.5-47.5-50.5Z"/><path class="cls-2" d="M1101.4,506.6s39-31.7,103.7-33,84,10,86,14,2,61.3-28,136.7l61.3,156.3s-91.3,45-163.3,38.3c0,0-6.7-24.7,20-80.7s57.3-130.7,11.3-171.3S1101.4,506.6,1101.4,506.6Z"/><path class="cls-3" d="M1101.4,506.6s37.7,15,48.3,23c0,0,10.2-35.6,50.7-38,43-2.5,89-3.5,91,23,0-2.5,6-26.5-10.5-33s-68-13-108-5S1101.4,506.6,1101.4,506.6Z"/><path class="cls-2" d="M611.8,1111s23.7-6.7,43.2-23.7S778.5,937,778.5,937s62-74.7,108.7-96.7,188-60.7,188-60.7,12,46,104.7,40,144.7-39,144.7-39,83.3,14.3,133.3,55,113.3,180,113.3,180l34.7-44.7s-25.3,8.7-12.7,119.3c5.9,51.6,38.7,159.3,38.7,159.3s29.3,109.3-36,214.7l-207.3,95.3L1111.1,1669l-145.3,48.7S841,1646.8,755.5,1496.8c0,0-46.3-90.4-65-180.4S665.8,1143,611.8,1111Z"/><path class="cls-3" d="M1597.3,981.8l8.4-10.9C1605.8,971,1601.5,972.4,1597.3,981.8Z"/><path class="cls-3" d="M1457.8,835.6a215.44,215.44,0,0,0-28.2-17.1l1.2-1.2s-56.1-29.1-98.4-34.6c-3.1-.8-5.4-1.4-6.7-1.7l-61.3-147s58.4,151.1-2.3,172.8c25.3-5.6,115.4-10.7,159.7,19.6,12.6,8.6,24,18.5,32.7,29.3,68,85,100,202,100,202l16.7-42C1571.1,1015.6,1508.4,872.6,1457.8,835.6ZM1326.1,782l-.4-1c.9.3,2.3.7,4.1,1.3Z"/><path class="cls-3" d="M1262.1,806.8c-5.3,1.2-8.3,2-8.3,2A42,42,0,0,0,1262.1,806.8Z"/><path class="cls-3" d="M633.9,1129.3s51.1-3.1,82.5-58.5c85-150.1,99-104.1,169-199.1,37.2-50.5,90-26,191-75.4l-12-11.6s-169.5,23.6-232.5,95.6-150,190.5-177,207-43.2,23.7-43.2,23.7Z"/><path class="cls-3" d="M1769.3,807.1a14.8,14.8,0,0,1,1.6,3.9h.1a2.79,2.79,0,0,1,1.8-.6,2.64,2.64,0,0,0,.7-.1l-1.9-17.5-12.1,4.7A36.23,36.23,0,0,1,1769.3,807.1Z"/><path class="cls-3" d="M1773.3,832.3c.8-.2,1.7-.4,2.6-.7l-1.6-15.1a16.25,16.25,0,0,1-1.9.4A70.17,70.17,0,0,1,1773.3,832.3Z"/><path class="cls-3" d="M1770.9,842.5c-2.1,4.2-5.1,5.3-7.2,5.5h-.7a8.75,8.75,0,0,1-1.6-.2c-.7.6-1.5,1.2-2.3,1.9-2.6,2-6.1,4.8-6.4,7-.2,1.2.2,1.5.4,1.7.6.6,3.1,2.4,13.1,1.2a78.69,78.69,0,0,0,12.6-2.6l-2.1-19.5c-2.2.6-3.9.9-4.2,1C1771.9,840,1771.5,841.3,1770.9,842.5Z"/><path class="cls-3" d="M1781.2,880.5l-1.6-14.9c-8.9,6.9-18.3,16.3-17.9,21.2C1764.2,886.9,1771.7,885.2,1781.2,880.5Z"/><path class="cls-3" d="M1733.1,869.7c-.2.2-.3.5-.5.7l3.5,32.3c2.3-9.6,4-16.4,4.7-19.5A64.41,64.41,0,0,1,1733.1,869.7Z"/><path class="cls-3" d="M1734.9,828.1l-6.8,1.1,3.4,30.9a51,51,0,0,0,4.6-19.2A48.87,48.87,0,0,0,1734.9,828.1Z"/><path class="cls-3" d="M1738.6,796.6a36.16,36.16,0,0,0-13.6,3.8l2.5,22.8,18.5-2.9h1.2c.1,0,.2.1.3.1s.2.1.3.1.1.1.2.1.2.1.3.2.1.1.2.1.2.1.3.2l.2.2c.1.1.1.2.2.3s.1.2.2.3.1.1.1.2c4.7,12.2,11,20,13.9,19.8.4,0,1.4-.1,2.4-2.2,3.6-7.3,1.3-25.3-1.3-29.6C1762.5,807.4,1752.3,796.1,1738.6,796.6Z"/><path class="cls-3" d="M1599.9,977.9l80.3-104.7s22-59.7,31.6-68,24.6-19,42.9-8.1,20.9,44.4,12.3,46.5c0,0-6.8,8-20.6-20.3l-8.8,2.7s3.1,13.7-.6,23.3a84.9,84.9,0,0,0-4.7,18.3l12,17.5-40.8,162.3-37,148.4s-18.8,40.4-37.9,46.5L1600,1139.5l-7.7-79.6S1585.6,1046.3,1599.9,977.9Z"/><path class="cls-3" d="M1766.8,791.3c-2.1,1.2-4.6,1.4-6.9,2.3s-4.3,3.2-3.7,5.5c.9,3.4,6.4,3.7,7.3,7,0-.4.6-.6.9-.4a3.11,3.11,0,0,1,.7.9c2.1,4.6,4.1,9.3,4.7,14.3a50.79,50.79,0,0,1,.1,7.8,29.13,29.13,0,0,1-1.1,8.3,10.62,10.62,0,0,1-5.1,6.4c-1.8.9-3.8,1-5.4,2.2-1.8,1.3-2.6,3.4-4.2,4.9-1.2,1.2-2.8,1.9-4.1,3s-2.3,2.9-1.7,4.4,2.2,2.2,3.8,2.6a55.27,55.27,0,0,0,23.6,1.5c-.3,2.1-2.1,3.5-3.6,5-3.2,3-11.4,17.4-13,21.5,4.8,1.5,16.7-2.2,21.2-4.7,8.3-4.5,12.6-6.1,16.6-10.9,3.6-4.3,3.7-10.6,2.2-16a23.58,23.58,0,0,1-1.3-6.3,26.73,26.73,0,0,1,.8-4.8,19.5,19.5,0,0,0-3.1-14.5,17.33,17.33,0,0,1-2.5-4.1c-1.1-3.3.8-6.9.5-10.3-.3-3.9-3.3-7-6.1-9.8a7.22,7.22,0,0,1-1.8-2.4,6.52,6.52,0,0,1-.2-2.4c.1-3.2.3-6.3.4-9.5a6.1,6.1,0,0,0-.4-3,6.36,6.36,0,0,0-2-2,46,46,0,0,0-6-3.7c-1.4-.7-4.1-2.7-5.8-2s-1,3.1-1.5,4.5A7.45,7.45,0,0,1,1766.8,791.3Z"/><path class="cls-3" d="M1766.8,791.3c-2.1,1.2-4.6,1.4-6.9,2.3s-4.3,3.2-3.7,5.5c.9,3.4,6.4,3.7,7.3,7,0-.4.6-.6.9-.4a3.11,3.11,0,0,1,.7.9c2.1,4.6,4.1,9.3,4.7,14.3a50.79,50.79,0,0,1,.1,7.8,29.13,29.13,0,0,1-1.1,8.3,10.62,10.62,0,0,1-5.1,6.4c-1.8.9-3.8,1-5.4,2.2-1.8,1.3-2.6,3.4-4.2,4.9-1.2,1.2-2.8,1.9-4.1,3s-2.3,2.9-1.7,4.4,2.2,2.2,3.8,2.6a55.27,55.27,0,0,0,23.6,1.5c-.3,2.1-2.1,3.5-3.6,5-3.2,3-11.4,17.4-13,21.5,4.8,1.5,16.7-2.2,21.2-4.7,8.3-4.5,12.6-6.1,16.6-10.9,3.6-4.3,3.7-10.6,2.2-16a23.58,23.58,0,0,1-1.3-6.3,26.73,26.73,0,0,1,.8-4.8,19.5,19.5,0,0,0-3.1-14.5,17.33,17.33,0,0,1-2.5-4.1c-1.1-3.3.8-6.9.5-10.3-.3-3.9-3.3-7-6.1-9.8a7.22,7.22,0,0,1-1.8-2.4,6.52,6.52,0,0,1-.2-2.4c.1-3.2.3-6.3.4-9.5a6.1,6.1,0,0,0-.4-3,6.36,6.36,0,0,0-2-2,46,46,0,0,0-6-3.7c-1.4-.7-4.1-2.7-5.8-2s-1,3.1-1.5,4.5A7.45,7.45,0,0,1,1766.8,791.3Z"/><path class="cls-2" d="M1726.6,952.3c-16.1-1.2-38,29.4-50.2,70.9-12.8,43.7-9.9,83,6.4,87.7a12.93,12.93,0,0,0,4.4.4c14.8-60.8,32-130.3,32-130.3Z"/><path class="cls-3" d="M1361.4,971.6s-29,112,41,236Z"/><path class="cls-3" d="M1038.4,1083.6s118.1,167.8,284.1,253.8Z"/><path class="cls-3" d="M1141.4,913.8s143,11.9,274.5-42Z"/><path class="cls-4" d="M823.4,1031.1s24.8,26.7,17,111.5c-12.5,135.5,9.2,246.2,9.2,246.2s-6.2-50.7,3.3-160.2C862.2,1121.5,854.9,1082.1,823.4,1031.1Z"/><path class="cls-4" d="M938.5,1200.9c1.6,11.5,3.8,22.8,6.2,34.1a500,500,0,0,0,20,66.6,482.49,482.49,0,0,0,67.6,122,437.73,437.73,0,0,0,101.3,96c2.4,1.7,4.9,3.2,7.3,4.8s4.9,3.2,7.4,4.7l7.4,4.6c2.5,1.5,5,2.9,7.6,4.3,5,2.9,10.2,5.6,15.3,8.3,2.6,1.4,5.2,2.6,7.8,3.9l3.9,1.9c1.3.6,2.6,1.3,3.9,1.9,5.3,2.3,10.5,4.8,15.9,7l8,3.3,8.1,3c5.4,2.1,10.9,3.8,16.4,5.7,2.7.9,5.5,1.7,8.3,2.5l8.3,2.4c-10.4-5-20.8-9.8-30.9-15.1l-7.6-4-7.5-4.1c-5-2.7-9.9-5.6-14.9-8.4-2.5-1.4-4.9-2.9-7.3-4.4s-4.9-2.9-7.3-4.5c-4.8-3.1-9.6-6.1-14.3-9.3-9.5-6.3-18.6-13-27.6-19.8a513,513,0,0,1-95.3-95.5,581.75,581.75,0,0,1-68.8-116.4,668.74,668.74,0,0,1-24.6-63.6,572.88,572.88,0,0,1-17.8-66.3c.1,5.8.5,11.5,1,17.3C937,1189.4,937.7,1195.1,938.5,1200.9Z"/><path class="cls-3" d="M1180.3,1288.2s59.9,98.6,157.5,157.5Z"/><path class="cls-4" d="M1195,1677.9a3,3,0,0,1-2.8-1.9,3.07,3.07,0,0,1,1.7-3.9c2.2-.9,226-86.9,321-138.6a3,3,0,1,1,2.9,5.3c-95.3,51.9-319.5,138-321.7,138.9A4.25,4.25,0,0,1,1195,1677.9Z"/><path class="cls-4" d="M1898.9,1262.9c-5.2-12.6-30.1-15.4-75.9-8.5a3,3,0,0,0-2.5,3.4c.1.5,7.6,72.1,7.9,72.4l-25.9,16.9c-5.6,1.1-19.2-81.1-24.5-80a2.05,2.05,0,0,0,0-1.1,3.13,3.13,0,0,0-3.6-2.3c-17.9,3.9-35.6,8.3-56.8,14-.5-22.6-2.2-48.3-5.1-78.4-6.5-66.9-12.9-118.6-13-119.1v-.1c18.8-77,40.7-167.9,46.4-191.6a25.6,25.6,0,0,0,2.6,2c16.5,11,35,7.5,35,7.5l-.8-11.6c9.7-4.6,19-11.1,21-17.3,2.6-8-.5-14.4-4.1-17.7.4-.6.8-1.1,1.2-1.7,5.7-9.9-4-22.8-6.5-25.8a16,16,0,0,0,.5-2.1c1.9-8.7-4.1-17.5-6.1-20.1a5,5,0,0,0,.2-1.2c1.9-12.6-9.6-20.4-15.9-22.7a3,3,0,0,0-3.9,1.8,2.81,2.81,0,0,0,.4,2.8l-1.5,5.3-15.1,5.9a32.89,32.89,0,0,0-14.6-3c-8.3.4-25.1,5.3-35.1,21.4-11.4,18.5-25.7,57.3-27.4,62.1l-74.6,97.3a2.7,2.7,0,0,0-1.5,1.1,30.19,30.19,0,0,0-2.6,4.3l-25.2,32.9c-4-9.3-13.8-31.3-27.2-57-16.3-31.3-41.3-74.7-68.1-103.2-26.9-28.7-66.8-46.7-95.4-56.8a376.28,376.28,0,0,0-54.6-14.8l-60.4-150a2.51,2.51,0,0,0,.4-.7c.1-.3,11.6-32.7,20-66.2l.3-1.2c.1-.5.3-1,.4-1.5V558c4.5-18.4,7.3-33.7,8.2-45.6,1.3-16.9-1.2-26.8-7.7-30.5-15.8-8.9-53.4-12.6-80.8-11.6-56.2,2.1-89.5,19.6-107.5,33.9a327,327,0,0,0-33.1,29.8c-23,23.6-36.8,45.1-41,63.9-5.9,25.8,4.3,77,10.9,105.2,8.1,34.6,18.1,66.8,23.6,79.2-22.2,4-132.2,25.4-196.7,68.4-44.1,29.4-97.9,98-141.1,153.1-28.5,36.3-53.1,67.7-69.2,81.1-36.6,30.5-79.3,27.8-99.5,7.7h-.1a.1.1,0,0,0-.1-.1c-.7-.6-66.8-60.3-97.5-146.6-28.9-81.1-25.9-86.7-13.5-110.3,13-24.8,49.2-68.6,49.6-69.1a2.94,2.94,0,0,0-.2-4c-.4-.4-9.7-9.4-25.4-1.9-7.4,3.5-18.1,13.6-27.6,22.5-5.3,5-11.7,11-14.9,13.1a80.75,80.75,0,0,1-.8-8.3c-.2-3.5-.5-7.4-1-11.5a3,3,0,1,0-6,.8c.5,3.9.8,7.7,1,11.1.5,7.7.9,11.5,2.8,13.5,3.7,3.7,9.3-1.6,22.9-14.4,8.7-8.2,19.5-18.3,26.1-21.5,7.9-3.8,13.5-2.2,16.3-.8-8,9.8-36.5,45.4-48.2,67.6-13.7,26-15.6,34.3,13.2,115.1,27.3,76.6,82,132.6,95.9,146v.3l2,137.9a2.46,2.46,0,0,0,.5,1.5c-.3.9.7,15,1.7,21.7-4.8-3.5-9.8-7.5-15-11.8-56.7-47.2-93.9-106.7-115.2-148.4-25-49-68.2-152.9-76.7-298.8a3,3,0,0,0-6,.4c8.6,147,52.1,251.8,77.3,301.2,39,76.5,85.1,124,116.9,150.4,30.4,25.2,53.4,36.4,59.2,39,1.8,8.3,6.6,25.4,19.2,58.4,18.8,49.4,54.6,125.6,119,207.6a661.73,661.73,0,0,0,94.7,97.7c-41.9,24.8-73.9,46.5-95,64.3-23.6,20-33,34.6-28.7,44.9,3.4,8.1,14.9,12.2,34.9,12.2a232.53,232.53,0,0,0,26.8-1.8c33.8-3.9,80.1-14.1,137.8-30.3,68.4-19.2,148.4-45.5,234.5-77.1l10.6-3.6c1.6-.5,3.2-1.1,4.8-1.7a3.81,3.81,0,0,0,1.3-.9c57.9-21.5,118.4-45.3,179.8-70.8,5.1-2.1,10.3-4.3,15.4-6.4h.2a3.55,3.55,0,0,0,1-.2,263,263,0,0,0,30.3-13.1c56.2-23.9,110.4-48.2,161.4-72.1h.1a3.53,3.53,0,0,0,1.4-.3l10.9-5.5c72.3-34.2,137.7-67.7,192.7-98.7,52.2-29.4,92.1-55.1,118.8-76.2C1891.7,1290.8,1903.5,1274.1,1898.9,1262.9Zm-101-395.5c-1.1,3.5-7.7,8.7-16.6,13.1-9.5,4.7-17.1,6.5-19.6,6.3-.6-5.9,13.1-18.2,23.1-25a3,3,0,0,0,.8-.8,47.48,47.48,0,0,0,9.7-5.2C1796.8,857.1,1800,861,1797.9,867.4Zm-7-37.9c2.8,3.9,7.6,11.9,4.6,17.3-4.6,8-21.2,11.9-29.4,12.8-9.9,1.1-12.5-.6-13.1-1.2-.2-.2-.5-.5-.4-1.7.3-2.3,3.9-5,6.4-7,.8-.6,1.6-1.3,2.3-1.9a8.75,8.75,0,0,0,1.6.2h.7c2.1-.2,5.1-1.3,7.2-5.5a19.79,19.79,0,0,0,1.4-3.9C1773.4,838.4,1784.7,836.3,1790.9,829.5Zm-5-21c1.8,3.1,3.9,7.8,2.9,12.1v.2c-1,6.5-10.2,10.1-15.5,11.4a66.33,66.33,0,0,0-.9-15.5A19,19,0,0,0,1785.9,808.5Zm-13.5-16.1c1.5-.6,2.1-1.9,1.8-3.8-.1-.6-.2-2.1-.5-3.7,3.9,2.2,10.4,7.1,9.2,14.9a12.94,12.94,0,0,1-1.3,4.2c-4.3,6.3-8.6,6.4-8.9,6.4a2.79,2.79,0,0,0-1.8.6h-.1a25.8,25.8,0,0,0-1.6-3.9,38.59,38.59,0,0,0-9.7-9.6Zm-565.1-316c3.4-.1,6.7-.2,10-.2,31.3,0,57.6,5.4,67.6,11,3.7,2.1,10.6,13.1-3.6,70.3-.3,1.2-.7,2.4-1.1,3.6-2.3,6.7-5.7,10.6-10,11.5-12,2.6-30.4-17.1-36.5-24.9l-.1-.1-.2-.2-.2-.2-.2-.2a.37.37,0,0,0-.3-.1c-.1,0-.1-.1-.2-.1s-.2-.1-.3-.1a.35.35,0,0,1-.2-.1h-1.3c-.1,0-.2.1-.4.1h-.1c-.1,0-.1.1-.2.1a.35.35,0,0,0-.2.1l-.1.1c-.1,0-.1.1-.2.2s-.2.1-.2.2l-.2.2c-.1.1-.1.2-.2.2s-.1.1-.1.2-.1.2-.2.3-.1.1-.1.2-.1.2-.1.3,0,.2-.1.2v1.1c0,.1.1.3.1.4v.1l92.1,228.8c-3.2,2.1-10.6,6.5-23.1,11.6-16,6.6-43.9,15.9-85.7,22.5a252.9,252.9,0,0,1-47.9,3c-.3-33,11.3-60.4,24.7-92.1,7.3-17.2,14.8-34.9,21.2-55.4,9.4-29.9,10.6-51.9,4-71.2-7.2-20.9-23.9-37.6-40.8-52.6-30-26.5-54.1-36.5-65-40C1126.3,492.4,1157.4,478.2,1207.3,476.4ZM593.5,1281.9c-2.7-3.6-23.8-33.6-25.4-82.7a171.59,171.59,0,0,1,2.3-30.9c2.3-14.7,4.8-31.4,2.5-47.5a39.34,39.34,0,0,0-3.5-11.4,76,76,0,0,0,35.5,3.6,3,3,0,0,0,1.3.5c.3,0,34.4,5,53.5,71.8,2.9,10.1,5.7,25.3,9.2,44.5,2.5,13.6,8.2,46.4,11.6,63C680.4,1293,647,1302.2,593.5,1281.9Zm365.7,434.7,1.6-.6.1.1A8.45,8.45,0,0,1,959.2,1716.6Zm8.2-2.5a2.89,2.89,0,0,0-1.4-2c-97.5-57.3-172.5-141.4-222.9-249.8-42-90.3-57.9-176.4-68.4-233.4-3.6-19.3-6.4-34.6-9.4-45-14.1-49.5-36.2-66.9-48.8-73,13.5-3.5,27.3-10.4,40.3-21.3,16.6-13.8,41.3-45.4,70-82,2.7-3.4,5.4-6.9,8.2-10.4a2.78,2.78,0,0,0,1.8,0c.2-.1,17.3-5.6,39,1.3,17.5,5.6,33.1,17.9,46.1,36.1q2.85,4.65,5.4,9.3c6.5,14.3,15,44.4,10,98.6-12.4,134.4,9,245.9,9.2,247a3,3,0,0,0,.4,1c.8,7.1,1.7,14.2,2.9,21.3q9.45,58.8,26.7,108.9a3.1,3.1,0,0,0-.1,1.9,354.85,354.85,0,0,0,30.1,68.5q35.55,67.8,89.4,114Q981.5,1709.6,967.4,1714.1Zm536.8-312c-1.6,6.4-9.2,34.7-29.5,67.3a252.33,252.33,0,0,1-96.7,90.2c-5.1,2.3-9.9,4.4-14.2,6.3-11.8,5-23.6,9.9-35.5,14.9-65.4,27.2-129.8,52.4-191.1,75-40.2,12.4-78,14.1-112.5,4.8-29.9-8.1-57.5-24.3-81.9-48.3-30-29.5-48-63.6-55.8-80.7q-20.4-54.9-31-120.9-3.15-19.8-4.5-39.3c-1.1-23.1-1.7-70,4.6-142.6.7-8,1.3-15.6,1.8-22.9,4-49.8,5.5-93.5-8-130.3-5.8-15.8-12.3-28.8-19.2-39.3a35.34,35.34,0,0,0-4.9-7.3,1,1,0,0,0-.5-.4c-16.1-21.6-33.5-31.5-47.4-35.9a78.66,78.66,0,0,0-37.1-2.7c31.2-39.5,66.3-82.9,98.6-112.4a4.88,4.88,0,0,0,.7-.3,110.59,110.59,0,0,1,46.5-13.8c35.6-2.3,66.6,13.7,92,47.6a3,3,0,0,0,4.2.6,3,3,0,0,0,.6-4.2c-33.3-44.5-71.4-51.7-97.5-49.9a117,117,0,0,0-30.2,6.2c3.7-2.9,7.4-5.6,11-8,65.9-44,180.5-65.1,196.5-67.9,6,7.9,22.3,18.6,47.1,26.1a215.62,215.62,0,0,0,62.5,8.8,255.82,255.82,0,0,0,40.2-3.2c74.3-11.8,106.1-31.5,112.2-35.8,11.4,2.1,100.1,19.8,147.1,69.9,23.7,25.2,46.1,62.5,62.1,92.3-5.6,1.1-23.3,5.7-39.9,22.8-11.5,11.8-20,27.1-25.4,45.5-6.7,22.8-8.6,50.5-5.6,82.3,5,53.5,16.3,92.2,26.3,126.3,10.5,35.9,19.5,66.8,20.2,107.5C1510.3,1354.7,1507.9,1379.2,1504.2,1402.1Zm27.2,63.1c-4.1,1.9-7.9,1.9-10.1.1-3.5-2.8-9.2-13.7-8.6-55.1.2-17,1.5-33.4,2.2-41.6.2-1.9.4-3.8.5-5.6a2.83,2.83,0,0,0-.4-1.8c.7-10.2,1-20.6.9-30.9-.7-41.5-10.3-74.3-20.4-109.1-9.9-33.8-21.1-72.2-26.1-125.2-5.2-55.2,4.9-97.6,29.1-122.8,14.5-15.1,31.4-20.7,38.4-21.6.2,0,.3-.1.5-.1.7,1.3,1.4,2.7,2.1,4,15.4,29.6,26,54.3,28.5,60.1a392.28,392.28,0,0,0-22.1,58.3c-9.8,33-20.3,83.5-14.8,136.7.1.6.1,1.1.2,1.7,3.2,37.9,11,79.1,17.2,112.2,1.3,6.9,2.5,13.5,3.7,19.8a437.88,437.88,0,0,1,6.5,67.6C1556.2,1434.2,1547.4,1457.9,1531.4,1465.2Zm104.7-132.5c-3.3,39-14.7,74.1-24.1,97.4a13.73,13.73,0,0,0-1.3,2c-6.4,11.1-14.4,16.6-22.7,15.4-7.1-1-13.5-7-15.4-14.4a49.26,49.26,0,0,1-.9-17.5c2.1-9.5,4.3-21.4,6.1-35.2,4.6-36.3,6.7-93.9-9.4-161.8-23.6-99.4-17.3-139.2-15.7-146.7,9.6-31.5,19.8-52.3,21-54.6l17.9-23.4c-4.1,20-5.7,55.2,1.9,117.5,3.6,29.6,12.4,60.5,20.8,90.3C1626.8,1245.6,1639.6,1291,1636.1,1332.7Zm-5.4-93.7c-3.3-13-7-26.1-10.7-39-8.4-29.6-17.1-60.3-20.7-89.4-10.5-86.4-3-118.8,2.7-130.5l78.7-102.6h0c.1-.1.2-.3.3-.4s.1-.1.1-.2.1-.1.1-.2c.2-.4,15.5-42.7,27.1-61.4,8.7-14,23.6-18.3,30.2-18.6,13.8-.6,23.9,10.7,25.7,13.6,2.7,4.3,4.9,22.3,1.3,29.6-1,2.1-2,2.2-2.4,2.2-3,.3-9.2-7.6-13.9-19.8,0-.1-.1-.1-.1-.2s-.1-.2-.2-.3-.1-.2-.2-.3l-.2-.2c-.1-.1-.2-.2-.3-.2s-.1-.1-.2-.1-.2-.1-.3-.2-.1-.1-.2-.1-.2-.1-.3-.1-.2-.1-.3-.1h-1.2l-19.3,3a3,3,0,0,0-2.5,3.4,2.93,2.93,0,0,0,3,2.5h.5l7.3-1.1a48.87,48.87,0,0,1,1.2,12.8c-.5,11.8-4.9,22.8-13.3,32.7a2.91,2.91,0,0,0,.4,4.2,2.81,2.81,0,0,0,1.9.7,3,3,0,0,0,2.3-1.1,64.26,64.26,0,0,0,5.7-7.8,66.41,66.41,0,0,0,7.8,13.6c-5.9,24.6-66.5,276.1-75.4,308.2C1657.7,1220.1,1635.9,1235.6,1630.7,1239Z"/><path class="cls-3" d="M1089.5,628.5,1056,654.6a22.42,22.42,0,0,0,2.8,6.3,15.92,15.92,0,0,1,27.6,9,23,23,0,0,0,3.1-41.4Z"/><path class="cls-3" d="M1135.7,616.4a22.65,22.65,0,0,0-1.1,6.9,21.83,21.83,0,0,0,3.7,12.4,15.92,15.92,0,0,1,27.6,9,23,23,0,0,0,14.7-21.5v-.9Z"/><path class="cls-3" d="M1120.6,677.5c4.1,2.8,7.7,14,7.4,17.6-.2,2.2-9.1,7-10.3.1S1117.7,675.5,1120.6,677.5Z"/><path class="cls-3" d="M1131.4,673.9c-2,4.6,1.8,16.7,3.7,19.4,1.1,1.6,11,.3,8.3-6.1S1132.8,670.8,1131.4,673.9Z"/><path class="cls-3" d="M930.1,1723.5a3.53,3.53,0,0,1-1.4-.3,504.56,504.56,0,0,1-46.3-27.8c-17.7-11.8-35.2-24.8-52-38.6a3,3,0,0,1,3.8-4.6c16.7,13.7,34,26.5,51.5,38.2a517.25,517.25,0,0,0,45.8,27.5,3.1,3.1,0,0,1,1.3,4.1A3.15,3.15,0,0,1,930.1,1723.5Z"/><path class="cls-3" d="M1693.1,1412a2.3,2.3,0,0,1-1.4-.4,3,3,0,0,1-1.2-4.1c8.9-16.1,14.8-36.2,18.1-61.6,2.3-17.2,3.3-36.4,3.1-58.6a3,3,0,0,1,3-3,3,3,0,0,1,3,3c.2,22.6-.8,42-3.1,59.5-3.4,26.1-9.6,46.9-18.8,63.7A3.58,3.58,0,0,1,1693.1,1412Z"/><polygon class="cls-3" points="548.9 1633.2 200.4 1633.2 200.4 1372.6 219.4 1361.1 200.4 1348.6 200.4 1066.1 220.4 1060 200.4 1052.1 200.4 838.8 548.9 838.8 548.9 1026.3 539.8 1037.3 548.9 1045 548.9 1480.6 524.4 1488.6 548.9 1496.1 548.9 1633.2"/><path class="cls-2" d="M589.1,1611.6a14,14,0,0,0-14,14v7.6H174.9v-7.6a14,14,0,0,0-14-14h0a14,14,0,0,0-14,14v76a14,14,0,0,0,14,14h0a14,14,0,0,0,14-14v-8.4H575.1v8.4a14,14,0,0,0,28,0v-76A14,14,0,0,0,589.1,1611.6Z"/><path class="cls-2" d="M589.1,755a14,14,0,0,0-14,14v76a14,14,0,0,0,28,0V769A14,14,0,0,0,589.1,755Z"/><path class="cls-2" d="M176.5,769a14,14,0,0,0-28,0v76a14,14,0,0,0,28,0v-7.7H573.8V778.8H176.5Z"/><path class="cls-4" d="M606.1,1649.6v-24.7a17,17,0,0,0-34,0v5.3H551.9V1496.1a3.09,3.09,0,0,0-2.2-2.9l-17.9-5,17.8-4.7a2.92,2.92,0,0,0,2.2-2.9V1045a3,3,0,0,0-1.2-2.4l-8.3-6.5,8.5-7.6a3.21,3.21,0,0,0,1-2.2v-186H572V845a17,17,0,0,0,34,0V822.3c12-.2,55.3-1.8,55.3-14.3S618,793.9,606,793.7V769a17,17,0,0,0-34,0v5.3H510.2a150.69,150.69,0,0,0-16.1,0H253.3a151.27,151.27,0,0,0-16.1,0H177.9V769a17,17,0,0,0-34,0v24.7c-12,.2-55.3,1.8-55.3,14.3s43.3,14.1,55.3,14.3V845a17,17,0,0,0,34,0v-4.7h20v211.8a3.09,3.09,0,0,0,2.2,2.9l15.3,4.4-15.2,3.8a3,3,0,0,0-2.3,2.9v282.5a2.85,2.85,0,0,0,1.4,2.5l14.6,9.5-14.6,9.5a3,3,0,0,0-1.4,2.5v257.6h-20v-5.3a17,17,0,0,0-34,0v24.7c-12,.2-55.3,1.8-55.3,14.3s43.3,14.1,55.3,14.3v22.7a17,17,0,0,0,34,0v-4.5h79.2a3.55,3.55,0,0,0,1-.2H489.6a3,3,0,0,0,1,.2h81.6v4.5a17,17,0,0,0,34,0v-22.7c12-.2,55.3-1.8,55.3-14.3S618.1,1649.8,606.1,1649.6ZM578.1,769a11,11,0,0,1,22,0v76a11,11,0,0,1-22,0ZM171.9,845a11,11,0,0,1-22,0V769a11,11,0,0,1,22,0Zm0,855.9a11,11,0,0,1-22,0v-76a11,11,0,0,1,22,0Zm17-896.2a16.3,16.3,0,0,1,5.6-12.2c8.3-7.7,23.9-10.7,36.9-11.8l21.9-.4H494.2l22,.4c13,1.1,28.5,4.1,36.8,11.7a16.3,16.3,0,0,1,5.6,12.2c.4,22.9-47.3,29.1-67.1,29.6H256C236.2,833.8,188.6,827.6,188.9,804.7Zm15,569.6,17.1-11.1a3,3,0,0,0,1.4-2.5,2.85,2.85,0,0,0-1.4-2.5l-17.1-11.1V1068.6l23.7-5.9a3.12,3.12,0,0,0,2.3-2.9,2.92,2.92,0,0,0-2.2-2.9l-23.8-6.9V868.7l342-14V1025l-10.2,9.1a3,3,0,0,0-1,2.3,3.1,3.1,0,0,0,1.2,2.3l10,7.8v431.9l-26.3,6.9a2.92,2.92,0,0,0-2.2,2.9,3,3,0,0,0,2.2,2.9l26.3,7.4v122.1l-342-15.2V1374.3Zm291.4,315.9h-243c-21.5-1.1-63.7-7.8-63.4-29.4a16.3,16.3,0,0,1,5.6-12.2c8.3-7.7,23.9-10.7,36.9-11.8l21.9-.4c.3,0,.6-.1.8-.1H493.3a2.2,2.2,0,0,0,.8.1l22,.4c13,1.1,28.5,4.1,36.8,11.7a16.3,16.3,0,0,1,5.6,12.2C559,1682.4,516.8,1689.1,495.3,1690.2Zm104.8,10.7a11,11,0,0,1-22,0v-76a11,11,0,0,1,22,0Z"/><path class="cls-4" d="M508.9,1510.3h-90a3,3,0,1,1,0-6h90a3,3,0,0,1,0,6Z"/><path class="cls-4" d="M272.4,1188.6H229.9a3,3,0,0,1,0-6h42.5a3,3,0,1,1,0,6Z"/><path class="cls-4" d="M524.4,964.3H481.9a3,3,0,1,1,0-6h42.5a3,3,0,0,1,0,6Z"/><path class="cls-3" d="M417.8,774.5H401.3s-28,32.2-32,29.3,3.3-28.8,3.3-28.8-39.2,25.5-41.7,20.5,7-20.7,7-20.7-24.2,12.5-26.2,6.8,7.5-15.8,7.5-15.8-14.5,1.2-12.5-5.2,42-25.5,47.3-25.5,13.2,7.3,13.2,7.3,7.8-3.2,14.3-1,7.2,5.7,7.2,5.7,11.3-4.7,18.7,1.3S419.1,769.8,417.8,774.5Z"/><path class="cls-4" d="M422.1,776.6c-1.2-9.2-3.3-16.3-6.6-21.5-4.6-7.3-10.9-11.6-17.9-12.1a19.19,19.19,0,0,0-7.9,1.1c-2.8-4.2-8.5-8.9-16.5-6.7a18.54,18.54,0,0,0-5.3,2.3c-2.9-3.8-9.4-10.8-18-8.5h-.2a16.46,16.46,0,0,0-2.1.9c-3.6,1.6-12.6,5.8-21.4,10.4-21.6,11.5-24.1,16.5-23.5,20.2.8,5,6.3,6.2,10.9,6.3a64.89,64.89,0,0,0-5,8.3c-.8,1.8-1.6,3.9-.7,5.7a5.65,5.65,0,0,0,3.7,3.2,8.52,8.52,0,0,0,2.3.3c4.6,0,11-2.8,16.6-5.7-2.7,5.3-4.6,11-3.6,14.8a6.13,6.13,0,0,0,3.5,4.3,6.33,6.33,0,0,0,2.6.5c3.4,0,9.5-2.1,22.5-10.4,3.8-2.4,7.5-4.9,10.5-7-3.8,12.3-3.8,19.9,0,23.2a5.84,5.84,0,0,0,3.9,1.4,4.48,4.48,0,0,0,1.1-.1c10.3-1.6,28.8-29.8,32.4-35.5a3,3,0,1,0-5-3.2c-.1.1-5.7,9-12.3,17.5-12.3,15.8-16,15.3-16,15.3-.9-.8-2.1-6.4,3.7-22.4,4.1-11.3,9.8-22.3,12.5-25.5a13.33,13.33,0,0,1,11-4.6c5,.4,9.6,3.6,13.2,9.3,2.8,4.5,4.7,10.8,5.8,19.1a3,3,0,0,0,3.4,2.6A3.38,3.38,0,0,0,422.1,776.6ZM308.6,761.9c.9-2.7,10.2-8.8,23.1-15.5-1.6,1.8-3.1,3.4-4.3,4.9-3.1,3.6-6.4,7.6-9.4,11.6C312.8,763.5,309,762.6,308.6,761.9Zm5.1,18.7c1.2-3.1,6.8-11.7,16-22.8,9.6-11.5,16.8-18.2,20.2-20.2.5-.2,1-.4,1.4-.6,4.9-1.3,9.2,3.2,11.4,6-10,7.3-20.7,19.5-24.5,24.9-.4.6-.9,1.4-1.5,2.2C327.2,776.3,316.9,781,313.7,780.6Zm67.9-30.9c-3,3.6-8.1,13.6-12,23.4-14.7,10.9-32.8,22-36.7,21.3-.1,0-.1-.1-.2-.4-.9-3.2,3.5-12.8,10.5-22.6,5.8-8.3,22.6-25.8,31.5-28.2,5-1.3,8.1,1.6,9.7,3.8A23.67,23.67,0,0,0,381.6,749.7Z"/><g id="Group"><g class="cls-5"><polygon id="Fill-4" class="cls-6" points="267.69 1316.33 469.49 1316.33 469.49 1159.92 267.69 1159.92 267.69 1316.33"/></g><g class="cls-7"><polygon id="Fill-7" class="cls-8" points="262.43 1365.3 476.58 1365.3 476.58 1164.29 262.43 1164.29 262.43 1365.3"/></g><g class="cls-9"><polygon id="Fill-10" class="cls-8" points="371.43 1280.73 462.47 1280.73 462.47 1165.03 371.43 1165.03 371.43 1280.73"/></g><g class="cls-10"><polygon id="Fill-13" class="cls-1" points="307.48 1299.85 424.85 1299.85 424.85 1178.62 307.48 1178.62 307.48 1299.85"/></g><g class="cls-11"><polygon id="Fill-16" class="cls-1" points="353.08 1299.85 474.38 1299.85 474.38 1178.62 353.08 1178.62 353.08 1299.85"/></g><g class="cls-12"><polygon id="Fill-19" class="cls-8" points="303.02 1306.61 478.49 1306.61 478.49 1174.58 303.02 1174.58 303.02 1306.61"/></g><g class="cls-13"><polygon id="Fill-22" class="cls-1" points="408.77 1215.1 297.32 1263.07 340.57 1363.58 452.03 1315.61 408.77 1215.1"/></g><g class="cls-14"><polygon id="Fill-25" class="cls-6" points="337.66 1312.75 471.66 1312.75 471.66 1197.35 337.66 1197.35 337.66 1312.75"/></g><g class="cls-15"><polygon id="Fill-28" class="cls-8" points="336.39 1322.02 471.94 1322.02 471.94 1199.61 336.39 1199.61 336.39 1322.02"/></g><g class="cls-16"><polygon id="Fill-31" class="cls-8" points="254.27 1279.63 499.71 1279.63 499.71 1112.65 254.27 1112.65 254.27 1279.63"/></g><g class="cls-17"><polygon id="Fill-34" class="cls-6" points="271.63 1260.78 464.82 1260.78 464.82 1122.29 271.63 1122.29 271.63 1260.78"/></g><g class="cls-18"><polygon id="Fill-37" class="cls-1" points="282.83 1226 445.56 1226 445.56 1104.06 282.83 1104.06 282.83 1226"/></g><g class="cls-19"><polygon id="Fill-40" class="cls-6" points="302.12 1228.63 449.52 1228.63 449.52 1107.22 302.12 1107.22 302.12 1228.63"/></g><g class="cls-20"><polygon id="Fill-43" class="cls-1" points="274.31 1260.92 397.86 1260.92 397.86 1132.99 274.31 1132.99 274.31 1260.92"/></g><g class="cls-21"><polygon id="Fill-46" class="cls-8" points="267.92 1263.23 467.81 1263.23 467.81 1098.7 267.92 1098.7 267.92 1263.23"/></g><g class="cls-22"><polygon id="Fill-49" class="cls-8" points="325.17 1247.24 431.24 1247.24 431.24 1139.28 325.17 1139.28 325.17 1247.24"/></g><g class="cls-23"><polygon id="Fill-52" class="cls-8" points="354.82 1245.66 446.27 1245.66 446.27 1129 354.82 1129 354.82 1245.66"/></g><g class="cls-24"><polygon id="Fill-55" class="cls-8" points="310.93 1255.86 405.22 1255.86 405.22 1139.64 310.93 1139.64 310.93 1255.86"/></g><g class="cls-25"><polygon id="Fill-58" class="cls-8" points="289.08 1252.17 383.2 1252.17 383.2 1143.71 289.08 1143.71 289.08 1252.17"/></g></g><path d="M304.27,1368.89q4,4.65,4,12.64V1405h-14v-21.67a7.82,7.82,0,0,0-1.84-5.51,6.4,6.4,0,0,0-4.93-2,6.48,6.48,0,0,0-5,2.05,8.06,8.06,0,0,0-1.87,5.65V1405H266.32v-40.39h14.19v6.77a13.08,13.08,0,0,1,5-5.19,15.11,15.11,0,0,1,7.77-1.94Q300.31,1364.25,304.27,1368.89Z"/><path d="M353.73,1368.89q4,4.65,4,12.64V1405h-14v-21.67a7.77,7.77,0,0,0-1.84-5.51,6.38,6.38,0,0,0-4.93-2,6.48,6.48,0,0,0-5,2.05,8.06,8.06,0,0,0-1.87,5.65V1405H315.79v-40.39H330v6.77a13.08,13.08,0,0,1,5-5.19,15.15,15.15,0,0,1,7.78-1.94Q349.77,1364.25,353.73,1368.89Z"/><path d="M366.4,1348.23a8.75,8.75,0,0,1,6.05-2,8.48,8.48,0,0,1,6,2,6.81,6.81,0,0,1,2.23,5.22,6.49,6.49,0,0,1-2.27,5,8.62,8.62,0,0,1-5.94,2,8.87,8.87,0,0,1-6.05-2,6.45,6.45,0,0,1-2.3-5A6.7,6.7,0,0,1,366.4,1348.23Zm13,16.38V1405H365.25v-40.39Z"/><path d="M400.46,1393.26h17.71V1405H384.91v-11.16l16.41-17.5H385.19v-11.73h32.26v11.09Z"/><path d="M462,1387.36H435.31c.23,4.56,2.23,6.84,6,6.84a5.63,5.63,0,0,0,3.46-1,5.07,5.07,0,0,0,1.87-2.66h15a17.21,17.21,0,0,1-3.53,7.67,19,19,0,0,1-6.91,5.36,21.39,21.39,0,0,1-9.15,1.94,22.28,22.28,0,0,1-10.69-2.48,17.62,17.62,0,0,1-7.24-7.2,24.8,24.8,0,0,1,0-22.07,17.5,17.5,0,0,1,7.28-7.16,24.22,24.22,0,0,1,21.31,0,17.41,17.41,0,0,1,7.16,7,21.06,21.06,0,0,1,2.56,10.51A17,17,0,0,1,462,1387.36Zm-15.7-10.58a6.13,6.13,0,0,0-4.32-1.59,6.57,6.57,0,0,0-4.57,1.59,6.82,6.82,0,0,0-2.05,4.68H448A5.86,5.86,0,0,0,446.32,1376.78Z"/><path d="M488.23,1366.41a14.56,14.56,0,0,1,7.63-2.16v15.12h-4.11c-3.16,0-5.54.61-7.12,1.83s-2.38,3.35-2.38,6.38V1405H468.07v-40.39h14.18v7.56A18.47,18.47,0,0,1,488.23,1366.41Z"/><path d="M271.46,1417.92a25,25,0,0,1,7.14-8.93h6.84v.65a27.83,27.83,0,0,0-7.45,9.28,27.31,27.31,0,0,0,0,22.61,27.76,27.76,0,0,0,7.45,9.29v.65H278.6a25.11,25.11,0,0,1-7.14-8.91,29.26,29.26,0,0,1,0-24.64Z"/><path d="M292.14,1432.41q3-3,2.95-5.49c0-1.59-.63-2.38-1.91-2.38a1.67,1.67,0,0,0-1.56.83,5.77,5.77,0,0,0-.52,2.73h-6.88q.21-4.78,2.88-7.14a9.71,9.71,0,0,1,6.66-2.36q4.35,0,6.44,2.16a7.51,7.51,0,0,1,2.09,5.47,11,11,0,0,1-2.54,6.84,23.27,23.27,0,0,1-6.24,5.58h9.14v5.73H284.26v-5.3A65.22,65.22,0,0,0,292.14,1432.41Z"/><path d="M304.85,1431.67c0-4,.84-7.1,2.54-9.42s4.32-3.47,7.9-3.47,6.21,1.16,7.92,3.49,2.55,5.46,2.55,9.4-.85,7.1-2.55,9.43-4.35,3.49-7.92,3.49-6.21-1.16-7.9-3.49S304.85,1435.63,304.85,1431.67Zm13.93,0a11.8,11.8,0,0,0-.7-4.57,3.21,3.21,0,0,0-5.58,0,11.8,11.8,0,0,0-.7,4.57,12,12,0,0,0,.7,4.61,3.21,3.21,0,0,0,5.58,0A12,12,0,0,0,318.78,1431.67Z"/><path d="M327.42,1425.87v-6.66h11.23v25.49h-7.41v-18.83Z"/><path d="M349.94,1438.65a2.54,2.54,0,0,0,4.08-1,13.87,13.87,0,0,0,.58-5.11,4.45,4.45,0,0,1-2,2,6.63,6.63,0,0,1-3.13.72,7.4,7.4,0,0,1-5.6-2.16,8.62,8.62,0,0,1-2.07-6.2,9.34,9.34,0,0,1,1.1-4.6,7.61,7.61,0,0,1,3.15-3.08,10.26,10.26,0,0,1,4.89-1.1,10,10,0,0,1,6.07,1.62,8.32,8.32,0,0,1,3,4.41,23.41,23.41,0,0,1,.85,6.79q0,7-2.11,10.53t-7.11,3.54a9.69,9.69,0,0,1-4.87-1.15,8.17,8.17,0,0,1-3.12-3,9.19,9.19,0,0,1-1.22-4.07h6.62A3.53,3.53,0,0,0,349.94,1438.65Zm3.42-13.75a3.37,3.37,0,0,0-4.2-.05,2.73,2.73,0,0,0-.75,2.1,2.7,2.7,0,0,0,.77,2.07,2.9,2.9,0,0,0,2.07.74,3,3,0,0,0,2-.72,2.56,2.56,0,0,0,.81-2A2.91,2.91,0,0,0,353.36,1424.9Z"/><path d="M379,1429.29v5.87H362.66v-5.87Z"/><path d="M391.32,1432.41q3-3,2.95-5.49c0-1.59-.63-2.38-1.91-2.38a1.67,1.67,0,0,0-1.56.83,5.77,5.77,0,0,0-.52,2.73H383.4q.21-4.78,2.88-7.14a9.71,9.71,0,0,1,6.66-2.36q4.35,0,6.44,2.16a7.51,7.51,0,0,1,2.09,5.47,11,11,0,0,1-2.54,6.84,23.27,23.27,0,0,1-6.24,5.58h9.14v5.73H383.44v-5.3A65.22,65.22,0,0,0,391.32,1432.41Z"/><path d="M404,1431.67c0-4,.84-7.1,2.54-9.42s4.32-3.47,7.9-3.47,6.21,1.16,7.92,3.49,2.55,5.46,2.55,9.4-.85,7.1-2.55,9.43-4.35,3.49-7.92,3.49-6.21-1.16-7.9-3.49S404,1435.63,404,1431.67Zm13.93,0a11.8,11.8,0,0,0-.7-4.57,3.21,3.21,0,0,0-5.58,0,11.8,11.8,0,0,0-.7,4.57,12,12,0,0,0,.7,4.61,3.21,3.21,0,0,0,5.58,0A12,12,0,0,0,418,1431.67Z"/><path d="M426.6,1425.87v-6.66h11.23v25.49h-7.41v-18.83Z"/><path d="M449.12,1438.65a2.54,2.54,0,0,0,4.08-1,13.87,13.87,0,0,0,.58-5.11,4.45,4.45,0,0,1-2,2,6.63,6.63,0,0,1-3.13.72,7.38,7.38,0,0,1-5.6-2.16,8.62,8.62,0,0,1-2.07-6.2,9.24,9.24,0,0,1,1.1-4.6,7.61,7.61,0,0,1,3.15-3.08,10.23,10.23,0,0,1,4.89-1.1,10,10,0,0,1,6.07,1.62,8.32,8.32,0,0,1,3,4.41,23.41,23.41,0,0,1,.85,6.79q0,7-2.11,10.53t-7.11,3.54a9.76,9.76,0,0,1-4.88-1.15,8.21,8.21,0,0,1-3.11-3,9.19,9.19,0,0,1-1.22-4.07h6.62A3.53,3.53,0,0,0,449.12,1438.65Zm3.42-13.75a3.37,3.37,0,0,0-4.2-.05,2.73,2.73,0,0,0-.75,2.1,2.7,2.7,0,0,0,.77,2.07,2.9,2.9,0,0,0,2.07.74,3,3,0,0,0,2-.72,2.55,2.55,0,0,0,.8-2A2.9,2.9,0,0,0,452.54,1424.9Z"/><path d="M473.11,1442.54a25.25,25.25,0,0,1-7.16,8.93h-6.84v-.65a28.12,28.12,0,0,0,7.47-9.27,27.28,27.28,0,0,0,0-22.64,28.12,28.12,0,0,0-7.47-9.27V1409H466a25.27,25.27,0,0,1,7.16,8.91,29.07,29.07,0,0,1,0,24.64Z"/><path d="M340.74,1114.22l-10.3-18.79H329v18.79H314.82v-51h22.39a23.15,23.15,0,0,1,10.4,2.13,14.71,14.71,0,0,1,6.45,5.87,16.52,16.52,0,0,1,2.16,8.42,15,15,0,0,1-3,9.25,15.63,15.63,0,0,1-8.5,5.51l11.59,19.8ZM329,1085.92h7q5.91,0,5.91-5.32a5.26,5.26,0,0,0-1.48-4,6.1,6.1,0,0,0-4.43-1.44h-7Z"/><path d="M376,1063.24v51H361.83v-51Z"/><path d="M398.05,1097.16v17.06H383.86v-51H405q9.23,0,14.08,4.65t4.86,12.42a17.26,17.26,0,0,1-2.16,8.64,15.06,15.06,0,0,1-6.45,6,22.45,22.45,0,0,1-10.33,2.2Zm11.59-16.85q0-5.62-6.19-5.62h-5.4V1086h5.4Q409.65,1086,409.64,1080.31Z"/></svg>