<svg xmlns="http://www.w3.org/2000/svg" xmlns:xlink="http://www.w3.org/1999/xlink" viewBox="0 0 336.58 289.09"><defs><style>.cls-1{fill:none;}.cls-2{isolation:isolate;}.cls-3{clip-path:url(#clip-path);}.cls-4{clip-path:url(#clip-path-2);}.cls-5{clip-path:url(#clip-path-3);}.cls-6{clip-path:url(#clip-path-4);}.cls-7{fill:#ffc600;}.cls-8{clip-path:url(#clip-path-5);}.cls-9{fill:#fece2f;}.cls-10{clip-path:url(#clip-path-7);}.cls-11{fill:#191919;}.cls-12{clip-path:url(#clip-path-9);}.cls-13{clip-path:url(#clip-path-11);}.cls-14{fill:#fff;}.cls-15{clip-path:url(#clip-path-13);}.cls-16{clip-path:url(#clip-path-15);}.cls-17{clip-path:url(#clip-path-17);}.cls-18{clip-path:url(#clip-path-19);}.cls-19{clip-path:url(#clip-path-21);}.cls-20{clip-path:url(#clip-path-23);}.cls-21{clip-path:url(#clip-path-25);}.cls-22{clip-path:url(#clip-path-27);}.cls-23{clip-path:url(#clip-path-29);}.cls-24{clip-path:url(#clip-path-31);}.cls-25{clip-path:url(#clip-path-33);}.cls-26{clip-path:url(#clip-path-35);}.cls-27{clip-path:url(#clip-path-37);}.cls-28{clip-path:url(#clip-path-39);}.cls-29{clip-path:url(#clip-path-41);}.cls-30{fill:#19150a;}</style><clipPath id="clip-path" transform="translate(0 -2.59)"><rect class="cls-1" x="96.88" y="26.45" width="142.82" height="137.53" rx="1.5"/></clipPath><clipPath id="clip-path-2" transform="translate(0 -2.59)"><rect class="cls-1" x="100.25" y="29.04" width="134.9" height="134.9" rx="48.78"/></clipPath><clipPath id="clip-path-3" transform="translate(0 -2.59)"><rect class="cls-1" x="70.43" width="195.72" height="190.43"/></clipPath><clipPath id="clip-path-4" transform="translate(0 -2.59)"><rect class="cls-1" x="96.88" y="26.45" width="142.82" height="137.53"/></clipPath><clipPath id="clip-path-5" transform="translate(0 -2.59)"><path class="cls-1" d="M190.69,83.92l2.46,8.59,1.41,20.35L191.22,122l-30.78-3.33-15.3-6.14-3.52,4.91-6.86-5.26s-5.63-11-1.23-14.21A156.14,156.14,0,0,0,145,87.07l35.18-4Z"/></clipPath><clipPath id="clip-path-7" transform="translate(0 -2.59)"><path class="cls-1" d="M140.92,114.09c-3.34-1.58-8.27-4.91-7.56-10,.35-2.63,1.4-3.16,1.75-3.33,1.76-1.06,4.93,0,6.69.7,0,4.91.35,9.47.52,11.05v.17A3.57,3.57,0,0,0,140.92,114.09Zm56.1.17a4.4,4.4,0,0,0-5.28-2.1c-9,3.16-12.48-.53-12.48-.7a2.18,2.18,0,0,0-1.41-.71,2,2,0,0,0-1.41.53c-4.57,4.21-12,6.67-17.23,2.28-4.75-3.86-9.32-5.09-13.19-3.51-.53-8.07-.35-18.94,1.23-21.22a2,2,0,1,0-3.34-2.28c-1.41,1.93-2.11,6.31-2.29,10.87-2.29-.7-5.8-1.58-8.62,0-1.58.7-3.34,2.46-3.87,6.32-.52,4.73,1.59,8.94,6.34,12.1a32.61,32.61,0,0,0,3.34,1.93c-1.94,5.44-1.23,13,3.69,20.87,3.69,5.62,11.61,9.83,20.75,10.88a37.47,37.47,0,0,0,4.4.18c8.44,0,16-2.81,20.93-7.72C198.6,132.51,200,119.17,197,114.26Z"/></clipPath><clipPath id="clip-path-9" transform="translate(0 -2.59)"><path class="cls-1" d="M190.51,97.6a1.87,1.87,0,0,0,1.59,2.28h.52a1.9,1.9,0,0,0,1.94-1.58A22.74,22.74,0,0,0,193.15,86a2,2,0,0,0-3.69,1.58C189.28,87.78,191.57,93,190.51,97.6Z"/></clipPath><clipPath id="clip-path-11" transform="translate(0 -2.59)"><ellipse class="cls-1" cx="162.37" cy="102.86" rx="8.79" ry="8.77"/></clipPath><clipPath id="clip-path-13" transform="translate(0 -2.59)"><ellipse class="cls-1" cx="189.81" cy="102.86" rx="8.79" ry="8.77"/></clipPath><clipPath id="clip-path-15" transform="translate(0 -2.59)"><path class="cls-1" d="M189.81,109.53a6.67,6.67,0,1,1,6.68-6.67A6.68,6.68,0,0,1,189.81,109.53Zm-27.44,0a6.68,6.68,0,0,1-6.68-6.67,6.69,6.69,0,0,1,13.37,0A6.68,6.68,0,0,1,162.37,109.53Zm27.44-17.37a10.59,10.59,0,0,0-10.55,8.77h-6.51a10.76,10.76,0,0,0-10.55-8.77,10.7,10.7,0,1,0,10.55,12.63h6.33a10.76,10.76,0,0,0,10.55,8.77,10.7,10.7,0,0,0,.18-21.4Z"/></clipPath><clipPath id="clip-path-17" transform="translate(0 -2.59)"><path class="cls-1" d="M161.67,122l15,9.47s-6.51,5.09-12.14,1.76C158.15,129.7,161.67,122,161.67,122Z"/></clipPath><clipPath id="clip-path-19" transform="translate(0 -2.59)"><path class="cls-1" d="M190.86,110.4c-8.09-.17-9.84-3.15-9.84-5.78H173.1s-3.87,16.48,17.06,14.73C197.2,118.65,196.67,110.75,190.86,110.4Z"/></clipPath><clipPath id="clip-path-21" transform="translate(0 -2.59)"><path class="cls-1" d="M187,121.45c-5.63,0-10-1.57-12.84-4.73-4.75-5.26-3.17-13-3.17-13.33a2,2,0,0,1,3.87.7c0,.17-1.23,6.14,2.29,10,2.46,2.63,6.68,3.86,12.66,3.33,2.64-.18,3.52-1.58,3.34-2.81,0-.87-.7-2.1-2.64-2.1-2.64,0-11.43-.88-11.6-8.42a1.93,1.93,0,0,1,3.86,0c0,3.86,4.93,4.38,7.74,4.56,4.05.17,6.33,3.16,6.33,6,0,3-2.11,6.32-7,6.84Z"/></clipPath><clipPath id="clip-path-23" transform="translate(0 -2.59)"><path class="cls-1" d="M204.93,56.55c-8.79-3-14.59,6.14-14.94,6.67,0,0-14.6-7.54-24.63-.18-7.91-1.58-35-5.61-29.37,17.72a7.69,7.69,0,0,0-2.11-.18s-6.68-.7-9.32,5.09c-2.46,6,3,13.68,10.55,13.68h9.15l1.41-11.57s17.06,4,29.72-2.28c35.35,13.15,29.37-10.35,29.37-10.35C214.26,70.76,213.73,59.36,204.93,56.55Z"/></clipPath><clipPath id="clip-path-25" transform="translate(0 -2.59)"><path class="cls-1" d="M189.11,64.1s6,5.43,1.58,11.57c-4.22,6.32-14.07,8.25-14.07,8.25l-25.15,3.86L140,86.72s-13-7.89-3-15.26c1.58,0,19.34-1.23,27.43-3.15C172.57,66.55,183,60.41,189.11,64.1Z"/></clipPath><clipPath id="clip-path-27" transform="translate(0 -2.59)"><path class="cls-1" d="M182.42,61.64a21.43,21.43,0,0,0-23.56-9.47c-16.36,3.68-18.65,16.31-18.65,16.31a53.82,53.82,0,0,0,22.52-.35A96.26,96.26,0,0,0,182.42,61.64Z"/></clipPath><clipPath id="clip-path-29" transform="translate(0 -2.59)"><path class="cls-1" d="M151.47,69.36a52,52,0,0,0,11.08-1.23c12.66-2.81,19.87-6.49,19.87-6.49a22.16,22.16,0,0,0-9.67-8.24,15.41,15.41,0,0,0-2.81.52C155.87,56.9,152.17,66.73,151.47,69.36Z"/></clipPath><clipPath id="clip-path-31" transform="translate(0 -2.59)"><path class="cls-1" d="M152.17,70.59,155,87.42s-22.16,4.21-20.23-10S152.17,70.59,152.17,70.59Z"/></clipPath><clipPath id="clip-path-33" transform="translate(0 -2.59)"><path class="cls-1" d="M189.63,75.67c-2.11,3.69-11.6,7-25.15,9-12.48,1.75-23.21,1.75-24.79.88-2.82-1.41-4.75-6-3.87-9.65.53-2.28,1.76-3.69,3.69-3.86a51.9,51.9,0,0,1,5.8-.18c5.63,0,13.55-.17,20.05-1.75a121.57,121.57,0,0,0,17.77-5.61,3.83,3.83,0,0,1,3.87.7C189.28,67.78,191.74,71.64,189.63,75.67ZM158,53.4c12.66-2.46,19.87,4.56,22.51,7.89a121.22,121.22,0,0,1-16,4.91c-6.15,1.4-13.71,1.58-19.17,1.58h-3.86C143,63.92,147.78,55.32,158,53.4Zm31.83,9.29a7.65,7.65,0,0,0-5.28-2.28,27.22,27.22,0,0,0-6.15-6.49c-4.22-3-11.08-6.14-21.11-4.38-14.42,2.63-19.52,16.13-20.4,19.12A8,8,0,0,0,132,75.15c-.88,4.73,1.23,11.4,6.15,13.85,1.41.71,4.58,1.06,8.45,1.06a139.16,139.16,0,0,0,18.64-1.41c10.9-1.58,24.62-4.73,28-10.87C195.61,72.87,194.38,67.43,189.81,62.69Z"/></clipPath><clipPath id="clip-path-35" transform="translate(0 -2.59)"><path class="cls-1" d="M169.94,81.81h-.18a2.08,2.08,0,0,1-1.76-2.1A9.12,9.12,0,0,0,167,73.57a2,2,0,0,1,3.16-2.46c.18.35,2.46,3.33,1.76,9A2,2,0,0,1,169.94,81.81Z"/></clipPath><clipPath id="clip-path-37" transform="translate(0 -2.59)"><path class="cls-1" d="M182.77,78h-.52a1.91,1.91,0,0,1-1.41-2.45,7.26,7.26,0,0,0-1.23-5.62,2.13,2.13,0,0,1,.17-2.8,2.15,2.15,0,0,1,2.82.17,11.17,11.17,0,0,1,2.11,9.12A2,2,0,0,1,182.77,78Z"/></clipPath><clipPath id="clip-path-39" transform="translate(0 -2.59)"><path class="cls-1" d="M157.27,83.57a1.93,1.93,0,0,1-1.76-1.23,20.45,20.45,0,0,1-.87-8.25,2,2,0,1,1,3.86.71,13.31,13.31,0,0,0,.71,6.31A1.91,1.91,0,0,1,158,83.57Z"/></clipPath><clipPath id="clip-path-41" transform="translate(0 -2.59)"><path class="cls-1" d="M145.14,84.44a1.71,1.71,0,0,1-1.76-1.4,17.73,17.73,0,0,1-.53-9,2,2,0,0,1,3.87,1.06,14.63,14.63,0,0,0,.35,6.66,1.9,1.9,0,0,1-1.23,2.46A1.36,1.36,0,0,1,145.14,84.44Z"/></clipPath></defs><title>nnizer-logo-dark-vertical</title><g id="Layer_2" data-name="Layer 2"><g id="Layer_1-2" data-name="Layer 1"><g class="cls-2"><g class="cls-3"><g class="cls-4"><g class="cls-2"><g class="cls-5"><g class="cls-6"><rect class="cls-7" x="73.8" width="187.79" height="187.79"/></g><g class="cls-8"><g class="cls-6"><rect class="cls-9" x="105.4" y="54" width="115.6" height="91.84"/></g></g><g class="cls-10"><g class="cls-6"><rect class="cls-11" x="102.61" y="56.61" width="122.25" height="116.94"/></g></g><g class="cls-12"><g class="cls-6"><rect class="cls-11" x="162.88" y="55.8" width="58.47" height="67.94"/></g></g><g class="cls-13"><g class="cls-6"><rect class="cls-14" x="127.13" y="65.05" width="70.48" height="70.44"/></g></g><g class="cls-15"><g class="cls-6"><rect class="cls-14" x="154.57" y="65.05" width="70.48" height="70.44"/></g></g><g class="cls-16"><g class="cls-6"><rect class="cls-11" x="125.02" y="63.12" width="101.79" height="74.3"/></g></g><g class="cls-17"><g class="cls-6"><rect class="cls-14" x="134.25" y="92.94" width="68.82" height="65.25"/></g></g><g class="cls-18"><g class="cls-6"><rect class="cls-9" x="146.37" y="75.58" width="75.4" height="67.76"/></g></g><g class="cls-19"><g class="cls-6"><rect class="cls-11" x="144.29" y="72.75" width="79" height="72.57"/></g></g><g class="cls-20"><g class="cls-6"><rect class="cls-11" x="97.52" y="26.92" width="140.64" height="96.29"/></g></g><g class="cls-21"><g class="cls-6"><rect class="cls-9" x="106.81" y="33.9" width="111.94" height="77.73"/></g></g><g class="cls-22"><g class="cls-6"><rect class="cls-14" x="113.77" y="22.48" width="95.1" height="70.85"/></g></g><g class="cls-23"><g class="cls-6"><rect class="cls-9" x="125.02" y="24.36" width="83.85" height="68.86"/></g></g><g class="cls-24"><g class="cls-6"><rect class="cls-14" x="108.19" y="39.64" width="73.24" height="72.23"/></g></g><g class="cls-25"><g class="cls-6"><rect class="cls-11" x="105.31" y="20" width="115.54" height="93.92"/></g></g><g class="cls-26"><g class="cls-6"><rect class="cls-11" x="140.06" y="41.29" width="58.39" height="64.38"/></g></g><g class="cls-27"><g class="cls-6"><rect class="cls-11" x="152.71" y="37.59" width="58.73" height="64.22"/></g></g><g class="cls-28"><g class="cls-6"><rect class="cls-11" x="128.09" y="43.45" width="57.67" height="63.97"/></g></g><g class="cls-29"><g class="cls-6"><rect class="cls-11" x="116.06" y="43.62" width="57.57" height="64.68"/></g></g></g></g></g></g></g><path class="cls-30" d="M1.5,227.79H13.42a1.5,1.5,0,0,1,1.5,1.5h0a1.49,1.49,0,0,0,2.35,1.22,27,27,0,0,1,14.55-4.46c17,0,28.34,10.07,28.34,25.23v37.16a1.5,1.5,0,0,1-1.5,1.5H46.74a1.5,1.5,0,0,1-1.5-1.5V253c0-8.32-6.09-13.79-15.16-13.79S14.92,244.7,14.92,253v35.42a1.5,1.5,0,0,1-1.5,1.5H1.5a1.5,1.5,0,0,1-1.5-1.5V229.29A1.5,1.5,0,0,1,1.5,227.79Z" transform="translate(0 -2.59)"/><path class="cls-30" d="M73.09,227.79H85a1.5,1.5,0,0,1,1.5,1.5h0a1.49,1.49,0,0,0,2.35,1.22,27,27,0,0,1,14.55-4.46c17,0,28.34,10.07,28.34,25.23v37.16a1.5,1.5,0,0,1-1.5,1.5H118.34a1.5,1.5,0,0,1-1.5-1.5V253c0-8.32-6.09-13.79-15.17-13.79S86.51,244.7,86.51,253v35.42a1.5,1.5,0,0,1-1.5,1.5H73.09a1.5,1.5,0,0,1-1.5-1.5V229.29A1.5,1.5,0,0,1,73.09,227.79Z" transform="translate(0 -2.59)"/><path class="cls-30" d="M144.68,204.67H156.6a1.5,1.5,0,0,1,1.5,1.5v10.68a1.5,1.5,0,0,1-1.5,1.49H144.68a1.5,1.5,0,0,1-1.5-1.49V206.17A1.5,1.5,0,0,1,144.68,204.67Zm0,23.12H156.6a1.5,1.5,0,0,1,1.5,1.5v59.15a1.5,1.5,0,0,1-1.5,1.5H144.68a1.5,1.5,0,0,1-1.5-1.5V229.29A1.5,1.5,0,0,1,144.68,227.79Z" transform="translate(0 -2.59)"/><path class="cls-30" d="M167.65,279.58l30.62-36.15a1.5,1.5,0,0,0-1.14-2.46H168.79a1.5,1.5,0,0,1-1.49-1.5V229.29a1.5,1.5,0,0,1,1.49-1.5h50.46a1.5,1.5,0,0,1,1.49,1.5v7.9a1.48,1.48,0,0,1-.35,1L189.77,274.3a1.5,1.5,0,0,0,1.14,2.46h28.34a1.5,1.5,0,0,1,1.49,1.5v10.18a1.5,1.5,0,0,1-1.49,1.5H168.79a1.5,1.5,0,0,1-1.49-1.5v-7.89A1.48,1.48,0,0,1,167.65,279.58Z" transform="translate(0 -2.59)"/><path class="cls-30" d="M223.73,258.86c0-19.63,13.42-32.81,33.68-32.81s33.68,13.18,33.68,32.81v2.24a1.49,1.49,0,0,1-.43,1.06l-.37.37a1.5,1.5,0,0,1-1.06.44H240.69a1.51,1.51,0,0,0-1.47,1.83,18.06,18.06,0,0,0,18.19,14.45A19,19,0,0,0,274,269.64a1.52,1.52,0,0,1,1.34-.83h12.14a1.5,1.5,0,0,1,1.41,2c-4.72,12.55-17.11,20.85-31.51,20.85C237.15,291.68,223.73,278.5,223.73,258.86Zm48.92-8.32A1.5,1.5,0,0,0,274,248.4c-3.17-6.37-9.08-9.92-16.6-9.92S244,242,240.81,248.4a1.5,1.5,0,0,0,1.36,2.14Z" transform="translate(0 -2.59)"/><path class="cls-30" d="M301.54,227.79h11.92a1.5,1.5,0,0,1,1.5,1.5v1.59A1.51,1.51,0,0,0,317.5,232a18.4,18.4,0,0,1,12.5-5.44,19.24,19.24,0,0,1,5.56.86,1.49,1.49,0,0,1,1,1.43v8.89a1.5,1.5,0,0,1-1.49,1.5h-3.6c-9.95,0-16.53,5.59-16.53,13.92v35.29a1.5,1.5,0,0,1-1.5,1.5H301.54a1.5,1.5,0,0,1-1.5-1.5V229.29A1.5,1.5,0,0,1,301.54,227.79Z" transform="translate(0 -2.59)"/></g></g></svg>