<svg id="Layer_1" data-name="Layer 1" xmlns="http://www.w3.org/2000/svg" xmlns:xlink="http://www.w3.org/1999/xlink" viewBox="0 0 338.01 120.13"><defs><style>.cls-1{fill:#fff;}.cls-1,.cls-4,.cls-6{fill-rule:evenodd;}.cls-2{mask:url(#mask);}.cls-3{mask:url(#mask-2-2);}.cls-4{fill:#fece2f;}.cls-5{mask:url(#mask-3);}.cls-6{fill:#191919;}.cls-7{mask:url(#mask-4-2);}.cls-8{mask:url(#mask-5);}.cls-9{mask:url(#mask-6-2);}.cls-10{mask:url(#mask-7);}.cls-11{mask:url(#mask-8-2);}.cls-12{mask:url(#mask-9);}.cls-13{mask:url(#mask-10-2);}.cls-14{mask:url(#mask-11);}.cls-15{mask:url(#mask-12-2);}.cls-16{mask:url(#mask-13);}.cls-17{mask:url(#mask-14-2);}.cls-18{mask:url(#mask-15);}.cls-19{mask:url(#mask-16-2);}.cls-20{mask:url(#mask-17);}.cls-21{mask:url(#mask-18-2);}.cls-22{mask:url(#mask-19);}.cls-23{mask:url(#mask-20-2);}</style><mask id="mask" x="0" y="0" width="120.13" height="120.13" maskUnits="userSpaceOnUse"><g transform="translate(16.4 16.53)"><g id="mask-2"><path id="path-1" class="cls-1" d="M31.72.39A31.2,31.2,0,0,0,.52,31.6h0V55.48a31.21,31.21,0,0,0,31.2,31.21H55.61A31.22,31.22,0,0,0,86.82,55.48h0V31.6A31.21,31.21,0,0,0,55.61.39H31.72Z"/></g></g></mask><mask id="mask-2-2" x="20.72" y="34.38" width="74.06" height="57.4" maskUnits="userSpaceOnUse"><g transform="translate(16.4 16.53)"><g id="mask-4"><path id="path-3" class="cls-1" d="M29.67,36.9a98,98,0,0,1-7.33,6.8h0c-2.81,2,.79,8.88.79,8.88h0l4.4,3.29,2.25-3.07,9.8,3.84L59.3,58.72,61.44,53l-.9-12.72L59,34.93l-6.76-.55Z"/></g></g></mask><mask id="mask-3" x="18.8" y="35.99" width="78.59" height="73.76" maskUnits="userSpaceOnUse"><g transform="translate(16.4 16.53)"><g id="mask-6"><path id="path-5" class="cls-1" d="M29,36.71c-.91,1.21-1.36,4-1.47,6.86h0c-1.47-.44-3.73-1-5.54,0h0c-1,.44-2.15,1.55-2.49,4h0c-.34,3,1,5.64,4.07,7.63h0a19.53,19.53,0,0,0,2.15,1.22h0c-1.25,3.43-.79,8.19,2.37,13.17h0c2.38,3.54,7.46,6.19,13.34,6.86h0a25.39,25.39,0,0,0,2.83.11h0c5.43,0,10.29-1.77,13.45-4.87h0c6.45-6,7.35-14.38,5.43-17.48h0a2.85,2.85,0,0,0-3.39-1.33h0c-5.77,2-8-.33-8-.44h0a1.38,1.38,0,0,0-.9-.44h0a1.32,1.32,0,0,0-.91.33h0c-2.94,2.65-7.69,4.2-11.08,1.44h0c-3.05-2.44-6-3.21-8.48-2.22h0c-.34-5.09-.22-12,.79-13.38h0a1.25,1.25,0,0,0-.33-1.77h0a1.08,1.08,0,0,0-.69-.24h0a1.49,1.49,0,0,0-1.12.57ZM22.16,47.77c.23-1.66.91-2,1.13-2.1h0c1.13-.66,3.17,0,4.3.44h0c0,3.1.23,6,.34,7h0v.11a2.36,2.36,0,0,0-.91.89h0c-2.14-1-5.31-3.1-4.86-6.31Z"/></g></g></mask><mask id="mask-4-2" x="58.79" y="36.26" width="33.41" height="42.46" maskUnits="userSpaceOnUse"><g transform="translate(16.4 16.53)"><g id="mask-8"><path id="path-7" class="cls-1" d="M58.19,36.34A1.29,1.29,0,0,0,57.58,38h0c-.1.11,1.21,3.4.61,6.25h0a1.16,1.16,0,0,0,.9,1.43h.3a1.1,1.1,0,0,0,1.11-1h0A15.31,15.31,0,0,0,59.69,37h0a1,1,0,0,0-1-.74h0a1.21,1.21,0,0,0-.46.08Z"/></g></g></mask><mask id="mask-5" x="35.33" y="41.24" width="43.07" height="44.49" maskUnits="userSpaceOnUse"><g transform="translate(16.4 16.53)"><g id="mask-10"><path id="path-9" class="cls-1" d="M35.09,47a5.45,5.45,0,0,0,5.37,5.54h0A5.46,5.46,0,0,0,45.84,47h0a5.46,5.46,0,0,0-5.38-5.54h0A5.45,5.45,0,0,0,35.09,47Z"/></g></g></mask><mask id="mask-6-2" x="52.06" y="41.24" width="44.52" height="44.49" maskUnits="userSpaceOnUse"><g transform="translate(16.4 16.53)"><g id="mask-12"><path id="path-11" class="cls-1" d="M52.37,47a5.54,5.54,0,0,0,5.55,5.54h0A5.54,5.54,0,0,0,63.47,47h0a5.54,5.54,0,0,0-5.55-5.54h0A5.54,5.54,0,0,0,52.37,47Z"/></g></g></mask><mask id="mask-7" x="33.69" y="39.76" width="64.4" height="48.45" maskUnits="userSpaceOnUse"><g transform="translate(16.4 16.53)"><g id="mask-14"><path id="path-13" class="cls-1" d="M51.6,46.2H47.49a6.88,6.88,0,0,0-6.68-5.72h0a6.85,6.85,0,0,0-6.79,7h0a6.85,6.85,0,0,0,6.79,7h0a6.77,6.77,0,0,0,6.68-5.72h4a6.88,6.88,0,0,0,6.68,5.72h0a6.84,6.84,0,0,0,6.78-7h0a6.82,6.82,0,0,0-6.67-7h0A6.77,6.77,0,0,0,51.6,46.2Zm2.45,1.26a4.29,4.29,0,0,1,4.23-4.35h0a4.3,4.3,0,0,1,4.23,4.35h0a4.3,4.3,0,0,1-4.23,4.35h0a4.29,4.29,0,0,1-4.23-4.35Zm-17.36,0a4.37,4.37,0,0,1,4.23-4.35h0a4.36,4.36,0,0,1,4.23,4.35h0a4.29,4.29,0,0,1-4.23,4.35h0a4.29,4.29,0,0,1-4.23-4.35Z"/></g></g></mask><mask id="mask-8-2" x="38.45" y="59.59" width="44.53" height="40.16" maskUnits="userSpaceOnUse"><g transform="translate(16.4 16.53)"><g id="mask-16"><path id="path-15" class="cls-1" d="M41.62,66.25c3.64,2,7.85-1.08,7.85-1.08h0L39.8,59.34s-2.28,4.75,1.82,6.91Z"/></g></g></mask><mask id="mask-9" x="46.4" y="48.12" width="49.18" height="42.35" maskUnits="userSpaceOnUse"><g transform="translate(16.4 16.53)"><g id="mask-18"><path id="path-17" class="cls-1" d="M47.44,48.12s-2.53,10.3,11.12,9.21h0c4.59-.44,4.24-5.38.46-5.59h0c-5.28-.11-6.42-2-6.42-3.62H47.44Z"/></g></g></mask><mask id="mask-10-2" x="45.94" y="46.38" width="49.74" height="44.92" maskUnits="userSpaceOnUse"><g transform="translate(16.4 16.53)"><g id="mask-20"><path id="path-19" class="cls-1" d="M46.35,47.21c0,.22-1,5,2,8.26h0c1.78,2,4.54,2.93,8.09,2.93H58.2c3.1-.33,4.43-2.39,4.43-4.24h0a3.89,3.89,0,0,0-4-3.69h0c-1.77-.11-4.87-.43-4.87-2.82h0a1.22,1.22,0,0,0-1.22-1.2h0a1.23,1.23,0,0,0-1.22,1.2h0c.11,4.67,5.65,5.21,7.31,5.21h0c1.22,0,1.66.76,1.66,1.3h0c.11.76-.44,1.63-2.1,1.74h0c-3.77.33-6.42-.43-8-2.06h0c-2.22-2.39-1.44-6.08-1.44-6.19h0a1.24,1.24,0,0,0-1-1.41h0l-.21,0h0a1.24,1.24,0,0,0-1.23,1Z"/></g></g></mask><mask id="mask-11" x="15.8" y="17.03" width="90.07" height="61.28" maskUnits="userSpaceOnUse"><g transform="translate(16.4 16.53)"><g id="mask-22"><path id="path-21" class="cls-1" d="M58.62,22s-9.35-4.8-15.77-.11h0c-5.07-1-22.41-3.58-18.81,11.27h0A5.16,5.16,0,0,0,22.69,33h0s-4.28-.45-6,3.24h0C15.14,40,18.64,45,23.48,45h5.86l.9-7.36s10.92,2.56,19-1.46h0c22.64,8.38,18.81-6.58,18.81-6.58h0c6.09-2.79,5.75-10,.12-11.83h0A6.9,6.9,0,0,0,66,17.34h0c-4.36,0-7.13,4.33-7.33,4.62Z"/></g></g></mask><mask id="mask-12-2" x="22.17" y="20.57" width="70.9" height="50.83" maskUnits="userSpaceOnUse"><g transform="translate(16.4 16.53)"><g id="mask-24"><path id="path-23" class="cls-1" d="M54.92,21.34c-3.79,0-8.64,2.61-12.62,3.5h0c-5.13,1.27-16.38,2.07-17.38,2.07h0c-6.35,4.82,1.9,10,1.9,10h0l7.24.69L50,35.05s6.24-1.26,8.91-5.39h0c2.79-4-1-7.57-1-7.57h0a5.49,5.49,0,0,0-3-.75h0Z"/></g></g></mask><mask id="mask-13" x="26.28" y="13.88" width="59.72" height="44.75" maskUnits="userSpaceOnUse"><g transform="translate(16.4 16.53)"><g id="mask-26"><path id="path-25" class="cls-1" d="M38.2,14.47c-10.27,2.32-11.71,10.3-11.71,10.3h0a33.64,33.64,0,0,0,14.13-.22h0A60,60,0,0,0,53,20.45h0a13.48,13.48,0,0,0-11.3-6.39h0a15.31,15.31,0,0,0-3.49.41Z"/></g></g></mask><mask id="mask-14-2" x="33.36" y="15.04" width="54.1" height="44.56" maskUnits="userSpaceOnUse"><g transform="translate(16.4 16.53)"><g id="mask-28"><path id="path-27" class="cls-1" d="M45.94,16C36.86,17.9,34.48,24.25,34,26h0a33.41,33.41,0,0,0,7.15-.8h0A58.77,58.77,0,0,0,54,21h0a14.31,14.31,0,0,0-6.24-5.33h0a9.46,9.46,0,0,0-1.81.34Z"/></g></g></mask><mask id="mask-15" x="23.16" y="24.5" width="45.34" height="46.95" maskUnits="userSpaceOnUse"><g transform="translate(16.4 16.53)"><g id="mask-30"><path id="path-29" class="cls-1" d="M23.2,30.85c-1.19,9.24,12.52,6.5,12.52,6.5h0L34,26.4a13,13,0,0,0-5.08-1.24h0c-2.5,0-5.11,1.16-5.7,5.69Z"/></g></g></mask><mask id="mask-16-2" x="20.81" y="11.92" width="73.36" height="60.38" maskUnits="userSpaceOnUse"><g transform="translate(16.4 16.53)"><g id="mask-32"><path id="path-31" class="cls-1" d="M37.41,12.71C28.25,14.4,25,23.09,24.45,25h0a5.14,5.14,0,0,0-3.12,4.17h0c-.56,3,.78,7.33,3.9,8.91h0a14.71,14.71,0,0,0,5.36.67h0a88.17,88.17,0,0,0,11.84-.9h0c6.92-1,15.63-3,17.75-7h0c1.57-3.16.79-6.66-2.12-9.7h0a4.82,4.82,0,0,0-3.35-1.47h0a17.59,17.59,0,0,0-3.9-4.17h0A16.6,16.6,0,0,0,41,12.39h0a20.72,20.72,0,0,0-3.56.32Zm.44,2.48a14.06,14.06,0,0,1,14.3,5.08h0A77.07,77.07,0,0,1,42,23.43h0a57.87,57.87,0,0,1-12.17,1H27.36c1-2.48,4-8,10.49-9.25ZM26.24,35.83c-1.79-.9-3-3.83-2.46-6.2h0c.34-1.47,1.12-2.37,2.35-2.48h0A31.32,31.32,0,0,1,29.81,27h0a56.93,56.93,0,0,0,12.73-1.12h0A76.17,76.17,0,0,0,53.82,22.3h0a2.43,2.43,0,0,1,2.46.45h0c1.45,1.69,3,4.17,1.67,6.76h0c-1.34,2.37-7.37,4.52-16,5.76h0a88.59,88.59,0,0,1-11.84.93h0a12.1,12.1,0,0,1-3.9-.37Z"/></g></g></mask><mask id="mask-17" x="41.82" y="26.81" width="38.93" height="39.62" maskUnits="userSpaceOnUse"><g transform="translate(16.4 16.53)"><g id="mask-34"><path id="path-33" class="cls-1" d="M43.58,26.82a1.15,1.15,0,0,0-.24,1.73h0a5.24,5.24,0,0,1,.7,3.78h0a1.32,1.32,0,0,0,1.18,1.29h.11a1.32,1.32,0,0,0,1.29-1.08h0A7.36,7.36,0,0,0,45.45,27h0a1.37,1.37,0,0,0-1.06-.48h0a1.35,1.35,0,0,0-.81.26Z"/></g></g></mask><mask id="mask-18-2" x="52.7" y="23.03" width="33.56" height="42.81" maskUnits="userSpaceOnUse"><g transform="translate(16.4 16.53)"><g id="mask-36"><path id="path-35" class="cls-1" d="M51.77,24.43a1.62,1.62,0,0,0-.1,1.88h0a5.35,5.35,0,0,1,.7,3.74h0a1.31,1.31,0,0,0,.81,1.63h.3c.5,0,.9-.35,1.11-1.05h0a8.34,8.34,0,0,0-1.21-6.08h0a1.18,1.18,0,0,0-.87-.41h0a1.09,1.09,0,0,0-.74.29Z"/></g></g></mask><mask id="mask-19" x="36.59" y="26.94" width="34.6" height="42.65" maskUnits="userSpaceOnUse"><g transform="translate(16.4 16.53)"><g id="mask-38"><path id="path-37" class="cls-1" d="M36.12,29.11a14.94,14.94,0,0,0,.53,5.5h0a1.15,1.15,0,0,0,1.05.82h.43a1.29,1.29,0,0,0,.73-1.64h0a9.92,9.92,0,0,1-.42-4.21h0a1.31,1.31,0,0,0-.95-1.52h0l-.19,0h0a1.23,1.23,0,0,0-1.18,1.07Z"/></g></g></mask><mask id="mask-20-2" x="28.57" y="28.4" width="34.54" height="39.8" maskUnits="userSpaceOnUse"><g transform="translate(16.4 16.53)"><g id="mask-40"><path id="path-39" class="cls-1" d="M28.25,29a11.13,11.13,0,0,0,.32,5.5h0a1,1,0,0,0,1.05.87h0a.76.76,0,0,0,.42-.11h0a1.17,1.17,0,0,0,.74-1.51h0a9.28,9.28,0,0,1-.21-4.11h0a1.27,1.27,0,0,0-.84-1.51h0l-.25,0h0a1.18,1.18,0,0,0-1.23.89Z"/></g></g></mask></defs><title>nnizer-logo-light</title><g id="Group"><g class="cls-2"><polygon id="Fill-1" class="cls-1" points="0 120.13 120.13 120.13 120.13 0 0 0 0 120.13"/></g><g class="cls-3"><polygon id="Fill-4" class="cls-4" points="20.72 91.78 94.78 91.78 94.78 34.38 20.72 34.38 20.72 91.78"/></g><g class="cls-5"><polygon id="Fill-7" class="cls-6" points="18.8 109.75 97.39 109.75 97.39 35.99 18.8 35.99 18.8 109.75"/></g><g class="cls-7"><polygon id="Fill-10" class="cls-6" points="58.8 78.72 92.21 78.72 92.21 36.26 58.8 36.26 58.8 78.72"/></g><g class="cls-8"><polygon id="Fill-13" class="cls-1" points="35.33 85.73 78.4 85.73 78.4 41.24 35.33 41.24 35.33 85.73"/></g><g class="cls-9"><polygon id="Fill-16" class="cls-1" points="52.06 85.73 96.58 85.73 96.58 41.24 52.06 41.24 52.06 85.73"/></g><g class="cls-10"><polygon id="Fill-19" class="cls-6" points="33.69 88.21 98.08 88.21 98.08 39.76 33.69 39.76 33.69 88.21"/></g><g class="cls-11"><polygon id="Fill-22" class="cls-1" points="38.45 99.75 82.98 99.75 82.98 59.59 38.45 59.59 38.45 99.75"/></g><g class="cls-12"><polygon id="Fill-25" class="cls-4" points="46.4 90.47 95.58 90.47 95.58 48.12 46.4 48.12 46.4 90.47"/></g><g class="cls-13"><polygon id="Fill-28" class="cls-6" points="45.94 91.3 95.68 91.3 95.68 46.38 45.94 46.38 45.94 91.3"/></g><g class="cls-14"><polygon id="Fill-31" class="cls-6" points="15.8 78.31 105.87 78.31 105.87 17.04 15.8 17.04 15.8 78.31"/></g><g class="cls-15"><polygon id="Fill-34" class="cls-4" points="22.17 71.4 93.07 71.4 93.07 20.57 22.17 20.57 22.17 71.4"/></g><g class="cls-16"><polygon id="Fill-37" class="cls-1" points="26.28 58.63 86 58.63 86 13.88 26.28 13.88 26.28 58.63"/></g><g class="cls-17"><polygon id="Fill-40" class="cls-4" points="33.36 59.6 87.45 59.6 87.45 15.04 33.36 15.04 33.36 59.6"/></g><g class="cls-18"><polygon id="Fill-43" class="cls-1" points="23.16 71.45 68.5 71.45 68.5 24.5 23.16 24.5 23.16 71.45"/></g><g class="cls-19"><polygon id="Fill-46" class="cls-6" points="20.81 72.29 94.17 72.29 94.17 11.92 20.81 11.92 20.81 72.29"/></g><g class="cls-20"><polygon id="Fill-49" class="cls-6" points="41.82 66.43 80.74 66.43 80.74 26.81 41.82 26.81 41.82 66.43"/></g><g class="cls-21"><polygon id="Fill-52" class="cls-6" points="52.7 65.84 86.26 65.84 86.26 23.03 52.7 23.03 52.7 65.84"/></g><g class="cls-22"><polygon id="Fill-55" class="cls-6" points="36.59 69.59 71.2 69.59 71.2 26.94 36.59 26.94 36.59 69.59"/></g><g class="cls-23"><polygon id="Fill-58" class="cls-6" points="28.57 68.2 63.12 68.2 63.12 28.39 28.57 28.39 28.57 68.2"/></g></g><g id="text"><path id="Fill-61" class="cls-1" d="M107.08,30.53h9.51v2.93a16.6,16.6,0,0,1,10.77-4c10.86,0,18.07,6.4,18.07,16V70h-9.51V46.57c0-5.3-3.88-8.77-9.67-8.77s-9.66,3.47-9.66,8.77V70h-9.51Z" transform="translate(16.4 16.53)"/><path id="Fill-63" class="cls-1" d="M152.71,30.53h9.51v2.93a16.6,16.6,0,0,1,10.77-4c10.86,0,18.07,6.4,18.07,16V70h-9.51V46.57c0-5.3-3.88-8.77-9.67-8.77s-9.66,3.47-9.66,8.77V70h-9.51Z" transform="translate(16.4 16.53)"/><path id="Fill-65" class="cls-1" d="M198.34,70h9.51V30.53h-9.51Zm0-45.49h9.51V15.84h-9.51Z" transform="translate(16.4 16.53)"/><polygon id="Fill-67" class="cls-1" points="230.11 80.23 251.19 55.43 230.11 55.43 230.11 47.06 264.18 47.06 264.18 53.38 243.1 78.18 264.18 78.18 264.18 86.55 230.11 86.55 230.11 80.23"/><path id="Fill-68" class="cls-1" d="M282.32,45A12,12,0,0,0,260,45Zm-32.64,5.29c0-12.48,8.56-20.85,21.47-20.85s21.47,8.37,21.47,20.85V52.1l-.79.79H259.34a11.58,11.58,0,0,0,11.81,10.34A12,12,0,0,0,282,56.6h9.67c-2.62,8.69-10.85,14.53-20.52,14.53-12.91,0-21.47-8.37-21.47-20.85Z" transform="translate(16.4 16.53)"/><path id="Fill-69" class="cls-1" d="M298.32,30.53h9.51v4.66a12,12,0,0,1,9.59-5.45,11.75,11.75,0,0,1,4.19.79V37.8h-3.24c-6.34,0-10.54,3.55-10.54,8.85V70h-9.51Z" transform="translate(16.4 16.53)"/></g></svg>