<svg xmlns="http://www.w3.org/2000/svg" xmlns:xlink="http://www.w3.org/1999/xlink" viewBox="0 0 120.13 120.13"><defs><style>.cls-1{fill:#fff;}.cls-1,.cls-3,.cls-5,.cls-7{fill-rule:evenodd;}.cls-2{mask:url(#mask);}.cls-3{fill:#ffc600;}.cls-4{mask:url(#mask-2-2);}.cls-5{fill:#fece2f;}.cls-6{mask:url(#mask-3);}.cls-7{fill:#191919;}.cls-8{mask:url(#mask-4-2);}.cls-9{mask:url(#mask-5);}.cls-10{mask:url(#mask-6-2);}.cls-11{mask:url(#mask-7);}.cls-12{mask:url(#mask-8-2);}.cls-13{mask:url(#mask-9);}.cls-14{mask:url(#mask-10-2);}.cls-15{mask:url(#mask-11);}.cls-16{mask:url(#mask-12-2);}.cls-17{mask:url(#mask-13);}.cls-18{mask:url(#mask-14-2);}.cls-19{mask:url(#mask-15);}.cls-20{mask:url(#mask-16-2);}.cls-21{mask:url(#mask-17);}.cls-22{mask:url(#mask-18-2);}.cls-23{mask:url(#mask-19);}.cls-24{mask:url(#mask-20-2);}</style><mask id="mask" x="0" y="0" width="120.13" height="120.13" maskUnits="userSpaceOnUse"><g id="mask-2"><path id="path-1" class="cls-1" d="M48.12,16.92a31.2,31.2,0,0,0-31.2,31.2h0V72a31.2,31.2,0,0,0,31.2,31.2H72A31.2,31.2,0,0,0,103.21,72h0V48.12A31.2,31.2,0,0,0,72,16.92H48.12Z"/></g></mask><mask id="mask-2-2" x="20.72" y="34.38" width="74.06" height="57.4" maskUnits="userSpaceOnUse"><g id="mask-4"><path id="path-3" class="cls-1" d="M46.07,53.43a98,98,0,0,1-7.33,6.8h0c-2.81,2,.79,8.88.79,8.88h0l4.39,3.29,2.26-3.07L56,73.17,75.7,75.25l2.14-5.7-.9-12.72-1.58-5.37-6.76-.55Z"/></g></mask><mask id="mask-3" x="18.8" y="35.99" width="78.59" height="73.76" maskUnits="userSpaceOnUse"><g id="mask-6"><path id="path-5" class="cls-1" d="M45.35,53.24c-.91,1.21-1.36,4-1.47,6.86h0c-1.47-.45-3.73-1-5.54,0h0c-1,.44-2.15,1.55-2.49,4h0c-.34,3,1,5.64,4.07,7.63h0a19.53,19.53,0,0,0,2.15,1.22h0c-1.25,3.43-.79,8.19,2.37,13.17h0c2.38,3.54,7.46,6.19,13.34,6.86h0a25.3,25.3,0,0,0,2.83.11h0c5.43,0,10.29-1.77,13.45-4.87h0c6.45-6,7.35-14.38,5.43-17.48h0a2.85,2.85,0,0,0-3.39-1.33h0c-5.77,2-8-.33-8-.44h0a1.42,1.42,0,0,0-.9-.45h0a1.33,1.33,0,0,0-.91.34h0c-2.94,2.65-7.69,4.2-11.08,1.44h0c-3-2.44-6-3.21-8.48-2.22h0c-.34-5.09-.22-12,.79-13.38h0a1.25,1.25,0,0,0-.34-1.78h0a1.08,1.08,0,0,0-.68-.23h0a1.47,1.47,0,0,0-1.12.57ZM38.56,64.3c.23-1.66.91-2,1.13-2.1h0c1.13-.67,3.17,0,4.3.44h0c0,3.1.23,6,.34,7h0v.11a2.36,2.36,0,0,0-.91.89h0c-2.14-1-5.31-3.1-4.86-6.31Z"/></g></mask><mask id="mask-4-2" x="58.79" y="36.26" width="33.41" height="42.46" maskUnits="userSpaceOnUse"><g id="mask-8"><path id="path-7" class="cls-1" d="M74.59,52.87A1.29,1.29,0,0,0,74,54.51h0c-.1.11,1.21,3.4.61,6.25h0a1.16,1.16,0,0,0,.9,1.43h.3a1.11,1.11,0,0,0,1.11-1h0a15.43,15.43,0,0,0-.81-7.67h0a1,1,0,0,0-1-.74h0a1.21,1.21,0,0,0-.46.08Z"/></g></mask><mask id="mask-5" x="35.33" y="41.24" width="43.07" height="44.49" maskUnits="userSpaceOnUse"><g id="mask-10"><path id="path-9" class="cls-1" d="M51.49,63.49A5.45,5.45,0,0,0,56.86,69h0a5.46,5.46,0,0,0,5.38-5.54h0A5.46,5.46,0,0,0,56.86,58h0a5.45,5.45,0,0,0-5.37,5.54Z"/></g></mask><mask id="mask-6-2" x="52.06" y="41.24" width="44.52" height="44.49" maskUnits="userSpaceOnUse"><g id="mask-12"><path id="path-11" class="cls-1" d="M68.77,63.49A5.54,5.54,0,0,0,74.32,69h0a5.54,5.54,0,0,0,5.55-5.54h0A5.54,5.54,0,0,0,74.32,58h0a5.54,5.54,0,0,0-5.55,5.54Z"/></g></mask><mask id="mask-7" x="33.69" y="39.76" width="64.4" height="48.45" maskUnits="userSpaceOnUse"><g id="mask-14"><path id="path-13" class="cls-1" d="M68,62.73H63.88A6.85,6.85,0,0,0,57.21,57h0a6.85,6.85,0,0,0-6.79,7h0a6.84,6.84,0,0,0,6.79,7h0a6.75,6.75,0,0,0,6.67-5.71h4A6.87,6.87,0,0,0,74.57,71h0a6.83,6.83,0,0,0,6.78-7h0a6.82,6.82,0,0,0-6.67-7h0A6.77,6.77,0,0,0,68,62.73ZM70.45,64a4.28,4.28,0,0,1,4.23-4.35h0A4.29,4.29,0,0,1,78.91,64h0a4.29,4.29,0,0,1-4.23,4.34h0A4.28,4.28,0,0,1,70.45,64ZM53.09,64a4.36,4.36,0,0,1,4.23-4.35h0A4.36,4.36,0,0,1,61.55,64h0a4.28,4.28,0,0,1-4.23,4.34h0A4.28,4.28,0,0,1,53.09,64Z"/></g></mask><mask id="mask-8-2" x="38.45" y="59.59" width="44.53" height="40.16" maskUnits="userSpaceOnUse"><g id="mask-16"><path id="path-15" class="cls-1" d="M58,82.78c3.64,2,7.85-1.08,7.85-1.08h0L56.2,75.87S53.92,80.62,58,82.78Z"/></g></mask><mask id="mask-9" x="46.4" y="48.12" width="49.18" height="42.35" maskUnits="userSpaceOnUse"><g id="mask-18"><path id="path-17" class="cls-1" d="M63.83,64.65S61.31,75,75,73.86h0c4.59-.44,4.24-5.38.46-5.6h0c-5.28-.11-6.42-2-6.42-3.61H63.83Z"/></g></mask><mask id="mask-10-2" x="45.94" y="46.38" width="49.74" height="44.92" maskUnits="userSpaceOnUse"><g id="mask-20"><path id="path-19" class="cls-1" d="M62.75,63.74c0,.22-1,5,2,8.26h0c1.77,2,4.54,2.93,8.09,2.93H74.6C77.7,74.6,79,72.54,79,70.69h0A3.88,3.88,0,0,0,75,67h0c-1.77-.11-4.87-.43-4.87-2.82h0A1.22,1.22,0,0,0,69,63h0a1.23,1.23,0,0,0-1.22,1.2h0c.11,4.67,5.65,5.21,7.31,5.21h0c1.22,0,1.66.76,1.66,1.3h0c.11.76-.44,1.63-2.1,1.74h0c-3.77.33-6.42-.43-8-2.06h0c-2.21-2.39-1.43-6.08-1.43-6.19h0a1.23,1.23,0,0,0-1-1.41h0a.75.75,0,0,0-.21,0h0a1.24,1.24,0,0,0-1.23,1Z"/></g></mask><mask id="mask-11" x="15.8" y="17.03" width="90.07" height="61.28" maskUnits="userSpaceOnUse"><g id="mask-22"><path id="path-21" class="cls-1" d="M75,38.49s-9.35-4.8-15.77-.11h0c-5.07-1-22.41-3.58-18.81,11.27h0a5.16,5.16,0,0,0-1.35-.11h0s-4.28-.45-6,3.23h0c-1.58,3.8,1.92,8.71,6.76,8.71h5.86l.9-7.36s10.92,2.56,19-1.46h0C88.31,61,84.48,46.08,84.48,46.08h0c6.09-2.79,5.75-10,.12-11.83h0a6.92,6.92,0,0,0-2.25-.39h0c-4.36,0-7.14,4.34-7.33,4.63Z"/></g></mask><mask id="mask-12-2" x="22.17" y="20.57" width="70.9" height="50.83" maskUnits="userSpaceOnUse"><g id="mask-24"><path id="path-23" class="cls-1" d="M71.32,37.86c-3.8,0-8.65,2.62-12.62,3.51h0c-5.13,1.26-16.38,2.07-17.38,2.07h0c-6.35,4.81,1.89,10,1.89,10h0l7.24.68,15.93-2.52s6.24-1.26,8.91-5.39h0c2.79-4-1-7.57-1-7.57h0a5.51,5.51,0,0,0-3-.76Z"/></g></mask><mask id="mask-13" x="26.28" y="13.88" width="59.72" height="44.75" maskUnits="userSpaceOnUse"><g id="mask-26"><path id="path-25" class="cls-1" d="M54.59,31c-10.27,2.32-11.7,10.3-11.7,10.3h0A33.64,33.64,0,0,0,57,41.08h0A60,60,0,0,0,69.39,37h0a13.48,13.48,0,0,0-11.3-6.39h0a15.45,15.45,0,0,0-3.5.41Z"/></g></mask><mask id="mask-14-2" x="33.36" y="15.04" width="54.1" height="44.56" maskUnits="userSpaceOnUse"><g id="mask-28"><path id="path-27" class="cls-1" d="M62.33,32.5c-9.07,1.93-11.45,8.28-11.91,10h0a33.36,33.36,0,0,0,7.15-.79h0a58.77,58.77,0,0,0,12.82-4.2h0a14.31,14.31,0,0,0-6.24-5.33h0a9.71,9.71,0,0,0-1.82.34Z"/></g></mask><mask id="mask-15" x="23.16" y="24.5" width="45.34" height="46.95" maskUnits="userSpaceOnUse"><g id="mask-30"><path id="path-29" class="cls-1" d="M39.6,47.38c-1.2,9.23,12.52,6.5,12.52,6.5h0l-1.74-11a13,13,0,0,0-5.08-1.24h0c-2.5,0-5.11,1.15-5.7,5.69Z"/></g></mask><mask id="mask-16-2" x="20.81" y="11.92" width="73.36" height="60.38" maskUnits="userSpaceOnUse"><g id="mask-32"><path id="path-31" class="cls-1" d="M53.8,29.24c-9.15,1.69-12.39,10.38-12.95,12.29h0a5.17,5.17,0,0,0-3.12,4.18h0c-.56,3,.78,7.33,3.9,8.9h0a14.44,14.44,0,0,0,5.36.68h0a88.29,88.29,0,0,0,11.84-.9h0c6.92-1,15.63-3,17.75-7h0c1.57-3.16.79-6.66-2.12-9.7h0a4.82,4.82,0,0,0-3.35-1.47h0a17.29,17.29,0,0,0-3.91-4.17h0a16.54,16.54,0,0,0-9.83-3.14h0a20.92,20.92,0,0,0-3.57.32Zm.45,2.48A14,14,0,0,1,68.54,36.8h0A75.12,75.12,0,0,1,58.38,40h0a57.3,57.3,0,0,1-12.17,1H43.76c1-2.48,4-8,10.49-9.25ZM42.64,52.36c-1.79-.9-3-3.83-2.46-6.2h0c.34-1.47,1.12-2.37,2.35-2.48h0a31.32,31.32,0,0,1,3.68-.12h0a57,57,0,0,0,12.73-1.12h0a77.4,77.4,0,0,0,11.28-3.61h0a2.41,2.41,0,0,1,2.46.45h0c1.45,1.69,3,4.17,1.67,6.76h0C73,48.41,67,50.55,58.38,51.8h0a88.59,88.59,0,0,1-11.84.93h0a12.06,12.06,0,0,1-3.9-.37Z"/></g></mask><mask id="mask-17" x="41.82" y="26.81" width="38.93" height="39.62" maskUnits="userSpaceOnUse"><g id="mask-34"><path id="path-33" class="cls-1" d="M60,43.35a1.16,1.16,0,0,0-.23,1.73h0a5.23,5.23,0,0,1,.7,3.77h0a1.32,1.32,0,0,0,1.18,1.3h.11A1.32,1.32,0,0,0,63,49.07h0a7.36,7.36,0,0,0-1.17-5.5h0a1.4,1.4,0,0,0-1.06-.49h0a1.39,1.39,0,0,0-.82.27Z"/></g></mask><mask id="mask-18-2" x="52.7" y="23.03" width="33.56" height="42.81" maskUnits="userSpaceOnUse"><g id="mask-36"><path id="path-35" class="cls-1" d="M68.17,41a1.6,1.6,0,0,0-.1,1.87h0a5.39,5.39,0,0,1,.7,3.75h0a1.3,1.3,0,0,0,.81,1.63h.3c.5,0,.9-.35,1.1-1.05h0a8.3,8.3,0,0,0-1.2-6.08h0a1.19,1.19,0,0,0-.88-.42h0a1.09,1.09,0,0,0-.73.3Z"/></g></mask><mask id="mask-19" x="36.59" y="26.94" width="34.6" height="42.65" maskUnits="userSpaceOnUse"><g id="mask-38"><path id="path-37" class="cls-1" d="M52.52,45.64a14.94,14.94,0,0,0,.53,5.5h0A1.15,1.15,0,0,0,54.1,52h.42a1.28,1.28,0,0,0,.74-1.63h0a9.74,9.74,0,0,1-.42-4.21h0a1.31,1.31,0,0,0-1-1.52h0l-.19,0h0a1.22,1.22,0,0,0-1.18,1.07Z"/></g></mask><mask id="mask-20-2" x="28.57" y="28.4" width="34.54" height="39.8" maskUnits="userSpaceOnUse"><g id="mask-40"><path id="path-39" class="cls-1" d="M44.65,45.55A11.18,11.18,0,0,0,45,51.06h0a1,1,0,0,0,1.05.86h0a.82.82,0,0,0,.42-.1h0a1.18,1.18,0,0,0,.74-1.52h0A9.24,9.24,0,0,1,47,46.2h0a1.26,1.26,0,0,0-.84-1.51h0l-.25,0h0a1.18,1.18,0,0,0-1.23.88Z"/></g></mask></defs><title>nnizer-logo-mark</title><g id="Layer_2" data-name="Layer 2"><g id="Layer_1-2" data-name="Layer 1"><g id="Group"><g class="cls-2"><polygon id="Fill-1" class="cls-3" points="0 120.13 120.13 120.13 120.13 0 0 0 0 120.13"/></g><g class="cls-4"><polygon id="Fill-4" class="cls-5" points="20.72 91.78 94.78 91.78 94.78 34.38 20.72 34.38 20.72 91.78"/></g><g class="cls-6"><polygon id="Fill-7" class="cls-7" points="18.8 109.75 97.39 109.75 97.39 35.99 18.8 35.99 18.8 109.75"/></g><g class="cls-8"><polygon id="Fill-10" class="cls-7" points="58.8 78.72 92.21 78.72 92.21 36.26 58.8 36.26 58.8 78.72"/></g><g class="cls-9"><polygon id="Fill-13" class="cls-1" points="35.33 85.73 78.4 85.73 78.4 41.24 35.33 41.24 35.33 85.73"/></g><g class="cls-10"><polygon id="Fill-16" class="cls-1" points="52.06 85.73 96.58 85.73 96.58 41.24 52.06 41.24 52.06 85.73"/></g><g class="cls-11"><polygon id="Fill-19" class="cls-7" points="33.69 88.21 98.08 88.21 98.08 39.76 33.69 39.76 33.69 88.21"/></g><g class="cls-12"><polygon id="Fill-22" class="cls-1" points="38.45 99.75 82.98 99.75 82.98 59.59 38.45 59.59 38.45 99.75"/></g><g class="cls-13"><polygon id="Fill-25" class="cls-5" points="46.4 90.47 95.58 90.47 95.58 48.12 46.4 48.12 46.4 90.47"/></g><g class="cls-14"><polygon id="Fill-28" class="cls-7" points="45.94 91.3 95.68 91.3 95.68 46.38 45.94 46.38 45.94 91.3"/></g><g class="cls-15"><polygon id="Fill-31" class="cls-7" points="15.8 78.31 105.87 78.31 105.87 17.04 15.8 17.04 15.8 78.31"/></g><g class="cls-16"><polygon id="Fill-34" class="cls-5" points="22.17 71.4 93.07 71.4 93.07 20.57 22.17 20.57 22.17 71.4"/></g><g class="cls-17"><polygon id="Fill-37" class="cls-1" points="26.28 58.63 86 58.63 86 13.88 26.28 13.88 26.28 58.63"/></g><g class="cls-18"><polygon id="Fill-40" class="cls-5" points="33.36 59.6 87.45 59.6 87.45 15.04 33.36 15.04 33.36 59.6"/></g><g class="cls-19"><polygon id="Fill-43" class="cls-1" points="23.16 71.45 68.5 71.45 68.5 24.5 23.16 24.5 23.16 71.45"/></g><g class="cls-20"><polygon id="Fill-46" class="cls-7" points="20.81 72.29 94.17 72.29 94.17 11.92 20.81 11.92 20.81 72.29"/></g><g class="cls-21"><polygon id="Fill-49" class="cls-7" points="41.82 66.43 80.74 66.43 80.74 26.81 41.82 26.81 41.82 66.43"/></g><g class="cls-22"><polygon id="Fill-52" class="cls-7" points="52.7 65.84 86.26 65.84 86.26 23.03 52.7 23.03 52.7 65.84"/></g><g class="cls-23"><polygon id="Fill-55" class="cls-7" points="36.59 69.59 71.2 69.59 71.2 26.94 36.59 26.94 36.59 69.59"/></g><g class="cls-24"><polygon id="Fill-58" class="cls-7" points="28.57 68.2 63.12 68.2 63.12 28.39 28.57 28.39 28.57 68.2"/></g></g></g></g></svg>