<svg id="Layer_1" data-name="Layer 1" xmlns="http://www.w3.org/2000/svg" viewBox="0 0 2000 2000"><defs><style>.cls-1{fill:#ffc600;}.cls-2{fill:#fff;}.cls-3{fill:#1a1a1a;}</style></defs><title>nnizer-500</title><g id="Layer_5" data-name="Layer 5"><g id="Layer_4" data-name="Layer 4"><path class="cls-1" d="M971.5,143.3c-490,147.2-907,353.2-907,864.8S479.3,1934.6,991,1934.6s577.6-417.2,797.5-938.5C1989.5,524.9,1640.5-57.7,971.5,143.3Z"/></g></g><g id="Layer_4-2" data-name="Layer 4"><polygon class="cls-2" points="1490.4 396.3 1251.8 621 1289.8 635 1501.1 397.6 1490.4 396.3"/><path class="cls-2" d="M1201.4,604.6l277-211-22-3L1098.6,594.4C1098.7,594.4,1093.4,580.6,1201.4,604.6Z"/><path class="cls-3" d="M1693.1,873.8,1606.4,459a.6.6,0,0,0-.1-.4c-.3-.9-8-20.5-59.5-45.7a20,20,0,0,0-2.1-1,7.41,7.41,0,0,0,1.6-3.6l56-370.7a7,7,0,1,0-13.9-2.1l-56,370.7v.1c-43.5-18.5-74.4-18.7-75.9-18.7a2.82,2.82,0,0,0-1.5.4L1093.7,592.5a3.84,3.84,0,0,0-1.1,1.1,14.9,14.9,0,0,0-4.4,5.3c-9.6,19.9,33.1,56.3,70.6,83.2,52,37.3,124.8,79.1,205.2,117.5s158.6,69,220.3,86c26.4,7.3,56.6,13.9,78.7,13.9,15.1,0,26.5-3.1,30.4-11.2C1695.4,884.1,1695.1,879.2,1693.1,873.8Zm-70.3-68.7c-52-37.3-124.8-79.1-205.2-117.5s-158.6-69-220.3-86c-28.2-7.8-60.5-14.8-82.9-13.8l343-194.2c13.5.2,47.9,5.6,86.9,24.7,23.9,11.7,38.7,22.7,47.3,30.8l45.2,366.3C1632.1,811.9,1627.4,808.4,1622.8,805.1Z"/><path class="cls-2" d="M1445.3,504.5l61.3-77.3a4.72,4.72,0,0,1,6.5-.8,4.63,4.63,0,0,1,1.2,5.7l-44.6,88a14.58,14.58,0,0,1-26-13.2A20,20,0,0,1,1445.3,504.5Z"/></g><g id="Layer_3" data-name="Layer 3"><path class="cls-3" d="M1690.3,488.6l-82-16a3,3,0,0,0-1.1,5.9l78.8,15.4c-1.7,4.4-6.7,12.8-19.6,14.7-19.4,2.9-50.5.5-50.8.5a3,3,0,1,0-.4,6c.5.1,4.7.4,10.9.7a1.91,1.91,0,0,0,.8.3c.3,0,24.3,6.4,31.7,19.4a14.39,14.39,0,0,1,1.4,11.8c-1.3,4.3-4.2,7.5-9,9.7-16.3,7.6-48.2.9-61.4-5-7-3.1-10.6-7.7-10-10.4.4-1.8,3.7-4,11.8-4,20.7,0,45.2,1,45.4,1a3,3,0,1,0,.2-6c-.2,0-24.8-1-45.6-1-13.8,0-17,5.5-17.7,8.8-1.3,6.1,4.2,13,13.5,17.1,5.4,2.4,14.1,5,23.8,6.8-2.8.7-5.8,1.6-8.9,2.5-21.7,6.5-25.7,10.6-26.7,13.7a5.08,5.08,0,0,0,1.1,5.1c4.2,4.8,19.5,6.9,28.3,7.8,6.2.6,12.4.9,18.3.9,1.6,0,3.2,0,4.7-.1l2,8.1c-4.1,1.2-12,3.8-20,6.7-24.2,8.7-25.8,12.3-26.5,14a4.35,4.35,0,0,0,.1,3.7c1.2,2.4,4.5,3.6,11.5,4.2,2.5.2,5.4.3,8.6.3s6.9-.1,10.7-.4c9.8-.6,42.1-3.6,46.2-15.2,3.8-10.8-3.9-20.3-9-25.1,3.8-1.6,6.1-3.6,7.1-6.2,3.4-9.3-1.4-16.8-6.3-21.1.5-.2,1-.4,1.4-.6,6.3-3,10.4-7.5,12.2-13.5a20.69,20.69,0,0,0-1.9-16.5c-4.2-7.4-12.5-12.9-20-16.5a143,143,0,0,0,23.3-1.6c21.9-3.2,25.5-22.2,25.5-22.4A3,3,0,0,0,1690.3,488.6Zm-35.6,125.1c-.3.8-1.9,3.5-10.9,6.3-17.5,5.4-45.8,6.1-53.6,4.2,4.8-3.4,21.3-10.2,44.1-17a2.89,2.89,0,0,0,2-3.7c0-.1-.1-.1-.1-.2l-2.4-9.4c3.5-.3,6.7-.7,9.5-1.2a5,5,0,0,1,1.2-.2C1647.1,594.4,1658.2,603.8,1654.7,613.7Zm-9.5-48.2c.5.3,11.4,6.6,7.7,16.7-.1.5-1.5,2.9-10.5,4.6-20.4,3.8-55.6-.4-61-4.8,2.9-3.6,22.9-10.5,45-15.3a2.47,2.47,0,0,0,.9-.4c1.5.1,3,.1,4.5.1a68.3,68.3,0,0,0,13-1.2A1.38,1.38,0,0,1,1645.2,565.5Z"/><path class="cls-1" d="M1644.6,592.5a5,5,0,0,1-1.2.2,63,63,0,0,1-9.5,1.2l2.4,9.4c0,.1.1.1.1.2a2.89,2.89,0,0,1-2,3.7c-22.8,6.8-39.3,13.6-44.1,17,7.8,1.9,36.1,1.2,53.6-4.2,9-2.8,10.6-5.5,10.9-6.3C1658.2,603.8,1647.1,594.4,1644.6,592.5Z"/><path class="cls-1" d="M1639.9,535.7a3.08,3.08,0,0,1-3.1,2.9c-.2,0-24.7-1-45.4-1-8.1,0-11.4,2.2-11.8,4-.6,2.7,3,7.3,10,10.4,13.2,5.9,45.1,12.6,61.4,5,4.8-2.2,7.7-5.4,9-9.7a14.39,14.39,0,0,0-1.4-11.8c-7.4-13-31.4-19.4-31.7-19.4a6.89,6.89,0,0,1-.8-.3c-3.2-.1-5.9-.3-7.9-.4l3.4,16.8c8.9.3,15.3.5,15.4.5A2.92,2.92,0,0,1,1639.9,535.7Z"/><path class="cls-1" d="M1644.8,565.2a68.3,68.3,0,0,1-13,1.2c-1.5,0-3,0-4.5-.1a3.55,3.55,0,0,1-.9.4c-22.1,4.8-42.1,11.7-45,15.3,5.4,4.4,40.6,8.6,61,4.8,9-1.7,10.4-4.1,10.5-4.6,3.7-10.1-7.2-16.4-7.7-16.7A1.38,1.38,0,0,0,1644.8,565.2Z"/></g><path class="cls-3" d="M1399.1,1754.5c-29.2-26.3-73.7-56.1-132.1-88.7-119.9-66.9-285.4-138-466.1-200.2s-354.8-108.1-490.5-129.3c-66.1-10.3-119.5-14.2-158.7-11.5-41.6,2.9-65.8,13.2-71.9,30.8s6.6,40.7,37.7,68.6c29.2,26.3,73.7,56.1,132.1,88.7,119.9,66.9,285.4,138,466.1,200.2s354.8,108.1,490.5,129.3c52.5,8.2,97,12.3,132.7,12.3,9.3,0,18-.2,26-.8,41.6-2.9,65.8-13.2,71.9-30.8S1430.2,1782.4,1399.1,1754.5Z"/><path class="cls-2" d="M300.4,1535.6l164.7,76s36.7,110.7,134,184.7,244.7,67.3,307.3,51.3,107-35,186-106,123-198,123-198,54.7-141,58.3-196c0,0,56.7-56,66-72.7s12-90,12-90-12.3,3-24.3,38.7-12,40-13.7,40.7-56.7,34-71.3,22.3-25.7-26.7-44-72-35.3-32.3-35.3-32.3,25.3,71,27.3,107.7-.3,64.3-26.3,103.3-52.3,103.7-96.7,139.3l-3.7-27s-13.3-144.7-35.3-198.7-25-75.3-25-75.3l18.3-24s73.3-105.3,83.7-154c0,0-109-129.3-164.3-162s-128.7-80-128.7-80-18.7,42.7-53,36l-58,76,1,23.3s-.3,41-40.7,45.3-60.7,7.3-106-15.3-37.3-53.3-39.3-53.3-52,52-100,118.7-78.7,134.7-103.3,226S282.4,1467.6,300.4,1535.6Z"/><path class="cls-1" d="M525.3,1048c-4.3,0-8.6-.3-12.8-.7-21.6-1.9-38.6-5.2-53.8-10.2-4.6-1.5-9.3-3.3-13.9-5.1s-9.3-3.5-13.9-5.1a3,3,0,1,1,1.9-5.7c4.8,1.6,9.5,3.4,14.2,5.2,4.5,1.7,9.1,3.5,13.7,5,14.7,4.9,31.3,8.1,52.4,9.9,8.8.8,18.1,1.3,26.7-1.1,9.1-2.5,16-8.3,18.6-15.4,1.3-3.6,1.6-7.6,1.9-11.8.4-6,.9-12.1,4.4-17.5,2.2-3.3,5.1-5.7,8-8.1a37.82,37.82,0,0,0,5.1-4.6,3,3,0,0,1,4.4,4,47,47,0,0,1-5.8,5.2c-2.6,2.1-5.1,4.1-6.8,6.7-2.6,4.1-3,9.2-3.4,14.7-.3,4.4-.6,9-2.2,13.4-3.2,8.9-11.7,16.1-22.7,19.1A54.14,54.14,0,0,1,525.3,1048Z"/><path class="cls-1" d="M1004.3,1583.6h0c-24.1,0-47.9-13.2-60.6-33.7s-14-47.7-3.2-69.3a148.9,148.9,0,0,1,10.9-17.8c8.7-13,17-25.3,14.7-39.1-2.2-12.9-12.7-21.6-23.8-30.7-9.2-7.6-18.6-15.4-23.9-26.1-8.8-18-3.3-39.1,2.5-55.4,5.5-15.5,13.7-34.9,28.9-47.8,9.6-8.2,35.2-24.6,66.1-.3a3,3,0,0,1-3.7,4.7c-26.4-20.7-48-8.8-58.5.2-14,12-21.6,29.6-27.1,45.3-5.4,15.2-10.6,34.8-2.7,50.8,4.7,9.5,13.6,16.9,22.3,24.1,11.5,9.5,23.4,19.3,25.9,34.4,2.7,16.2-6.6,30.1-15.6,43.5a154.14,154.14,0,0,0-10.5,17.1c-9.8,19.8-8.7,44.7,3,63.4s33.4,30.9,55.5,30.9a3,3,0,0,1,3,3A3,3,0,0,1,1004.3,1583.6Z"/><path class="cls-1" d="M861.2,1217.4a73.13,73.13,0,0,1-16.2-1.8c-4.6-1-10.4-2.8-14.6-7.1-7.5-7.8-6.3-20.1-1.9-28.3,3.7-6.8,9.3-12.1,14.7-17.3,1.1-1.1,2.3-2.2,3.4-3.3,16.8-16.4,29.1-41.4,18.6-60.5-5.2-9.4-14.6-15.3-24.5-21.5-9-5.6-18.4-11.5-24.7-20.4-11-15.5-9.3-38.4,3.8-52.2a3,3,0,1,1,4.3,4.1c-11,11.6-12.4,31.6-3.2,44.6,5.6,7.9,14,13.2,22.9,18.7,10.1,6.3,20.6,12.9,26.6,23.7,5.7,10.4,6.2,22.9,1.4,36.1-4,11-11.5,22.2-21.1,31.6-1.1,1.1-2.3,2.2-3.5,3.3-5.3,5-10.3,9.8-13.5,15.8-3.5,6.5-4.3,15.9.9,21.3,2.4,2.5,6,4.2,11.6,5.4a71.85,71.85,0,0,0,56.7-11.7,148.55,148.55,0,0,0,14.1-12.2,135.67,135.67,0,0,1,15.1-13c13.3-9.5,28-12.1,39.1-6.8a3,3,0,1,1-2.6,5.4c-9.1-4.4-21.5-2-33,6.2a154.29,154.29,0,0,0-14.4,12.4,165.57,165.57,0,0,1-14.7,12.7A76.47,76.47,0,0,1,861.2,1217.4Z"/><path class="cls-1" d="M550.7,1477.9a3.17,3.17,0,0,1-1.6-.4,3,3,0,0,1-1-4.1,60.67,60.67,0,0,1,16.7-17.6c6.6-4.6,13.8-8.3,20.7-11.9,8.8-4.5,17.1-8.8,24.4-14.8a137.33,137.33,0,0,0,13.7-13.8c3.4-3.8,6.9-7.7,10.8-11.3,7.8-7.2,19.9-15.5,33.8-14.1,10.9,1.2,21.2,8.6,27,19.5,4.7,9,6.6,19.9,5.5,32.5a2.93,2.93,0,0,1-3.2,2.7,2.87,2.87,0,0,1-2.7-3.2c1-11.4-.6-21.3-4.8-29.2-4.8-9.1-13.4-15.4-22.3-16.3-11.7-1.2-22.3,6.1-29.1,12.5-3.6,3.4-7.1,7.2-10.4,10.9a161.85,161.85,0,0,1-14.3,14.4c-7.8,6.4-16.8,11.1-25.5,15.5-6.8,3.5-13.8,7.1-20,11.5a54.81,54.81,0,0,0-15,15.8A3.46,3.46,0,0,1,550.7,1477.9Z"/><path class="cls-1" d="M1044.1,1170.8a17.1,17.1,0,0,1-9-2.7,27,27,0,0,1-11.9-19c-.9-6.9.2-13.7,1.3-20.2a96.76,96.76,0,0,0,1.5-12.8c.2-8.5-1.8-16.8-3.9-25.6a152.53,152.53,0,0,1-3.4-16.6,84,84,0,0,1-.4-18.1,2.91,2.91,0,0,1,3.3-2.7,3,3,0,0,1,2.7,3.3,71.68,71.68,0,0,0,.4,16.7c.7,5.3,2.1,10.7,3.3,16,2.1,8.8,4.3,17.8,4.1,27.1a101,101,0,0,1-1.6,13.6c-1,6.4-2,12.5-1.3,18.5a20.94,20.94,0,0,0,9.1,14.6,10.29,10.29,0,0,0,8.8,1.3,3,3,0,0,1,3.8,1.8,3.06,3.06,0,0,1-1.8,3.8A12.41,12.41,0,0,1,1044.1,1170.8Z"/><path class="cls-1" d="M863.6,961.5c-1.6,0-3.3,0-4.9-.1-19.2-.7-33.7-4.2-45.6-11-11.2-6.5-20-16-28.6-25.2a189.37,189.37,0,0,0-17.4-17.3c-9-7.4-20.1-13.8-35-20a3,3,0,0,1,2.3-5.5c15.5,6.4,27.1,13,36.5,20.9a189.15,189.15,0,0,1,18,17.8c8.6,9.3,16.7,18.1,27.2,24.1,11,6.4,24.7,9.6,42.8,10.2,21.4.7,37.9-3.4,48.9-12.3a3,3,0,1,1,3.8,4.6C900.3,956.9,884.2,961.5,863.6,961.5Z"/><path class="cls-1" d="M817.1,1467.6s-84.7,48-159.7,64-151.3,27.7-213.7,23.3c0,0,56.7,166.7,138.7,228.7s227,111,387,43,227-238,227-238,74.7-191,77.3-241c0,0,57.3-57.3,66-72.7l12-90s-20.2,11-38,79.3c0,0-53.3,34.8-71.3,22.3s-39.5-63.5-39.5-63.5-22.2-60.7-39.8-40.8c0,0,28.3,81.5,27.3,107.7s7.5,61.2-43,131.7-77,130-157,172.5-127.5,8.5-139.5-1S813.3,1533.1,817.1,1467.6Z"/><path class="cls-3" d="M613.4,618.8a2.66,2.66,0,0,1-1.2-.3,3,3,0,0,1-1.5-4c8.7-19.9,25.9-16.3,26.1-16.2a3,3,0,0,1-1.3,5.9c-.6-.1-12.6-2.4-19.3,12.8A3.08,3.08,0,0,1,613.4,618.8Z"/><path class="cls-3" d="M626.8,633.8a3.06,3.06,0,0,1-3-2.9l-1-28.3a3,3,0,0,1,2.9-3.1,3,3,0,0,1,3.1,2.9l1,28.3a3,3,0,0,1-3,3.1Z"/><ellipse class="cls-2" cx="800.91" cy="685.09" rx="18.1" ry="38.4" transform="translate(-251.57 740.81) rotate(-43.57)"/><path class="cls-2" d="M715.9,744.6c1.5.5,39,56.5,39,56.5s-24.5,8-40.5-11S715.9,744.6,715.9,744.6Z"/><path class="cls-3" d="M742.6,805.9c-9,0-21-2.6-30.5-13.8-7.2-8.5-9.2-19.8-5.9-32.6a65.93,65.93,0,0,1,7.1-16.5,3.13,3.13,0,0,1,3.5-1.2c1.3.4,1.9.6,21.6,29.6,9.5,13.9,18.9,27.9,19,28.1a3,3,0,0,1-1.6,4.5A46.18,46.18,0,0,1,742.6,805.9ZM716.4,750c-3.8,7.6-10.7,25.1.4,38.2,10.8,12.9,26.1,12.2,33.3,11C738.5,782.1,722.5,758.5,716.4,750Z"/><path class="cls-3" d="M831.8,695c-2.6-8-8.1-16.7-15.5-24.4s-15.7-13.7-23.6-16.7c-8.6-3.3-15.8-2.9-20.2,1.3s-5.2,11.3-2.3,20.1c2.6,8,8.1,16.7,15.5,24.4s15.7,13.7,23.6,16.7a28.59,28.59,0,0,0,10.4,2.2,14,14,0,0,0,9.8-3.5C833.9,710.9,834.7,703.8,831.8,695Zm-41.7.6c-6.8-7.1-11.8-15-14.2-22.2-2.1-6.3-1.9-11.3.7-13.8a7.61,7.61,0,0,1,5.6-1.9,24.43,24.43,0,0,1,8.3,1.8c7,2.8,14.6,8.2,21.4,15.3a66,66,0,0,1,6.9,8.3c-6.1,1.2-17.9,5.2-21.4,19.2A76.19,76.19,0,0,1,790.1,695.6Z"/><path class="cls-3" d="M662.4,1946.5h-.2c-40.8-2.8-81.2-15.5-120-37.8-31-17.8-61-41.7-89.3-71.1-48.1-50-74.8-99.2-75.1-99.7a3,3,0,1,1,5.3-2.9c.3.5,26.7,49.1,74.3,98.5,27.9,28.9,57.5,52.5,88,70,38,21.8,77.5,34.3,117.4,37a3,3,0,0,1,2.8,3.2A3.41,3.41,0,0,1,662.4,1946.5Z"/><path class="cls-3" d="M1736.5,905.4a3,3,0,0,1-2.9-2.4l-39-183a3,3,0,1,1,5.9-1.3l39,183a3.13,3.13,0,0,1-2.3,3.6C1737,905.3,1736.8,905.4,1736.5,905.4Z"/><path class="cls-2" d="M1021.9,1745a17.5,17.5,0,0,1-10.5-31.5,276.44,276.44,0,0,0,60.8-62,17.52,17.52,0,1,1,28.7,20.1c-18.2,25.9-41.2,49.4-68.4,69.8A17.4,17.4,0,0,1,1021.9,1745Z"/><path class="cls-1" d="M551.4,550.6a3.11,3.11,0,0,1-3-2.7c-1.3-14.1,5.4-28.2,19.3-41a111.3,111.3,0,0,1,21.3-15,3,3,0,1,1,2.7,5.3c-.4.2-40.1,20.5-37.4,50a3.09,3.09,0,0,1-2.7,3.3C551.6,550.6,551.5,550.6,551.4,550.6Z"/><path class="cls-1" d="M508.4,688.6a3.37,3.37,0,0,1-1.7-.5c-7-4.8-11-10.9-11.8-18.1-1.8-16,12.6-31.8,13.3-32.4a3,3,0,1,1,4.4,4c-.2.2-13.2,14.4-11.7,27.7.6,5.5,3.6,10,9.2,13.8a3,3,0,0,1,.8,4.2A2.88,2.88,0,0,1,508.4,688.6Z"/><path class="cls-1" d="M520.9,1373.6c-19.9,0-40.4-8.9-53.6-25.2a138.85,138.85,0,0,1-9.9-14.6,129.27,129.27,0,0,0-10.4-15,61.84,61.84,0,0,0-34.5-20.7c-3.9-.8-8.2-1.4-12.3-1.9-13.2-1.7-26.9-3.5-35-14.4-6.5-8.8-8.3-25.2,3.3-40.4,5.9-7.7,13.7-13.1,21.2-18.3,12.2-8.3,22.7-15.6,24-31,.6-6.7-.3-13-1.1-19.2a98,98,0,0,1-1.2-15.4,3,3,0,0,1,3.1-2.9,2.89,2.89,0,0,1,2.9,3.1,91.45,91.45,0,0,0,1.2,14.5c.9,6.5,1.7,13.2,1.1,20.5-1.5,18.2-14.2,27-26.5,35.4-7.1,4.9-14.5,10-19.8,17-7,9.2-10.4,23.6-3.3,33.2,6.6,8.9,18.4,10.4,30.9,12,4.3.5,8.7,1.1,12.8,2a68.38,68.38,0,0,1,37.9,22.7,126,126,0,0,1,10.9,15.7,122.91,122.91,0,0,0,9.5,14c8.9,11.1,22.5,19,37.3,21.9,15.2,2.9,30,.2,41.5-7.6,12-8.2,19.8-22.7,20.7-38.8.8-14.6-4.3-27.8-14-36.1-7.4-6.3-17.1-10.3-26.5-14.2-13.7-5.6-27.9-11.4-35.5-24.6-6.7-11.6-6.6-27.4.4-41.2,5.4-10.8,14.3-20.4,27.9-30.1,1.8-1.3,3.7-2.6,5.5-3.9,7.1-4.9,13.9-9.5,19-15.8,5.8-7.1,9.5-18.2,4.8-26.7-2.5-4.5-7.2-8.2-14.5-11.4-13.9-6.1-34.2-8.5-54.3-6.4a3,3,0,1,1-.6-6c21.1-2.2,42.6.4,57.3,6.8,8.6,3.8,14.3,8.3,17.4,14,4.4,7.9,4.4,21.3-5.4,33.4-5.7,7-13.1,12.1-20.2,17-1.8,1.3-3.7,2.5-5.4,3.8-12.8,9.2-21.1,18-26,27.9-6,12.1-6.2,25.7-.5,35.5,6.6,11.4,19.2,16.6,32.6,22.1,9.8,4,20,8.2,28.1,15.1,11.2,9.6,17,24.5,16.1,41-1,18-9.7,34.2-23.3,43.4A60.4,60.4,0,0,1,520.9,1373.6Z"/><path class="cls-1" d="M741.5,1318.1c-12.8,0-25-7.6-28.9-19-2.2-6.5-1.8-13.2-1.1-20.2,2.1-20.8,4.7-46.6-11-60.9-5-4.6-11.3-7.3-17.9-10.3-4.9-2.2-10-4.4-14.6-7.5-23.4-15.6-24.3-40.3-17.4-58.2a58.68,58.68,0,0,1,21.9-27.4,49.43,49.43,0,0,1,35.6-7.9c26.1,4.1,31.8,27,33.7,43.9,2.6,22.4,9.4,33.1,18.8,48,3.4,5.3,7.2,11.4,11.2,18.6,5.5,9.9,7.7,21,8.9,28.5,2.7,16.8,2.1,30.1-1.8,41.6-5,14.9-16.3,26.3-29.4,29.7A28,28,0,0,1,741.5,1318.1Zm-40.8-205.9c-16.5,0-35.7,9.4-44.5,32.1-6.1,15.7-5.4,37.4,15.1,51h0a81.09,81.09,0,0,0,13.8,7c6.8,3,13.8,6.1,19.5,11.3,17.9,16.3,15.2,43.8,12.9,65.9-.6,6.3-1,12.3.8,17.7,3.7,10.7,17.5,17.3,29.7,14.1,11.2-2.9,20.9-12.8,25.2-25.8,3.6-10.6,4.1-22.9,1.6-38.7-1.8-11.2-4.4-19.7-8.2-26.6s-7.5-12.8-11-18.3c-9.5-14.9-17-26.7-19.7-50.5-2.8-24-11.7-36-28.7-38.6A35.73,35.73,0,0,0,700.7,1112.2Z"/><circle class="cls-3" cx="177.6" cy="1257.6" r="34.9"/><path class="cls-3" d="M177.6,1296.9a39.2,39.2,0,1,1,39.2-39.2A39.26,39.26,0,0,1,177.6,1296.9Zm0-69.8a30.5,30.5,0,1,0,30.5,30.5A30.56,30.56,0,0,0,177.6,1227.1Z"/><circle class="cls-3" cx="200.1" cy="1541.2" r="15.1"/><path class="cls-3" d="M200.1,1558.1a17,17,0,1,1,17-17A17,17,0,0,1,200.1,1558.1Zm0-30.1a13.2,13.2,0,1,0,13.2,13.2A13.19,13.19,0,0,0,200.1,1528Z"/><path class="cls-3" d="M1502.4,337.3h-.5a3,3,0,0,1-2.5-3.4l19.5-129a3,3,0,1,1,5.9.9l-19.5,129A3,3,0,0,1,1502.4,337.3Z"/><path class="cls-2" d="M1416.4,690.3c-44-21.1-87.4-39.8-127.8-55.2a105.86,105.86,0,0,0-1.8,19.6,108,108,0,0,0,192.6,67.2C1459,711.3,1438,700.7,1416.4,690.3Z"/><path class="cls-3" d="M1394.8,765.8a111.13,111.13,0,0,1-111-111,113,113,0,0,1,1.8-20.1,3.22,3.22,0,0,1,1.5-2.1,3.13,3.13,0,0,1,2.5-.2c41.2,15.7,84.2,34.3,128.1,55.3,21.4,10.2,42.6,20.8,63.1,31.6a2.75,2.75,0,0,1,1.5,2,2.83,2.83,0,0,1-.6,2.5A110.42,110.42,0,0,1,1394.8,765.8ZM1290.9,639.3a100.13,100.13,0,0,0-1.1,15.5,105,105,0,0,0,184.9,68.1c-19.4-10.2-39.4-20.2-59.6-29.8h0C1372.6,672.7,1330.9,654.6,1290.9,639.3Z"/><path class="cls-2" d="M1352.4,1111.3c0,87.8-40.3,119-90,119s-90-31.2-90-119,40.3-159,90-159S1352.4,1023.5,1352.4,1111.3Z"/><path class="cls-3" d="M1328.7,997.4a144.49,144.49,0,0,0-13.1-19.3,3.26,3.26,0,0,0-2-2.4c-15-17.2-32.6-26.5-51.2-26.5-25.2,0-48.7,17.1-66.3,48.1-13.9,24.6-22.8,55.8-25.7,89.5a3.36,3.36,0,0,0-.2,2.2q-.9,10.95-.9,22.2c0,41.9,9.1,73.7,27.1,94.4,15.9,18.3,38.1,27.6,65.9,27.6s50-9.3,65.9-27.6c18-20.7,27.1-52.5,27.1-94.4C1355.4,1068.3,1345.9,1027.9,1328.7,997.4Zm19.9,93.1-20.3-16.1a3.21,3.21,0,0,0-3.4-.2l-37.6,22.5-7.3-50.3a3,3,0,0,0-2.5-2.5l-23.7-3.7-9.9-22.2,17.8-6.6a3.6,3.6,0,0,0,1.4-1.1l18.2-26.8,29.5-1.8C1331,1006.1,1345.2,1045.2,1348.6,1090.5Zm-86.2-135.2c15.8,0,30.5,7.5,43.3,20.7l-26.3,1.6a2.77,2.77,0,0,0-2.3,1.3l-18.5,27.2-18.6,6.8-34.6-19.4C1220.7,969.7,1240.6,955.3,1262.4,955.3Zm-60.1,43.4,35,19.6,11.6,25.8a3.14,3.14,0,0,0,2.3,1.7l23.2,3.7,7.1,48.1-33.8-7.1a2.86,2.86,0,0,0-1.6.1l-14.6,4.9-33.4-22.5a3.11,3.11,0,0,0-3.1-.1l-18.1,9.9C1180.2,1050,1189.4,1020.8,1202.3,998.7Zm121.5,203.1c-14.7,16.9-35.3,25.5-61.4,25.5s-46.7-8.6-61.4-25.5c-17-19.6-25.6-50.1-25.6-90.5,0-7.2.3-14.3.8-21.3l20.1-10.9,33.2,22.3a2.68,2.68,0,0,0,2.6.4l15.2-5.1,36.7,7.7a6.37,6.37,0,0,0,.7.2h.4a2.2,2.2,0,0,0,1.3-.4,1.79,1.79,0,0,0,.7-.5l39.1-23.3,22.9,18.1c.2,4.2.3,8.5.3,12.8C1349.4,1151.8,1340.8,1182.2,1323.8,1201.8Z"/><path class="cls-3" d="M1394.4,1229.7c-4.2-2.5-12-.3-19.9,3.1,17.1-24,16.5-26.9,16.1-28.7a3.47,3.47,0,0,0-1.9-2.5c-10.4-5.4-28.5,12.9-38.3,24.3,2.3-20.2,4.1-39,4.3-40.5a3.09,3.09,0,0,0-1.9-3.1,7.63,7.63,0,0,0-6.2.4c-14.8,7.3-32.4,68.6-35.5,79.9-13.4,8.6-48.7,28-65.2,23s-38-55.3-48.3-79.5c-2.8-6.5-5-11.6-6.6-15-9.8-20.5-29.1-11.5-29.3-11.4a2.86,2.86,0,0,0-1.5,3.8,484.18,484.18,0,0,1,19.5,62.4c7.5,31.6,13.9,75.6,1.8,105.8-12.4,31.2-48.5,98.7-96.8,156.9-5.7,6.9-11.4,13.5-17.2,19.7-4.5-110.5-25.4-209.5-62-294.7a.1.1,0,0,1,.1-.1c30.3-37.3,53.7-76,70.4-107.8h.1a3.35,3.35,0,0,0,1.3-2.7c20.6-39.6,30.6-67.9,30.7-68.4a2.81,2.81,0,0,0-.4-2.8c-8.4-11.2-17.1-21.9-25.9-32.2,24.8-46.8,28.2-162.3,30.3-231.8l.1-4.9c2-66.2,38-113.8,38.4-114.3a3,3,0,0,0-4.7-3.7c-.3.3-20.4,26.8-31.9,67.9-30.1-42.8-53.1-95.6-78-78.7-37.2,25.2,46.6,86.4,65.2,184,2.6,11.7-.3,29.6,1.2,39.1-1.1,17.2-2.6,34.6-4.5,51.2-15.8,54.1-71.2,25.4-103.2,3.1A920,920,0,0,0,914.5,869c-50.4-34.9-89.7-54.7-98.8-59.1.6-1.5,1.3-3.1,1.9-4.8a201.78,201.78,0,0,0,9.7-35.7c5.7,10.1,16.4,25.5,27.4,25.5,4.6,0,6.5-6,7.7-11.2,2.4-10.5,3.8-30.7,2.5-55.3,2.4-3,90.3-110.1,219.1-184.2,129.9-74.8,275.4-96.4,276.9-96.6a3,3,0,1,0-.8-5.9c-1.5.2-148.1,22-279.1,97.4C966,605.2,883.4,697.4,864.3,719.7a366.58,366.58,0,0,0-7.4-51.3c-8.3-37.7-25.6-85.8-61.8-109.5,8.2-11.5,9.5-28.4,3.6-45.8-7.4-22-28.4-48.3-64.8-56.5-62.1-13.9-124.2-2.7-166,30.1-24.6,19.3-37.9,40.6-37.2,59.9.4,12.6,6.7,23.9,18.3,32.9-13,9-56.7,41.6-68.1,82.3-3.7,13.5-2.3,24.3,4.2,31.9,8.2,9.7,22.8,11.9,32.4,12.2-7.2,6.1-17.2,16.5-19.6,28.6a27,27,0,0,0,4.5,20.8c15.2,22.2,41.4,14.2,51.1,10.2,1.3,5.7,5.4,15.3,17.8,17.3L511.7,922.1c-7.1,6.8-73.5,72.3-131.7,175.5-36,63.9-61.9,129.4-77,194.9-18.8,81.9-20.7,163.9-5.6,243.7a2.91,2.91,0,0,0,2.9,2.4h.6a2.7,2.7,0,0,0,1.7-1l15,8.3a.37.37,0,0,1-.1.3,3.1,3.1,0,0,0,1.7,3.1c51.1,24.8,88.2,41.2,142.8,64.6a3.55,3.55,0,0,0,1,.2c5.5,13.5,11.3,26.3,17.4,38.6,41.3,83.6,96,141.5,162.6,172.2a411.64,411.64,0,0,0,131.9,36c13.2,1.3,26.5,2,39.7,2a397.15,397.15,0,0,0,92.8-11,387.6,387.6,0,0,0,122.2-52.9,400.2,400.2,0,0,0,101.1-95.5c59.6-79.8,96.1-172.2,116.2-235.6s28.3-111.3,29.5-118.7c6-5.9,31.9-31.5,49.5-51.3l68.5-56.5a8.15,8.15,0,0,0,3-6.4A6.36,6.36,0,0,0,1394.4,1229.7Zm-45.4,7.1c12-15.4,28-30.3,35.1-30.3-3.1,7.3-20.3,31.4-38.6,55.1,1.2-7,2.4-15.7,3.5-24.8Zm-301.5-72.9c-38,13.5-84.5-24.5-112.4-52.9.4.6.9,1.2,1.3,1.9-.6-.8-1.1-1.5-1.7-2.3l.4.4a211.57,211.57,0,0,0-15.2-19.2,526.8,526.8,0,0,0-41.2-44.5,498.77,498.77,0,0,0-121.6-86.5c-27.1-13.5-46.5-19.7-52.7-21.5l-.4-14.1,44.1-57.8c39.6,7.5,81.3,25.7,123.8,54,34.1,22.7,68.9,51.9,103.3,86.9a917.63,917.63,0,0,1,95.6,114.8C1064.1,1135.7,1056.3,1149.5,1047.5,1163.9ZM703.7,915.6l-2.2-82.4c20,9.2,37.4,15,51.9,17.3Zm207.4-41.7c52.4,36.3,127.9,97,191,180.2-2.2,6.1-11.5,30.3-28.2,62.8a941.55,941.55,0,0,0-94.3-112.8c-34.7-35.3-69.8-64.8-104.3-87.8-42.2-28-83.6-46.2-123.1-54.3l8.1-10.6c2.4.2,4.6.3,6.8.3a4.57,4.57,0,0,1,1.6.1c18.1-.4,33.4-12.9,44.5-36.5C822.4,819.7,861.2,839.3,911.1,873.9Zm-333-91.8a2,2,0,0,0,.4-.8l18.2-42.8,32.4-75.7a3,3,0,0,0-1.3-3.7,3,3,0,0,0-.8-.4c-.2-.1-19-5.3-20.8-26.4-2-23.4,6.1-42.9,19.3-46.3,3.6-.9,6.8.1,9.7,3,6.3,6.4,11,23.5,3.5,50.4a16,16,0,0,0,1.7,12.7c2.9,4.6,9.2,9.3,22.6,5.9,20.3-5.2,26.5-42.3,27.9-52.9,9.3-.2,38.2-3.4,45.5-36.5,9.7,4.7,35.9,14.5,54.8-5.1,17.4,11.3,31.9,29.6,43.3,54.8,13.5,29.9,19.5,63,22.2,85.5,2.4,20.4,3.2,41.2,2.2,58.5-1.1,18.3-3.7,25.1-4.8,26.5-8.8-.7-20.4-18.8-25.8-30.3a3,3,0,0,0-5.7.9c-.1.8-10.2,85.4-54.1,86.3h-1.3c-20.2,0-46.5-9.9-69.7-21.1L642.9,794c-.1,0-.1-.1-.2-.1h-.1c-.2-.1-.4-.1-.5-.2a3.07,3.07,0,0,0-3,1,2.83,2.83,0,0,0-.6,2.5,3.15,3.15,0,0,0,.9,1.7c4,5,44.5,56.5,57.6,107.4a3.7,3.7,0,0,0,.5,1.1l.9,33.9a3.4,3.4,0,0,0,.1,1c.3,2.7,1.5,19.7-10.9,33.1-12.6,13.8-34.8,19.9-66,18.1C576.8,991,550.9,972,537,956.4a96.46,96.46,0,0,1-19.4-32.7ZM401.4,1328a3.2,3.2,0,0,0-1.2-2.1,17.55,17.55,0,0,0-16.1-5.3c-11.8,1.7-24.3,12.8-28.4,22.1-7.8,17.4-3.3,36.4,1.9,49.4,1.3,3.3,2.8,6.7,4.3,9.9,4.9,10.8,9.5,21.1,8.6,32-.9,12.2-8.6,22.3-16.6,33-7.1,9.3-14.4,19-17.2,30.6a83,83,0,0,0-1.8,16.3,101.8,101.8,0,0,1-1.1,12.6c-1,5.5-3.9,14.9-12.8,16.9l-17.6-8.4c-15-78.9-13.1-160.1,5.5-241.1,15-64.9,40.6-129.9,76.3-193.2,1.1-1.9,2.1-3.7,3.2-5.6,31.7,20.8,45.2,102.5,73.7,86.4,31.2-17.6-19.2-51.8-27.7-130.6-1.4-10.5,3.5-23.4,1.8-29.9,35.7-49.6,66.9-82,76.9-92a106.05,106.05,0,0,0,19.2,31.1c14.7,16.5,42,36.8,89,39.4,3.6.2,7,.3,10.4.3,27.8,0,48.1-6.8,60.4-20.7,11.1-12.1,12.6-26.3,12.6-33.5,18.1,5.6,93.5,32.5,169.8,106,51.2,49.4,92.8,109.8,123.5,179.5,38.3,87.1,59.8,189.1,63.9,303.3-19.7,20.8-39.5,37.6-59,50.2-32,20.8-63.2,30.1-92.7,27.7-42.8-3.5-68.4-23.8-80.5-64-6.8-22.3-9.2-49.2-9.8-79.6a2.8,2.8,0,0,0,0-2.2c-.3-19.7.1-40.9.5-63.2.1-3,.1-5.9.2-8.9a2.89,2.89,0,0,0,0-1.6c.7-38.3,1.1-77.8-2.2-118.4-7.1-87.5-45.3-153.1-76.2-192.8-33.5-43-65.8-65.7-66.1-65.9a3,3,0,0,0-3.4,5c.3.2,31.9,22.3,64.8,64.6,30.3,39,68,103.6,74.9,189.6,3.2,40,2.9,78.9,2.2,116.8-108.7,53.1-208.6,73.4-273.4,81-62.4,7.3-104.9,4.7-114.5,4A1378.34,1378.34,0,0,1,401.4,1328Zm45.7,224.1c-6.9-21.8-13.2-44.9-19-69.1,5.4.4,16,1,31,1a688.22,688.22,0,0,0,82.4-5.1c64.8-7.6,164.4-27.7,272.9-80.3,0,1.6-.1,3.1-.1,4.7-.4,22.2-.8,43.2-.5,62.9-81.7,49.9-177.1,70.6-242.8,79.2C505.8,1553.8,456,1552.4,447.1,1552.1Zm824.5-206.6a3.15,3.15,0,0,0-.9,1.7c0,.5-7.8,50.6-29.4,118.8-19.9,63-56.1,154.7-115.3,233.9a393.29,393.29,0,0,1-99.5,94.1,382.53,382.53,0,0,1-120.3,52.1,389.13,389.13,0,0,1-130.5,8.9,404.45,404.45,0,0,1-118.2-30.3c-59.9-72.5-60.6-167.9-101.4-153.7-25.5,8.9-5,50,11.3,94.3q-46.8-45.15-81.5-115.2c-8.2-16.7-16-34.4-23.2-53.3,225.7-8.8,331.3-97.9,351.5-117.1.9,26.4,3.6,50.1,9.6,70.3a122.27,122.27,0,0,0,10.1,24.3l-72.7,35.9a34.5,34.5,0,1,0,30.5,61.9l62.4-30.8v.1s38.4-17.7,76-23.3c2.9-.3,5.7-.6,8.6-1.1,1.9-.2,3.8-.3,5.6-.4h-3.1c21.1-3.7,42.8-12.8,64.7-27,27.7-17.9,55.7-43.9,83.4-77.3,48.7-58.7,85.2-127,97.8-158.5,10.2-25.4,9.7-62.3-1.5-109.5A485.65,485.65,0,0,0,1167,1184c4.4-1.2,13.3-1.8,18.7,9.5,1.5,3.3,3.8,8.6,6.4,14.7,15.9,37.3,34.3,77.5,52.1,82.9,23.1,7,69.2-23.1,71.2-24.4a3,3,0,0,0,1.2-1.7c7.3-26.4,22-69.6,31.8-76.6-2.7,27.6-8.1,76.2-11.5,85.5-1.2,3.2-7,10.5-14.9,19.5l-1.2,1a2.43,2.43,0,0,0-.9,1.4C1305.9,1311.2,1286.4,1331.1,1271.6,1345.5Zm119-108.8-48.4,39.9a1.42,1.42,0,0,0,.2-.6c.1-.4.3-.8.4-1.2l.3-.3c.1-.2,12.2-15.6,24-31.6v-.1c20.8-10.6,24.2-8,24.2-8v.3A1.73,1.73,0,0,1,1390.6,1236.7Z"/></svg>