<svg xmlns="http://www.w3.org/2000/svg" xmlns:xlink="http://www.w3.org/1999/xlink" viewBox="0 0 531.03 187.79"><defs><style>.cls-1{fill:none;}.cls-2{isolation:isolate;}.cls-3{clip-path:url(#clip-path);}.cls-4{clip-path:url(#clip-path-2);}.cls-5{clip-path:url(#clip-path-3);}.cls-6{clip-path:url(#clip-path-4);}.cls-7{fill:#ffc600;}.cls-8{clip-path:url(#clip-path-5);}.cls-9{fill:#fece2f;}.cls-10{clip-path:url(#clip-path-7);}.cls-11{fill:#191919;}.cls-12{clip-path:url(#clip-path-9);}.cls-13{clip-path:url(#clip-path-11);}.cls-14{fill:#fff;}.cls-15{clip-path:url(#clip-path-13);}.cls-16{clip-path:url(#clip-path-15);}.cls-17{clip-path:url(#clip-path-17);}.cls-18{clip-path:url(#clip-path-19);}.cls-19{clip-path:url(#clip-path-21);}.cls-20{clip-path:url(#clip-path-23);}.cls-21{clip-path:url(#clip-path-25);}.cls-22{clip-path:url(#clip-path-27);}.cls-23{clip-path:url(#clip-path-29);}.cls-24{clip-path:url(#clip-path-31);}.cls-25{clip-path:url(#clip-path-33);}.cls-26{clip-path:url(#clip-path-35);}.cls-27{clip-path:url(#clip-path-37);}.cls-28{clip-path:url(#clip-path-39);}.cls-29{clip-path:url(#clip-path-41);}.cls-30{fill:#19150a;}</style><clipPath id="clip-path" transform="translate(-3.37 -2.59)"><rect class="cls-1" x="26.45" y="26.45" width="142.82" height="137.53" rx="1.5"/></clipPath><clipPath id="clip-path-2" transform="translate(-3.37 -2.59)"><rect class="cls-1" x="29.81" y="29.04" width="134.9" height="134.9" rx="48.78"/></clipPath><clipPath id="clip-path-3" transform="translate(-3.37 -2.59)"><rect class="cls-1" width="195.72" height="190.43"/></clipPath><clipPath id="clip-path-4" transform="translate(-3.37 -2.59)"><rect class="cls-1" x="26.45" y="26.45" width="142.82" height="137.53"/></clipPath><clipPath id="clip-path-5" transform="translate(-3.37 -2.59)"><path class="cls-1" d="M120.25,83.92l2.47,8.59,1.4,20.35L120.78,122,90,118.65l-15.3-6.14-3.51,4.91-6.86-5.26S58.7,101.11,63.1,98A156.14,156.14,0,0,0,74.53,87.07l35.17-4Z"/></clipPath><clipPath id="clip-path-7" transform="translate(-3.37 -2.59)"><path class="cls-1" d="M70.48,114.09c-3.34-1.58-8.26-4.91-7.56-10,.35-2.63,1.41-3.16,1.76-3.33,1.76-1.06,4.92,0,6.68.7,0,4.91.35,9.47.53,11.05v.17A3.6,3.6,0,0,0,70.48,114.09Zm56.11.17a4.41,4.41,0,0,0-5.28-2.1c-9,3.16-12.49-.53-12.49-.7a2.18,2.18,0,0,0-1.4-.71,2,2,0,0,0-1.41.53c-4.57,4.21-12,6.67-17.24,2.28-4.74-3.86-9.32-5.09-13.19-3.51-.52-8.07-.35-18.94,1.23-21.22A2,2,0,0,0,76.29,86a2,2,0,0,0-2.82.53c-1.4,1.93-2.11,6.31-2.28,10.87-2.29-.7-5.81-1.58-8.62,0-1.58.7-3.34,2.46-3.87,6.32-.53,4.73,1.58,8.94,6.33,12.1a34.9,34.9,0,0,0,3.34,1.93c-1.93,5.44-1.23,13,3.7,20.87,3.69,5.62,11.6,9.83,20.75,10.88a37.38,37.38,0,0,0,4.4.18c8.44,0,16-2.81,20.92-7.72C128.17,132.51,129.58,119.17,126.59,114.26Z"/></clipPath><clipPath id="clip-path-9" transform="translate(-3.37 -2.59)"><path class="cls-1" d="M120.08,97.6a1.86,1.86,0,0,0,1.58,2.28h.53a1.88,1.88,0,0,0,1.93-1.58c1.23-5.79-1.23-12.1-1.4-12.28A2,2,0,0,0,119,87.6C118.85,87.78,121.13,93,120.08,97.6Z"/></clipPath><clipPath id="clip-path-11" transform="translate(-3.37 -2.59)"><ellipse class="cls-1" cx="91.94" cy="102.86" rx="8.79" ry="8.77"/></clipPath><clipPath id="clip-path-13" transform="translate(-3.37 -2.59)"><ellipse class="cls-1" cx="119.37" cy="102.86" rx="8.79" ry="8.77"/></clipPath><clipPath id="clip-path-15" transform="translate(-3.37 -2.59)"><path class="cls-1" d="M119.37,109.53a6.67,6.67,0,1,1,6.69-6.67A6.68,6.68,0,0,1,119.37,109.53Zm-27.43,0a6.68,6.68,0,0,1-6.68-6.67,6.68,6.68,0,0,1,13.36,0A6.68,6.68,0,0,1,91.94,109.53Zm27.43-17.37a10.6,10.6,0,0,0-10.55,8.77h-6.5a10.77,10.77,0,0,0-10.56-8.77,10.7,10.7,0,1,0,10.56,12.63h6.33a10.76,10.76,0,0,0,10.55,8.77,10.7,10.7,0,0,0,.17-21.4Z"/></clipPath><clipPath id="clip-path-17" transform="translate(-3.37 -2.59)"><path class="cls-1" d="M91.24,122l14.94,9.47s-6.5,5.09-12.13,1.76C87.72,129.7,91.24,122,91.24,122Z"/></clipPath><clipPath id="clip-path-19" transform="translate(-3.37 -2.59)"><path class="cls-1" d="M120.43,110.4c-8.09-.17-9.85-3.15-9.85-5.78h-7.91s-3.87,16.48,17.06,14.73C126.76,118.65,126.23,110.75,120.43,110.4Z"/></clipPath><clipPath id="clip-path-21" transform="translate(-3.37 -2.59)"><path class="cls-1" d="M116.56,121.45c-5.63,0-10-1.57-12.84-4.73-4.75-5.26-3.16-13-3.16-13.33a2,2,0,0,1,3.87.7c0,.17-1.24,6.14,2.28,10,2.46,2.63,6.69,3.86,12.66,3.33,2.64-.18,3.52-1.58,3.35-2.81,0-.87-.71-2.1-2.64-2.1-2.64,0-11.43-.88-11.61-8.42a1.94,1.94,0,0,1,3.87,0c0,3.86,4.92,4.38,7.74,4.56,4,.17,6.33,3.16,6.33,6,0,3-2.11,6.32-7,6.84Z"/></clipPath><clipPath id="clip-path-23" transform="translate(-3.37 -2.59)"><path class="cls-1" d="M134.5,56.55c-8.79-3-14.6,6.14-15,6.67,0,0-14.6-7.54-24.62-.18-7.92-1.58-35-5.61-29.37,17.72a7.69,7.69,0,0,0-2.11-.18s-6.68-.7-9.32,5.09c-2.46,6,3,13.68,10.55,13.68h9.14l1.41-11.57s17.06,4,29.72-2.28c35.35,13.15,29.37-10.35,29.37-10.35C143.82,70.76,143.29,59.36,134.5,56.55Z"/></clipPath><clipPath id="clip-path-25" transform="translate(-3.37 -2.59)"><path class="cls-1" d="M118.67,64.1s6,5.43,1.58,11.57C116,82,106.18,83.92,106.18,83.92L81,87.78,69.6,86.72s-13-7.89-3-15.26c1.59,0,19.35-1.23,27.44-3.15C102.14,66.55,112.52,60.41,118.67,64.1Z"/></clipPath><clipPath id="clip-path-27" transform="translate(-3.37 -2.59)"><path class="cls-1" d="M112,61.64a21.45,21.45,0,0,0-23.57-9.47C72.07,55.85,69.78,68.48,69.78,68.48a53.78,53.78,0,0,0,22.51-.35A96.52,96.52,0,0,0,112,61.64Z"/></clipPath><clipPath id="clip-path-29" transform="translate(-3.37 -2.59)"><path class="cls-1" d="M81,69.36a52,52,0,0,0,11.08-1.23C104.78,65.32,112,61.64,112,61.64a22.23,22.23,0,0,0-9.67-8.24,15.52,15.52,0,0,0-2.82.52C85.43,56.9,81.74,66.73,81,69.36Z"/></clipPath><clipPath id="clip-path-31" transform="translate(-3.37 -2.59)"><path class="cls-1" d="M81.74,70.59l2.81,16.83s-22.16,4.21-20.22-10S81.74,70.59,81.74,70.59Z"/></clipPath><clipPath id="clip-path-33" transform="translate(-3.37 -2.59)"><path class="cls-1" d="M119.2,75.67c-2.11,3.69-11.61,7-25.15,9-12.49,1.75-23.22,1.75-24.8.88-2.81-1.41-4.75-6-3.87-9.65.53-2.28,1.76-3.69,3.7-3.86a51.81,51.81,0,0,1,5.8-.18c5.63,0,13.54-.17,20.05-1.75a121.36,121.36,0,0,0,17.76-5.61,3.82,3.82,0,0,1,3.87.7C118.85,67.78,121.31,71.64,119.2,75.67ZM87.54,53.4c12.67-2.46,19.88,4.56,22.51,7.89a121,121,0,0,1-16,4.91c-6.16,1.4-13.72,1.58-19.17,1.58H71C72.59,63.92,77.34,55.32,87.54,53.4Zm31.83,9.29a7.63,7.63,0,0,0-5.27-2.28,27.32,27.32,0,0,0-6.16-6.49c-4.22-3-11.08-6.14-21.1-4.38-14.42,2.63-19.52,16.13-20.4,19.12a8,8,0,0,0-4.93,6.49c-.88,4.73,1.23,11.4,6.16,13.85,1.41.71,4.57,1.06,8.44,1.06a139.16,139.16,0,0,0,18.64-1.41c10.91-1.58,24.62-4.73,28-10.87C125.18,72.87,124,67.43,119.37,62.69Z"/></clipPath><clipPath id="clip-path-35" transform="translate(-3.37 -2.59)"><path class="cls-1" d="M99.5,81.81h-.17a2.07,2.07,0,0,1-1.76-2.1,9.16,9.16,0,0,0-1.06-6.14,2,2,0,0,1,3.17-2.46c.17.35,2.46,3.33,1.76,9A2.05,2.05,0,0,1,99.5,81.81Z"/></clipPath><clipPath id="clip-path-37" transform="translate(-3.37 -2.59)"><path class="cls-1" d="M112.34,78h-.53a1.91,1.91,0,0,1-1.4-2.45,7.25,7.25,0,0,0-1.24-5.62,2,2,0,0,1,3-2.63,11.09,11.09,0,0,1,2.11,9.12A2,2,0,0,1,112.34,78Z"/></clipPath><clipPath id="clip-path-39" transform="translate(-3.37 -2.59)"><path class="cls-1" d="M86.84,83.57a1.93,1.93,0,0,1-1.76-1.23,20.35,20.35,0,0,1-.88-8.25,2,2,0,1,1,3.87.71,13.24,13.24,0,0,0,.7,6.31,1.89,1.89,0,0,1-1.23,2.46Z"/></clipPath><clipPath id="clip-path-41" transform="translate(-3.37 -2.59)"><path class="cls-1" d="M74.7,84.44A1.69,1.69,0,0,1,73,83a17.6,17.6,0,0,1-.53-9,2,2,0,0,1,3.87,1.06,14.46,14.46,0,0,0,.35,6.66,1.9,1.9,0,0,1-1.23,2.46A1.38,1.38,0,0,1,74.7,84.44Z"/></clipPath></defs><title>nnizer-logo</title><g id="Layer_2" data-name="Layer 2"><g id="Layer_1-2" data-name="Layer 1"><g class="cls-2"><g class="cls-3"><g class="cls-4"><g class="cls-2"><g class="cls-5"><g class="cls-6"><rect class="cls-7" width="187.79" height="187.79"/></g><g class="cls-8"><g class="cls-6"><rect class="cls-9" x="31.6" y="54" width="115.6" height="91.84"/></g></g><g class="cls-10"><g class="cls-6"><rect class="cls-11" x="28.81" y="56.61" width="122.25" height="116.94"/></g></g><g class="cls-12"><g class="cls-6"><rect class="cls-11" x="89.08" y="55.8" width="58.47" height="67.94"/></g></g><g class="cls-13"><g class="cls-6"><rect class="cls-14" x="53.33" y="65.05" width="70.48" height="70.44"/></g></g><g class="cls-15"><g class="cls-6"><rect class="cls-14" x="80.77" y="65.05" width="70.48" height="70.44"/></g></g><g class="cls-16"><g class="cls-6"><rect class="cls-11" x="51.22" y="63.12" width="101.79" height="74.3"/></g></g><g class="cls-17"><g class="cls-6"><rect class="cls-14" x="60.45" y="92.94" width="68.82" height="65.25"/></g></g><g class="cls-18"><g class="cls-6"><rect class="cls-9" x="72.57" y="75.58" width="75.4" height="67.76"/></g></g><g class="cls-19"><g class="cls-6"><rect class="cls-11" x="70.49" y="72.75" width="79" height="72.57"/></g></g><g class="cls-20"><g class="cls-6"><rect class="cls-11" x="23.72" y="26.92" width="140.64" height="96.29"/></g></g><g class="cls-21"><g class="cls-6"><rect class="cls-9" x="33.01" y="33.9" width="111.94" height="77.73"/></g></g><g class="cls-22"><g class="cls-6"><rect class="cls-14" x="39.97" y="22.48" width="95.1" height="70.85"/></g></g><g class="cls-23"><g class="cls-6"><rect class="cls-9" x="51.22" y="24.36" width="83.85" height="68.86"/></g></g><g class="cls-24"><g class="cls-6"><rect class="cls-14" x="34.39" y="39.64" width="73.24" height="72.23"/></g></g><g class="cls-25"><g class="cls-6"><rect class="cls-11" x="31.51" y="20" width="115.54" height="93.92"/></g></g><g class="cls-26"><g class="cls-6"><rect class="cls-11" x="66.26" y="41.29" width="58.39" height="64.38"/></g></g><g class="cls-27"><g class="cls-6"><rect class="cls-11" x="78.91" y="37.59" width="58.73" height="64.22"/></g></g><g class="cls-28"><g class="cls-6"><rect class="cls-11" x="54.29" y="43.45" width="57.67" height="63.97"/></g></g><g class="cls-29"><g class="cls-6"><rect class="cls-11" x="42.26" y="43.62" width="57.57" height="64.68"/></g></g></g></g></g></g></g><path class="cls-30" d="M199.31,64.79h11.92a1.5,1.5,0,0,1,1.5,1.5h0a1.49,1.49,0,0,0,2.35,1.22,27,27,0,0,1,14.55-4.46c17,0,28.34,10.07,28.34,25.23v37.16a1.5,1.5,0,0,1-1.5,1.5H244.55a1.5,1.5,0,0,1-1.5-1.5V90c0-8.32-6.09-13.79-15.16-13.79S212.73,81.7,212.73,90v35.42a1.5,1.5,0,0,1-1.5,1.5H199.31a1.5,1.5,0,0,1-1.5-1.5V66.29A1.5,1.5,0,0,1,199.31,64.79Z" transform="translate(-3.37 -2.59)"/><path class="cls-30" d="M270.9,64.79h11.92a1.5,1.5,0,0,1,1.5,1.5h0a1.49,1.49,0,0,0,2.35,1.22,27,27,0,0,1,14.55-4.46c17,0,28.34,10.07,28.34,25.23v37.16a1.5,1.5,0,0,1-1.5,1.5H316.14a1.5,1.5,0,0,1-1.49-1.5V90c0-8.32-6.09-13.79-15.17-13.79S284.32,81.7,284.32,90v35.42a1.5,1.5,0,0,1-1.5,1.5H270.9a1.5,1.5,0,0,1-1.5-1.5V66.29A1.5,1.5,0,0,1,270.9,64.79Z" transform="translate(-3.37 -2.59)"/><path class="cls-30" d="M342.49,41.67h11.92a1.5,1.5,0,0,1,1.5,1.5V53.85a1.5,1.5,0,0,1-1.5,1.49H342.49a1.5,1.5,0,0,1-1.5-1.49V43.17A1.5,1.5,0,0,1,342.49,41.67Zm0,23.12h11.92a1.5,1.5,0,0,1,1.5,1.5v59.15a1.5,1.5,0,0,1-1.5,1.5H342.49a1.5,1.5,0,0,1-1.5-1.5V66.29A1.5,1.5,0,0,1,342.49,64.79Z" transform="translate(-3.37 -2.59)"/><path class="cls-30" d="M365.46,116.58l30.62-36.15A1.5,1.5,0,0,0,394.94,78H366.6a1.5,1.5,0,0,1-1.49-1.5V66.29a1.5,1.5,0,0,1,1.49-1.5h50.46a1.5,1.5,0,0,1,1.49,1.5v7.9a1.48,1.48,0,0,1-.35,1L387.58,111.3a1.5,1.5,0,0,0,1.14,2.46h28.34a1.5,1.5,0,0,1,1.49,1.5v10.18a1.5,1.5,0,0,1-1.49,1.5H366.6a1.5,1.5,0,0,1-1.49-1.5v-7.89A1.48,1.48,0,0,1,365.46,116.58Z" transform="translate(-3.37 -2.59)"/><path class="cls-30" d="M421.54,95.86c0-19.63,13.42-32.81,33.68-32.81S488.9,76.23,488.9,95.86V98.1a1.49,1.49,0,0,1-.43,1.06l-.37.37A1.5,1.5,0,0,1,487,100H438.5A1.51,1.51,0,0,0,437,101.8a18.06,18.06,0,0,0,18.19,14.45,19,19,0,0,0,16.62-9.61,1.51,1.51,0,0,1,1.33-.83h12.15a1.5,1.5,0,0,1,1.41,2c-4.72,12.55-17.11,20.85-31.51,20.85C435,128.68,421.54,115.5,421.54,95.86Zm48.92-8.32a1.5,1.5,0,0,0,1.36-2.14c-3.17-6.37-9.08-9.92-16.6-9.92S441.79,79,438.62,85.4A1.5,1.5,0,0,0,440,87.54Z" transform="translate(-3.37 -2.59)"/><path class="cls-30" d="M499.35,64.79h11.92a1.5,1.5,0,0,1,1.5,1.5v1.59A1.51,1.51,0,0,0,515.31,69a18.4,18.4,0,0,1,12.5-5.44,19.24,19.24,0,0,1,5.56.86,1.49,1.49,0,0,1,1,1.43v8.89a1.5,1.5,0,0,1-1.49,1.5h-3.6c-9.95,0-16.53,5.59-16.53,13.92v35.29a1.5,1.5,0,0,1-1.5,1.5H499.35a1.5,1.5,0,0,1-1.5-1.5V66.29A1.5,1.5,0,0,1,499.35,64.79Z" transform="translate(-3.37 -2.59)"/></g></g></svg>