<?xml version="1.0" encoding="UTF-8"?>
<svg width="117px" height="100px" viewBox="0 0 117 100" version="1.1" xmlns="http://www.w3.org/2000/svg" xmlns:xlink="http://www.w3.org/1999/xlink">
    <!-- Generator: Sketch 60.1 (88133) - https://sketch.com -->
    <title>icon-signup</title>
    <desc>Created with Sketch.</desc>
    <defs>
        <polygon id="path-1" points="0 0 105.19634 0 105.19634 99.5688373 0 99.5688373"></polygon>
        <polygon id="path-3" points="0 0.374097761 69.1628898 0.374097761 69.1628898 74.1777783 0 74.1777783"></polygon>
        <polygon id="path-5" points="0.446799204 0.0133164932 67.1238127 0.0133164932 67.1238127 57.9884234 0.446799204 57.9884234"></polygon>
    </defs>
    <g id="Page-1" stroke="none" stroke-width="1" fill="none" fill-rule="evenodd">
        <g id="desktop-landing" transform="translate(-281.000000, -1412.000000)">
            <g id="icon-signup" transform="translate(281.000000, 1412.000000)">
                <g id="Group-3" transform="translate(0.724638, 0.000000)">
                    <mask id="mask-2" fill="white">
                        <use xlink:href="#path-1"></use>
                    </mask>
                    <g id="Clip-2"></g>
                    <path d="M27.0397826,28.2986232 C29.0281884,28.6855797 30.9542754,27.387029 31.3419565,25.3986232 C31.728913,23.4094928 30.4303623,21.4841304 28.4419565,21.0971739 C26.4528261,20.7094928 24.5274638,22.0080435 24.1397826,23.9964493 C23.7528261,25.9855797 25.0513768,27.910942 27.0397826,28.2986232 M38.9774638,20.3377536 C42.8434058,21.0899275 46.5868841,18.5660145 47.339058,14.7007971 C48.0919565,10.8355797 45.5680435,7.09210145 41.7028261,6.3392029 C37.8376087,5.58702899 34.0934058,8.11094203 33.3412319,11.9761594 C32.5883333,15.8413768 35.1122464,19.5848551 38.9774638,20.3377536 M30.5013768,98.2254348 C-0.660217391,93.060942 -9.01891304,58.1580435 10.4180435,36.8899275 C28.1231159,17.521087 19.2281884,3.17108696 47.9499275,0.384855072 C82.9252899,-3.01007246 101.903551,16.3652899 104.857174,44.9863043 C109.285435,87.8565942 69.5861594,104.707319 30.5013768,98.2254348" id="Fill-1" fill="#FFC600" mask="url(#mask-2)"></path>
                </g>
                <g id="Group-29" transform="translate(0.000000, 8.695652)">
                    <path d="M107.637826,40.0172969 C104.973989,40.0172969 102.597952,41.5847672 101.084797,44.0109749 L102.709442,25.0440097 L82.8377448,23.0976078 C86.1923026,24.9420901 88.254093,28.3791306 87.8164292,32.0309862 C87.2164565,36.9973425 82.1765822,40.4469269 76.5740714,39.7523061 C70.9715606,39.0571625 66.9200596,34.4702605 67.5200323,29.5033816 C67.9452507,26.0537971 70.5079689,23.3244441 73.9102341,22.2247584 L54.1142466,20.2898551 L52.2505458,44.4897354 L51.750655,51.6308979 L50,73.9345521 L98.2088689,77.5362319 L100.159688,54.8280355 C101.49757,58.2901639 104.349125,60.6661959 107.637826,60.6661959 C112.227591,60.6661959 115.942029,56.0411394 115.942029,50.3420077 C115.942029,44.642876 112.227591,40.0172969 107.637826,40.0172969" id="Fill-1" fill="#FFC600"></path>
                    <g id="Group-5">
                        <mask id="mask-4" fill="white">
                            <use xlink:href="#path-3"></use>
                        </mask>
                        <g id="Clip-4"></g>
                        <path d="M60.4091795,38.2853467 C57.5836809,38.2853467 54.9600785,39.9522549 53.33288,42.6459496 L55.0484734,20.6392366 C55.0589343,20.4370929 54.9093429,20.2619017 54.7079699,20.2385774 L34.3122851,18.1331728 C37.3522328,16.754449 39.458542,14.1099945 39.8372279,11.0524411 C40.152625,8.55829861 39.3330108,6.09007196 37.5290226,4.0847026 C35.6633148,2.05756391 33.1218307,0.771618861 30.3747891,0.46477506 C24.5224191,-0.249466083 19.2495848,3.33417925 18.6187905,8.44737872 C18.2149984,11.6806416 19.7538019,14.8511881 22.5918535,16.9068342 L3.82389016,14.9636629 C3.61153318,14.9475951 3.42585159,15.1041269 3.40754495,15.315082 L0.000941484145,69.4512435 C-0.0142268715,69.6554604 0.137456685,69.8347982 0.34249101,69.8539759 L50.4822753,74.1777783 L50.5204577,74.1777783 C50.6078065,74.1751867 50.691494,74.144606 50.7600131,74.090701 C50.8389931,74.0243564 50.8892056,73.9300226 50.8980974,73.8273958 L52.4876365,53.4383509 C53.9129389,57.0971523 56.9534096,59.5161388 60.4091795,59.5161388 C65.2400392,59.5161388 69.1628898,54.7538401 69.1628898,48.9015202 C69.1628898,43.0492004 65.2400392,38.2853467 60.4091795,38.2853467" id="Fill-3" fill="#1A1A1A" mask="url(#mask-4)"></path>
                    </g>
                    <g id="Group-8" transform="translate(49.275362, 20.289855)">
                        <mask id="mask-6" fill="white">
                            <use xlink:href="#path-5"></use>
                        </mask>
                        <g id="Clip-7"></g>
                        <path d="M49.0169615,57.9884234 L48.9915602,57.9884234 L0.797964883,54.3889586 C0.698951505,54.3785102 0.606158863,54.3335822 0.535657191,54.2625332 C0.470339465,54.1857377 0.438717391,54.0854333 0.44856689,53.9840841 L2.19918562,31.6914333 C2.22821572,31.4829883 2.41898495,31.3377559 2.62530602,31.3675337 C2.80985452,31.3941771 2.94774749,31.5529924 2.94930268,31.7415855 L1.22408528,53.6560051 L48.6670452,57.2053178 L50.5814766,34.874008 C50.6037676,34.6650406 50.7893528,34.5130167 50.9961923,34.5354807 C51.1351221,34.5506309 51.2543528,34.6420541 51.3067107,34.7731812 C52.6317274,38.1720373 55.4320953,40.3693303 58.445005,40.3693303 C62.8207742,40.3693303 66.3712592,35.9110092 66.3712592,30.4292697 C66.3712592,24.9475303 62.8083328,20.4886867 58.445005,20.4886867 C55.9945535,20.4886867 53.7193194,21.8783205 52.2066438,24.3033881 C52.1164431,24.4548895 51.9318946,24.5186246 51.7691187,24.4548895 C51.6058244,24.3989907 51.5021455,24.2365185 51.5192525,24.0630755 L53.1065769,5.48325443 L35.1550886,3.72740518 C37.9051722,5.79879532 39.380005,8.98189246 38.9927642,12.1665569 C38.4178645,16.8902667 33.9923294,20.3121092 28.8042358,20.3121092 C28.3112425,20.3136765 27.8182492,20.284421 27.3288846,20.2238205 C24.6067943,19.9140262 22.0884331,18.6168605 20.2403562,16.573681 C18.452413,14.5519206 17.6400886,12.0641628 17.9526806,9.55080642 C18.3150385,6.54480923 20.2652391,3.9682402 23.1526973,2.55353036 L5.28829933,0.810219161 L3.46303177,24.6069133 C3.46562375,24.8174481 3.29921906,24.9898462 3.09082441,24.9924583 C2.88242977,24.9955929 2.71187793,24.8268516 2.70928595,24.6168393 C2.70876756,24.596465 2.71032274,24.5760906 2.71291472,24.5562387 L4.57550669,0.368252941 C4.58535619,0.264814039 4.63460368,0.169733835 4.71339967,0.102864242 C4.78908528,0.0370394858 4.88861706,0.00517194512 4.98814883,0.0150979004 L24.7778645,1.94856951 C24.9551555,1.96998867 25.0951221,2.11104172 25.1158579,2.28970892 C25.1350385,2.47046579 25.0261756,2.63920703 24.8551054,2.69406099 C21.4544365,3.79270752 19.1040351,6.45808772 18.7162759,9.65372291 C18.4612258,11.9993829 19.227413,14.3413859 20.816811,16.0705918 C22.5409916,17.974808 24.8903562,19.18264 27.4284164,19.4694479 C32.8171288,20.1391886 37.6677475,16.8171281 38.2426472,12.0808802 C38.6552893,8.72068311 36.7802559,5.36100845 33.4671957,3.52940849 C33.3121957,3.44268699 33.239102,3.25775077 33.2930151,3.08744227 C33.3479649,2.9150441 33.514888,2.80429134 33.6932157,2.82205357 L53.5596538,4.7560476 C53.7592358,4.77955644 53.9074967,4.95665638 53.8971288,5.15987725 L52.3839348,22.7549391 C53.9966605,20.8094518 56.1469615,19.7108053 58.4470786,19.7108053 C63.2360084,19.7108053 67.1239682,24.5102659 67.1239682,30.4088954 C67.1239682,36.3080474 63.2360084,41.107508 58.4470786,41.107508 C55.5347375,41.107508 52.8090184,39.275908 51.221694,36.3331235 L49.3922793,57.6216855 C49.3777642,57.8228167 49.2165435,57.9805871 49.0169615,57.9884234" id="Fill-6" fill="#1A1A1A" mask="url(#mask-6)"></path>
                    </g>
                    <path d="M49.8415796,73.4398036 L75.6895502,75.3623188 C79.151513,72.5297991 81.1594203,69.1659204 81.1594203,65.5625118 C81.1594203,55.3709844 65.1065632,47.1014493 45.2906351,47.1014493 C25.4752271,47.1014493 9.42028986,55.3709844 9.42028986,65.5625118 C9.42965073,67.0985366 9.78588395,68.6115498 10.461427,69.9880624 L49.8415796,73.4398036 Z" id="Fill-9" fill="#FFFFFF"></path>
                    <path d="M107.268944,39.982398 C104.969011,39.982398 102.818882,41.0814565 101.206286,43.0262258 L102.71884,25.4329327 C102.729207,25.2297323 102.581477,25.0531725 102.381392,25.0291437 L82.5170634,23.0953441 C82.3382315,23.0775836 82.1718402,23.1883252 82.1168947,23.3607061 C82.062986,23.5309975 82.1360738,23.7164375 82.290543,23.8026279 C85.603338,25.6340437 87.4782213,28.9933806 87.0656122,32.3532399 C86.4907585,37.0890117 81.6410465,40.4102159 76.2527656,39.7415872 C73.7149087,39.4542858 71.3652139,38.2465752 69.6411713,36.3425505 C68.0524189,34.6135184 67.2857746,32.2717508 67.5408044,29.9263266 C67.9285325,26.7310127 70.2787457,24.0669452 73.6786239,22.9673644 C73.8496805,22.9125159 73.959053,22.7437916 73.9398739,22.5635753 C73.9191398,22.3844037 73.7797028,22.2433648 73.602426,22.2224702 L53.8168866,20.2918048 C53.7168445,20.2813574 53.6173206,20.3132218 53.5421594,20.3795623 C53.4628514,20.4464252 53.4141262,20.5414958 53.4042775,20.6449243 L51.5413163,44.8304786 C51.5112518,45.0383803 51.6537989,45.2321782 51.8595851,45.2624754 C52.0658897,45.293295 52.257162,45.1496443 52.2877448,44.9417426 C52.290855,44.9213703 52.2913733,44.9015204 52.2913733,44.8811481 L54.1170131,21.0868461 L71.9799807,22.829982 C69.0927537,24.2445497 67.1427092,26.8208597 66.7803803,29.8265547 C66.467295,32.3401808 67.2800728,34.8282109 69.0678727,36.8487233 C70.9152833,38.8916974 73.4339613,40.1887327 76.1558336,40.4984958 C76.645159,40.5590903 77.1375945,40.5883428 77.6305483,40.5867757 C82.8182265,40.5867757 87.2434073,37.1637101 87.8187793,32.4415198 C88.2059891,29.2587427 86.7312744,26.0764879 83.9808926,24.005306 L101.930944,25.7604563 L100.343746,44.338932 C100.326122,44.5123576 100.430311,44.6742911 100.593592,44.7301843 C100.756874,44.7939129 100.941407,44.7301843 101.031083,44.5786981 C102.543637,42.1538743 104.818689,40.7649026 107.268944,40.7649026 C111.631923,40.7649026 115.194045,45.223298 115.194045,50.7039639 C115.194045,56.1851523 111.643845,60.6435477 107.268944,60.6435477 C104.256276,60.6435477 101.455614,58.4464755 100.130703,55.0474388 C100.053468,54.8520738 99.8342051,54.7570032 99.6408594,54.8353581 C99.5112711,54.8875947 99.4205593,55.0082613 99.4060454,55.1487778 L97.4922856,77.4778427 L75.4659056,75.8229866 C75.328542,75.9368624 75.1787379,76.0502159 75.0284155,76.1766285 L49.6394786,74.2825287 L49.2771498,74.244396 L49.2771498,74.2569328 C49.2673011,74.3577494 49.2984023,74.4585661 49.3642331,74.5348316 C49.4347291,74.6063957 49.526996,74.6513192 49.6265198,74.6612442 L97.8162563,78.2608696 L97.8416556,78.2608696 C98.0401849,78.2535564 98.2024294,78.0952795 98.216425,77.8946909 L100.041546,56.6009558 C101.628744,59.5439669 104.354245,61.3748603 107.266871,61.3748603 C112.05438,61.3748603 115.942029,56.5758822 115.942029,50.6778456 C115.942029,44.7798091 112.056454,39.982398 107.268944,39.982398" id="Fill-11" fill="#1A1A1A"></path>
                    <path d="M76.4572606,57.2461035 C76.3710102,57.2496302 76.2873116,57.2188977 76.2235169,57.1614633 C76.067858,57.039541 76.0413194,56.815849 76.1643155,56.6616828 C76.167888,56.6576523 76.1709501,56.6536218 76.1745226,56.6495914 C82.6968883,48.8677278 90.9085365,42.6431439 100.19959,38.4388417 C100.386381,38.3547053 100.606345,38.4368265 100.691064,38.6217251 C100.776294,38.8066237 100.693616,39.0247738 100.506825,39.1089103 C91.3158016,43.2618237 83.1914245,49.4158741 76.7410192,57.1120898 C76.6711003,57.1962262 76.5674977,57.2455997 76.4572606,57.2461035" id="Fill-13" fill="#FFFFFF"></path>
                    <path d="M49.6519446,73.9130435 L49.6265435,73.9130435 C49.4197061,73.8986741 49.2631525,73.721362 49.2761122,73.5163769 L51.0142722,51.3134129 C51.027232,51.1273889 51.1765281,50.9792871 51.3641852,50.9664755 C51.5508054,50.952639 51.7177268,51.0807547 51.7519405,51.263704 C52.626982,55.6247625 55.7896764,58.6728914 59.4401753,58.6728914 C63.8159011,58.6728914 67.3663508,54.2990212 67.3663508,48.9217489 C67.3663508,48.7167638 67.534309,48.5502134 67.7416648,48.5507246 C67.9485022,48.5507246 68.115942,48.7167638 68.115942,48.9217489 C68.115942,54.7079666 64.2280207,59.4164749 59.4401753,59.4164749 C56.0146574,59.4164749 53.0017776,57.024811 51.5891662,53.4073359 L50.0267402,73.5660858 C50.0153357,73.762359 49.8504878,73.9150729 49.6519446,73.9130435" id="Fill-15" fill="#1A1A1A"></path>
                    <path d="M53.2863781,32.6086957 L53.2607133,32.6086957 C53.0473748,32.5936439 52.8864353,32.4081845 52.8992677,32.1931591 L53.5702947,22.8610584 C53.5670866,22.6444203 53.7392545,22.4670244 53.9536623,22.4637681 C54.1686049,22.4611112 54.3450502,22.6342066 54.3477236,22.8508447 C54.3482583,22.8712721 54.3466543,22.892237 54.3439809,22.9126644 L53.6724191,32.2447652 C53.6526359,32.4463515 53.4874189,32.6022449 53.2863781,32.6086957" id="Fill-17" fill="#1A1A1A"></path>
                    <path d="M53.6231884,31.884058 C59.4186873,29.7974941 64.8113321,26.7186671 69.5652174,22.7839742 L58.7996297,21.7391304 C57.3027962,22.5908316 55.7629293,23.3639223 54.1862508,24.0547582 L53.6231884,31.884058 Z" id="Fill-19" fill="#FFFFFF"></path>
                    <path d="M25.7243626,37.6811594 C28.3260417,37.6811594 30.4347826,39.789983 30.4347826,42.39103 C30.4347826,44.9926257 28.3260417,47.1014493 25.7243626,47.1014493 C23.1232337,47.1014493 21.0144928,44.9926257 21.0144928,42.39103 C21.0144928,39.789983 23.1232337,37.6811594 25.7243626,37.6811594" id="Fill-21" fill="#FFC600"></path>
                    <path d="M53.6231884,24.1632488 C51.9000657,24.8694975 50.1366542,25.4751454 48.3417347,25.9781497 C42.7116276,27.5463997 36.5830752,28.1387703 30.1554556,27.7440268 C21.1173259,27.1332723 12.274442,24.8511136 4.08392745,21.0144928 L3.62318841,28.3986984 C9.16651957,30.7446902 18.5336749,33.94247 29.7195097,34.6461654 C31.1647427,34.7324677 32.5965461,34.7820021 34.016986,34.7820021 C39.4957517,34.806514 44.9528234,34.0880094 50.2347937,32.646404 C51.1944945,32.3747306 52.1283691,32.0902906 53.0627603,31.7695935 L53.6231884,24.1632488 Z" id="Fill-23" fill="#FFFFFF"></path>
                    <path d="M89.8550725,55.7971014 C91.4562131,55.7971014 92.7536232,57.0944883 92.7536232,58.6953797 C92.7536232,60.2962712 91.4562131,61.5942029 89.8550725,61.5942029 C88.2544781,61.5942029 86.9565217,60.2962712 86.9565217,58.6953797 C86.9565217,57.0944883 88.2544781,55.7971014 89.8550725,55.7971014" id="Fill-25" fill="#FFFFFF"></path>
                    <path d="M66.3285468,75.3616878 C66.2905176,75.3637495 66.2514319,75.3596261 66.2139309,75.3493178 C66.0100518,75.2869522 65.8964921,75.0751155 65.9593461,74.8756489 C65.9720225,74.8256533 67.4879112,70.189986 71.4239401,64.0214662 C73.0676494,61.4510779 74.8846031,58.9904735 76.8626531,56.6566618 C76.9968119,56.4984286 77.2360793,56.4762656 77.3982319,56.6066663 C77.5598562,56.7375824 77.5830963,56.9720975 77.4489375,57.1303308 C75.4877895,59.4388869 73.6882659,61.8747513 72.0614584,64.4203996 C68.1766635,70.5141838 66.6861276,75.0627455 66.672923,75.112741 C66.6348937,75.2663355 66.4901712,75.3714808 66.3285468,75.3616878" id="Fill-27" fill="#1A1A1A"></path>
                </g>
            </g>
        </g>
    </g>
</svg>