<?xml version="1.0" encoding="UTF-8"?>
<svg width="136px" height="100px" viewBox="0 0 136 100" version="1.1" xmlns="http://www.w3.org/2000/svg" xmlns:xlink="http://www.w3.org/1999/xlink">
    <!-- Generator: Sketch 60.1 (88133) - https://sketch.com -->
    <title>icon-coins</title>
    <desc>Created with Sketch.</desc>
    <defs>
        <polygon id="path-1" points="0 0.408193521 100.234532 0.408193521 100.234532 99.2805755 0 99.2805755"></polygon>
        <polygon id="path-3" points="0.0275834063 0.416827835 63.2886174 0.416827835 63.2886174 53.9568345 0.0275834063 53.9568345"></polygon>
        <polygon id="path-5" points="0 0.0939422992 71.1605587 0.0939422992 71.1605587 63.9627816 0 63.9627816"></polygon>
    </defs>
    <g id="Page-1" stroke="none" stroke-width="1" fill="none" fill-rule="evenodd">
        <g id="desktop-landing" transform="translate(-1033.000000, -1412.000000)">
            <g id="icon-coins" transform="translate(1033.000000, 1412.000000)">
                <g id="Group-8" transform="translate(17.985612, 0.000000)">
                    <g id="Group-3" transform="translate(0.000000, 0.311511)">
                        <mask id="mask-2" fill="white">
                            <use xlink:href="#path-1"></use>
                        </mask>
                        <g id="Clip-2"></g>
                        <path d="M89.5525899,15.401223 C97.3619424,25.0458273 105.720216,54.6969065 95.4957554,66.2285612 C86.9511511,75.8731655 80.9382014,66.082518 75.5432374,68.4789209 C70.1482734,70.8753237 70.7252518,86.1479856 63.3828058,90.4271223 C56.0396403,94.6997842 44.0828058,90.1055396 37.661223,92.5307194 C31.2396403,94.9566187 25.4777698,100.491871 11.9748921,99.0422302 C-1.52726619,97.5925899 -1.75460432,67.2688489 2.2928777,48.9220863 C6.29431655,30.7443885 19.8317266,8.55661871 41.9540288,2.54870504 C66.1353237,-4.00956835 81.7022302,5.71057554 89.5525899,15.401223" id="Fill-1" fill="#FFC600" mask="url(#mask-2)"></path>
                    </g>
                    <path d="M77.6427338,70.5734532 C79.1405755,70.5734532 80.354964,71.8295683 80.354964,73.3784892 C80.354964,74.9281295 79.1405755,76.1842446 77.6427338,76.1842446 C76.1448921,76.1842446 74.9305036,74.9281295 74.9305036,73.3784892 C74.9305036,71.8295683 76.1448921,70.5734532 77.6427338,70.5734532" id="Fill-4" fill="#FFC600"></path>
                    <path d="M83.1719424,71.1400719 C83.9453237,71.1400719 84.5719424,71.7681295 84.5719424,72.5429496 C84.5719424,73.3177698 83.9453237,73.9458273 83.1719424,73.9458273 C82.3985612,73.9458273 81.7719424,73.3177698 81.7719424,72.5429496 C81.7719424,71.7681295 82.3985612,71.1400719 83.1719424,71.1400719" id="Fill-6" fill="#FFC600"></path>
                </g>
                <g id="Group-49" transform="translate(0.000000, 15.107914)">
                    <path d="M130.935252,43.8848921 L130.935252,56.1625807 C130.935252,56.1625807 130.678843,57.6928367 111.105054,58.5593337 C91.5308047,59.4258307 81.5059481,58.7255048 81.5059481,58.7255048 L64.2919532,57.7854111 C64.2919532,57.7854111 54.8343325,57.4720466 54.193771,56.1810956 C53.5536706,54.8910704 54.4132867,44.418121 54.4132867,44.418121 L74.4629998,44.3440614 L112.988923,44.3440614 L130.935252,43.8848921 Z" id="Fill-1" fill="#FFC600"></path>
                    <path d="M103.615488,44.3241253 C102.606915,44.6351722 101.72684,45.0927833 102.386896,45.9707902 C103.046953,46.8487971 105.870218,46.7394482 106.879254,46.9223089 C110.381065,47.6179145 113.8838,48.8988581 116.285055,51.6619839 C117.69715,53.2907303 118.670594,55.3766284 120.502389,56.4926298 C121.583069,57.0857784 122.77607,57.4473647 124.004662,57.5539568 C130.807216,56.8041362 130.935252,56.0717746 130.935252,56.0717746 L130.935252,43.8848921 L112.948258,44.3057473 L103.615488,44.3057473 L103.615488,44.3241253 Z" id="Fill-3" fill="#FFFFFF"></path>
                    <path d="M125.113876,57.3150464 L125.113876,46.065322 C126.008977,45.9724224 126.794031,45.8608495 127.469961,45.7492766 C127.689132,45.7105295 127.908302,45.6745834 128.109055,45.6372368 L128.109055,56.8874281 C127.337814,57.0162738 126.333128,57.1651933 125.109272,57.3136459 L125.113876,57.3150464 Z M90.1188598,58.5979016 L90.1188598,47.329037 L94.8489863,47.329037 L94.8489863,58.5965011 L90.1156367,58.5965011 L90.1188598,58.5979016 Z M60.9493626,57.5003789 L60.9493626,46.2511213 C62.1566431,46.3622274 63.488243,46.4742671 64.9478459,46.5671668 C65.1854343,46.5863069 65.4225622,46.6059138 65.6785683,46.6227198 L65.6785683,57.8724442 C63.9026413,57.7585371 62.3150353,57.6296914 60.9452187,57.499912 L60.9493626,57.5003789 Z M56.4384068,56.9429811 L56.4384068,45.6932567 C56.5217469,45.7151978 56.6078497,45.7282691 56.6939524,45.7320038 C57.5706351,45.8804565 58.6301134,46.0102358 59.8539698,46.140482 L59.8539698,57.3902064 C58.461131,57.2394196 57.310485,57.0905001 56.4342628,56.9415806 L56.4384068,56.9429811 Z M54.3194501,45.2105521 C54.5934134,45.3039186 54.9405871,45.3968182 55.342093,45.489251 L55.342093,56.7394422 C54.9852501,56.6754862 54.6403786,56.556444 54.3194501,56.3860502 L54.3194501,45.2105521 Z M119.267637,46.5681004 C121.040341,46.4378542 122.628407,46.307608 123.998224,46.1778286 L123.998224,57.4270862 C122.646825,57.5573324 121.055996,57.7062519 119.267637,57.817358 L119.267637,46.5681004 Z M113.441197,58.09559 L113.441197,46.9014187 C115.103394,46.8271923 116.692382,46.7342927 118.171784,46.6413931 L118.171784,57.8906506 C116.710799,57.9840171 115.139769,58.0769167 113.422779,58.1511431 C113.436132,58.1357376 113.441657,58.1147301 113.438434,58.0946564 L113.441197,58.09559 Z M107.614756,47.125965 C109.240119,47.070412 110.829566,47.0143921 112.345343,46.9583722 L112.345343,58.09559 C112.34212,58.1338703 112.348566,58.1721505 112.363761,58.2071629 C110.865941,58.262716 109.276954,58.3374091 107.614756,58.3747557 L107.614756,47.125965 Z M101.768517,47.2557444 C103.375922,47.2174641 104.964909,47.2001913 106.499104,47.1441715 L106.499104,58.4116355 C104.983327,58.4499157 103.412297,58.4858618 101.768517,58.5227416 L101.768517,47.2557444 Z M100.672664,47.2744177 L100.672664,58.5423485 L95.9420769,58.5979016 L95.9420769,47.329037 C97.5476401,47.3103637 99.1186702,47.3103637 100.671283,47.2730172 L100.672664,47.2744177 Z M84.2707787,47.293091 C85.823391,47.3112974 87.4123783,47.3313712 89.0013656,47.3313712 L89.0013656,58.5988352 C87.3760034,58.5988352 85.7870161,58.5806288 84.2707787,58.560555 L84.2707787,47.293091 Z M78.4443384,47.181518 C79.9785331,47.2197983 81.5675204,47.2557444 83.1749254,47.2744177 L83.1749254,58.5423485 C81.530685,58.5232084 79.9605758,58.4863286 78.4443384,58.4489821 L78.4443384,47.181518 Z M72.5980992,46.9770455 C74.1322938,47.0330654 75.7028634,47.0886184 77.3286861,47.1441715 L77.3286861,58.4116355 C75.6664884,58.3556156 74.0959188,58.2995957 72.5980992,58.2440427 L72.5980992,46.9770455 Z M71.5017854,46.9387653 L71.5017854,58.2062293 C69.8045941,58.1315361 68.2326432,58.0386365 66.7716589,57.9644101 L66.7716589,46.7146858 C68.2690181,46.7898458 69.8584659,46.8640721 71.5017854,46.9387653 L71.5017854,46.9387653 Z M127.465356,42.6060948 C125.511238,42.2900494 122.734769,42.0118173 119.210082,41.7695314 C111.958572,41.2676867 102.33302,41.0071942 92.0867913,41.0071942 C81.8401024,41.0071942 72.2145505,41.28636 64.9635009,41.7695314 C61.4199349,42.0118173 58.6434663,42.2900494 56.7077657,42.6060948 C54.1504677,43.0155067 53.2374101,43.4244518 53.2374101,44.1681156 L53.2374101,56.5513088 C53.2374101,57.2949726 54.1509281,57.7029841 56.7077657,58.1133296 C58.661884,58.4293751 61.4383526,58.7076071 64.9635009,58.9498931 C72.2145505,59.4522046 81.8401024,59.7122302 92.0867913,59.7122302 C102.33302,59.7122302 111.958572,59.4330645 119.210082,58.9498931 C122.753187,58.7076071 125.529195,58.4293751 127.465356,58.1133296 C130.022654,57.7043846 130.935252,57.2949726 130.935252,56.5513088 L130.935252,44.167182 C130.935252,43.4244518 130.022654,43.0150399 127.465356,42.6060948 L127.465356,42.6060948 Z" id="Fill-5" fill="#1A1A1A"></path>
                    <path d="M135.971223,29.4964029 L135.971223,41.7723916 C135.971223,41.7723916 135.715275,43.3019151 116.141026,44.1701107 C96.5672371,45.0383062 86.5423805,44.3362526 86.5423805,44.3362526 L69.3279244,43.3958617 C69.3279244,43.3958617 59.8698425,43.0825523 59.2297422,41.7922916 C58.5896419,40.5020308 59.4492579,30.0309262 59.4492579,30.0309262 L79.498971,29.9573425 L118.043341,29.9573425 L135.971223,29.4964029 Z" id="Fill-7" fill="#FFC600"></path>
                    <path d="M135.971223,41.9578455 L135.971223,29.4964029 L118.095255,29.9267234 L109.038753,29.9267234 C108.6097,30.2475846 108.504964,30.8597108 108.801717,31.3116413 C109.585404,32.548108 112.026962,32.3587858 113.21168,32.6585069 C114.78227,33.0047363 116.212752,33.8334321 117.313405,35.0346652 C118.77099,36.7188344 119.281351,39.0757317 120.592856,40.8909701 C121.58326,42.2087092 122.888792,43.2403509 124.383586,43.8848921 C135.789312,43.0430424 135.971223,41.9578455 135.971223,41.9578455" id="Fill-9" fill="#FFFFFF"></path>
                    <path d="M130.146129,42.92463 L130.146129,31.6746249 C131.041235,31.5817229 131.826294,31.4701472 132.502228,31.3585715 C132.7214,31.3202903 132.940572,31.2843433 133.141326,31.2469958 L133.141326,42.497001 C132.373764,42.646391 131.369072,42.7766405 130.145209,42.9250969 L130.146129,42.92463 Z M95.1504451,44.2266578 L95.1504451,32.9589125 L99.8787578,32.9589125 L99.8787578,44.2257241 L95.1495242,44.2257241 L95.1504451,44.2266578 Z M65.9812356,43.1291077 L65.9812356,31.8795693 C67.1885231,31.991145 68.5201309,32.1022539 69.9797425,32.1956227 C70.2173323,32.2147633 70.4544616,32.2339039 70.7100088,32.251644 L70.7100088,43.5011823 C68.9395966,43.3718665 67.3505999,43.2602908 65.9807751,43.1295745 L65.9812356,43.1291077 Z M61.4697925,42.5534891 L61.4697925,31.3034839 C61.5535936,31.3254256 61.6392364,31.3384972 61.7253397,31.3417651 C62.602488,31.4906883 63.6619726,31.620471 64.8853758,31.7507204 L64.8853758,43.0007256 C63.4966727,42.8695424 62.3639773,42.7206192 61.4688717,42.5534891 L61.4697925,42.5534891 Z M59.3512837,30.8207673 C59.6247882,30.9136692 59.9724244,31.007038 60.3739327,31.09994 L60.3739327,42.3499451 C60.0170876,42.2864544 59.6722141,42.1669423 59.3512837,41.9965443 L59.3512837,30.8207673 Z M124.299855,32.1970232 C126.07257,32.0667738 127.661106,31.9369912 129.030931,31.8067417 L129.030931,43.05628 C127.679064,43.1869963 126.088685,43.3359195 124.299855,43.4470284 L124.299855,32.1970232 Z M118.473381,43.7061268 L118.473381,32.5149439 C120.135588,32.4407158 121.724585,32.3478138 123.203996,32.2549119 L123.203996,43.5044502 C121.743003,43.5973521 120.171963,43.6907209 118.455423,43.7649491 C118.473381,43.762148 118.473381,43.7266679 118.473381,43.7061268 L118.473381,43.7061268 Z M112.646906,32.736228 C114.271817,32.6806735 115.861735,32.6246523 117.377521,32.568631 L117.377521,43.7061268 C117.374298,43.744408 117.380744,43.7826892 117.395478,43.8177025 C115.89765,43.8737237 114.308653,43.9479519 112.646906,43.9852994 L112.646906,32.7352943 L112.646906,32.736228 Z M106.800632,32.8846843 C108.408507,32.8464031 109.997043,32.8291299 111.531707,32.7735755 L111.531707,44.0413207 C110.015461,44.0796019 108.444882,44.1155489 106.800632,44.1528964 L106.800632,32.8846843 Z M105.707074,32.9033581 L105.707074,44.1711033 C104.17241,44.1897771 102.601831,44.2093845 100.975999,44.2266578 L100.975999,32.9589125 C102.583414,32.9407056 104.153992,32.9220319 105.707074,32.9033581 L105.707074,32.9033581 Z M89.3050921,32.9033581 C90.8572531,32.9220319 92.4462499,32.9416393 94.0352466,32.9416393 L94.0352466,44.2093845 C92.4098747,44.2093845 90.820878,44.1907108 89.3050921,44.1711033 L89.3050921,32.9033581 Z M83.4781568,32.7917824 C85.012821,32.8300636 86.6018177,32.8664774 88.2087718,32.8846843 L88.2087718,44.1528964 C86.5654425,44.1342227 84.9939427,44.0968751 83.4781568,44.0595276 L83.4781568,32.7917824 Z M77.651682,32.6059785 C79.1863462,32.6619998 80.7569251,32.7175542 82.382297,32.7735755 L82.382297,44.0413207 C80.7205499,43.9852994 79.1495106,43.9292782 77.6521425,43.8737237 L77.651682,32.6059785 Z M76.5558222,32.5499572 L76.5558222,43.8004292 C74.8586209,43.7262011 73.2866606,43.6332991 71.8252073,43.5586041 L71.8252073,32.3090658 C73.3050784,32.3996335 74.8940752,32.4766627 76.5558222,32.5499572 L76.5558222,32.5499572 Z M132.501307,28.2176455 C130.547177,27.9015922 127.770692,27.6233532 124.245523,27.3810612 C116.99443,26.879204 107.368821,26.618705 97.1220718,26.618705 C86.8753222,26.618705 77.2501737,26.8978777 69.9990812,27.3810612 C66.4536524,27.6233532 63.6790091,27.9015922 61.743297,28.2176455 C59.1859839,28.6270676 58.2733813,29.0360229 58.2733813,29.7797053 L58.2733813,42.1632076 C58.2733813,42.90689 59.1864443,43.3149116 61.743297,43.7252674 C63.6978873,44.0413207 66.4734516,44.3195597 69.9990812,44.5618517 C77.2501737,45.0632421 86.8753222,45.323741 97.1220718,45.323741 C107.368821,45.323741 116.99443,45.0450352 124.245523,44.5618517 C127.78911,44.3195597 130.565595,44.0413207 132.501307,43.7252674 C135.05816,43.3158452 135.971223,42.90689 135.971223,42.1632076 L135.971223,29.7797053 C135.971223,29.0360229 135.05816,28.6270676 132.501307,28.2176455 L132.501307,28.2176455 Z" id="Fill-11" fill="#1A1A1A"></path>
                    <path d="M127.338129,17.9856115 L127.338129,30.2614247 C127.338129,30.2614247 127.08218,31.7914469 107.507813,32.6596627 C87.9339075,33.5274158 77.9089909,32.8253457 77.9089909,32.8253457 L60.6944316,31.8853956 C60.6944316,31.8853956 51.2362931,31.5716161 50.5966501,30.2813252 C49.9565459,28.9910342 50.8161671,18.5201474 50.8161671,18.5201474 L70.8660004,18.4460991 L109.390771,18.4460991 L127.338129,17.9856115 Z" id="Fill-13" fill="#FFC600"></path>
                    <g id="Group-17" transform="translate(10.791367, 11.510791)">
                        <mask id="mask-4" fill="white">
                            <use xlink:href="#path-3"></use>
                        </mask>
                        <g id="Clip-16"></g>
                        <path d="M57.9577854,50.3323985 C45.6918278,54.7216498 20.1960505,54.5757834 7.34883954,52.7728021 C5.11007403,52.4632362 2.67128767,51.9350994 1.32481702,50.132118 C0.451331457,48.9848494 0.19717652,47.4909767 0.0875320613,46.0528899 C-0.604283182,36.4366846 4.80040872,27.5123156 10.6785445,19.8637056 C14.8459514,14.4181807 19.3973433,9.20997439 24.7823084,4.96658944 C27.1298009,3.12702719 29.6961234,1.43378856 32.6074361,0.759328131 C36.4293942,-0.114955493 40.3963216,0.850780393 44.1994703,1.7973113 C45.5463997,2.14345811 46.9474632,2.48960493 48.0576707,3.3455981 C50.7143697,5.3854408 51.8245772,6.88068528 55.1368491,7.97125351 C57.1388927,8.62650896 58.3032343,7.8980917 59.267555,9.82864895 C61.197114,13.7990489 63.19824,17.2957261 63.2886174,33.9043714 L63.2886174,47.2362822 C63.2899927,47.2929826 61.7802023,48.966559 57.9577854,50.3323985" id="Fill-15" fill="#1A1A1A" mask="url(#mask-4)"></path>
                    </g>
                    <path d="M79.8561151,18.4296523 C81.6251574,21.8333454 87.2378462,25.0335972 92.6157348,25.3485132 C102.148346,25.9035641 112.30081,24.2569904 120.79497,28.6778898 C122.198257,29.4182674 123.547325,30.3058844 125.077891,30.7499252 C125.333368,30.8242416 125.606765,30.8795145 125.862243,30.9352518 C127.283909,30.565063 127.338129,30.3058844 127.338129,30.3058844 L127.338129,17.9856115 L109.45518,18.4110732 L79.8561151,18.4110732 L79.8561151,18.4296523 Z" id="Fill-18" fill="#FFFFFF"></path>
                    <path d="M89.2086331,15.1079137 C110.267067,15.1079137 127.338129,16.2355372 127.338129,17.6258993 C127.338129,19.0162613 110.267067,20.1438849 89.2086331,20.1438849 C68.1501992,20.1438849 51.0791367,19.0162613 51.0791367,17.6258993 C51.0791367,16.2355372 68.1501992,15.1079137 89.2086331,15.1079137" id="Fill-20" fill="#FFFFFF"></path>
                    <path d="M54.676259,16.5472086 C60.7897138,17.399546 73.9440303,17.9856115 89.2086331,17.9856115 C104.473236,17.9856115 117.627552,17.3990999 123.741007,16.5472086 C117.627552,15.6939792 104.473695,15.1079137 89.2086331,15.1079137 C73.9435717,15.1079137 60.7897138,15.6957633 54.676259,16.5472086" id="Fill-22" fill="#FFC600"></path>
                    <path d="M72.8264641,46.7625899 L72.8264641,46.7625899 C67.6319872,46.5963731 62.4510522,46.1964789 57.3037385,45.5649387 C57.0020815,45.5247054 56.7947507,45.2784291 56.8409799,45.0146777 C56.8872091,44.7509263 57.1687867,44.5696735 57.4709106,44.6099067 C62.5691934,45.2308807 67.7006305,45.6254917 72.8451425,45.7913015 C73.1463325,45.7957719 73.3863506,46.0127877 73.381295,46.2761326 C73.381295,46.2814158 73.3807471,46.2871054 73.3807471,46.2932013 C73.3723418,46.5549207 73.1262532,46.7629957 72.8264641,46.7625899" id="Fill-24" fill="#FFC600"></path>
                    <path d="M72.086562,58.9928058 L72.086562,58.9928058 C71.6043318,58.9928058 60.5462467,58.8552515 53.6439474,57.1323635 C53.3474062,57.0549352 53.1748136,56.7681476 53.2585374,56.4930392 C53.3413257,56.2192285 53.6458183,56.0591812 53.9409562,56.133149 C60.7132265,57.8214322 71.9939513,57.959419 72.1052712,57.959419 C72.4121024,57.9602841 72.660935,58.1908388 72.6618705,58.4763286 C72.6459677,58.7618185 72.3947964,58.987615 72.086562,58.9928058" id="Fill-26" fill="#FFC600"></path>
                    <path d="M66.8722165,58.2733813 L66.8722165,58.2733813 C66.4939357,58.2724829 66.1882019,58.0330705 66.1870504,57.7370615 L66.255567,48.7377587 C66.2647793,48.4448939 66.5659069,48.2086257 66.9407331,48.2014388 C67.3184382,48.2023372 67.6247477,48.4417497 67.6258993,48.7377587 L67.5573827,57.7370615 C67.5562311,58.0330705 67.2499216,58.2724829 66.8722165,58.2733813" id="Fill-28" fill="#FFC600"></path>
                    <path d="M60.3973964,58.2733813 L60.3973964,58.2733813 C60.0196913,58.272483 59.7133818,58.0326428 59.7122302,57.7366602 L59.7807468,48.7386091 C59.7807468,48.4417282 60.0876322,48.2014388 60.465913,48.2014388 C60.8441938,48.2014388 61.1510791,48.4417282 61.1510791,48.7386091 L61.0825625,57.7366602 C61.081411,58.0326428 60.7756772,58.272483 60.3973964,58.2733813" id="Fill-30" fill="#FFC600"></path>
                    <path d="M72.6276122,55.3956835 L72.6276122,55.3956835 C72.2499072,55.3947624 71.9435976,55.1493087 71.942446,54.8458303 L72.0109627,49.4716375 C72.0109627,49.1676986 72.3172722,48.9208633 72.6961288,48.9208633 C73.0744096,48.9208633 73.381295,49.1676986 73.381295,49.4716375 L73.3127783,54.8458303 C73.3116268,55.1493087 73.005893,55.3947624 72.6276122,55.3956835" id="Fill-32" fill="#FFC600"></path>
                    <path d="M122.213582,30.6962816 L122.213582,19.4458096 C123.108688,19.3533745 123.893747,19.2413319 124.569681,19.1297562 C124.788853,19.091475 125.008025,19.055528 125.211081,19.0181805 L125.211081,30.2681857 C124.441677,30.4161752 123.455403,30.5650984 122.213582,30.6962816 L122.213582,30.6962816 Z M87.2202,31.9973756 L87.2202,20.7286967 L91.950815,20.7286967 L91.950815,31.9964419 L87.2178978,31.9964419 L87.2202,31.9973756 Z M58.0694083,30.9002924 L58.0694083,19.6502872 C59.2766958,19.7623298 60.6083036,19.8734386 62.0679152,19.9668074 C62.305505,19.9854812 62.5426343,20.0055554 62.7981815,20.0228287 L62.7981815,31.2719001 C61.0259275,31.1598576 59.4369308,31.030075 58.067106,30.8998255 L58.0694083,30.9002924 Z M53.5584257,30.3424139 L53.5584257,19.0933424 C53.6422267,19.1143504 53.7278696,19.1278888 53.8139728,19.1316236 C54.6906607,19.2805468 55.7501453,19.4103294 56.9735485,19.5405789 L56.9735485,30.790584 C55.5830037,30.6393266 54.4323509,30.4908702 53.555663,30.3414802 L53.5584257,30.3424139 Z M51.4394565,18.5933525 C51.7134214,18.6862545 52.0605972,18.7791564 52.4621055,18.8720584 L52.4621055,30.1201962 C52.1057208,30.0567054 51.7603868,29.9376602 51.4394565,29.7672621 L51.4394565,18.5933525 Z M81.3937252,20.6941502 C82.9463468,20.7132908 84.5353435,20.7328983 86.1248006,20.7328983 L86.1248006,31.9964419 C84.4989683,31.9964419 82.9099716,31.978235 81.3937252,31.9581607 L81.3937252,20.6941502 Z M75.5672504,20.5643676 C77.1014542,20.6026488 78.6909113,20.6385958 80.2983259,20.6572696 L80.2983259,31.9226806 C78.6540757,31.90354 77.0834968,31.8666593 75.5672504,31.8293118 L75.5672504,20.5643676 Z M69.7214369,20.3780969 C71.2556407,20.4341182 72.8262196,20.4896726 74.4515915,20.5456939 L74.4515915,31.8097044 C72.7898444,31.7541499 71.2192655,31.6981287 69.7214369,31.6421074 L69.7214369,20.3780969 Z M68.6251167,20.3398157 L68.6251167,31.6061604 C66.9279153,31.5319322 65.3559551,31.4385634 63.8945017,31.3648021 L63.8945017,20.1147969 C65.3914094,20.1708182 66.9804061,20.2637201 68.6241958,20.3384152 L68.6251167,20.3398157 Z M116.388028,19.9686748 C118.160743,19.8379585 119.748818,19.7081759 121.118643,19.5779264 L121.118643,30.8279316 C119.767236,30.958181 118.176398,31.1071042 116.388028,31.2182131 L116.388028,19.9686748 Z M110.561553,31.4773115 L110.561553,20.2828607 C112.223761,20.2081657 113.812758,20.1152638 115.292168,20.0228287 L115.292168,31.2719001 C113.830715,31.3652689 112.260136,31.4581709 110.543136,31.5323991 C110.555568,31.5165264 110.561553,31.4964521 110.560633,31.4759109 L110.561553,31.4773115 Z M104.71574,20.5074127 C106.341112,20.4518582 107.930109,20.395837 109.446355,20.3398157 L109.446355,31.4759109 C109.443592,31.5141921 109.449578,31.5524733 109.464312,31.5874866 C107.966944,31.6430411 106.377487,31.7177361 104.71574,31.7550836 L104.71574,20.5074127 Z M98.8888047,20.655869 C100.496219,20.6175878 102.085676,20.6003146 103.61988,20.5447602 L103.61988,31.8097044 C102.103634,31.8479856 100.533055,31.8839325 98.8888047,31.9212801 L98.8888047,20.655869 Z M97.7934053,20.6745428 L97.7934053,31.9408875 C96.2587412,31.9590944 94.6881623,31.9791687 93.0623299,31.9964419 L93.0623299,20.7286967 L97.7934053,20.6745428 Z M89.1904454,15.5042462 C110.597008,15.5042462 123.930583,16.6382101 126.597021,17.5681633 C123.930583,18.4976495 110.597008,19.6320803 89.1904454,19.6320803 C67.7838831,19.6320803 54.4507687,18.4976495 51.7838695,17.5681633 C54.4507687,16.6382101 67.7843436,15.5042462 89.1904454,15.5042462 L89.1904454,15.5042462 Z M124.587638,15.9874297 C122.633508,15.6713763 119.857483,15.3926705 116.331854,15.1508454 C109.080761,14.6489881 99.4556129,14.3884892 89.2088632,14.3884892 C78.9621136,14.3884892 69.3365047,14.6676619 62.0854122,15.1508454 C58.5399834,15.3926705 55.7658005,15.6713763 53.829628,15.9874297 C51.2727753,16.3968518 50.3597122,16.8058071 50.3597122,17.5494895 L50.3597122,29.9325249 C50.3597122,30.6766741 51.2732357,31.0846957 53.829628,31.4945847 C55.7842183,31.8111049 58.560243,32.0893439 62.0854122,32.3316359 C69.3365047,32.8330263 78.9621136,33.0935252 89.2088632,33.0935252 C99.4556129,33.0935252 109.080761,32.8148194 116.331854,32.3316359 C119.875441,32.0893439 122.651926,31.8111049 124.587638,31.4945847 C127.144951,31.0856294 128.057554,30.6766741 128.057554,29.9325249 L128.057554,17.5494895 C128.057554,16.8244809 127.144951,16.3968518 124.587638,15.9874297 L124.587638,15.9874297 Z" id="Fill-34" fill="#1A1A1A"></path>
                    <path d="M65.4333205,43.1654676 L65.4333205,43.1654676 C65.0510575,43.1625314 64.7442108,42.9339381 64.7482407,42.6546859 L64.7482407,42.6488245 L64.816173,40.7643951 C64.8345953,40.4880736 65.1558344,40.274971 65.5340675,40.2883684 C65.9053923,40.3013472 66.1943923,40.5274284 66.1869082,40.798726 L66.1178246,42.683574 C66.1063106,42.9527782 65.8029181,43.1667181 65.4333205,43.1654676" id="Fill-36" fill="#FFC600"></path>
                    <path d="M67.7496491,15.9271749 C66.7844787,14.5551623 66.3657177,12.5607602 65.14525,11.4266794 C64.958828,9.50852579 64.2884431,7.66937657 63.1960832,6.08469505 C56.984922,-2.78722482 38.4069975,-0.409283887 21.7222214,11.3908518 C5.03790444,23.1905282 -3.46817689,39.9477315 2.76135107,48.82057 C2.98221072,49.1375063 3.21914125,49.4425001 3.47168347,49.735092 C4.23941184,52.908589 5.53885639,55.9272925 7.31491698,58.6630499 C13.5260782,67.5358885 32.1044619,65.1570289 48.789238,53.3578118 C65.4730958,41.5581354 73.9608104,24.8000135 67.7496491,15.9271749" id="Fill-38" fill="#FFC600"></path>
                    <path d="M56.1151079,32.1870863 L44.2492183,0.71942446 C37.8573562,1.88737011 30.6879361,4.74998198 23.7410072,9.20237399 L37.7811797,46.7625899 C39.9791516,45.5529647 42.1125592,44.232041 44.1735062,42.8043992 C48.5634116,39.7443816 52.5719698,36.1810024 56.1151079,32.1870863" id="Fill-40" fill="#FFFFFF"></path>
                    <path d="M16.8345021,53.9568345 C19.9094447,53.7613404 22.9512893,53.2006781 25.8992806,52.2859132 L13.9567875,17.2661871 C11.1824475,19.9238003 8.67561215,22.8580562 6.47482014,26.0260751 L16.8345021,53.9568345 Z" id="Fill-42" fill="#FFFFFF"></path>
                    <path d="M55.7877037,22.0878511 C52.639026,27.5286959 47.2400404,33.0791983 40.5957029,37.7204564 C33.9518269,42.3617145 26.8857585,45.5445265 20.6626905,46.6726291 C15.4090498,47.6184259 11.3463143,46.9997743 9.02171899,44.924961 C6.31276723,38.1741648 13.7618078,26.2365638 26.6841213,17.1925529 C38.1968202,9.13089139 50.4237854,5.90969927 56.8295727,8.71236487 C57.0312099,8.93076626 57.2143906,9.14916766 57.3791148,9.36756905 C59.430554,12.2602453 58.8616326,16.7735695 55.7867809,22.0873942 L55.7877037,22.0878511 Z M16.2151371,48.2014388 C17.7756336,48.1923007 19.331516,48.0396939 20.8638663,47.7463598 C27.233202,46.5999809 34.4630717,43.3609694 41.2361432,38.6114245 C48.0082919,33.8801557 53.517555,28.2021764 56.757131,22.6333977 C60.0700715,16.937599 60.6191521,12.0062052 58.2945568,8.72927041 C55.970423,5.45233568 51.1195952,4.30687062 44.6035304,5.49025893 C38.2341946,6.6366378 31.0047863,9.87564928 24.2317148,14.6251943 C17.4591047,19.3569199 11.950303,25.0344423 8.71072708,30.603221 C5.39732518,36.2990197 4.84870593,41.2304136 7.17283981,44.5068914 C8.89390778,46.9271261 12.0236676,48.2014388 16.2151371,48.2014388 L16.2151371,48.2014388 Z" id="Fill-44" fill="#000000"></path>
                    <g id="Group-48">
                        <mask id="mask-6" fill="white">
                            <use xlink:href="#path-5"></use>
                        </mask>
                        <g id="Clip-47"></g>
                        <path d="M64.6456218,37.8591639 L60.6118088,28.2232903 C61.4613977,26.9706131 62.245776,25.6754024 62.9603186,24.3426891 L64.5753237,28.2045391 L67.0149435,34.0517384 C66.3170504,35.3089892 65.5285098,36.5840766 64.6474717,37.8591639 L64.6456218,37.8591639 Z M57.4909455,45.9464558 L53.6402775,36.4926069 C54.7039979,35.4361321 55.7316444,34.3618207 56.6852929,33.2865946 L60.6118088,42.8319132 C59.6391984,43.888388 58.5939774,44.9265689 57.4927955,45.9464558 L57.4909455,45.9464558 Z M47.6408941,53.5068823 C46.9804625,53.9258135 46.3015313,54.326908 45.6415622,54.7275452 L41.8801542,45.7475092 C42.8527646,45.1282595 43.8249126,44.4902585 44.7790236,43.8344209 L48.5584687,52.9242205 C48.2462898,53.123167 47.9345735,53.3234856 47.6408941,53.5068823 L47.6408941,53.5068823 Z M24.03,62.4677097 L20.5257348,54.1618052 C21.6264543,53.9971598 22.7276362,53.7790046 23.8463926,53.5219748 L27.4056937,61.9188916 C26.5981912,62.0830797 25.7911511,62.2289738 24.984111,62.3378227 C24.6534327,62.3945339 24.3417163,62.4315791 24.03,62.468167 L24.03,62.4677097 Z M19.35148,62.7224527 L15.9041007,54.5619851 C16.9863207,54.5436912 18.0875026,54.4709728 19.243258,54.3433726 L22.7470606,62.6136038 C21.5714183,62.7046161 20.4336999,62.741204 19.35148,62.7224527 L19.35148,62.7224527 Z M4.69341213,51.5384548 C5.25302158,51.9450375 5.84176773,52.3104589 6.45456321,52.6315175 L9.97779034,60.3552174 C9.52825283,60.0826377 9.09906475,59.778501 8.693926,59.443722 L4.69341213,51.5384548 Z M11.719517,61.2484188 L8.14264132,53.3605308 C8.95476876,53.6596367 9.78909558,53.8970005 10.637297,54.0707929 L14.1780987,62.0492359 C13.3359096,61.8566922 12.5131449,61.5882287 11.719517,61.2479615 L11.719517,61.2484188 Z M15.6455704,62.3766973 L12.0682323,54.3438299 C12.8951593,54.458167 13.7285612,54.5249399 14.5633505,54.5441485 L17.9945427,62.6497343 C17.2073895,62.598054 16.4234738,62.5070416 15.6455704,62.3766973 L15.6455704,62.3766973 Z M28.5989106,61.6865586 L25.0377595,53.2521393 C26.0469065,52.9973962 27.0745529,52.6882287 28.1012744,52.3415586 L31.7156115,60.8669902 C30.6713155,61.1560344 29.6251696,61.4478227 28.5979856,61.6847292 L28.5989106,61.6865586 Z M32.8917163,60.4828176 L29.2588798,51.9395493 C30.3050257,51.5750427 31.3687461,51.1556542 32.4329291,50.7005925 L36.1023022,59.3522523 C35.0371942,59.7720982 33.9549743,60.1544414 32.8907914,60.4828176 L32.8917163,60.4828176 Z M37.2400206,58.8981053 L33.552148,50.2272369 C34.6528674,49.7355874 35.7355498,49.2068926 36.8177698,48.6603613 L40.4866804,57.4771238 C39.4035355,57.9687734 38.3213155,58.4604229 37.2400206,58.8981053 L37.2400206,58.8981053 Z M41.5869373,56.9296778 L37.9175642,48.0767847 C38.8901747,47.5499193 39.8627852,47.0020159 40.8344707,46.4198114 L44.5958787,55.3628022 C43.5867318,55.8924116 42.5775848,56.420649 41.5869373,56.9296778 L41.5869373,56.9296778 Z M49.5671531,52.2500889 L45.8066701,43.1790406 C45.8066701,43.1607467 45.7881706,43.141538 45.7687461,43.1246161 C46.7774306,42.3956028 47.7500411,41.6487528 48.7041521,40.8836089 L52.5381706,50.0996367 L52.5381706,50.1174733 C51.5849846,50.8474013 50.5947996,51.5581208 49.5671531,52.2491742 L49.5671531,52.2500889 Z M53.5302055,49.3358649 L49.6776876,40.0640406 C50.704409,39.1895904 51.7140185,38.3155976 52.667667,37.405017 L56.502148,46.822278 C55.5665365,47.6775195 54.575889,48.5149245 53.5302055,49.3349502 L53.5302055,49.3358649 Z M61.5104214,41.8129409 L57.5663309,32.2301197 C58.3548715,31.3012451 59.0888386,30.3357826 59.7858068,29.3886141 L63.8038952,39.0066511 C63.0884275,39.9533623 62.3193114,40.8826942 61.5104214,41.8120262 L61.5104214,41.8129409 Z M4.10605344,31.3556696 C7.66720452,24.3971136 14.0698767,17.4760601 22.121778,11.8474733 C31.9736793,4.96209301 42.5054368,1.3188556 50.668335,1.3188556 C56.1719322,1.3188556 60.6118088,2.97628623 63.0514286,6.41920504 C65.9137616,10.443871 65.5285098,16.2009728 62.5931038,22.376091 C62.4654573,22.4858546 62.3919219,22.6450118 62.3909969,22.8128587 C59.0518397,29.6072266 52.64963,36.8571136 44.1000925,42.8319132 C27.5888386,54.3804178 9.24336074,56.8029923 3.17044193,48.259724 C2.96833505,47.9683931 2.78519013,47.6770622 2.62008222,47.3852739 L2.51001028,47.1671187 C2.49197328,47.126872 2.46746146,47.0898268 2.43647482,47.0578124 C0.3636074,43.0500683 0.932004111,37.5312451 4.10605344,31.3556696 L4.10605344,31.3556696 Z M67.7313361,32.613835 L65.6950051,27.7316408 L63.6753237,22.8860344 C64.4402775,21.2921752 65.0600103,19.6338299 65.5285098,17.9311218 L67.014481,21.4293798 L69.4726002,27.3310036 C69.4860123,27.3790252 69.5114491,27.4229306 69.5461357,27.4586038 C69.1377595,29.2390612 68.5286639,30.9682955 67.7299486,32.6129203 L67.7313361,32.613835 Z M69.8962384,25.1453356 L68.1332374,20.9551095 L65.968335,15.8543027 C66.1177184,14.9876274 66.1972662,14.1104332 66.2069784,13.2309522 L69.7112436,21.609575 C69.9313875,22.7748988 69.9938232,23.9635473 69.8962384,25.1453356 L69.8962384,25.1453356 Z M70.9039979,21.2830283 C70.8993731,21.2441536 70.8864234,21.2071084 70.866074,21.173722 L65.6570812,8.69588541 C65.6122199,8.60578777 65.5497842,8.52529445 65.4730113,8.45943628 C65.1261459,7.47567986 64.6446968,6.54406115 64.0420761,5.69064902 C60.8684892,1.22738592 54.6665365,-0.666493834 46.5406372,0.37168705 C38.5594964,1.391574 29.6251696,5.1075298 21.4243474,10.8454229 C13.2054882,16.583316 6.67470709,23.6690149 3.0238335,30.7913016 C-0.423545735,37.5124938 -0.920719424,43.5238813 1.5193628,47.9318052 L7.64685509,60.1192256 C7.68524152,60.193316 7.73472765,60.2605462 7.793926,60.3195442 C10.7487564,62.7782492 15.0036382,63.9627816 19.9924872,63.9627816 C21.1292806,63.9627816 22.3224974,63.8896059 23.5332888,63.7807569 C23.5712127,63.7807569 23.6068243,63.7985935 23.6618602,63.7985935 C23.7441829,63.7981362 23.8255807,63.7793849 23.9005036,63.7441691 L23.9185406,63.7441691 C31.4038952,62.9063068 40.0630421,59.7730128 48.3189003,54.5455206 C55.675221,49.9002328 61.9678212,44.0169029 66.0589825,37.9872215 C70.1330319,31.9392461 71.8576465,26.0184137 70.9039979,21.2830283 L70.9039979,21.2830283 Z" id="Fill-46" fill="#1A1A1A" mask="url(#mask-6)"></path>
                    </g>
                </g>
            </g>
        </g>
    </g>
</svg>