<?xml version="1.0" encoding="UTF-8"?>
<svg width="97px" height="100px" viewBox="0 0 97 100" version="1.1" xmlns="http://www.w3.org/2000/svg" xmlns:xlink="http://www.w3.org/1999/xlink">
    <!-- Generator: Sketch 60.1 (88133) - https://sketch.com -->
    <title>icon-setup-profile</title>
    <desc>Created with Sketch.</desc>
    <defs>
        <polygon id="path-1" points="0 0.597122302 81.9436265 0.597122302 81.9436265 91.4846888 0 91.4846888"></polygon>
        <polygon id="path-3" points="0.572704392 0.0795357985 9.44920901 0.0795357985 9.44920901 9.35251799 0.572704392 9.35251799"></polygon>
        <polygon id="path-5" points="0 0.0792370755 93.2894107 0.0792370755 93.2894107 53.237245 0 53.237245"></polygon>
    </defs>
    <g id="Page-1" stroke="none" stroke-width="1" fill="none" fill-rule="evenodd">
        <g id="desktop-landing" transform="translate(-672.000000, -1411.000000)">
            <g id="icon-setup-profile" transform="translate(669.000000, 1411.000000)">
                <g id="Group-9" transform="translate(10.791367, 0.000000)">
                    <g id="Group-3" transform="translate(0.000000, 0.122302)">
                        <mask id="mask-2" fill="white">
                            <use xlink:href="#path-1"></use>
                        </mask>
                        <g id="Clip-2"></g>
                        <path d="M57.1436691,0.675467626 C52.7019424,1.17402878 47.0530216,3.0452518 44.7882734,9.95244604 C41.4616547,20.104964 34.7264029,21.1596403 27.2307194,19.9488489 C25.6343165,19.6934532 23.9789209,19.6589209 22.301223,19.8848201 C13.0465468,21.1243885 -0.000215827338,32.4294245 -0.000215827338,46.2207914 C-0.000215827338,59.6064029 2.70553957,66.9358993 6.79330935,73.6869784 C11.8443885,82.0308633 21.0933094,92.6351799 29.8436691,91.3833813 C35.2897122,90.6013669 38.958777,87.1934532 41.9954676,83.0502878 C48.3357554,74.3934532 52.0400719,72.4121583 62.735036,71.4265468 C62.9674101,71.4035252 63.2055396,71.3805036 63.4379137,71.3452518 C72.6925899,70.1056835 80.6702878,60.5970504 80.8264029,51.2790647 C80.9954676,41.2143165 83.4573381,28.8308633 80.4839568,19.0963309 C77.401223,9.00208633 66.4105755,-0.361223022 57.1436691,0.675467626" id="Fill-1" fill="#FFC600" mask="url(#mask-2)"></path>
                    </g>
                    <path d="M64.9818705,94.5014388 C60.9005755,98.1057554 52.7948201,97.7172662 49.1840288,93.6438849 C45.572518,89.5705036 47.6566906,83.3294964 51.7444604,79.7251799 C55.8257554,76.1215827 62.5379856,74.5971223 66.1494964,78.6705036 C69.7602878,82.7503597 69.0638849,90.8971223 64.9818705,94.5014388" id="Fill-4" fill="#FFC600"></path>
                    <g id="Group-8" transform="translate(35.971223, 90.050360)">
                        <mask id="mask-4" fill="white">
                            <use xlink:href="#path-3"></use>
                        </mask>
                        <g id="Clip-7"></g>
                        <path d="M8.71251799,7.38316547 C7.37151079,9.31841727 3.92834532,9.99107914 1.9894964,8.65798561 C0.0499280576,7.31913669 0.276546763,4.48604317 1.61755396,2.55079137 C2.95856115,0.614820144 5.61827338,-0.717553957 7.5571223,0.621294964 C9.50244604,1.95366906 10.0535252,5.44791367 8.71251799,7.38316547" id="Fill-6" fill="#FFC600" mask="url(#mask-4)"></path>
                    </g>
                </g>
                <g id="Group-8" transform="translate(51.438849, 46.402878) rotate(-9.000000) translate(-51.438849, -46.402878) translate(4.316547, 19.424460)">
                    <polygon id="Fill-1" fill="#FFC600" points="3.93529471 2.82556893 92.4403728 1.25686755 90.2672385 51.9039307 1.79289076 53.0554287"></polygon>
                    <g id="Group-7" transform="translate(0.354042, 0.537443)">
                        <path d="M74.7755428,1.2578473 L3.40294484,2.50583124 L2.24863629,28.8987932 C31.1454229,32.5292544 60.9221775,12.311832 74.7755428,1.2578473" id="Fill-2" fill="#FFFFFF"></path>
                        <g id="Group-6">
                            <mask id="mask-6" fill="white">
                                <use xlink:href="#path-5"></use>
                            </mask>
                            <g id="Clip-5"></g>
                            <path d="M63.7079808,20.7970911 L71.7365979,15.602523 C72.3048153,15.2719558 72.9162622,14.9030082 73.525215,14.5761553 C80.2710823,10.8969963 85.4228649,9.54129943 87.9625931,10.7253159 C89.2569816,11.2758485 89.9498993,12.5692287 90.0908106,14.6066946 C90.0845755,14.6888205 90.1236483,14.7329786 90.1169976,14.8155173 L88.6717218,47.8466477 L63.7079808,20.7970911 Z M28.3853909,22.6480196 L42.297781,32.9868072 C42.485247,33.1312498 42.7101231,33.2195661 42.9466379,33.2422642 C43.196454,33.2558831 43.4462702,33.2034711 43.6690679,33.0891551 L61.3295316,21.8572996 L86.9857746,49.6154503 L3.9848793,50.7066109 L28.3853909,22.6480196 Z M3.69765308,24.6186292 C3.74088249,24.5010117 3.76457554,24.376791 3.76706954,24.2513323 L3.84230536,22.1470102 C3.93292086,20.8688997 4.09794085,19.5973922 4.33611831,18.3386783 C4.73765308,16.3412437 5.74190568,12.9819218 7.8867498,12.7681468 C11.6709864,12.3864057 19.1268137,16.455147 26.3216019,21.2081334 L2.60735731,48.4941632 L3.69765308,24.6186292 Z M43.151562,30.4813474 C41.261522,28.9762556 35.743952,24.6376131 29.6003869,20.4161753 C29.2807386,20.2271619 29.0063981,19.999768 28.6863341,19.8107546 L7.02590248,3.72686632 L87.6761982,2.29399587 L43.151562,30.4813474 Z M2.64144205,1.54000558 L2.55124221,1.61594111 C2.32179376,1.83920808 2.18088249,2.13717249 2.15469544,2.45535888 L0.0110983213,51.9434521 L-0.000135454792,52.066022 C-0.000135454792,52.217893 0.046430056,52.3656372 0.134967226,52.4894451 L0.172377298,52.534016 C0.21145004,52.5781741 0.208540368,52.6194434 0.246366107,52.664427 C0.323680256,52.7539814 0.358596323,52.8381708 0.435494804,52.9260744 C0.576821743,53.0643266 0.761378098,53.1505794 0.959235811,53.1720395 C1.0423693,53.1774045 1.08144205,53.2219753 1.16332854,53.2285784 L1.28802878,53.237245 L89.8451511,52.102339 L89.9282846,52.1089421 L90.0114181,52.1151325 C90.0567258,52.0775774 90.1016179,52.0391969 90.1423533,52.0424985 C90.2055348,52.0367208 90.2653909,52.0123719 90.314024,51.9719279 L90.3555907,51.9719279 C90.479044,51.9277698 90.5962622,51.8675166 90.7030887,51.7924064 C91.0106827,51.5357113 91.1657266,51.1428275 91.1162622,50.7474675 L93.2611063,1.26019965 C93.3001791,1.09718588 93.2989321,0.926330935 93.256534,0.76331716 C93.2187082,0.50909821 93.1068937,0.27097429 92.933976,0.0790719982 L2.64144205,1.54000558 Z" id="Fill-4" fill="#1A1A1A" mask="url(#mask-6)"></path>
                        </g>
                    </g>
                </g>
            </g>
        </g>
    </g>
</svg>