<?xml version="1.0" encoding="UTF-8"?>
<svg width="556px" height="405px" viewBox="0 0 556 405" version="1.1" xmlns="http://www.w3.org/2000/svg" xmlns:xlink="http://www.w3.org/1999/xlink">
    <!-- Generator: Sketch 60.1 (88133) - https://sketch.com -->
    <title>Group 61</title>
    <desc>Created with Sketch.</desc>
    <g id="Page-1" stroke="none" stroke-width="1" fill="none" fill-rule="evenodd">
        <g id="desktop-landing" transform="translate(0.000000, -4861.000000)">
            <g id="Group-61" transform="translate(-4.000000, 4861.000000)">
                <path d="M4,4 C3.20899612,5.33333333 3.20899612,136.666667 4,398 L153.5,203 C54.6243372,69 4.79100388,2.66666667 4,4 Z" id="Path-9" fill="#F9F9FB"></path>
                <path d="M2,13.7892828 L153,200.824211 C256.786918,70.9414035 306.786918,6 303,6 C299.213082,6 199.546415,6.51044667 4,7.53134002 L2,13.7892828 Z" id="Path-7" fill="#FFC600"></path>
                <path d="M2,210.789283 L153,397.824211 C256.786918,267.941404 306.786918,203 303,203 C299.213082,203 199.546415,203.510447 4,204.53134 L2,210.789283 Z" id="Path-7" fill="#FFC600" transform="translate(152.599983, 300.412105) rotate(-180.000000) translate(-152.599983, -300.412105) "></path>
                <path d="M149,203 L189.437782,152 C185.237389,219.333773 183.114327,251.837282 183.068596,249.510526 C183.022865,247.183771 171.666667,231.680262 149,203 Z" id="Path-8" fill="#FFC600"></path>
                <g id="taxi-waiting" fill-rule="nonzero">
                    <path d="M122,161.67448 C122,161.67448 130.681199,158.736647 137.111717,149.759935 C143.542234,140.783222 148.525886,136.604971 152.06267,137.029324 C161.386921,138.139173 172.158038,166.864652 181,167.71336 L153.509537,203 L122,161.67448 Z" id="Path" fill="#1A1A1A"></path>
                    <path d="M154.755686,204.505292 L290.793732,30.5772098 C291.119884,30.1529154 291.054654,29.5327927 290.630656,29.2064124 C290.206658,28.8800321 289.586969,28.9453081 289.260817,29.3696026 L153.483692,202.906028 L17.739183,29.3696026 C17.4130309,28.9453081 16.7933419,28.8800321 16.3693441,29.2064124 C15.9453464,29.5327927 15.8801159,30.1529154 16.2062681,30.5772098 L152.244314,204.505292 L16.2062681,378.433374 C15.8801159,378.857669 15.9453464,379.477791 16.3693441,379.804172 C16.5324202,379.934724 16.7607266,380 16.9564179,380 C17.2499548,380 17.5434917,379.869448 17.739183,379.608344 L153.483692,206.071918 L289.228202,379.608344 C289.423893,379.869448 289.71743,380 290.010967,380 C290.206658,380 290.434965,379.934724 290.598041,379.804172 C291.022038,379.477791 291.087269,378.857669 290.761117,378.433374 L154.755686,204.505292 Z" id="Path" fill="#FFFFFF"></path>
                    <path d="M58,371.86951 C58,371.86951 60.4445392,366.030101 67.6151877,361.006252 C74.7858362,355.982403 81.9564846,348.479252 85.052901,341.171835 C88.1493174,333.864418 97.112628,315.302274 105.912969,307.799123 C114.713311,300.295971 123.83959,292.79282 127.913823,282.973479 C131.988055,273.154137 146.818259,244.805274 153.825939,245 C160.833618,245.196743 157.900171,255.864267 164.581911,259.191751 C171.263652,262.519236 176.478669,271.914486 180.063993,280.037463 C183.649317,288.16044 191.145904,304.667373 199.131399,307.146675 C207.116894,309.625977 213.961604,320.913326 219.991468,334.255887 C226.021331,347.598447 238.406997,350.110372 249,372 L58,371.86951 Z" id="Path" fill="#1A1A1A"></path>
                    <path d="M70.056724,97 C69.7672205,97 69.477717,96.8694394 69.2847147,96.6083183 L18.2034338,30.5773117 C17.8817632,30.1529898 17.9460973,29.5328271 18.364269,29.2064257 C18.7824407,28.8800243 19.3936148,28.9453046 19.7152853,29.3696264 L70.7965662,95.4332732 C71.1182368,95.857595 71.0539027,96.4777577 70.635731,96.8041591 C70.4748957,96.9347197 70.2818934,97 70.056724,97 Z" id="Path" fill="#FFC600"></path>
                    <path d="M153.985507,215 C153.927536,215 153.84058,215 153.782609,214.966942 C153.724638,214.933884 153.666667,214.933884 153.608696,214.867769 C153.550725,214.834711 153.492754,214.801653 153.434783,214.735537 C153.376812,214.669421 153.318841,214.636364 153.289855,214.570248 C153.086957,214.305785 153,213.909091 153,213.512397 C153,213.115702 153.115942,212.752066 153.289855,212.454545 C153.347826,212.38843 153.376812,212.322314 153.434783,212.256198 C153.492754,212.190083 153.550725,212.157025 153.608696,212.123967 C153.666667,212.090909 153.724638,212.057851 153.782609,212.024793 C153.927536,211.991736 154.043478,211.991736 154.188406,212.024793 C154.246377,212.057851 154.333333,212.090909 154.391304,212.123967 C154.449275,212.157025 154.507246,212.22314 154.565217,212.256198 C154.623188,212.322314 154.681159,212.38843 154.710145,212.454545 C154.913043,212.719008 155,213.115702 155,213.512397 C155,213.909091 154.884058,214.272727 154.710145,214.570248 C154.652174,214.636364 154.623188,214.702479 154.565217,214.735537 C154.507246,214.801653 154.449275,214.834711 154.391304,214.867769 C154.333333,214.900826 154.275362,214.933884 154.188406,214.966942 C154.130435,215 154.072464,215 153.985507,215 Z" id="Path" fill="#1A1A1A"></path>
                    <path d="M154,228 C153.433333,228 153,227.480916 153,226.839695 L153,225.160305 C153,224.519084 153.433333,224 154,224 C154.566667,224 155,224.519084 155,225.160305 L155,226.839695 C155,227.480916 154.566667,228 154,228 Z" id="Path" fill="#1A1A1A"></path>
                    <path d="M154,239 C153.433333,239 153,238.5 153,237.882353 L153,234.117647 C153,233.5 153.433333,233 154,233 C154.566667,233 155,233.5 155,234.117647 L155,237.882353 C155,238.5 154.566667,239 154,239 Z" id="Path" fill="#1A1A1A"></path>
                    <path d="M284.352339,370 L18.5823453,370 C8.3277646,370 0,378.47079 0,388.901489 L0,397.870561 C0,398.501718 0.489868506,399 1.11036861,399 L301.889631,399 C302.510131,399 303,398.501718 303,397.870561 L303,388.901489 C302.967342,378.504009 294.60692,370 284.352339,370 Z" id="Path" fill="#1A1A1A"></path>
                    <g id="Group" transform="translate(1.000000, 368.000000)" fill="#FFC600">
                        <path d="M193.900431,31.1 C181.34338,24.3333333 159.882239,16.6 129.027772,18.1333333 C92.7264801,19.9666667 72.993972,26.9666667 64.4812702,30.9666667 C63.9920344,31.2 63.7637244,31.8 63.9920344,32.3 C64.2203445,32.8 64.8074273,33.0333333 65.2966631,32.8 C73.7115178,28.8333333 93.1831001,21.9666667 129.125619,20.1333333 C159.556082,18.6 180.65845,26.2 193.019806,32.8666667 C193.150269,32.9333333 193.313348,32.9666667 193.476426,32.9666667 C193.835199,32.9666667 194.161356,32.7666667 194.357051,32.4333333 C194.552745,31.9666667 194.389666,31.3333333 193.900431,31.1 Z" id="Path"></path>
                        <path d="M302.706459,14.4333333 C302.445533,13.9333333 301.85845,13.7666667 301.369214,14.0333333 L300.390743,14.5666667 C285.322282,22.8 269.764586,31.3333333 247.748977,22.2333333 C226.646609,13.5333333 218.49268,11.6666667 193.313348,9.73333333 C186.040043,9.16666667 180.854144,6.66666667 177.755651,2.3 L248.466523,2.3 C249.02099,2.3 249.444995,1.86666667 249.444995,1.3 C249.444995,0.733333333 249.02099,0.3 248.466523,0.3 L59.3606028,0.3 C58.8061356,0.3 58.3821313,0.733333333 58.3821313,1.3 C58.3821313,1.86666667 58.8061356,2.3 59.3606028,2.3 L109.719268,2.3 C106.425081,10.8333333 89.6279871,15.9333333 60.9913886,17.1333333 C44.2921421,17.8333333 23.646394,17.1666667 1.20678149,15.2666667 C0.652314316,15.2333333 0.195694295,15.6333333 0.161179859,16.1666667 C0.130462863,16.7333333 0.521851453,17.2 1.04370291,17.2333333 C17.677718,18.6666667 33.3658773,19.3666667 47.1949408,19.3666667 C52.0546825,19.3666667 56.6861141,19.2666667 61.05662,19.1 C91.6827772,17.8333333 108.773412,12.1666667 111.806674,2.26666667 L127.396986,2.26666667 C127.36437,3.16666667 127.59268,3.96666667 128.081916,4.66666667 C129.941012,7.3 135.159526,7.93333333 143.05253,8.83333333 C151.793541,9.86666667 163.763509,11.2666667 175.505167,16.3666667 C186.3662,21.1 198.205705,22.4666667 208.610118,23.7 C220.906243,25.1333333 230.593111,26.3 233.398062,32.1666667 C233.561141,32.5333333 233.919914,32.7333333 234.278687,32.7333333 C234.40915,32.7333333 234.572228,32.7 234.702691,32.6333333 C235.191927,32.4 235.387621,31.8 235.159311,31.3 C231.89774,24.4333333 221.721636,23.2333333 208.838428,21.7 C198.564478,20.5 186.888052,19.1 176.287944,14.5 C164.285361,9.3 152.152314,7.86666667 143.313455,6.83333333 C136.464155,6.03333333 131.082562,5.4 129.712702,3.46666667 C129.549623,3.23333333 129.353929,2.86666667 129.386545,2.23333333 L175.472551,2.23333333 C178.766738,7.83333333 184.735414,11 193.215501,11.6333333 C218.133907,13.5333333 226.189989,15.4 247.064047,24 C253.587191,26.7 259.947255,28.0333333 266.30732,28.0333333 C269.927664,28.0333333 273.548009,27.6 277.200969,26.7333333 C286.007212,24.6333333 293.834984,20.3666667 301.369214,16.2333333 L302.347686,15.7 C302.77169,15.5 302.967384,14.9 302.706459,14.4333333 Z" id="Path"></path>
                        <path d="M247.520667,12.9 C247.520667,16.7333333 256.555221,18.7333333 265.459311,18.7333333 C274.363402,18.7333333 283.397955,16.7333333 283.397955,12.9 C283.397955,9.06666667 274.363402,7.06666667 265.459311,7.06666667 C256.522605,7.06666667 247.520667,9.06666667 247.520667,12.9 Z M265.459311,9.06666667 C275.798493,9.06666667 281.441012,11.6 281.441012,12.9 C281.441012,14.2 275.798493,16.7333333 265.459311,16.7333333 C255.120129,16.7333333 249.47761,14.2 249.47761,12.9 C249.47761,11.6 255.120129,9.06666667 265.459311,9.06666667 Z" id="Shape"></path>
                    </g>
                    <path d="M195.898785,6 L166.101215,6 C165.48583,6 165,5.55882353 165,5 C165,4.44117647 165.48583,4 166.101215,4 L195.898785,4 C196.51417,4 197,4.44117647 197,5 C197,5.55882353 196.51417,6 195.898785,6 Z" id="Path" fill="#FFC600"></path>
                    <g id="Group" transform="translate(189.000000, 126.000000)">
                        <path d="M49.770676,194.451579 C54.9171203,187.370526 58.2720808,175.982105 58.2720808,163.157895 C58.2720808,150.496842 55.0148376,139.238947 49.9661106,132.157895 C49.9661106,132.157895 41.9858648,147.168421 42.3115891,165.931579 C42.6373134,184.694737 49.770676,194.451579 49.770676,194.451579 Z" id="Path" fill="#FFFFFF"></path>
                        <path d="M200.190167,74.8242105 L200.190167,74.8242105 C195.108867,75.9336842 191.200176,79.98 190.255575,85.1031579 L175.760843,163.157895 L183.252502,159.796842 L196.183758,80.1757895 L200.190167,74.8242105 Z" id="Path" fill="#FFFFFF"></path>
                        <path d="M42.148727,224.668421 C52.4741879,219.349474 81.6590869,207.634737 81.6590869,207.634737 L72.3433714,206.884211 C51.2690079,202.74 41.9532924,192.297895 41.4972783,167.073684 C41.0738367,141.849474 55.6011414,121.161053 55.6011414,121.161053 C55.6011414,121.161053 74.3954346,115.581053 94.9486392,123.869474 C113.775505,131.472632 121.169447,133.92 126.739333,144.851579 C128.17252,143.611579 124.850132,150.235789 116.185865,149.322105 L114.133802,153.890526 C114.133802,153.890526 137.42309,156.468421 137.260228,155.815789 C137.097366,155.163158 144.002722,156.631579 144.002722,156.631579 L151.070939,139.761053 L156.999122,128.568421 L160.256365,91.0421053 C160.256365,91.0421053 146.315364,90.7157895 140.550044,81.6768421 C134.784723,72.6378947 133.384109,63.6315789 133.384109,63.6315789 C133.384109,63.6315789 114.91554,64.7736842 102.342581,70.8105263 C89.73705,76.8473684 82.1476734,81.5789474 70.5193152,89.3126316 C58.890957,97.0463158 47.7186128,111.502105 37.0674276,125.533684 C26.4162423,139.565263 15.4719052,167.073684 12.8661106,176.112632 C10.2603161,185.151579 3.09438104,211.126316 1.30289728,234.294737 C1.30289728,234.294737 2.77555756e-16,251.915789 0.651448639,255.015789 C0.618876207,255.015789 15.7650571,238.210526 42.148727,224.668421 Z" id="Path" fill="#FFFFFF"></path>
                        <path d="M151.168657,119.986316 C151.005795,119.986316 150.842932,119.953684 150.68007,119.855789 C146.966813,117.702105 144.751888,113.655789 144.849605,109.381053 C144.947322,106.248421 146.250219,103.344211 148.53029,101.190526 C150.81036,99.0368421 153.807024,97.8947368 156.901405,97.9926316 C157.455136,97.9926316 157.878578,98.4494737 157.846005,99.0042105 C157.846005,99.5263158 157.389991,99.9505263 156.868832,99.9505263 C156.868832,99.9505263 156.83626,99.9505263 156.83626,99.9505263 C154.230465,99.8852632 151.75496,100.831579 149.833187,102.626316 C147.943986,104.421053 146.836523,106.835789 146.771378,109.478947 C146.673661,113.068421 148.53029,116.396842 151.624671,118.224211 C152.080685,118.485263 152.243547,119.105263 151.982968,119.562105 C151.852678,119.790526 151.526953,119.986316 151.168657,119.986316 Z" id="Path" fill="#FFC600"></path>
                        <path d="M110.648551,92.4126316 C100.909394,92.4126316 92.8640035,84.7768421 92.3428446,75.02 C92.3102722,74.4652632 92.7337138,74.0084211 93.2548727,73.9757895 C93.808604,73.9431579 94.2646181,74.3673684 94.2971905,74.8894737 C94.7532046,83.6021053 101.91914,90.4221053 110.648551,90.4221053 C119.671115,90.4221053 126.999912,83.08 126.999912,74.0410526 C126.999912,70.7126316 125.990167,67.4821053 124.133538,64.7410526 C123.840386,64.2842105 123.938104,63.6968421 124.394118,63.3705263 C124.850132,63.0768421 125.436435,63.1747368 125.76216,63.6315789 C127.879368,66.6989474 128.986831,70.2884211 128.986831,74.0410526 C128.954258,84.1568421 120.746005,92.4126316 110.648551,92.4126316 Z" id="Path" fill="#FFC600"></path>
                        <path d="M102.082002,126.675789 C101.52827,126.675789 101.104829,126.251579 101.104829,125.696842 C101.104829,115.972632 108.987357,108.075789 118.693942,108.075789 C126.478753,108.075789 133.253819,113.101053 135.533889,120.541053 C135.696752,121.063158 135.4036,121.617895 134.882441,121.748421 C134.361282,121.911579 133.80755,121.617895 133.677261,121.095789 C131.65777,114.471579 125.63187,110.001053 118.726514,110.001053 C110.09482,110.001053 103.091747,117.016842 103.091747,125.664211 C103.059175,126.218947 102.635733,126.675789 102.082002,126.675789 Z" id="Path" fill="#FFC600"></path>
                        <path d="M91.8542581,123.510526 C91.7565408,123.510526 91.691396,123.510526 91.5936787,123.477895 C91.0725198,123.347368 90.7793679,122.792632 90.9096576,122.270526 C91.2028095,121.226316 91.3330992,120.149474 91.3330992,119.072632 C91.3330992,112.448421 85.9586479,107.096842 79.3790167,107.096842 C72.766813,107.096842 67.4249342,112.481053 67.4249342,119.072632 C67.4249342,119.627368 67.0014925,120.051579 66.4477612,120.051579 C65.8940299,120.051579 65.4705882,119.627368 65.4705882,119.072632 C65.4705882,111.371579 71.7244952,105.138947 79.3790167,105.138947 C87.0661106,105.138947 93.2874451,111.404211 93.2874451,119.072632 C93.2874451,120.345263 93.124583,121.585263 92.7988586,122.792632 C92.6685689,123.249474 92.2776997,123.510526 91.8542581,123.510526 Z" id="Path" fill="#FFC600"></path>
                        <path d="M48.0443371,210.375789 C39.4126427,210.375789 32.3769974,203.327368 32.3769974,194.68 C32.3769974,188.349474 36.122827,182.671579 41.9532924,180.224211 C42.4418788,180.028421 43.0281826,180.256842 43.2236172,180.746316 C43.4190518,181.235789 43.1910448,181.823158 42.7024583,182.018947 C37.6211589,184.172632 34.3313433,189.132632 34.3313433,194.68 C34.3313433,202.250526 40.4875329,208.417895 48.0443371,208.417895 C52.63705,208.417895 56.8714662,206.133684 59.4446883,202.315789 C59.7378402,201.858947 60.3567164,201.761053 60.8127305,202.054737 C61.2687445,202.348421 61.3664618,202.968421 61.0733099,203.425263 C58.141791,207.765263 53.2559263,210.375789 48.0443371,210.375789 Z" id="Path" fill="#FFC600"></path>
                        <path d="M27.295698,234.36 C26.9374012,234.36 26.5791045,234.164211 26.4162423,233.805263 C22.6378402,225.908421 14.5598771,220.785263 5.83046532,220.785263 C5.01615452,220.785263 4.16927129,220.817895 3.35496049,220.915789 C2.83380158,220.981053 2.3452151,220.589474 2.28007024,220.034737 C2.21492537,219.512632 2.60579456,219.023158 3.1595259,218.957895 C4.03898156,218.86 4.95100966,218.827368 5.86303775,218.827368 C15.3416155,218.827368 24.1361721,224.374737 28.2077261,232.956842 C28.4357331,233.446316 28.2402985,234.033684 27.751712,234.262105 C27.5888499,234.36 27.4585601,234.36 27.295698,234.36 Z" id="Path" fill="#FFC600"></path>
                        <path d="M12.670676,188.349474 C11.8237928,188.349474 10.9769096,188.316842 10.1300263,188.218947 C9.60886743,188.153684 9.21799824,187.696842 9.25057068,187.142105 C9.31571554,186.62 9.80430202,186.228421 10.3254609,186.261053 C11.1071993,186.326316 11.8889377,186.391579 12.670676,186.391579 C25.0482002,186.391579 35.1456541,176.275789 35.1456541,163.875789 C35.1456541,156.370526 31.4323968,149.42 25.2436348,145.210526 C24.7876207,144.916842 24.6899034,144.296842 24.9830553,143.84 C25.2762072,143.383158 25.8950834,143.285263 26.3510975,143.578947 C33.0935909,148.147368 37.1325724,155.717895 37.1325724,163.875789 C37.1,177.352632 26.1556629,188.349474 12.670676,188.349474 Z" id="Path" fill="#FFC600"></path>
                        <path d="M340.023617,250.610526 L332.369096,249.109474 L179.115803,227.442105 C179.115803,227.442105 182.047322,223.558947 159.539772,245.095789 C137.032221,266.632632 120.257419,271.396842 120.257419,271.396842 L335.626339,272.114737 C340.903073,267.481053 340.577349,255.244211 340.023617,250.610526 Z" id="Path" fill="#FFC600"></path>
                        <path d="M170.125812,235.665263 L341.00079,254.558947 L340.023617,250.643158 L179.115803,227.474737 C177.291747,229.171579 172.145303,234.164211 170.125812,235.665263 Z" id="Path" fill="#FFFFFF"></path>
                        <path d="M370.283406,226.952632 C367.058736,224.962105 361.000263,228.225263 351.749693,236.937895 C350.283933,238.308421 348.883319,239.711579 347.547849,241.082105 C347.775856,240.527368 348.003863,239.972632 348.199298,239.417895 C349.632485,235.306316 349.925637,231.390526 348.948464,229.204211 C348.297015,227.703158 347.02669,226.952632 345.495786,227.213684 C343.54144,227.54 342.07568,229.530526 341.065935,233.283158 C340.316769,229.236842 338.916155,226.071579 336.994381,224.962105 C336.212643,224.505263 334.649166,224.015789 332.890255,225.68 C328.264969,230.02 334.942318,243.986316 337.743547,249.337895 L296.865145,243.464211 C296.8,243.464211 296.702283,243.464211 296.637138,243.464211 L179.246093,226.495789 C178.724934,226.430526 178.203775,226.789474 178.13863,227.311579 C178.106058,227.474737 178.13863,227.637895 178.171203,227.768421 C174.751097,231.88 169.018349,236.448421 165.565672,239.94 C144.849605,260.791579 124.263828,269.275789 119.215101,271.168421 L116.055575,271.168421 C115.501844,271.168421 115.078402,271.592632 115.078402,272.147368 C115.078402,272.702105 115.501844,273.126316 116.055575,273.126316 L335.593766,273.126316 L355.46295,273.289474 C355.46295,273.289474 355.46295,273.289474 355.46295,273.289474 C355.886392,273.289474 356.277261,273.028421 356.40755,272.604211 L370.674276,228.062105 C370.837138,227.637895 370.674276,227.181053 370.283406,226.952632 Z M334.258297,227.050526 C334.779456,226.561053 335.170325,226.430526 335.463477,226.430526 C335.724056,226.430526 335.919491,226.528421 336.049781,226.593684 C338.688147,228.127368 340.903073,237.851579 339.111589,247.608421 C335.268042,240.201053 331.35935,229.791579 334.258297,227.050526 Z M191.65619,260.726316 C185.141703,259.747368 172.37331,253.938947 171.526427,244.018947 C170.744688,234.457895 176.607726,229.595789 178.562072,228.257895 C178.692362,228.323158 178.822651,228.388421 178.952941,228.421053 L303.835645,246.466316 C303.868218,246.466316 303.933363,246.466316 303.965935,246.466316 C303.998507,246.466316 304.03108,246.466316 304.063652,246.466316 L331.391923,250.382105 C331.61993,252.535789 332.271378,262.227368 328.036962,271.168421 L214.945478,271.168421 C215.6295,266.143158 208.39842,263.271579 191.65619,260.726316 Z M335.202897,271.168421 L330.251888,271.168421 C334.095435,262.488421 333.704565,253.612632 333.443986,250.643158 L338.981299,251.426316 C339.079017,251.491579 339.176734,251.556842 339.274451,251.622105 C339.958472,254.363158 341.782529,264.250526 335.202897,271.168421 Z M341.587094,243.496842 C341.587094,243.333684 341.619666,243.137895 341.619666,242.974737 C342.108253,236.22 343.41115,229.497895 345.82151,229.106316 C345.919227,229.106316 346.016945,229.073684 346.114662,229.073684 C346.505531,229.073684 346.863828,229.236842 347.15698,229.922105 C348.459877,232.924211 346.538104,241.865263 341.424232,247.086316 C341.456804,245.944211 341.489377,244.704211 341.587094,243.496842 Z" id="Shape" fill="#1A1A1A"></path>
                        <path d="M272.012379,248.783158 L280.18806,257.136842 C280.839508,257.528421 285.888235,260.302105 294.063916,257.822105 C300.838982,255.766316 302.239596,253.253684 302.532748,252.372632 C301.066989,250.806316 295.041089,244.247368 286.832836,235.338947 C280.774363,242.909474 274.29245,247.347368 272.012379,248.783158 Z" id="Path" fill="#FFC600"></path>
                        <path d="M293.44504,240.984211 L253.478665,197.845263 C253.478665,197.845263 218.072432,154.543158 204.392011,155.195789 C190.711589,155.848421 182.470764,160.645263 182.470764,160.645263 L139.703161,181.529474 L115.176119,196.54 C115.176119,196.54 99.7367867,206.786316 82.1476734,207.275789 C82.1476734,207.275789 61.2035996,215.662105 39.5429324,226.593684 C17.8822651,237.525263 11.2049166,244.867368 11.2049166,244.867368 C11.2049166,244.867368 13.6804214,254.689474 19.0874451,263.402105 C22.7681299,269.341053 28.6963126,273.485263 35.5039508,275.018947 C42.8653205,276.650526 54.2982441,278.575789 65.9266023,278.184211 C89.3787533,277.401053 105.53468,274.986316 105.53468,274.986316 L125.599298,269.177895 L147.031958,257.006316 L194.848288,211.942105 L253.022651,255.44 L271.62151,249.501053 L280.05777,258.344211 L292.695874,260.236842 L304.226514,252.764211 L296.734855,244.345263" id="Path" fill="#FFC600"></path>
                        <path d="M217.258121,161.2 C217.258121,161.2 217.258121,161.167368 217.258121,161.2 C212.274539,157.447368 207.714399,155.065263 204.424583,155.228421 C200.90676,155.391579 197.747234,155.848421 195.01115,156.403158 C191.363038,156.501053 189.213257,157.806316 188.85496,158.034737 C184.750834,159.372632 182.503336,160.677895 182.503336,160.677895 L139.735733,181.562105 L139.735733,181.562105 C144.78446,183.617895 150.452063,183.454737 155.3705,181.105263 C164.686216,176.7 180.516418,169.227368 191.721335,163.941053 C199.441001,160.286316 208.658999,161.983158 214.587182,168.117895 L283.054434,238.961053 L287.353995,234.653684 C287.321422,234.686316 230.808253,171.674737 217.258121,161.2 Z" id="Path" fill="#FFFFFF"></path>
                        <path d="M67.1969271,213.214737 C67.0992098,212.953684 66.9037752,212.757895 66.6757682,212.66 C66.4477612,212.562105 66.1546093,212.562105 65.9266023,212.66 L64.0048288,213.475789 C63.5813872,213.671579 63.3533802,214.095789 63.418525,214.552632 C63.4836699,214.813684 68.3695347,242.289474 56.024583,248.522105 C55.6662862,248.685263 55.4708516,249.044211 55.5034241,249.435789 C55.5034241,249.827368 55.7640035,250.153684 56.1223003,250.316842 L62.5390694,252.927368 C62.6693591,252.96 62.7996488,252.992632 62.8973661,252.992632 C63.1579456,252.992632 63.3859526,252.894737 63.5813872,252.698947 C68.1089552,248.195789 70.5193152,241.897895 70.7798946,234.033684 C71.105619,223.363158 67.3597893,213.638947 67.1969271,213.214737 Z" id="Path" fill="#1A1A1A"></path>
                        <path d="M266.93108,250.708421 L203.023968,182.28 C198.463828,177.417895 190.841879,176.863158 185.63029,181.007368 C174.490518,189.883158 152.601844,207.047368 131.299473,222.286316 C105.53468,240.723158 88.2387182,250.904211 79.9653205,252.601053 C74.6885865,253.677895 69.4769974,253.090526 64.5911326,251.654737 C68.467252,247.249474 70.5518876,241.343158 70.7798946,234.098947 C71.1381914,223.395789 67.3923617,213.671579 67.2294996,213.247368 C67.034065,212.757895 66.4803336,212.496842 65.9591747,212.692632 C65.4705882,212.888421 65.2100088,213.443158 65.4054434,213.965263 C65.4380158,214.063158 69.1838455,223.754737 68.8255487,234.033684 C68.5975417,241.18 66.4803336,246.890526 62.5390694,251.002105 C57.0343284,249.044211 52.0507463,246.074737 48.109482,243.235789 C39.51036,237.068421 33.7450395,230.183158 33.6798946,230.117895 C33.3215979,229.693684 32.7027217,229.661053 32.3118525,229.987368 C31.8884109,230.346316 31.8558385,230.966316 32.1815628,231.357895 C32.4095698,231.651579 38.1423178,238.471579 46.9368745,244.769474 C56.4480246,251.589474 65.828885,255.113684 74.428007,255.113684 C76.4474978,255.113684 78.4344162,254.917895 80.3561896,254.526316 C99.8996488,250.545263 161.363828,202.870526 186.868042,182.573684 C191.297893,179.049474 197.779807,179.538947 201.623354,183.650526 L265.530465,252.078947 C265.888762,252.470526 266.507638,252.503158 266.898507,252.111579 C267.256804,251.72 267.289377,251.1 266.93108,250.708421 Z" id="Path" fill="#FFFFFF"></path>
                        <path d="M287.321422,234.686316 C287.321422,234.686316 282.370413,247.249474 273.90158,251.72 L271.654013,249.533684 C271.62151,249.566316 283.054434,242.550526 287.321422,234.686316 Z" id="Path" fill="#1A1A1A"></path>
                        <path d="M353.020018,251.067368 C352.564004,250.284211 351.554258,250.023158 350.805092,250.48 C350.023354,250.936842 349.762774,251.948421 350.218788,252.698947 C352.205707,256.06 354.485777,259.943158 357.058999,264.283158 L358.394469,260.138947 C356.40755,256.843158 354.616067,253.775789 353.020018,251.067368 Z" id="Path" fill="#FFC600"></path>
                        <path d="M359.697366,247.902105 C358.264179,245.585263 356.896137,243.398947 355.658385,241.016842 C355.234943,240.233684 354.25777,239.907368 353.443459,240.331579 C352.661721,240.755789 352.335996,241.734737 352.759438,242.550526 C354.062335,245.030526 355.528095,247.38 356.928709,249.631579 C357.971027,251.328421 359.045917,253.057895 360.055663,254.852632 L361.391133,250.675789 C360.837401,249.729474 360.28367,248.815789 359.697366,247.902105 Z" id="Path" fill="#FFC600"></path>
                        <ellipse id="Oval" fill="#FFFFFF" transform="translate(192.648249, 40.079234) rotate(-84.574165) translate(-192.648249, -40.079234) " cx="192.648249" cy="40.079234" rx="2.87147653" ry="5.53729527"></ellipse>
                        <path d="M197.258648,37.5915789 C196.151185,36.8736842 194.620281,36.3842105 192.991659,36.2536842 C189.278402,35.8947368 186.346883,37.2652632 186.151449,39.4515789 C186.053731,40.5936842 186.70518,41.7031579 188.008077,42.5189474 C189.11554,43.2368421 190.646444,43.7263158 192.275066,43.8568421 C192.665935,43.8894737 193.056804,43.9221053 193.415101,43.9221053 C196.574627,43.9221053 198.952414,42.6168421 199.115277,40.6589474 C199.245566,39.5494737 198.561545,38.44 197.258648,37.5915789 Z M192.4705,41.9315789 C191.167603,41.8010526 189.929851,41.4094737 189.082968,40.8873684 C188.431519,40.4631579 188.073222,40.0063158 188.105795,39.6473684 C188.170939,38.9621053 189.636699,38.1789474 191.884197,38.1789474 C192.177349,38.1789474 192.503073,38.1789474 192.828797,38.2115789 C192.926514,38.2115789 192.991659,38.2442105 193.089377,38.2442105 C192.437928,38.6357895 192.014486,39.1578947 191.949342,39.7778947 C191.884197,40.5936842 192.4705,41.3768421 193.480246,41.9968421 C193.154522,41.9642105 192.828797,41.9642105 192.4705,41.9315789 Z" id="Shape" fill="#1A1A1A"></path>
                        <path d="M176.477436,39.4189474 L175.565408,35.96 C175.72827,35.7968421 175.85856,35.6336842 176.021422,35.5031579 C176.412291,35.1115789 176.412291,34.4915789 176.021422,34.1326316 C175.630553,33.7410526 175.011677,33.7410526 174.65338,34.1326316 C171.689289,37.1021053 171.624144,37.2978947 171.526427,37.5589474 C171.363565,38.0810526 171.624144,38.6357895 172.145303,38.7989474 C172.24302,38.8315789 172.340737,38.8642105 172.438455,38.8642105 C172.764179,38.8642105 173.089903,38.6684211 173.285338,38.3747368 C173.383055,38.2442105 173.643635,37.9831579 173.969359,37.6242105 L174.588235,39.9410526 C174.718525,40.3652632 175.109394,40.6589474 175.532836,40.6589474 C175.630553,40.6589474 175.695698,40.6589474 175.793415,40.6263158 C176.314574,40.4957895 176.640299,39.9410526 176.477436,39.4189474 Z" id="Path" fill="#1A1A1A"></path>
                        <path d="M324.291133,259.584211 C317.939508,256.484211 313.086216,254.461053 309.698683,253.155789 C312.271905,253.057895 315.040562,252.535789 317.744074,251.524211 C321.815628,250.023158 325.040299,247.771579 326.147761,245.650526 C326.896927,244.182105 326.66892,242.746316 325.528885,241.734737 C324.063126,240.429474 321.587621,240.56 318.037226,242.126316 C320.708165,238.993684 322.239069,235.893684 321.913345,233.707368 C321.783055,232.826316 321.164179,231.292632 318.786392,230.966316 C312.271905,230.085263 305.399122,245.161053 303.281914,250.251579 C294.585075,240.821053 234.358648,175.46 221.883406,163.418947 C211.75338,153.629474 198.919842,151.867368 184.815979,158.328421 C184.555399,158.458947 184.229675,158.589474 183.903951,158.752632 L196.900351,80.8610526 C197.160931,80.6 197.454083,80.3063158 197.812379,79.98 C199.603863,78.2831579 202.307375,75.7378947 203.740562,72.1157895 C205.499473,67.6126316 205.401756,64.1863158 203.349693,61.6084211 C202.014223,59.9115789 200.515891,59.2263158 199.441001,58.9978947 C200.255312,57.2031579 200.90676,55.2126316 201.395347,53.0915789 C201.623354,52.7978947 202.633099,52.1778947 203.382265,51.7536842 C205.206321,50.6768421 207.486392,49.3063158 208.724144,47.3484211 C209.147586,46.6631579 209.115013,46.0431579 208.984723,45.6515789 C208.561282,44.2484211 206.672081,43.3673684 204.685162,42.4536842 C203.707989,41.9968421 202.11194,41.2789474 201.883933,40.8547368 C201.525637,33.3494737 199.799298,27.0842105 198.75698,23.8536842 C201.069622,20.4273684 202.502809,16.8052632 202.828534,13.3789474 C203.219403,9.07157895 201.786216,5.48210526 198.659263,2.96947368 C194.587709,-0.293684211 188.952678,-0.587368421 182.340474,2.05578947 C179.148376,3.36105263 176.444864,5.02526316 174.946532,6.03684211 C174.881387,6.10210526 174.848815,6.13473684 174.78367,6.2 L168.432046,10.7684211 C168.269183,10.8989474 168.073749,10.9642105 167.878314,10.9642105 C167.585162,10.9642105 167.259438,10.8336842 167.096576,10.54 C166.770852,10.1157895 166.868569,9.49578947 167.324583,9.16947368 L171.721861,6.00421053 C168.041176,5.28631579 164.262774,5.58 160.744952,6.91789474 C158.790606,7.66842105 156.933977,8.74526316 155.175066,10.1484211 L152.536699,6.46105263 C152.210975,6.03684211 151.624671,5.90631579 151.168657,6.23263158 C150.745215,6.55894737 150.614925,7.14631579 150.94065,7.60315789 L153.676734,11.4536842 C153.318437,11.78 152.992713,12.1063158 152.634416,12.4652632 L149.018876,12.2368421 C148.497717,12.2042105 148.009131,12.6284211 147.976558,13.1505263 C147.943986,13.7052632 148.367428,14.1621053 148.888586,14.1947368 L151.038367,14.3252632 C149.800615,15.8915789 148.660579,17.6210526 147.650834,19.5463158 C144.523881,25.5505263 143.383845,31.2610526 144.295874,36.5473684 C145.077612,41.0831579 147.19482,44.4442105 148.953731,46.8915789 C149.214311,47.2505263 149.47489,47.5768421 149.800615,47.9357895 L133.579543,62.3263158 C131.722915,62.3589474 123.449517,62.7178947 111.43029,66.4378947 C99.085338,70.2557895 80.3887621,78.5442105 61.3013169,96.1978947 C42.7676032,113.329474 27.295698,136.889474 16.4816506,164.397895 C5.27673398,192.885263 -0.390869183,224.505263 0.0977172959,255.831579 C0.0977172959,256.157895 0.130289728,258.311579 1.85662862,260.008421 C3.22467076,261.378947 5.24416155,262.031579 7.8499561,262.031579 C8.14310799,262.031579 8.43625988,262.031579 8.7619842,261.998947 C12.4752414,261.868421 14.6901668,260.856842 15.7976295,260.138947 C19.1851624,266.110526 23.0287094,270.32 27.1979807,272.636842 C35.8296752,277.433684 50.1289728,279 65.0471466,279 C74.7863038,279 84.7860404,278.347368 93.6457419,277.466316 C105.013521,276.356842 116.12072,273.485263 126.576471,268.949474 C137.064794,264.381053 146.706234,258.246316 155.272783,250.643158 C157.976295,248.228421 160.744952,245.715789 163.513608,243.105263 C182.894205,224.798947 192.665935,215.498947 195.043723,213.214737 L218.85417,231.096842 C218.919315,231.162105 218.98446,231.194737 219.082177,231.227368 L252.240913,256.06 C252.436348,256.190526 252.664355,256.255789 252.892362,256.255789 C253.250658,256.223158 261.621773,255.537895 271.035206,250.447368 L278.559438,258.115789 L275.009043,271.821053 C274.943898,272.114737 275.009043,272.441053 275.171905,272.669474 C275.334767,272.897895 275.627919,273.061053 275.953644,273.061053 L335.724056,273.061053 C335.984636,273.061053 336.245215,272.963158 336.44065,272.734737 C336.636084,272.538947 336.733802,272.277895 336.701229,271.984211 C336.603512,271.788421 335.952063,265.262105 324.291133,259.584211 Z M201.721071,62.8484211 C203.31712,64.8715789 203.349693,67.58 201.818788,71.4305263 C200.548464,74.6610526 198.040386,77.0431579 196.379192,78.6094737 C195.923178,79.0663158 195.499737,79.4252632 195.174012,79.7842105 C195.043723,79.9147368 194.946005,80.1105263 194.913433,80.2736842 L181.656453,159.796842 C179.018086,161.069474 175.402546,162.831579 171.363565,164.789474 C171.330992,164.724211 171.265847,164.691579 171.200702,164.658947 C170.874978,164.430526 163.057594,158.785263 152.210975,156.990526 C150.452063,156.696842 148.26971,156.370526 145.85935,156.076842 C147.19482,153.923158 149.996049,147.853684 157.617998,130.558947 C158.334592,128.927368 159.018613,127.328421 159.670061,125.86 C160.907814,123.053684 162.471291,119.464211 164.262774,115.352632 C170.614399,100.766316 182.438191,73.5842105 184.099385,71.9526316 C185.434855,70.8431579 186.281738,69.8968421 186.542318,69.2768421 C186.640035,69.2768421 186.737752,69.2768421 186.83547,69.2768421 C186.900615,69.9947368 186.998332,70.4189474 186.998332,70.4189474 C187.030904,70.5494737 187.096049,70.68 187.161194,70.8105263 C187.584636,71.3652632 188.073222,71.4957895 188.398946,71.4957895 C188.464091,71.4957895 188.561809,71.4957895 188.594381,71.4957895 C189.148112,71.3978947 189.636699,71.0389474 190.092713,70.2557895 C190.157858,71.2021053 190.288147,71.7894737 190.288147,71.8221053 C190.32072,71.9526316 190.385865,72.0831579 190.45101,72.2136842 C190.874451,72.7684211 191.363038,72.8989474 191.688762,72.8989474 C191.786479,72.8989474 191.884197,72.8989474 191.949342,72.8663158 C192.698507,72.7031579 193.415101,72.0505263 194.294557,69.7663158 C194.522564,70.6473684 194.848288,71.1368421 194.913433,71.2347368 C195.369447,71.8547368 195.890606,71.9852632 196.281475,71.9852632 C196.379192,71.9852632 196.47691,71.9852632 196.574627,71.9526316 C197.975241,71.6589474 198.75698,69.5378947 199.897015,65.1978947 C199.96216,64.9042105 200.027305,64.6431579 200.09245,64.4473684 C200.222739,63.9252632 199.929587,63.4031579 199.408428,63.24 C198.88727,63.1094737 198.366111,63.4031579 198.203248,63.9252632 C198.138104,64.1536842 198.072959,64.4147368 198.007814,64.7084211 C197.747234,65.7526316 196.998068,68.6242105 196.379192,69.7010526 C196.118613,68.9831579 195.662599,67.0578947 196.737489,63.6315789 C196.770061,63.5336842 196.770061,63.4357895 196.770061,63.3052632 C197.323793,62.5547368 197.844952,61.7389474 198.333538,60.8578947 C199.082704,60.9231579 200.450746,61.2168421 201.721071,62.8484211 Z M107.456453,167.465263 C107.456453,167.497895 107.456453,167.530526 107.456453,167.563158 C107.456453,167.595789 107.456453,167.595789 107.489025,167.628421 C107.489025,167.661053 107.521598,167.693684 107.521598,167.726316 C107.521598,167.758947 107.55417,167.758947 107.55417,167.791579 C107.55417,167.824211 107.586743,167.856842 107.586743,167.889474 C107.586743,167.922105 107.619315,167.922105 107.619315,167.954737 C107.651888,167.987368 107.651888,168.02 107.68446,168.052632 C107.717032,168.085263 107.717032,168.085263 107.749605,168.117895 C107.782177,168.150526 107.81475,168.150526 107.81475,168.183158 C107.847322,168.215789 107.847322,168.215789 107.879895,168.215789 C107.879895,168.215789 107.912467,168.248421 107.912467,168.248421 C107.912467,168.248421 107.94504,168.248421 107.94504,168.281053 C107.977612,168.281053 107.977612,168.313684 108.010184,168.313684 C108.042757,168.313684 108.075329,168.346316 108.107902,168.346316 C108.140474,168.346316 108.140474,168.346316 108.173047,168.378947 C108.238191,168.411579 108.335909,168.411579 108.401054,168.411579 C108.466198,168.411579 108.531343,168.411579 108.596488,168.378947 C108.596488,168.378947 108.629061,168.378947 108.629061,168.378947 C108.694205,168.378947 108.75935,168.346316 108.824495,168.313684 C108.824495,168.313684 108.824495,168.313684 108.857068,168.313684 C108.922212,168.281053 108.954785,168.248421 109.01993,168.215789 C109.01993,168.215789 109.052502,168.215789 109.052502,168.183158 C109.117647,168.150526 109.150219,168.085263 109.182792,168.052632 C109.182792,168.052632 109.182792,168.052632 109.182792,168.052632 C109.280509,167.954737 118.172783,156.892632 132.504653,156.468421 C139.670588,157.251579 147.292537,158.197895 151.917823,158.948421 C160.516945,160.384211 167.292011,164.430526 169.376646,165.833684 C156.054522,172.36 139.507726,180.615789 139.247147,180.713684 C139.247147,180.713684 139.247147,180.713684 139.214574,180.713684 C139.182002,180.713684 139.182002,180.713684 139.149429,180.746316 L117.586479,193.962105 C114.329236,195.887368 111.137138,197.682105 108.368481,199.117895 C103.971203,201.075789 95.7303775,204.338947 87.2289728,205.84 C80.6493415,206.721053 73.0925373,206.655789 65.6660228,204.143158 C57.6206321,201.141053 52.8324846,196.409474 52.7673398,196.344211 C52.6696225,196.246316 52.5719052,196.181053 52.4416155,196.148421 C46.9694469,190.470526 43.7447761,182.28 43.0933275,172.066316 C42.2138718,158.850526 45.7316945,143.415789 53.2233538,127.426316 C54.0376646,125.696842 54.8519754,124.032632 55.6662862,122.401053 C55.7965759,122.335789 66.1546093,116.592632 88.9553117,123.184211 C89.3461809,123.314737 89.73705,123.445263 90.1279192,123.575789 C103.482616,128.242105 111.756014,134.54 117.781914,143.350526 L113.514925,153.172632 C113.384636,153.270526 113.254346,153.401053 113.189201,153.596842 L107.489025,167.073684 L107.489025,167.073684 L107.489025,167.073684 L107.489025,167.073684 C107.456453,167.138947 107.456453,167.204211 107.423881,167.236842 C107.423881,167.269474 107.423881,167.269474 107.423881,167.302105 C107.423881,167.334737 107.423881,167.4 107.423881,167.432632 C107.456453,167.4 107.456453,167.432632 107.456453,167.465263 Z M158.790606,123.053684 L161.689552,90.9768421 L166.901141,80.0452632 C166.933714,79.98 166.966286,79.9473684 166.998859,79.8821053 L173.806497,65.5568421 C176.900878,67.1231579 180.711853,68.6242105 184.29482,69.0810526 C184.001668,69.4073684 183.578227,69.8315789 182.894205,70.3863158 C181.363301,71.6915789 174.816242,86.2778947 162.503863,114.504211 C161.103248,117.734737 159.865496,120.606316 158.790606,123.053684 Z M192.079631,67.6778947 C192.503073,67.4494737 192.893942,67.1884211 193.284811,66.8947368 C192.796225,68.4936842 192.405356,69.4726316 192.112204,70.06 C192.079631,69.44 192.047059,68.6242105 192.079631,67.6778947 Z M151.070939,49.3389474 C153.611589,51.5578947 157.031694,53.0589474 160.712379,53.0589474 C162.666725,53.0589474 164.718788,52.6347368 166.738279,51.6884211 C168.432046,50.8726316 169.865233,49.9589474 171.005268,48.9473684 C173.089903,47.0873684 173.383055,43.8894737 171.689289,41.6705263 C170.288674,39.8757895 169.83266,37.6242105 170.451536,35.5357895 C170.90755,33.9042105 171.982441,32.5989474 173.187621,32.1421053 C174.295083,31.7178947 175.369974,31.7178947 176.184284,32.1094737 C176.868306,32.4357895 177.389464,33.0557895 177.682616,33.9042105 C178.13863,35.3073684 179.115803,36.3842105 180.451273,36.9063158 C181.623881,37.3631579 182.926778,37.3631579 183.871378,36.8410526 C189.278402,33.9694737 193.903687,30.0536842 197.226076,25.7789474 C198.235821,29.1726316 199.538718,34.6221053 199.864442,40.9526316 C199.929587,42.3884211 201.721071,43.2368421 203.805707,44.1831579 C204.750307,44.6073684 206.965233,45.6515789 207.06295,46.1736842 C207.06295,46.1736842 207.06295,46.2063158 207.030378,46.2715789 C206.053205,47.8378947 204.001141,49.0778947 202.339947,50.0568421 C200.743898,51.0031579 199.669008,51.6557895 199.473573,52.6021053 C199.180421,53.9073684 198.822125,55.1473684 198.398683,56.3221053 L190.581299,57.5947368 C190.06014,57.6926316 189.701844,58.1821053 189.766989,58.7042105 C189.832133,59.1936842 190.255575,59.52 190.744162,59.52 C190.809306,59.52 190.841879,59.52 190.907024,59.52 L197.519227,58.4431579 C195.14144,63.5989474 191.39561,66.8621053 187.258911,67.1884211 C181.428446,67.6452632 173.611062,63.3378947 170.158385,61.1842105 L168.334328,60.0094737 C168.301756,59.9768421 168.236611,59.9442105 168.204039,59.9442105 C168.204039,59.9442105 168.171466,59.9442105 168.171466,59.9442105 C168.138894,59.9115789 168.073749,59.9115789 168.041176,59.9115789 C168.008604,59.9115789 168.008604,59.9115789 167.976032,59.9115789 C167.943459,59.9115789 167.910887,59.9115789 167.845742,59.9115789 C167.813169,59.9115789 167.813169,59.9115789 167.780597,59.9115789 C167.748025,59.9115789 167.68288,59.9115789 167.650307,59.9115789 C167.650307,59.9115789 167.617735,59.9115789 167.617735,59.9115789 C167.55259,59.9115789 167.520018,59.9442105 167.454873,59.9442105 C167.454873,59.9442105 167.4223,59.9442105 167.4223,59.9768421 C167.389728,60.0094737 167.357155,60.0094737 167.292011,60.0421053 C167.259438,60.0421053 167.259438,60.0747368 167.226866,60.0747368 C167.226866,60.0747368 167.194293,60.1073684 167.194293,60.1073684 C167.161721,60.1073684 167.161721,60.14 167.161721,60.14 C167.161721,60.14 167.129148,60.1726316 167.129148,60.1726316 C167.096576,60.2052632 167.064004,60.2705263 167.031431,60.3031579 C167.031431,60.3031579 167.031431,60.3031579 167.031431,60.3031579 C167.031431,60.3031579 167.031431,60.3031579 167.031431,60.3031579 C166.998859,60.3357895 166.966286,60.4010526 166.933714,60.4663158 C166.933714,60.4989474 166.933714,60.4989474 166.901141,60.5315789 C166.901141,60.5642105 166.868569,60.5968421 166.868569,60.6294737 C166.868569,60.6621053 166.868569,60.6621053 166.868569,60.6947368 C166.868569,60.7273684 166.868569,60.7926316 166.868569,60.8252632 C166.868569,60.8252632 166.868569,60.8578947 166.868569,60.8578947 C166.868569,60.9231579 166.868569,60.9884211 166.868569,61.0210526 C166.868569,61.0210526 166.868569,61.0536842 166.868569,61.0536842 C166.868569,61.0863158 166.868569,61.1189474 166.901141,61.1515789 C166.933714,61.2168421 169.311501,68.9178947 165.435382,78.7726316 L160.158648,89.8021053 C159.507199,89.8673684 158.139157,89.9 156.249956,89.5410526 C153.741879,89.0515789 149.768042,87.7463158 145.110184,84.1894737 C137.064794,78.0873684 135.27331,66.1768421 134.947586,63.6642105 L151.070939,49.3389474 Z M90.6816506,77.4021053 C90.7467954,77.3694737 90.8119403,77.3042105 90.8770852,77.2715789 C98.857331,72.9642105 106.055838,70.1578947 111.853731,68.3631579 C122.635206,65.0021053 130.485162,64.4147368 133.025812,64.3168421 C133.449254,67.7105263 135.501317,79.4252632 143.905004,85.7884211 C150.81036,91.0421053 156.380246,91.8252632 159.148903,91.8252632 C159.24662,91.8252632 159.344337,91.8252632 159.409482,91.8252632 L139.182002,155.195789 C137.032221,154.934737 134.849868,154.706316 132.700088,154.445263 L132.700088,154.445263 L132.700088,154.445263 C125.403863,153.629474 118.596225,152.944211 115.957858,152.683158 L117.260755,149.681053 C117.586479,149.713684 118.107638,149.713684 118.759087,149.713684 C119.312818,149.713684 119.931694,149.681053 120.615716,149.648421 C123.416945,149.42 125.371291,148.636842 126.446181,147.331579 C126.771905,146.94 126.96734,146.483158 127.097629,145.961053 C127.130202,145.895789 127.195347,145.830526 127.195347,145.732632 L140.940913,107.847368 C141.136348,107.325263 140.875768,106.770526 140.354609,106.607368 C139.83345,106.411579 139.279719,106.672632 139.116857,107.194737 L126.446181,142.175789 C124.719842,138.716842 119.019666,132.288421 100.45338,124.913684 C76.1869183,115.287368 62.4087796,117.865263 57.2297629,119.627368 C65.5683055,103.54 73.5811238,93.3589474 79.1184372,87.3873684 C85.9260755,80.0126316 90.6165057,77.4021053 90.6816506,77.4021053 Z M9.90201932,244.736842 C9.90201932,244.736842 9.90201932,244.736842 9.90201932,244.736842 C9.67401229,244.932632 4.98358209,248.717895 1.92121499,252.666316 C1.85662862,222.612632 7.49165935,192.395789 18.2079895,165.115789 C28.9243196,137.901053 44.2333626,114.569474 62.5390694,97.6336842 C68.239245,92.38 73.8742757,87.9747368 79.3464442,84.2547368 C78.8252853,84.8094737 78.271554,85.3642105 77.7178227,85.9515789 C71.2033363,92.9021053 61.3990342,105.595789 51.5621598,126.512632 C37.4582968,156.566316 37.7514486,184.303158 51.6924495,197.975789 C52.5719052,199.150526 55.1776997,202.283158 59.6075505,205.448421 C62.213345,207.308421 65.6985953,209.331579 70.0958736,210.832632 C68.8581212,211.322105 67.5226514,211.844211 66.1220369,212.431579 C56.6108867,216.412632 41.5949956,223.493684 23.9081651,234.653684 C17.9148376,238.438947 13.3872695,241.832632 9.96716418,244.704211 C9.93459175,244.736842 9.90201932,244.736842 9.90201932,244.736842 Z M270.67691,248.456842 C262.468657,253.057895 254.74899,254.134737 253.022651,254.330526 L220.873661,230.248421 L222.306848,228.845263 C222.958297,228.225263 223.316594,227.344211 223.284021,226.430526 C223.251449,225.516842 222.860579,224.668421 222.176558,224.081053 L215.759789,218.598947 C215.49921,218.370526 215.336348,218.044211 215.336348,217.685263 C215.336348,217.326316 215.466637,217 215.694644,216.738947 C216.313521,216.118947 216.671817,215.237895 216.639245,214.324211 C216.606673,213.443158 216.183231,212.594737 215.49921,212.007368 L205.85777,203.914737 C204.587445,202.870526 202.763389,202.935789 201.590781,204.077895 L194.196839,211.224211 C194.001405,211.387368 184.490255,220.491579 162.080421,241.669474 C159.344337,244.247368 156.57568,246.792632 153.904741,249.174737 C145.501054,256.614737 136.022476,262.651579 125.729587,267.122105 C115.436699,271.592632 104.557507,274.398947 93.3851624,275.508421 C53.2233538,279.391579 35.6993854,275.149474 28.0774363,270.907368 C22.6052678,267.84 18.4685689,261.509474 15.6999122,255.896842 C14.5924495,253.351579 12.8986831,249.24 11.6935031,245.781053 C14.9181738,243.105263 19.2503073,239.874737 24.9504829,236.252632 C45.6665496,223.167368 62.9299385,215.596842 73.1576822,211.681053 C76.3497805,212.496842 79.9001756,213.018947 83.8414399,213.018947 C84.0694469,213.018947 84.2974539,213.018947 84.5254609,213.018947 C93.7760316,212.888421 105.990694,207.634737 120.843723,197.453684 C131.234328,190.34 139.312291,183.161053 140.256892,182.312632 C142.63468,181.137895 178.366637,163.386316 185.532572,160.090526 C198.854697,153.988421 210.939069,155.62 220.450219,164.789474 C229.635645,173.665263 264.813872,211.550526 286.116242,234.588421 C284.585338,236.644211 278.689728,243.953684 270.67691,248.456842 Z M299.34065,255.603158 C298.102897,256.353684 296.409131,257.104211 294.031343,257.822105 C293.18446,258.083158 292.370149,258.278947 291.588411,258.442105 C291.555838,258.442105 291.555838,258.442105 291.523266,258.442105 C285.041352,258.996842 281.816681,257.92 280.676646,257.397895 C280.448639,257.267368 280.253205,257.169474 280.18806,257.136842 L275.23705,252.078947 C278.592011,250.055789 281.751536,246.694737 284.61791,242.028421 C286.08367,239.678947 287.093415,237.590526 287.679719,236.317895 C295.236523,244.475789 300.773837,250.512632 302.369886,252.242105 C301.946444,252.992632 301.001844,254.330526 299.34065,255.603158 Z M318.134943,232.891579 C318.23266,232.891579 318.36295,232.891579 318.460667,232.924211 C319.796137,233.12 319.893854,233.772632 319.926427,234.033684 C320.415013,237.068421 314.258824,244.9 305.594557,249.696842 C308.8518,242.224211 314.226251,232.891579 318.134943,232.891579 Z M307.483758,251.165263 C308.428358,250.414737 309.405531,249.696842 310.415277,248.978947 C310.545566,248.881053 310.643284,248.815789 310.773573,248.717895 C316.310887,244.802105 322.369359,241.604211 324.193415,243.203158 C324.551712,243.529474 324.812291,243.921053 324.38885,244.769474 C322.890518,247.641053 314.779982,251.817895 307.483758,251.165263 Z" id="Shape" fill="#1A1A1A"></path>
                        <path d="M294.454785,271.168421 C297.256014,268.362105 299.796664,265.816842 302.044162,263.565263 C302.69561,262.945263 302.69561,261.901053 302.044162,261.248421 C301.425285,260.595789 300.382968,260.595789 299.731519,261.248421 C296.865145,264.12 293.510184,267.448421 289.8295,271.168421 L294.454785,271.168421 L294.454785,271.168421 Z" id="Path" fill="#FFC600"></path>
                        <path d="M300.350395,271.168421 L304.943108,271.168421 C305.561984,270.515789 306.18086,269.895789 306.799737,269.243158 C308.688938,267.252632 310.480421,265.392632 312.46734,263.597895 C313.118788,262.977895 313.183933,261.966316 312.597629,261.281053 C311.978753,260.628421 310.969008,260.563158 310.284987,261.150526 C308.232924,263.010526 306.31115,265.033684 304.454522,266.958947 C303.119052,268.394737 301.783582,269.797895 300.350395,271.168421 Z" id="Path" fill="#FFC600"></path>
                    </g>
                    <path d="M269.877082,38.6204526 C269.68207,38.2285878 269.292045,38 268.902019,38 L252.163435,38 C251.77341,38 251.448389,38.1959324 251.220874,38.5224864 L181.178837,150.301919 C180.853816,150.79175 180.983824,151.444858 181.471356,151.804068 C181.666368,151.934689 181.893883,152 182.088896,152 C182.413917,152 182.738938,151.836723 182.966452,151.57548 L269.747074,39.796047 C270.039593,39.4368376 270.072095,39.0123174 269.877082,38.6204526 Z" id="Path" fill="#FFFFFF"></path>
                    <path d="M91.5867169,302.180564 C91.1628368,301.890018 90.608532,301.954584 90.2824704,302.341978 L42.220987,359.321289 C41.9927439,359.611835 41.9275315,359.99923 42.0905623,360.354342 C42.2535932,360.709454 42.5796548,360.903151 42.9709287,360.903151 L56.1438183,361 C56.1438183,361 56.1438183,361 56.1438183,361 C56.46988,361 56.7959416,360.838586 56.9915786,360.548039 L91.8801724,303.47188 C92.1084155,303.019919 92.010597,302.47111 91.5867169,302.180564 Z" id="Path" fill="#FFFFFF"></path>
                    <path d="M230.85026,56.5640732 C230.650607,56.1990847 230.284575,56 229.851993,56 L221.965685,56 C221.533102,56 221.167071,56.2322654 220.967418,56.597254 L207.124783,82.909611 C206.958406,83.2414188 206.958406,83.6395881 207.124783,83.9713959 C207.291161,84.3032037 207.657192,84.5354691 208.023224,84.5354691 L213.74662,85 C213.779896,85 213.813172,85 213.846447,85 C214.245754,85 214.611785,84.8009153 214.811438,84.4359268 L230.85026,57.6590389 C231.049913,57.3272311 231.049913,56.895881 230.85026,56.5640732 Z" id="Path" fill="#FFFFFF"></path>
                    <g id="Group" transform="translate(2.000000, 0.000000)">
                        <path d="M301.727987,1.584 L1.33724435,1.584 C0.717545748,1.584 0.228310011,2.079 0.228310011,2.706 L0.228310011,11.616 C0.228310011,21.978 8.54531755,30.393 18.7866523,30.393 L284.213348,30.393 C294.454682,30.393 302.77169,21.978 302.77169,11.616 L302.77169,2.706 C302.836921,2.079 302.31507,1.584 301.727987,1.584 Z" id="Path" fill="#1A1A1A"></path>
                        <g transform="translate(0.652314, 0.000000)" fill="#FFC600">
                            <path d="M127.331755,32.802 C126.875135,32.802 126.483746,32.472 126.385899,32.01 C126.124973,30.756 126.320667,29.667 126.972982,28.743 C128.864693,26.037 134.246286,25.311 142.3676,24.222 C151.010764,23.067 162.817653,21.483 174.396233,16.533 C185.257266,11.847 197.096771,10.494 207.501184,9.273 C219.797309,7.854 229.484177,6.699 232.289128,0.891 C232.517438,0.396 233.104521,0.198 233.593757,0.429 C234.082992,0.66 234.278687,1.254 234.050377,1.749 C230.788805,8.547 220.612702,9.735 207.729494,11.253 C197.455544,12.441 185.779117,13.827 175.17901,18.381 C163.372121,23.463 151.402153,25.047 142.661141,26.235 C135.583531,27.192 130.006243,27.918 128.603767,29.931 C128.27761,30.393 128.179763,30.954 128.342842,31.647 C128.440689,32.175 128.114532,32.703 127.59268,32.835 C127.462217,32.769 127.396986,32.802 127.331755,32.802 Z" id="Path"></path>
                            <path d="M109.784499,32.571 C109.360495,32.571 108.969107,32.307 108.838644,31.845 C104.011518,15.18 50.0651238,13.53 1.20678149,17.523 C0.652314316,17.556 0.195694295,17.16 0.163078579,16.632 C0.130462863,16.071 0.521851453,15.609 1.04370291,15.576 C11.1545748,14.751 37.2797632,12.969 61.2523143,14.223 C91.2587729,15.807 107.892788,21.549 110.730355,31.317 C110.893434,31.845 110.599892,32.406 110.078041,32.538 C109.980194,32.571 109.882347,32.571 109.784499,32.571 Z" id="Path"></path>
                            <path d="M135.811841,14.982 C133.235199,14.982 130.625942,14.916 127.886222,14.784 C112.882992,14.025 84.7356297,11.484 64.7748116,2.706 C64.2855759,2.475 64.0572659,1.914 64.2529602,1.419 C64.4812702,0.924 65.0357374,0.693 65.5249731,0.891 C85.2248654,9.537 113.111302,12.045 127.984069,12.804 C158.414532,14.322 179.5169,6.798 191.878256,0.198 C192.367492,-0.066 192.954575,0.132 193.215501,0.627 C193.476426,1.122 193.280732,1.716 192.791496,1.98 C181.310764,8.085 162.458881,14.982 135.811841,14.982 Z" id="Path"></path>
                            <path d="M174.689774,32.769 C174.526695,32.769 174.363617,32.736 174.233154,32.637 C173.743918,32.373 173.58084,31.779 173.841765,31.284 C177.038105,25.212 183.16986,21.813 192.07395,21.12 C216.992357,19.272 225.048439,17.424 245.922497,8.91 C256.131216,4.719 265.981163,3.861 276.026803,6.204 C284.833046,8.283 292.660818,12.507 300.195048,16.599 L301.17352,17.127 C301.662756,17.391 301.825834,17.985 301.564909,18.48 C301.303983,18.975 300.7169,19.14 300.227664,18.876 L299.249193,18.348 C284.180732,10.197 268.623036,1.749 246.607427,10.758 C225.505059,19.371 217.35113,21.219 192.171798,23.133 C183.952637,23.76 178.37535,26.829 175.505167,32.241 C175.374704,32.571 175.048547,32.769 174.689774,32.769 Z" id="Path"></path>
                            <path d="M264.350377,25.74 C255.446286,25.74 246.411733,23.76 246.411733,19.965 C246.411733,16.17 255.446286,14.19 264.350377,14.19 C273.254467,14.19 282.28902,16.17 282.28902,19.965 C282.28902,23.76 273.254467,25.74 264.350377,25.74 Z M264.350377,16.17 C254.011195,16.17 248.368676,18.678 248.368676,19.965 C248.368676,21.252 254.011195,23.76 264.350377,23.76 C274.689559,23.76 280.332078,21.252 280.332078,19.965 C280.332078,18.678 274.689559,16.17 264.350377,16.17 Z" id="Shape"></path>
                        </g>
                    </g>
                </g>
            </g>
        </g>
    </g>
</svg>